<svg version="1.1" viewBox="0.0 0.0 887.8950131233596 250.5511811023622" fill="none" stroke="none" stroke-linecap="square" stroke-miterlimit="10" xmlns:xlink="http://www.w3.org/1999/xlink" xmlns="http://www.w3.org/2000/svg"><clipPath id="p.0"><path d="m0 0l887.895 0l0 250.55118l-887.895 0l0 -250.55118z" clip-rule="nonzero"/></clipPath><g clip-path="url(#p.0)"><path fill="#000000" fill-opacity="0.0" d="m0 0l887.895 0l0 250.55118l-887.895 0z" fill-rule="evenodd"/><path fill="#ff6666" fill-opacity="0.6089" d="m355.34015 50.737534l174.48816 0l0 186.99213l-174.48816 0z" fill-rule="evenodd"/><path stroke="#ffffff" stroke-width="1.0" stroke-linejoin="round" stroke-linecap="butt" d="m355.34015 50.737534l174.48816 0l0 186.99213l-174.48816 0z" fill-rule="evenodd"/><path fill="#000000" d="m369.3089 212.26028q2.015625 0 3.453125 0.734375q1.4375 0.71875 2.203125 2.09375q0.765625 1.359375 0.765625 3.25q0 1.875 -0.765625 3.234375q-0.765625 1.359375 -2.203125 2.078125q-1.4375 0.71875 -3.453125 0.71875l-3.578125 0l0 -12.109375l3.578125 0zm0 11.109375q2.53125 0 3.859375 -1.328125q1.328125 -1.328125 1.328125 -3.703125q0 -2.390625 -1.328125 -3.734375q-1.328125 -1.34375 -3.859375 -1.34375l-2.375 0l0 10.109375l2.375 0zm12.796082 1.140625q-1.34375 0 -2.40625 -0.59375q-1.0625 -0.609375 -1.6875 -1.703125q-0.609375 -1.09375 -0.609375 -2.578125q0 -1.46875 0.625 -2.5625q0.625 -1.109375 1.703125 -1.703125q1.078125 -0.59375 2.40625 -0.59375q1.328125 0 2.40625 0.59375q1.09375 0.59375 1.703125 1.703125q0.625 1.09375 0.625 2.5625q0 1.453125 -0.625 2.5625q-0.625 1.109375 -1.71875 1.71875q-1.09375 0.59375 -2.421875 0.59375zm0 -1.0625q0.9375 0 1.734375 -0.421875q0.796875 -0.421875 1.28125 -1.28125q0.5 -0.859375 0.5 -2.109375q0 -1.25 -0.484375 -2.09375q-0.484375 -0.859375 -1.28125 -1.28125q-0.796875 -0.4375 -1.734375 -0.4375q-0.9375 0 -1.734375 0.4375q-0.796875 0.421875 -1.28125 1.28125q-0.46875 0.84375 -0.46875 2.09375q0 1.25 0.46875 2.109375q0.484375 0.859375 1.265625 1.28125q0.796875 0.421875 1.734375 0.421875zm6.4214478 -3.8125q0 -1.46875 0.59375 -2.5625q0.59375 -1.109375 1.625 -1.703125q1.046875 -0.59375 2.375 -0.59375q1.75 0 2.875 0.875q1.140625 0.859375 1.46875 2.34375l-1.296875 0q-0.234375 -1.03125 -1.046875 -1.609375q-0.796875 -0.578125 -2.0 -0.578125q-0.953125 0 -1.71875 0.4375q-0.75 0.4375 -1.203125 1.296875q-0.4375 0.84375 -0.4375 2.09375q0 1.25 0.4375 2.125q0.453125 0.859375 1.203125 1.296875q0.765625 0.421875 1.71875 0.421875q1.203125 0 2.0 -0.578125q0.8125 -0.578125 1.046875 -1.609375l1.296875 0q-0.328125 1.453125 -1.46875 2.34375q-1.140625 0.875 -2.875 0.875q-1.328125 0 -2.375 -0.59375q-1.03125 -0.609375 -1.625 -1.703125q-0.59375 -1.09375 -0.59375 -2.578125zm18.200226 1.859375l-5.515625 0l-1.046875 2.875l-1.296875 0l4.421875 -11.953125l1.375 0l4.40625 11.953125l-1.28125 0l-1.0625 -2.875zm-0.359375 -1.0l-2.390625 -6.5625l-2.40625 6.5625l4.796875 0zm5.8447266 -3.90625q0.40625 -0.875 1.21875 -1.359375q0.828125 -0.5 2.03125 -0.5l0 1.265625l-0.328125 0q-1.328125 0 -2.125 0.71875q-0.796875 0.703125 -0.796875 2.375l0 5.28125l-1.203125 0l0 -9.46875l1.203125 0l0 1.6875zm6.272766 0q0.40625 -0.875 1.21875 -1.359375q0.828125 -0.5 2.03125 -0.5l0 1.265625l-0.328125 0q-1.328125 0 -2.125 0.71875q-0.796875 0.703125 -0.796875 2.375l0 5.28125l-1.203125 0l0 -9.46875l1.203125 0l0 1.6875zm4.5071106 3.03125q0 -1.453125 0.578125 -2.546875q0.59375 -1.109375 1.625 -1.703125q1.03125 -0.59375 2.328125 -0.59375q1.34375 0 2.3125 0.625q0.984375 0.609375 1.421875 1.59375l0 -2.09375l1.21875 0l0 9.46875l-1.21875 0l0 -2.09375q-0.453125 0.96875 -1.4375 1.609375q-0.96875 0.625 -2.3125 0.625q-1.28125 0 -2.3125 -0.609375q-1.03125 -0.609375 -1.625 -1.71875q-0.578125 -1.109375 -0.578125 -2.5625zm8.265625 0.015625q0 -1.140625 -0.46875 -2.0q-0.46875 -0.875 -1.28125 -1.34375q-0.796875 -0.46875 -1.765625 -0.46875q-1.0 0 -1.796875 0.453125q-0.796875 0.453125 -1.265625 1.3125q-0.453125 0.859375 -0.453125 2.03125q0 1.15625 0.453125 2.03125q0.46875 0.875 1.265625 1.34375q0.796875 0.453125 1.796875 0.453125q0.96875 0 1.765625 -0.46875q0.8125 -0.46875 1.28125 -1.328125q0.46875 -0.875 0.46875 -2.015625zm11.790161 -4.734375l-5.625 13.921875l-1.265625 0l1.84375 -4.5l-3.875 -9.421875l1.328125 0l3.21875 8.078125l3.125 -8.078125l1.25 0zm7.5979004 -3.359375l0 12.828125l-1.203125 0l0 -12.828125l1.203125 0zm6.9056396 12.96875q-1.34375 0 -2.40625 -0.59375q-1.0625 -0.609375 -1.6875 -1.703125q-0.609375 -1.09375 -0.609375 -2.578125q0 -1.46875 0.625 -2.5625q0.625 -1.109375 1.703125 -1.703125q1.078125 -0.59375 2.40625 -0.59375q1.328125 0 2.40625 0.59375q1.09375 0.59375 1.703125 1.703125q0.625 1.09375 0.625 2.5625q0 1.453125 -0.625 2.5625q-0.625 1.109375 -1.71875 1.71875q-1.09375 0.59375 -2.421875 0.59375zm0 -1.0625q0.9375 0 1.734375 -0.421875q0.796875 -0.421875 1.28125 -1.28125q0.5 -0.859375 0.5 -2.109375q0 -1.25 -0.484375 -2.09375q-0.484375 -0.859375 -1.28125 -1.28125q-0.796875 -0.4375 -1.734375 -0.4375q-0.9375 0 -1.734375 0.4375q-0.796875 0.421875 -1.28125 1.28125q-0.46875 0.84375 -0.46875 2.09375q0 1.25 0.46875 2.109375q0.484375 0.859375 1.265625 1.28125q0.796875 0.421875 1.734375 0.421875zm10.952698 -8.671875q1.328125 0 2.3125 0.625q0.984375 0.609375 1.421875 1.5625l0 -2.0625l1.21875 0l0 9.71875q0 1.296875 -0.5625 2.296875q-0.5625 1.0 -1.578125 1.546875q-1.0 0.546875 -2.28125 0.546875q-1.8125 0 -3.03125 -0.875q-1.203125 -0.859375 -1.484375 -2.34375l1.1875 0q0.3125 0.984375 1.1875 1.578125q0.875 0.59375 2.140625 0.59375q0.921875 0 1.640625 -0.390625q0.734375 -0.390625 1.140625 -1.15625q0.421875 -0.765625 0.421875 -1.796875l0 -2.34375q-0.453125 0.96875 -1.4375 1.609375q-0.96875 0.625 -2.296875 0.625q-1.296875 0 -2.328125 -0.609375q-1.03125 -0.609375 -1.625 -1.71875q-0.578125 -1.109375 -0.578125 -2.5625q0 -1.453125 0.578125 -2.546875q0.59375 -1.109375 1.625 -1.703125q1.03125 -0.59375 2.328125 -0.59375zm3.734375 4.859375q0 -1.140625 -0.46875 -2.0q-0.46875 -0.875 -1.28125 -1.34375q-0.796875 -0.46875 -1.765625 -0.46875q-1.0 0 -1.796875 0.453125q-0.796875 0.453125 -1.265625 1.3125q-0.453125 0.859375 -0.453125 2.03125q0 1.15625 0.453125 2.03125q0.46875 0.875 1.265625 1.34375q0.796875 0.453125 1.796875 0.453125q0.96875 0 1.765625 -0.46875q0.8125 -0.46875 1.28125 -1.328125q0.46875 -0.875 0.46875 -2.015625zm4.602661 -6.515625q-0.375 0 -0.640625 -0.25q-0.25 -0.265625 -0.25 -0.640625q0 -0.390625 0.25 -0.640625q0.265625 -0.25 0.640625 -0.25q0.359375 0 0.609375 0.25q0.265625 0.25 0.265625 0.640625q0 0.375 -0.265625 0.640625q-0.25 0.25 -0.609375 0.25zm0.59375 1.78125l0 9.46875l-1.203125 0l0 -9.46875l1.203125 0zm2.2025146 4.734375q0 -1.46875 0.59375 -2.5625q0.59375 -1.109375 1.625 -1.703125q1.046875 -0.59375 2.375 -0.59375q1.75 0 2.875 0.875q1.140625 0.859375 1.46875 2.34375l-1.296875 0q-0.234375 -1.03125 -1.046875 -1.609375q-0.796875 -0.578125 -2.0 -0.578125q-0.953125 0 -1.71875 0.4375q-0.75 0.4375 -1.203125 1.296875q-0.4375 0.84375 -0.4375 2.09375q0 1.25 0.4375 2.125q0.453125 0.859375 1.203125 1.296875q0.765625 0.421875 1.71875 0.421875q1.203125 0 2.0 -0.578125q0.8125 -0.578125 1.046875 -1.609375l1.296875 0q-0.328125 1.453125 -1.46875 2.34375q-1.140625 0.875 -2.875 0.875q-1.328125 0 -2.375 -0.59375q-1.03125 -0.609375 -1.625 -1.703125q-0.59375 -1.09375 -0.59375 -2.578125zm14.43457 4.875q-1.625 0 -2.65625 -0.75q-1.03125 -0.765625 -1.15625 -2.0625l1.25 0q0.09375 0.796875 0.75 1.296875q0.671875 0.484375 1.796875 0.484375q0.984375 0 1.546875 -0.453125q0.5625 -0.46875 0.5625 -1.171875q0 -0.484375 -0.3125 -0.796875q-0.3125 -0.3125 -0.796875 -0.484375q-0.46875 -0.1875 -1.28125 -0.390625q-1.046875 -0.28125 -1.71875 -0.5625q-0.65625 -0.28125 -1.109375 -0.8125q-0.453125 -0.546875 -0.453125 -1.46875q0 -0.703125 0.40625 -1.28125q0.421875 -0.59375 1.171875 -0.9375q0.765625 -0.34375 1.75 -0.34375q1.515625 0 2.453125 0.765625q0.9375 0.765625 1.0 2.125l-1.203125 0q-0.0625 -0.828125 -0.65625 -1.34375q-0.59375 -0.515625 -1.640625 -0.515625q-0.90625 0 -1.484375 0.4375q-0.578125 0.4375 -0.578125 1.078125q0 0.546875 0.34375 0.90625q0.34375 0.359375 0.84375 0.5625q0.5 0.1875 1.34375 0.4375q1.03125 0.265625 1.625 0.53125q0.609375 0.265625 1.046875 0.765625q0.4375 0.5 0.453125 1.328125q0 0.765625 -0.421875 1.375q-0.40625 0.59375 -1.15625 0.9375q-0.75 0.34375 -1.71875 0.34375z" fill-rule="nonzero"/><path fill="#ffcc66" fill-opacity="0.514" d="m148.17845 50.737534l587.43304 0l0 145.92126l-587.43304 0z" fill-rule="evenodd"/><path stroke="#ffffff" stroke-width="1.0" stroke-linejoin="round" stroke-linecap="butt" d="m148.17845 50.737534l587.43304 0l0 145.92126l-587.43304 0z" fill-rule="evenodd"/><path fill="#000000" d="m165.11595 171.1894l0 1.0l-5.34375 0l0 4.53125l4.515625 0l0 1.0l-4.515625 0l0 5.578125l-1.203125 0l0 -12.109375l6.546875 0zm1.4333344 7.359375q0 -1.453125 0.578125 -2.546875q0.59375 -1.109375 1.625 -1.703125q1.03125 -0.59375 2.328125 -0.59375q1.34375 0 2.3125 0.625q0.984375 0.609375 1.421875 1.59375l0 -2.09375l1.21875 0l0 9.46875l-1.21875 0l0 -2.09375q-0.453125 0.96875 -1.4375 1.609375q-0.96875 0.625 -2.3125 0.625q-1.28125 0 -2.3125 -0.609375q-1.03125 -0.609375 -1.625 -1.71875q-0.578125 -1.109375 -0.578125 -2.5625zm8.265625 0.015625q0 -1.140625 -0.46875 -2.0q-0.46875 -0.875 -1.28125 -1.34375q-0.796875 -0.46875 -1.765625 -0.46875q-1.0 0 -1.796875 0.453125q-0.796875 0.453125 -1.265625 1.3125q-0.453125 0.859375 -0.453125 2.03125q0 1.15625 0.453125 2.03125q0.46875 0.875 1.265625 1.34375q0.796875 0.453125 1.796875 0.453125q0.96875 0 1.765625 -0.46875q0.8125 -0.46875 1.28125 -1.328125q0.46875 -0.875 0.46875 -2.015625zm7.243286 4.875q-1.625 0 -2.65625 -0.75q-1.03125 -0.765625 -1.15625 -2.0625l1.25 0q0.09375 0.796875 0.75 1.296875q0.671875 0.484375 1.796875 0.484375q0.984375 0 1.546875 -0.453125q0.5625 -0.46875 0.5625 -1.171875q0 -0.484375 -0.3125 -0.796875q-0.3125 -0.3125 -0.796875 -0.484375q-0.46875 -0.1875 -1.28125 -0.390625q-1.046875 -0.28125 -1.71875 -0.5625q-0.65625 -0.28125 -1.109375 -0.8125q-0.453125 -0.546875 -0.453125 -1.46875q0 -0.703125 0.40625 -1.28125q0.421875 -0.59375 1.171875 -0.9375q0.765625 -0.34375 1.75 -0.34375q1.515625 0 2.453125 0.765625q0.9375 0.765625 1.0 2.125l-1.203125 0q-0.0625 -0.828125 -0.65625 -1.34375q-0.59375 -0.515625 -1.640625 -0.515625q-0.90625 0 -1.484375 0.4375q-0.578125 0.4375 -0.578125 1.078125q0 0.546875 0.34375 0.90625q0.34375 0.359375 0.84375 0.5625q0.5 0.1875 1.34375 0.4375q1.03125 0.265625 1.625 0.53125q0.609375 0.265625 1.046875 0.765625q0.4375 0.5 0.453125 1.328125q0 0.765625 -0.421875 1.375q-0.40625 0.59375 -1.15625 0.9375q-0.75 0.34375 -1.71875 0.34375zm7.1654205 -8.578125l0 5.875q0 0.859375 0.328125 1.1875q0.328125 0.328125 1.15625 0.328125l1.109375 0l0 1.046875l-1.296875 0q-1.28125 0 -1.90625 -0.59375q-0.625 -0.609375 -0.625 -1.96875l0 -5.875l-1.3125 0l0 -1.03125l1.3125 0l0 -2.359375l1.234375 0l0 2.359375l2.59375 0l0 1.03125l-2.59375 0zm11.606277 5.5625l-5.515625 0l-1.046875 2.875l-1.296875 0l4.421875 -11.953125l1.375 0l4.40625 11.953125l-1.28125 0l-1.0625 -2.875zm-0.359375 -1.0l-2.390625 -6.5625l-2.40625 6.5625l4.796875 0zm12.375992 -4.75q0 1.5625 -1.015625 2.515625q-1.015625 0.953125 -3.0625 0.953125l-2.453125 0l0 5.15625l-1.203125 0l0 -12.109375l3.65625 0q2.015625 0 3.046875 0.953125q1.03125 0.953125 1.03125 2.53125zm-4.078125 2.421875q2.84375 0 2.84375 -2.421875q0 -1.21875 -0.6875 -1.84375q-0.671875 -0.625 -2.15625 -0.625l-2.453125 0l0 4.890625l2.453125 0zm7.3198853 -5.90625l0 12.109375l-1.203125 0l0 -12.109375l1.203125 0zm8.155624 -4.171875l-4.78125 19.15625l-1.203125 0l4.75 -19.15625l1.234375 0zm9.985413 7.65625q0 1.5625 -1.015625 2.515625q-1.015625 0.953125 -3.0625 0.953125l-2.453125 0l0 5.15625l-1.203125 0l0 -12.109375l3.65625 0q2.015625 0 3.046875 0.953125q1.03125 0.953125 1.03125 2.53125zm-4.078125 2.421875q2.84375 0 2.84375 -2.421875q0 -1.21875 -0.6875 -1.84375q-0.671875 -0.625 -2.15625 -0.625l-2.453125 0l0 4.890625l2.453125 0zm13.913635 -3.265625l-5.625 13.921875l-1.265625 0l1.84375 -4.5l-3.875 -9.421875l1.328125 0l3.21875 8.078125l3.125 -8.078125l1.25 0zm1.0843964 4.71875q0 -1.453125 0.59375 -2.546875q0.59375 -1.109375 1.625 -1.703125q1.03125 -0.59375 2.328125 -0.59375q1.25 0 2.25 0.609375q1.0 0.59375 1.46875 1.5625l0 -5.40625l1.21875 0l0 12.828125l-1.21875 0l0 -2.109375q-0.4375 0.984375 -1.421875 1.625q-0.984375 0.625 -2.3125 0.625q-1.296875 0 -2.328125 -0.609375q-1.03125 -0.609375 -1.625 -1.71875q-0.578125 -1.109375 -0.578125 -2.5625zm8.265625 0.015625q0 -1.140625 -0.46875 -2.0q-0.46875 -0.875 -1.28125 -1.34375q-0.796875 -0.46875 -1.765625 -0.46875q-1.0 0 -1.796875 0.453125q-0.796875 0.453125 -1.265625 1.3125q-0.453125 0.859375 -0.453125 2.03125q0 1.15625 0.453125 2.03125q0.46875 0.875 1.265625 1.34375q0.796875 0.453125 1.796875 0.453125q0.96875 0 1.765625 -0.46875q0.8125 -0.46875 1.28125 -1.328125q0.46875 -0.875 0.46875 -2.015625zm3.4308014 -0.015625q0 -1.453125 0.578125 -2.546875q0.59375 -1.109375 1.625 -1.703125q1.03125 -0.59375 2.328125 -0.59375q1.34375 0 2.3125 0.625q0.984375 0.609375 1.421875 1.59375l0 -2.09375l1.21875 0l0 9.46875l-1.21875 0l0 -2.09375q-0.453125 0.96875 -1.4375 1.609375q-0.96875 0.625 -2.3125 0.625q-1.28125 0 -2.3125 -0.609375q-1.03125 -0.609375 -1.625 -1.71875q-0.578125 -1.109375 -0.578125 -2.5625zm8.265625 0.015625q0 -1.140625 -0.46875 -2.0q-0.46875 -0.875 -1.28125 -1.34375q-0.796875 -0.46875 -1.765625 -0.46875q-1.0 0 -1.796875 0.453125q-0.796875 0.453125 -1.265625 1.3125q-0.453125 0.859375 -0.453125 2.03125q0 1.15625 0.453125 2.03125q0.46875 0.875 1.265625 1.34375q0.796875 0.453125 1.796875 0.453125q0.96875 0 1.765625 -0.46875q0.8125 -0.46875 1.28125 -1.328125q0.46875 -0.875 0.46875 -2.015625zm8.430786 -4.90625q1.6875 0 2.765625 1.0625q1.078125 1.046875 1.078125 3.03125l0 5.546875l-1.203125 0l0 -5.40625q0 -1.546875 -0.765625 -2.359375q-0.765625 -0.8125 -2.109375 -0.8125q-1.359375 0 -2.1875 0.875q-0.8125 0.859375 -0.8125 2.546875l0 5.15625l-1.203125 0l0 -9.46875l1.203125 0l0 1.625q0.453125 -0.875 1.296875 -1.328125q0.859375 -0.46875 1.9375 -0.46875zm8.109253 1.203125l0 5.875q0 0.859375 0.328125 1.1875q0.328125 0.328125 1.15625 0.328125l1.109375 0l0 1.046875l-1.296875 0q-1.28125 0 -1.90625 -0.59375q-0.625 -0.609375 -0.625 -1.96875l0 -5.875l-1.3125 0l0 -1.03125l1.3125 0l0 -2.359375l1.234375 0l0 2.359375l2.59375 0l0 1.03125l-2.59375 0zm5.2000427 -2.8125q-0.375 0 -0.640625 -0.25q-0.25 -0.265625 -0.25 -0.640625q0 -0.390625 0.25 -0.640625q0.265625 -0.25 0.640625 -0.25q0.359375 0 0.609375 0.25q0.265625 0.25 0.265625 0.640625q0 0.375 -0.265625 0.640625q-0.25 0.25 -0.609375 0.25zm0.59375 1.78125l0 9.46875l-1.203125 0l0 -9.46875l1.203125 0zm2.2024841 4.734375q0 -1.46875 0.59375 -2.5625q0.59375 -1.109375 1.625 -1.703125q1.046875 -0.59375 2.375 -0.59375q1.75 0 2.875 0.875q1.140625 0.859375 1.46875 2.34375l-1.296875 0q-0.234375 -1.03125 -1.046875 -1.609375q-0.796875 -0.578125 -2.0 -0.578125q-0.953125 0 -1.71875 0.4375q-0.75 0.4375 -1.203125 1.296875q-0.4375 0.84375 -0.4375 2.09375q0 1.25 0.4375 2.125q0.453125 0.859375 1.203125 1.296875q0.765625 0.421875 1.71875 0.421875q1.203125 0 2.0 -0.578125q0.8125 -0.578125 1.046875 -1.609375l1.296875 0q-0.328125 1.453125 -1.46875 2.34375q-1.140625 0.875 -2.875 0.875q-1.328125 0 -2.375 -0.59375q-1.03125 -0.609375 -1.625 -1.703125q-0.59375 -1.09375 -0.59375 -2.578125z" fill-rule="nonzero"/><path fill="#32c8cd" fill-opacity="0.5363" d="m22.871387 50.737534l850.45667 0l0 104.85039l-850.45667 0z" fill-rule="evenodd"/><path stroke="#ffffff" stroke-width="1.0" stroke-linejoin="round" stroke-linecap="butt" d="m22.871387 50.737534l850.45667 0l0 104.85039l-850.45667 0z" fill-rule="evenodd"/><path fill="#000000" d="m32.699512 136.16542q0 -1.78125 0.78125 -3.1875q0.78125 -1.421875 2.125 -2.203125q1.359375 -0.796875 3.03125 -0.796875q2.015625 0 3.453125 0.96875q1.453125 0.953125 2.125 2.703125l-1.421875 0q-0.53125 -1.234375 -1.59375 -1.921875q-1.0625 -0.6875 -2.5625 -0.6875q-1.34375 0 -2.40625 0.625q-1.0625 0.609375 -1.671875 1.78125q-0.609375 1.171875 -0.609375 2.71875q0 1.546875 0.609375 2.703125q0.609375 1.15625 1.671875 1.78125q1.0625 0.625 2.40625 0.625q1.5 0 2.5625 -0.6875q1.0625 -0.6875 1.59375 -1.890625l1.421875 0q-0.671875 1.734375 -2.125 2.6875q-1.453125 0.953125 -3.453125 0.953125q-1.671875 0 -3.03125 -0.78125q-1.34375 -0.796875 -2.125 -2.203125q-0.78125 -1.40625 -0.78125 -3.1875zm15.125534 -6.765625l0 12.828125l-1.203125 0l0 -12.828125l1.203125 0zm3.3743744 1.578125q-0.375 0 -0.640625 -0.25q-0.25 -0.265625 -0.25 -0.640625q0 -0.390625 0.25 -0.640625q0.265625 -0.25 0.640625 -0.25q0.359375 0 0.609375 0.25q0.265625 0.25 0.265625 0.640625q0 0.375 -0.265625 0.640625q-0.25 0.25 -0.609375 0.25zm0.59375 1.78125l0 9.46875l-1.203125 0l0 -9.46875l1.203125 0zm11.327499 4.25q0 0.625 -0.046875 0.953125l-7.84375 0q0.046875 1.078125 0.515625 1.84375q0.46875 0.765625 1.234375 1.15625q0.765625 0.375 1.65625 0.375q1.1875 0 1.984375 -0.5625q0.8125 -0.578125 1.078125 -1.546875l1.28125 0q-0.34375 1.390625 -1.484375 2.265625q-1.140625 0.875 -2.859375 0.875q-1.328125 0 -2.390625 -0.59375q-1.046875 -0.609375 -1.65625 -1.703125q-0.59375 -1.09375 -0.59375 -2.578125q0 -1.46875 0.59375 -2.578125q0.59375 -1.109375 1.640625 -1.6875q1.0625 -0.59375 2.40625 -0.59375q1.359375 0 2.375 0.59375q1.015625 0.578125 1.5625 1.578125q0.546875 1.0 0.546875 2.203125zm-1.234375 -0.03125q0.015625 -1.0625 -0.4375 -1.796875q-0.4375 -0.75 -1.203125 -1.125q-0.75 -0.390625 -1.65625 -0.390625q-1.34375 0 -2.296875 0.875q-0.953125 0.859375 -1.0625 2.4375l6.65625 0zm7.8874016 -4.390625q1.6875 0 2.765625 1.0625q1.078125 1.046875 1.078125 3.03125l0 5.546875l-1.203125 0l0 -5.40625q0 -1.546875 -0.765625 -2.359375q-0.765625 -0.8125 -2.109375 -0.8125q-1.359375 0 -2.1875 0.875q-0.8125 0.859375 -0.8125 2.546875l0 5.15625l-1.203125 0l0 -9.46875l1.203125 0l0 1.625q0.453125 -0.875 1.296875 -1.328125q0.859375 -0.46875 1.9375 -0.46875zm8.109268 1.203125l0 5.875q0 0.859375 0.328125 1.1875q0.328125 0.328125 1.15625 0.328125l1.109375 0l0 1.046875l-1.296875 0q-1.28125 0 -1.90625 -0.59375q-0.625 -0.609375 -0.625 -1.96875l0 -5.875l-1.3125 0l0 -1.03125l1.3125 0l0 -2.359375l1.234375 0l0 2.359375l2.59375 0l0 1.03125l-2.59375 0z" fill-rule="nonzero"/><path fill="#32c8cd" d="m22.871782 16.656693l0 0c0 -3.6993666 2.99893 -6.6982965 6.6982956 -6.6982965l89.72152 0c1.7764969 0 3.4802399 0.70571136 4.736412 1.9618855c1.2561722 1.256175 1.9618835 2.9599123 1.9618835 4.736411l0 26.792385c0 3.6993637 -2.998932 6.6982956 -6.6982956 6.6982956l-89.72152 0l0 0c-3.6993656 0 -6.6982956 -2.998932 -6.6982956 -6.6982956z" fill-rule="evenodd"/><path stroke="#ffffff" stroke-width="1.0" stroke-linejoin="round" stroke-linecap="butt" d="m22.871782 16.656693l0 0c0 -3.6993666 2.99893 -6.6982965 6.6982956 -6.6982965l89.72152 0c1.7764969 0 3.4802399 0.70571136 4.736412 1.9618855c1.2561722 1.256175 1.9618835 2.9599123 1.9618835 4.736411l0 26.792385c0 3.6993637 -2.998932 6.6982956 -6.6982956 6.6982956l-89.72152 0l0 0c-3.6993656 0 -6.6982956 -2.998932 -6.6982956 -6.6982956z" fill-rule="evenodd"/><path fill="#ffffff" d="m58.206387 23.926006l0 9.875q0 1.5 -0.921875 2.40625q-0.90625 0.890625 -2.4375 0.890625q-1.578125 0 -2.53125 -0.953125q-0.9375 -0.96875 -0.9375 -2.609375l1.328125 0q0.015625 1.0625 0.53125 1.734375q0.515625 0.671875 1.609375 0.671875q1.046875 0 1.546875 -0.609375q0.515625 -0.609375 0.515625 -1.53125l0 -9.875l1.296875 0zm7.2469673 13.171875q-1.296875 0 -2.2812538 -0.4375q-0.96875 -0.453125 -1.53125 -1.25q-0.5625 -0.8125 -0.59375 -1.796875l1.375 0q0.09375 0.953125 0.84375 1.671875q0.7500038 0.71875 2.1875038 0.71875q1.3125 0 2.09375 -0.671875q0.78125 -0.6875 0.78125 -1.734375q0 -0.84375 -0.4375 -1.359375q-0.421875 -0.515625 -1.0625 -0.765625q-0.640625 -0.25 -1.75 -0.546875q-1.3125038 -0.359375 -2.0781288 -0.6875q-0.765625 -0.34375 -1.3125 -1.046875q-0.53125 -0.703125 -0.53125 -1.921875q0 -1.0 0.515625 -1.796875q0.53125 -0.796875 1.484375 -1.234375q0.9531288 -0.453125 2.1718788 -0.453125q1.8125 0 2.921875 0.890625q1.109375 0.875 1.28125 2.28125l-1.421875 0q-0.125 -0.8125 -0.875 -1.4375q-0.734375 -0.625 -2.015625 -0.625q-1.171875 0 -1.9531288 0.625q-0.78125 0.625 -0.78125 1.71875q0 0.8125 0.421875 1.328125q0.4375 0.5 1.078125 0.765625q0.6406288 0.25 1.7500038 0.546875q1.265625 0.359375 2.046875 0.703125q0.78125 0.34375 1.3125 1.0625q0.546875 0.703125 0.546875 1.890625q0 0.921875 -0.484375 1.75q-0.484375 0.8125 -1.4375 1.3125q-0.953125 0.5 -2.265625 0.5zm12.561996 0q-1.796875 0 -3.28125 -0.84375q-1.46875 -0.84375 -2.328125 -2.359375q-0.84375 -1.53125 -0.84375 -3.453125q0 -1.921875 0.84375 -3.4375q0.859375 -1.53125 2.328125 -2.375q1.484375 -0.84375 3.28125 -0.84375q1.828125 0 3.296875 0.84375q1.484375 0.84375 2.328125 2.375q0.84375 1.515625 0.84375 3.4375q0 1.921875 -0.84375 3.453125q-0.84375 1.515625 -2.328125 2.359375q-1.46875 0.84375 -3.296875 0.84375zm0 -1.125q1.46875 0 2.625 -0.671875q1.15625 -0.671875 1.828125 -1.9375q0.671875 -1.265625 0.671875 -2.921875q0 -1.65625 -0.671875 -2.90625q-0.671875 -1.25 -1.828125 -1.921875q-1.15625 -0.671875 -2.625 -0.671875q-1.453125 0 -2.609375 0.671875q-1.15625 0.671875 -1.828125 1.921875q-0.671875 1.25 -0.671875 2.90625q0 1.65625 0.671875 2.921875q0.671875 1.265625 1.828125 1.9375q1.15625 0.671875 2.609375 0.671875zm18.685501 1.0l-1.3125 0l-7.21875 -10.96875l0 10.96875l-1.296875 0l0 -13.046875l1.296875 0l7.21875 10.953125l0 -10.953125l1.3125 0l0 13.046875z" fill-rule="nonzero"/><path fill="#ffcc66" d="m147.22086 16.656693l0 0c0 -3.6993666 2.998932 -6.6982965 6.698303 -6.6982965l161.09158 0c1.7765198 0 3.4802551 0.70571136 4.7364197 1.9618855c1.2561646 1.256175 1.9618835 2.9599123 1.9618835 4.736411l0 26.792385c0 3.6993637 -2.998932 6.6982956 -6.698303 6.6982956l-161.09158 0c-3.6993713 0 -6.698303 -2.998932 -6.698303 -6.6982956z" fill-rule="evenodd"/><path stroke="#ffffff" stroke-width="1.0" stroke-linejoin="round" stroke-linecap="butt" d="m147.22086 16.656693l0 0c0 -3.6993666 2.998932 -6.6982965 6.698303 -6.6982965l161.09158 0c1.7765198 0 3.4802551 0.70571136 4.7364197 1.9618855c1.2561646 1.256175 1.9618835 2.9599123 1.9618835 4.736411l0 26.792385c0 3.6993637 -2.998932 6.6982956 -6.698303 6.6982956l-161.09158 0c-3.6993713 0 -6.698303 -2.998932 -6.698303 -6.6982956z" fill-rule="evenodd"/><path fill="#000000" d="m172.44168 27.836008q0 1.3125 -0.859375 2.125q-0.859375 0.796875 -2.59375 0.796875l-2.0625 0l0 4.375002l-1.03125 0l0 -10.250002l3.09375 0q1.71875 0 2.578125 0.8125q0.875 0.8125 0.875 2.140625zm-3.453125 2.046875q2.40625 0 2.40625 -2.046875q0 -1.03125 -0.578125 -1.546875q-0.5625 -0.53125 -1.828125 -0.53125l-2.0625 0l0 4.125l2.0625 0zm11.766159 -2.75l-4.75 11.765627l-1.0625 0l1.546875 -3.8125l-3.28125 -7.953127l1.125 0l2.734375 6.828127l2.640625 -6.828127l1.046875 0zm0.92518616 3.984375q0 -1.234375 0.5 -2.15625q0.5 -0.9375 1.359375 -1.4375q0.875 -0.515625 1.984375 -0.515625q1.046875 0 1.890625 0.515625q0.859375 0.515625 1.25 1.34375l0 -4.578125l1.03125 0l0 10.843752l-1.03125 0l0 -1.78125q-0.359375 0.828125 -1.203125 1.375q-0.828125 0.53125 -1.953125 0.53125q-1.109375 0 -1.984375 -0.515625q-0.859375 -0.515625 -1.359375 -1.453125q-0.484375 -0.9375 -0.484375 -2.171877zm6.984375 0.015625q0 -0.96875 -0.390625 -1.703125q-0.390625 -0.734375 -1.078125 -1.125q-0.671875 -0.390625 -1.5 -0.390625q-0.84375 0 -1.53125 0.375q-0.671875 0.375 -1.0625 1.109375q-0.375 0.71875 -0.375 1.71875q0 0.9843769 0.375 1.7343769q0.390625 0.734375 1.0625 1.125q0.6875 0.375 1.53125 0.375q0.828125 0 1.5 -0.390625q0.6875 -0.390625 1.078125 -1.125q0.390625 -0.734375 0.390625 -1.7031269zm2.9086304 -0.015625q0 -1.234375 0.484375 -2.15625q0.5 -0.9375 1.359375 -1.4375q0.875 -0.515625 1.984375 -0.515625q1.140625 0 1.96875 0.53125q0.828125 0.53125 1.1875 1.34375l0 -1.75l1.03125 0l0 8.000002l-1.03125 0l0 -1.765625q-0.375 0.8125 -1.203125 1.359375q-0.828125 0.53125 -1.96875 0.53125q-1.09375 0 -1.96875 -0.515625q-0.859375 -0.515625 -1.359375 -1.453125q-0.484375 -0.9375 -0.484375 -2.171877zm6.984375 0.015625q0 -0.96875 -0.390625 -1.703125q-0.390625 -0.734375 -1.078125 -1.125q-0.671875 -0.390625 -1.5 -0.390625q-0.84375 0 -1.53125 0.375q-0.671875 0.375 -1.0625 1.109375q-0.375 0.71875 -0.375 1.71875q0 0.9843769 0.375 1.7343769q0.390625 0.734375 1.0625 1.125q0.6875 0.375 1.53125 0.375q0.828125 0 1.5 -0.390625q0.6875 -0.390625 1.078125 -1.125q0.390625 -0.734375 0.390625 -1.7031269zm7.1273804 -4.15625q1.4375 0 2.34375 0.890625q0.90625 0.890625 0.90625 2.578125l0 4.687502l-1.0 0l0 -4.578127q0 -1.296875 -0.65625 -1.984375q-0.65625 -0.6875 -1.78125 -0.6875q-1.15625 0 -1.84375 0.734375q-0.6875 0.71875 -0.6875 2.140625l0 4.375002l-1.03125 0l0 -8.000002l1.03125 0l0 1.359375q0.375 -0.734375 1.09375 -1.125q0.71875 -0.390625 1.625 -0.390625zm6.8555603 1.015625l0 4.968752q0 0.734375 0.28125 1.015625q0.28125 0.28125 0.984375 0.28125l0.9375 0l0 0.875l-1.09375 0q-1.09375 0 -1.625 -0.5q-0.515625 -0.515625 -0.515625 -1.671875l0 -4.968752l-1.109375 0l0 -0.859375l1.109375 0l0 -2.015625l1.03125 0l0 2.015625l2.203125 0l0 0.859375l-2.203125 0zm4.4051514 -2.375q-0.3125 0 -0.53125 -0.21875q-0.21875 -0.21875 -0.21875 -0.546875q0 -0.3125 0.21875 -0.515625q0.21875 -0.21875 0.53125 -0.21875q0.3125 0 0.53125 0.21875q0.21875 0.203125 0.21875 0.515625q0 0.328125 -0.21875 0.546875q-0.21875 0.21875 -0.53125 0.21875zm0.515625 1.515625l0 8.000002l-1.03125 0l0 -8.000002l1.03125 0zm1.8562927 4.0q0 -1.25 0.5 -2.171875q0.5 -0.9375 1.375 -1.4375q0.875 -0.515625 2.015625 -0.515625q1.46875 0 2.421875 0.734375q0.96875 0.734375 1.25 2.0l-1.09375 0q-0.203125 -0.875 -0.890625 -1.359375q-0.6875 -0.484375 -1.6875 -0.484375q-0.8125 0 -1.46875 0.375q-0.640625 0.359375 -1.015625 1.078125q-0.359375 0.71875 -0.359375 1.78125q0 1.0468769 0.359375 1.7812519q0.375 0.734375 1.015625 1.109375q0.65625 0.359375 1.46875 0.359375q1.0 0 1.6875 -0.484375q0.6875 -0.5 0.890625 -1.375l1.09375 0q-0.28125 1.234375 -1.25 1.984375q-0.96875 0.75 -2.421875 0.75q-1.140625 0 -2.015625 -0.5q-0.875 -0.515625 -1.375 -1.4375q-0.5 -0.9375 -0.5 -2.187502zm12.484314 -6.25q1.703125 0 2.921875 0.625q1.21875 0.609375 1.859375 1.765625q0.640625 1.15625 0.640625 2.765625q0 1.578125 -0.640625 2.734377q-0.640625 1.140625 -1.859375 1.75q-1.21875 0.609375 -2.921875 0.609375l-3.03125 0l0 -10.250002l3.03125 0zm0 9.406252q2.140625 0 3.265625 -1.125q1.125 -1.125 1.125 -3.125002q0 -2.03125 -1.125 -3.15625q-1.125 -1.140625 -3.265625 -1.140625l-2.0 0l0 8.546877l2.0 0zm10.816101 0.96875q-1.125 0 -2.03125 -0.5q-0.890625 -0.515625 -1.421875 -1.4375q-0.515625 -0.9375 -0.515625 -2.187502q0 -1.25 0.53125 -2.171875q0.53125 -0.9375 1.4375 -1.4375q0.90625 -0.515625 2.03125 -0.515625q1.125 0 2.046875 0.515625q0.921875 0.5 1.4375 1.4375q0.515625 0.921875 0.515625 2.171875q0 1.2343769 -0.53125 2.171877q-0.515625 0.9375 -1.453125 1.453125q-0.921875 0.5 -2.046875 0.5zm0 -0.90625q0.796875 0 1.46875 -0.359375q0.671875 -0.359375 1.09375 -1.078125q0.421875 -0.734375 0.421875 -1.7812519q0 -1.0625 -0.421875 -1.78125q-0.40625 -0.71875 -1.078125 -1.078125q-0.671875 -0.359375 -1.46875 -0.359375q-0.78125 0 -1.46875 0.359375q-0.671875 0.359375 -1.078125 1.078125q-0.390625 0.71875 -0.390625 1.78125q0 1.0468769 0.390625 1.7812519q0.40625 0.71875 1.078125 1.078125q0.671875 0.359375 1.453125 0.359375zm5.4405975 -3.218752q0 -1.25 0.5 -2.171875q0.5 -0.9375 1.375 -1.4375q0.875 -0.515625 2.015625 -0.515625q1.46875 0 2.421875 0.734375q0.96875 0.734375 1.25 2.0l-1.09375 0q-0.203125 -0.875 -0.890625 -1.359375q-0.6875 -0.484375 -1.6875 -0.484375q-0.8125 0 -1.46875 0.375q-0.640625 0.359375 -1.015625 1.078125q-0.359375 0.71875 -0.359375 1.78125q0 1.0468769 0.359375 1.7812519q0.375 0.734375 1.015625 1.109375q0.65625 0.359375 1.46875 0.359375q1.0 0 1.6875 -0.484375q0.6875 -0.5 0.890625 -1.375l1.09375 0q-0.28125 1.234375 -1.25 1.984375q-0.96875 0.75 -2.421875 0.75q-1.140625 0 -2.015625 -0.5q-0.875 -0.515625 -1.375 -1.4375q-0.5 -0.9375 -0.5 -2.187502zm16.390549 -4.0l0 8.000002l-1.03125 0l0 -1.40625q-0.34375 0.75 -1.078125 1.140625q-0.734375 0.390625 -1.640625 0.390625q-1.4375 0 -2.359375 -0.875q-0.90625 -0.890625 -0.90625 -2.578127l0 -4.671875l1.015625 0l0 4.5625q0 1.2968769 0.65625 1.9843769q0.65625 0.6875 1.78125 0.6875q1.15625 0 1.84375 -0.734375q0.6875 -0.734375 0.6875 -2.156252l0 -4.34375l1.03125 0zm11.871185 -0.15625q1.4062805 0 2.2812805 0.890625q0.890625 0.890625 0.890625 2.578125l0 4.687502l-1.0 0l0 -4.578127q0 -1.296875 -0.640625 -1.984375q-0.625 -0.6875 -1.7187805 -0.6875q-1.125 0 -1.796875 0.75q-0.671875 0.734375 -0.671875 2.15625l0 4.343752l-1.015625 0l0 -4.578127q0 -1.296875 -0.625 -1.984375q-0.625 -0.6875 -1.734375 -0.6875q-1.125 0 -1.796875 0.75q-0.671875 0.734375 -0.671875 2.15625l0 4.343752l-1.03125 0l0 -8.000002l1.03125 0l0 1.375q0.375 -0.75 1.078125 -1.140625q0.703125 -0.390625 1.5625 -0.390625q1.046875 0 1.828125 0.5q0.78125 0.5 1.140625 1.46875q0.328125 -0.953125 1.109375 -1.453125q0.78125 -0.515625 1.78125 -0.515625zm12.681885 3.75q0 0.515625 -0.015625 0.796875l-6.640625 0q0.03125 0.9062519 0.421875 1.5625019q0.40625 0.640625 1.046875 0.96875q0.65625 0.328125 1.40625 0.328125q1.0 0 1.671875 -0.484375q0.6875 -0.484375 0.90625 -1.296875l1.09375 0q-0.296875 1.171875 -1.265625 1.921875q-0.953125 0.734375 -2.40625 0.734375q-1.125 0 -2.015625 -0.5q-0.890625 -0.515625 -1.40625 -1.4375q-0.5 -0.9375 -0.5 -2.187502q0 -1.25 0.5 -2.1875q0.5 -0.9375 1.390625 -1.4375q0.890625 -0.5 2.03125 -0.5q1.15625 0 2.0 0.5q0.859375 0.5 1.3125 1.34375q0.46875 0.84375 0.46875 1.875zm-1.03125 -0.03125q0.015625 -0.890625 -0.359375 -1.515625q-0.375 -0.640625 -1.03125 -0.953125q-0.640625 -0.328125 -1.390625 -0.328125q-1.15625 0 -1.96875 0.734375q-0.796875 0.71875 -0.875 2.0625l5.625 0zm6.6631165 -3.71875q1.4375 0 2.34375 0.890625q0.90625 0.890625 0.90625 2.578125l0 4.687502l-1.0 0l0 -4.578127q0 -1.296875 -0.65625 -1.984375q-0.65625 -0.6875 -1.78125 -0.6875q-1.15625 0 -1.84375 0.734375q-0.6875 0.71875 -0.6875 2.140625l0 4.375002l-1.03125 0l0 -8.000002l1.03125 0l0 1.359375q0.375 -0.734375 1.09375 -1.125q0.71875 -0.390625 1.625 -0.390625zm6.8555603 1.015625l0 4.968752q0 0.734375 0.28125 1.015625q0.28125 0.28125 0.984375 0.28125l0.9375 0l0 0.875l-1.09375 0q-1.09375 0 -1.625 -0.5q-0.515625 -0.515625 -0.515625 -1.671875l0 -4.968752l-1.109375 0l0 -0.859375l1.109375 0l0 -2.015625l1.03125 0l0 2.015625l2.203125 0l0 0.859375l-2.203125 0z" fill-rule="nonzero"/><path fill="#ff6666" d="m354.8823 16.656693l0 0c0 -3.6993666 2.9989014 -6.6982965 6.6982727 -6.6982965l161.09161 0c1.7764893 0 3.4802246 0.70571136 4.736389 1.9618855c1.2561646 1.256175 1.9619141 2.9599123 1.9619141 4.736411l0 26.792385c0 3.6993637 -2.9989624 6.6982956 -6.698303 6.6982956l-161.09161 0c-3.6993713 0 -6.6982727 -2.998932 -6.6982727 -6.6982956z" fill-rule="evenodd"/><path stroke="#ffffff" stroke-width="1.0" stroke-linejoin="round" stroke-linecap="butt" d="m354.8823 16.656693l0 0c0 -3.6993666 2.9989014 -6.6982965 6.6982727 -6.6982965l161.09161 0c1.7764893 0 3.4802246 0.70571136 4.736389 1.9618855c1.2561646 1.256175 1.9619141 2.9599123 1.9619141 4.736411l0 26.792385c0 3.6993637 -2.9989624 6.6982956 -6.698303 6.6982956l-161.09161 0c-3.6993713 0 -6.6982727 -2.998932 -6.6982727 -6.6982956z" fill-rule="evenodd"/><path fill="#ffffff" d="m408.02524 24.882883q1.703125 0 2.921875 0.625q1.21875 0.609375 1.859375 1.765625q0.640625 1.15625 0.640625 2.765625q0 1.578125 -0.640625 2.734377q-0.640625 1.140625 -1.859375 1.75q-1.21875 0.609375 -2.921875 0.609375l-3.03125 0l0 -10.250002l3.03125 0zm0 9.406252q2.140625 0 3.265625 -1.125q1.125 -1.125 1.125 -3.125002q0 -2.03125 -1.125 -3.15625q-1.125 -1.140625 -3.265625 -1.140625l-2.0 0l0 8.546877l2.0 0zm10.816101 0.96875q-1.125 0 -2.03125 -0.5q-0.890625 -0.515625 -1.421875 -1.4375q-0.515625 -0.9375 -0.515625 -2.187502q0 -1.25 0.53125 -2.171875q0.53125 -0.9375 1.4375 -1.4375q0.90625 -0.515625 2.03125 -0.515625q1.125 0 2.046875 0.515625q0.921875 0.5 1.4375 1.4375q0.515625 0.921875 0.515625 2.171875q0 1.2343769 -0.53125 2.171877q-0.515625 0.9375 -1.453125 1.453125q-0.921875 0.5 -2.046875 0.5zm0 -0.90625q0.796875 0 1.46875 -0.359375q0.671875 -0.359375 1.09375 -1.078125q0.421875 -0.734375 0.421875 -1.7812519q0 -1.0625 -0.421875 -1.78125q-0.40625 -0.71875 -1.078125 -1.078125q-0.671875 -0.359375 -1.46875 -0.359375q-0.78125 0 -1.46875 0.359375q-0.671875 0.359375 -1.078125 1.078125q-0.390625 0.71875 -0.390625 1.78125q0 1.0468769 0.390625 1.7812519q0.40625 0.71875 1.078125 1.078125q0.671875 0.359375 1.453125 0.359375zm5.440613 -3.218752q0 -1.25 0.5 -2.171875q0.5 -0.9375 1.375 -1.4375q0.875 -0.515625 2.015625 -0.515625q1.46875 0 2.421875 0.734375q0.96875 0.734375 1.25 2.0l-1.09375 0q-0.203125 -0.875 -0.890625 -1.359375q-0.6875 -0.484375 -1.6875 -0.484375q-0.8125 0 -1.46875 0.375q-0.640625 0.359375 -1.015625 1.078125q-0.359375 0.71875 -0.359375 1.78125q0 1.0468769 0.359375 1.7812519q0.375 0.734375 1.015625 1.109375q0.65625 0.359375 1.46875 0.359375q1.0 0 1.6875 -0.484375q0.6875 -0.5 0.890625 -1.375l1.09375 0q-0.28125 1.234375 -1.25 1.984375q-0.96875 0.75 -2.421875 0.75q-1.140625 0 -2.015625 -0.5q-0.875 -0.515625 -1.375 -1.4375q-0.5 -0.9375 -0.5 -2.187502zm16.390564 -4.0l0 8.000002l-1.03125 0l0 -1.40625q-0.34375 0.75 -1.078125 1.140625q-0.734375 0.390625 -1.640625 0.390625q-1.4375 0 -2.359375 -0.875q-0.90625 -0.890625 -0.90625 -2.578127l0 -4.671875l1.015625 0l0 4.5625q0 1.2968769 0.65625 1.9843769q0.65625 0.6875 1.78125 0.6875q1.15625 0 1.84375 -0.734375q0.6875 -0.734375 0.6875 -2.156252l0 -4.34375l1.03125 0zm11.871185 -0.15625q1.40625 0 2.28125 0.890625q0.890625 0.890625 0.890625 2.578125l0 4.687502l-1.0 0l0 -4.578127q0 -1.296875 -0.640625 -1.984375q-0.625 -0.6875 -1.71875 -0.6875q-1.125 0 -1.796875 0.75q-0.671875 0.734375 -0.671875 2.15625l0 4.343752l-1.015625 0l0 -4.578127q0 -1.296875 -0.625 -1.984375q-0.625 -0.6875 -1.734375 -0.6875q-1.125 0 -1.796875 0.75q-0.671875 0.734375 -0.671875 2.15625l0 4.343752l-1.03125 0l0 -8.000002l1.03125 0l0 1.375q0.375 -0.75 1.078125 -1.140625q0.703125 -0.390625 1.5625 -0.390625q1.046875 0 1.828125 0.5q0.78125 0.5 1.140625 1.46875q0.328125 -0.953125 1.109375 -1.453125q0.78125 -0.515625 1.78125 -0.515625zm12.681854 3.75q0 0.515625 -0.015625 0.796875l-6.640625 0q0.03125 0.9062519 0.421875 1.5625019q0.40625 0.640625 1.046875 0.96875q0.65625 0.328125 1.40625 0.328125q1.0 0 1.671875 -0.484375q0.6875 -0.484375 0.90625 -1.296875l1.09375 0q-0.296875 1.171875 -1.265625 1.921875q-0.953125 0.734375 -2.40625 0.734375q-1.125 0 -2.015625 -0.5q-0.890625 -0.515625 -1.40625 -1.4375q-0.5 -0.9375 -0.5 -2.187502q0 -1.25 0.5 -2.1875q0.5 -0.9375 1.390625 -1.4375q0.890625 -0.5 2.03125 -0.5q1.15625 0 2.0 0.5q0.859375 0.5 1.3125 1.34375q0.46875 0.84375 0.46875 1.875zm-1.03125 -0.03125q0.015625 -0.890625 -0.359375 -1.515625q-0.375 -0.640625 -1.03125 -0.953125q-0.640625 -0.328125 -1.390625 -0.328125q-1.15625 0 -1.96875 0.734375q-0.796875 0.71875 -0.875 2.0625l5.625 0zm6.6631165 -3.71875q1.4375 0 2.34375 0.890625q0.90625 0.890625 0.90625 2.578125l0 4.687502l-1.0 0l0 -4.578127q0 -1.296875 -0.65625 -1.984375q-0.65625 -0.6875 -1.78125 -0.6875q-1.15625 0 -1.84375 0.734375q-0.6875 0.71875 -0.6875 2.140625l0 4.375002l-1.03125 0l0 -8.000002l1.03125 0l0 1.359375q0.375 -0.734375 1.09375 -1.125q0.71875 -0.390625 1.625 -0.390625zm6.8555603 1.015625l0 4.968752q0 0.734375 0.28125 1.015625q0.28125 0.28125 0.984375 0.28125l0.9375 0l0 0.875l-1.09375 0q-1.09375 0 -1.625 -0.5q-0.515625 -0.515625 -0.515625 -1.671875l0 -4.968752l-1.109375 0l0 -0.859375l1.109375 0l0 -2.015625l1.03125 0l0 2.015625l2.203125 0l0 0.859375l-2.203125 0z" fill-rule="nonzero"/><path fill="#ffcc66" d="m562.5437 16.656693l0 0c0 -3.6993666 2.9989014 -6.6982965 6.698303 -6.6982965l161.09161 0c1.7764893 0 3.4802246 0.70571136 4.736389 1.9618855c1.2561646 1.256175 1.961853 2.9599123 1.961853 4.736411l0 26.792385c0 3.6993637 -2.9989014 6.6982956 -6.698242 6.6982956l-161.09161 0c-3.6994019 0 -6.698303 -2.998932 -6.698303 -6.6982956z" fill-rule="evenodd"/><path stroke="#ffffff" stroke-width="1.0" stroke-linejoin="round" stroke-linecap="butt" d="m562.5437 16.656693l0 0c0 -3.6993666 2.9989014 -6.6982965 6.698303 -6.6982965l161.09161 0c1.7764893 0 3.4802246 0.70571136 4.736389 1.9618855c1.2561646 1.256175 1.961853 2.9599123 1.961853 4.736411l0 26.792385c0 3.6993637 -2.9989014 6.6982956 -6.698242 6.6982956l-161.09161 0c-3.6994019 0 -6.698303 -2.998932 -6.698303 -6.6982956z" fill-rule="evenodd"/><path fill="#000000" d="m587.7645 27.836008q0 1.3125 -0.859375 2.125q-0.859375 0.796875 -2.59375 0.796875l-2.0625 0l0 4.375002l-1.03125 0l0 -10.250002l3.09375 0q1.71875 0 2.578125 0.8125q0.875 0.8125 0.875 2.140625zm-3.453125 2.046875q2.40625 0 2.40625 -2.046875q0 -1.03125 -0.578125 -1.546875q-0.5625 -0.53125 -1.828125 -0.53125l-2.0625 0l0 4.125l2.0625 0zm11.766174 -2.75l-4.75 11.765627l-1.0625 0l1.546875 -3.8125l-3.28125 -7.953127l1.125 0l2.734375 6.828127l2.640625 -6.828127l1.046875 0zm0.9251709 3.984375q0 -1.234375 0.5 -2.15625q0.5 -0.9375 1.359375 -1.4375q0.875 -0.515625 1.984375 -0.515625q1.046875 0 1.890625 0.515625q0.859375 0.515625 1.25 1.34375l0 -4.578125l1.03125 0l0 10.843752l-1.03125 0l0 -1.78125q-0.359375 0.828125 -1.203125 1.375q-0.828125 0.53125 -1.953125 0.53125q-1.109375 0 -1.984375 -0.515625q-0.859375 -0.515625 -1.359375 -1.453125q-0.484375 -0.9375 -0.484375 -2.171877zm6.984375 0.015625q0 -0.96875 -0.390625 -1.703125q-0.390625 -0.734375 -1.078125 -1.125q-0.671875 -0.390625 -1.5 -0.390625q-0.84375 0 -1.53125 0.375q-0.671875 0.375 -1.0625 1.109375q-0.375 0.71875 -0.375 1.71875q0 0.9843769 0.375 1.7343769q0.390625 0.734375 1.0625 1.125q0.6875 0.375 1.53125 0.375q0.828125 0 1.5 -0.390625q0.6875 -0.390625 1.078125 -1.125q0.390625 -0.734375 0.390625 -1.7031269zm2.9086304 -0.015625q0 -1.234375 0.484375 -2.15625q0.5 -0.9375 1.359375 -1.4375q0.875 -0.515625 1.984375 -0.515625q1.140625 0 1.96875 0.53125q0.828125 0.53125 1.1875 1.34375l0 -1.75l1.03125 0l0 8.000002l-1.03125 0l0 -1.765625q-0.375 0.8125 -1.203125 1.359375q-0.828125 0.53125 -1.96875 0.53125q-1.09375 0 -1.96875 -0.515625q-0.859375 -0.515625 -1.359375 -1.453125q-0.484375 -0.9375 -0.484375 -2.171877zm6.984375 0.015625q0 -0.96875 -0.390625 -1.703125q-0.390625 -0.734375 -1.078125 -1.125q-0.671875 -0.390625 -1.5 -0.390625q-0.84375 0 -1.53125 0.375q-0.671875 0.375 -1.0625 1.109375q-0.375 0.71875 -0.375 1.71875q0 0.9843769 0.375 1.7343769q0.390625 0.734375 1.0625 1.125q0.6875 0.375 1.53125 0.375q0.828125 0 1.5 -0.390625q0.6875 -0.390625 1.078125 -1.125q0.390625 -0.734375 0.390625 -1.7031269zm7.1273804 -4.15625q1.4375 0 2.34375 0.890625q0.90625 0.890625 0.90625 2.578125l0 4.687502l-1.0 0l0 -4.578127q0 -1.296875 -0.65625 -1.984375q-0.65625 -0.6875 -1.78125 -0.6875q-1.15625 0 -1.84375 0.734375q-0.6875 0.71875 -0.6875 2.140625l0 4.375002l-1.03125 0l0 -8.000002l1.03125 0l0 1.359375q0.375 -0.734375 1.09375 -1.125q0.71875 -0.390625 1.625 -0.390625zm6.85553 1.015625l0 4.968752q0 0.734375 0.28125 1.015625q0.28125 0.28125 0.984375 0.28125l0.9375 0l0 0.875l-1.09375 0q-1.09375 0 -1.625 -0.5q-0.515625 -0.515625 -0.515625 -1.671875l0 -4.968752l-1.109375 0l0 -0.859375l1.109375 0l0 -2.015625l1.03125 0l0 2.015625l2.203125 0l0 0.859375l-2.203125 0zm4.4051514 -2.375q-0.3125 0 -0.53125 -0.21875q-0.21875 -0.21875 -0.21875 -0.546875q0 -0.3125 0.21875 -0.515625q0.21875 -0.21875 0.53125 -0.21875q0.3125 0 0.53125 0.21875q0.21875 0.203125 0.21875 0.515625q0 0.328125 -0.21875 0.546875q-0.21875 0.21875 -0.53125 0.21875zm0.515625 1.515625l0 8.000002l-1.03125 0l0 -8.000002l1.03125 0zm1.8563232 4.0q0 -1.25 0.5 -2.171875q0.5 -0.9375 1.375 -1.4375q0.875 -0.515625 2.015625 -0.515625q1.46875 0 2.421875 0.734375q0.96875 0.734375 1.25 2.0l-1.09375 0q-0.203125 -0.875 -0.890625 -1.359375q-0.6875 -0.484375 -1.6875 -0.484375q-0.8125 0 -1.46875 0.375q-0.640625 0.359375 -1.015625 1.078125q-0.359375 0.71875 -0.359375 1.78125q0 1.0468769 0.359375 1.7812519q0.375 0.734375 1.015625 1.109375q0.65625 0.359375 1.46875 0.359375q1.0 0 1.6875 -0.484375q0.6875 -0.5 0.890625 -1.375l1.09375 0q-0.28125 1.234375 -1.25 1.984375q-0.96875 0.75 -2.421875 0.75q-1.140625 0 -2.015625 -0.5q-0.875 -0.515625 -1.375 -1.4375q-0.5 -0.9375 -0.5 -2.187502zm12.484314 -6.25q1.703125 0 2.921875 0.625q1.21875 0.609375 1.859375 1.765625q0.640625 1.15625 0.640625 2.765625q0 1.578125 -0.640625 2.734377q-0.640625 1.140625 -1.859375 1.75q-1.21875 0.609375 -2.921875 0.609375l-3.03125 0l0 -10.250002l3.03125 0zm0 9.406252q2.140625 0 3.265625 -1.125q1.125 -1.125 1.125 -3.125002q0 -2.03125 -1.125 -3.15625q-1.125 -1.140625 -3.265625 -1.140625l-2.0 0l0 8.546877l2.0 0zm10.816101 0.96875q-1.125 0 -2.03125 -0.5q-0.890625 -0.515625 -1.421875 -1.4375q-0.515625 -0.9375 -0.515625 -2.187502q0 -1.25 0.53125 -2.171875q0.53125 -0.9375 1.4375 -1.4375q0.90625 -0.515625 2.03125 -0.515625q1.125 0 2.046875 0.515625q0.921875 0.5 1.4375 1.4375q0.515625 0.921875 0.515625 2.171875q0 1.2343769 -0.53125 2.171877q-0.515625 0.9375 -1.453125 1.453125q-0.921875 0.5 -2.046875 0.5zm0 -0.90625q0.796875 0 1.46875 -0.359375q0.671875 -0.359375 1.09375 -1.078125q0.421875 -0.734375 0.421875 -1.7812519q0 -1.0625 -0.421875 -1.78125q-0.40625 -0.71875 -1.078125 -1.078125q-0.671875 -0.359375 -1.46875 -0.359375q-0.78125 0 -1.46875 0.359375q-0.671875 0.359375 -1.078125 1.078125q-0.390625 0.71875 -0.390625 1.78125q0 1.0468769 0.390625 1.7812519q0.40625 0.71875 1.078125 1.078125q0.671875 0.359375 1.453125 0.359375zm5.440613 -3.218752q0 -1.25 0.5 -2.171875q0.5 -0.9375 1.375 -1.4375q0.875 -0.515625 2.015625 -0.515625q1.46875 0 2.421875 0.734375q0.96875 0.734375 1.25 2.0l-1.09375 0q-0.203125 -0.875 -0.890625 -1.359375q-0.6875 -0.484375 -1.6875 -0.484375q-0.8125 0 -1.46875 0.375q-0.640625 0.359375 -1.015625 1.078125q-0.359375 0.71875 -0.359375 1.78125q0 1.0468769 0.359375 1.7812519q0.375 0.734375 1.015625 1.109375q0.65625 0.359375 1.46875 0.359375q1.0 0 1.6875 -0.484375q0.6875 -0.5 0.890625 -1.375l1.09375 0q-0.28125 1.234375 -1.25 1.984375q-0.96875 0.75 -2.421875 0.75q-1.140625 0 -2.015625 -0.5q-0.875 -0.515625 -1.375 -1.4375q-0.5 -0.9375 -0.5 -2.187502zm16.390564 -4.0l0 8.000002l-1.03125 0l0 -1.40625q-0.34375 0.75 -1.078125 1.140625q-0.734375 0.390625 -1.640625 0.390625q-1.4375 0 -2.359375 -0.875q-0.90625 -0.890625 -0.90625 -2.578127l0 -4.671875l1.015625 0l0 4.5625q0 1.2968769 0.65625 1.9843769q0.65625 0.6875 1.78125 0.6875q1.15625 0 1.84375 -0.734375q0.6875 -0.734375 0.6875 -2.156252l0 -4.34375l1.03125 0zm11.871155 -0.15625q1.40625 0 2.28125 0.890625q0.890625 0.890625 0.890625 2.578125l0 4.687502l-1.0 0l0 -4.578127q0 -1.296875 -0.640625 -1.984375q-0.625 -0.6875 -1.71875 -0.6875q-1.125 0 -1.796875 0.75q-0.671875 0.734375 -0.671875 2.15625l0 4.343752l-1.015625 0l0 -4.578127q0 -1.296875 -0.625 -1.984375q-0.625 -0.6875 -1.734375 -0.6875q-1.125 0 -1.796875 0.75q-0.671875 0.734375 -0.671875 2.15625l0 4.343752l-1.03125 0l0 -8.000002l1.03125 0l0 1.375q0.375 -0.75 1.078125 -1.140625q0.703125 -0.390625 1.5625 -0.390625q1.046875 0 1.828125 0.5q0.78125 0.5 1.140625 1.46875q0.328125 -0.953125 1.109375 -1.453125q0.78125 -0.515625 1.78125 -0.515625zm12.681885 3.75q0 0.515625 -0.015625 0.796875l-6.640625 0q0.03125 0.9062519 0.421875 1.5625019q0.40625 0.640625 1.046875 0.96875q0.65625 0.328125 1.40625 0.328125q1.0 0 1.671875 -0.484375q0.6875 -0.484375 0.90625 -1.296875l1.09375 0q-0.296875 1.171875 -1.265625 1.921875q-0.953125 0.734375 -2.40625 0.734375q-1.125 0 -2.015625 -0.5q-0.890625 -0.515625 -1.40625 -1.4375q-0.5 -0.9375 -0.5 -2.187502q0 -1.25 0.5 -2.1875q0.5 -0.9375 1.390625 -1.4375q0.890625 -0.5 2.03125 -0.5q1.15625 0 2.0 0.5q0.859375 0.5 1.3125 1.34375q0.46875 0.84375 0.46875 1.875zm-1.03125 -0.03125q0.015625 -0.890625 -0.359375 -1.515625q-0.375 -0.640625 -1.03125 -0.953125q-0.640625 -0.328125 -1.390625 -0.328125q-1.15625 0 -1.96875 0.734375q-0.796875 0.71875 -0.875 2.0625l5.625 0zm6.663086 -3.71875q1.4375 0 2.34375 0.890625q0.90625 0.890625 0.90625 2.578125l0 4.687502l-1.0 0l0 -4.578127q0 -1.296875 -0.65625 -1.984375q-0.65625 -0.6875 -1.78125 -0.6875q-1.15625 0 -1.84375 0.734375q-0.6875 0.71875 -0.6875 2.140625l0 4.375002l-1.03125 0l0 -8.000002l1.03125 0l0 1.359375q0.375 -0.734375 1.09375 -1.125q0.71875 -0.390625 1.625 -0.390625zm6.855591 1.015625l0 4.968752q0 0.734375 0.28125 1.015625q0.28125 0.28125 0.984375 0.28125l0.9375 0l0 0.875l-1.09375 0q-1.09375 0 -1.625 -0.5q-0.515625 -0.515625 -0.515625 -1.671875l0 -4.968752l-1.109375 0l0 -0.859375l1.109375 0l0 -2.015625l1.03125 0l0 2.015625l2.203125 0l0 0.859375l-2.203125 0z" fill-rule="nonzero"/><path fill="#32c8cd" d="m770.20514 16.656693l0 0c0 -3.6993666 2.9989014 -6.6982965 6.698303 -6.6982965l89.7215 0c1.7764893 0 3.4802246 0.70571136 4.736389 1.9618855c1.2561646 1.256175 1.9619141 2.9599123 1.9619141 4.736411l0 26.792385c0 3.6993637 -2.9989624 6.6982956 -6.698303 6.6982956l-89.7215 0l0 0c-3.6994019 0 -6.698303 -2.998932 -6.698303 -6.6982956z" fill-rule="evenodd"/><path stroke="#ffffff" stroke-width="1.0" stroke-linejoin="round" stroke-linecap="butt" d="m770.20514 16.656693l0 0c0 -3.6993666 2.9989014 -6.6982965 6.698303 -6.6982965l89.7215 0c1.7764893 0 3.4802246 0.70571136 4.736389 1.9618855c1.2561646 1.256175 1.9619141 2.9599123 1.9619141 4.736411l0 26.792385c0 3.6993637 -2.9989624 6.6982956 -6.698303 6.6982956l-89.7215 0l0 0c-3.6994019 0 -6.698303 -2.998932 -6.698303 -6.6982956z" fill-rule="evenodd"/><path fill="#ffffff" d="m805.53973 23.926006l0 9.875q0 1.5 -0.921875 2.40625q-0.90625 0.890625 -2.4375 0.890625q-1.578125 0 -2.53125 -0.953125q-0.9375 -0.96875 -0.9375 -2.609375l1.328125 0q0.015625 1.0625 0.53125 1.734375q0.515625 0.671875 1.609375 0.671875q1.046875 0 1.546875 -0.609375q0.515625 -0.609375 0.515625 -1.53125l0 -9.875l1.296875 0zm7.2469482 13.171875q-1.296875 0 -2.28125 -0.4375q-0.96875 -0.453125 -1.53125 -1.25q-0.5625 -0.8125 -0.59375 -1.796875l1.375 0q0.09375 0.953125 0.84375 1.671875q0.75 0.71875 2.1875 0.71875q1.3125 0 2.09375 -0.671875q0.78125 -0.6875 0.78125 -1.734375q0 -0.84375 -0.4375 -1.359375q-0.421875 -0.515625 -1.0625 -0.765625q-0.640625 -0.25 -1.75 -0.546875q-1.3125 -0.359375 -2.078125 -0.6875q-0.765625 -0.34375 -1.3125 -1.046875q-0.53125 -0.703125 -0.53125 -1.921875q0 -1.0 0.515625 -1.796875q0.53125 -0.796875 1.484375 -1.234375q0.953125 -0.453125 2.171875 -0.453125q1.8125 0 2.921875 0.890625q1.109375 0.875 1.28125 2.28125l-1.421875 0q-0.125 -0.8125 -0.875 -1.4375q-0.734375 -0.625 -2.015625 -0.625q-1.171875 0 -1.953125 0.625q-0.78125 0.625 -0.78125 1.71875q0 0.8125 0.421875 1.328125q0.4375 0.5 1.078125 0.765625q0.640625 0.25 1.75 0.546875q1.265625 0.359375 2.046875 0.703125q0.78125 0.34375 1.3125 1.0625q0.546875 0.703125 0.546875 1.890625q0 0.921875 -0.484375 1.75q-0.484375 0.8125 -1.4375 1.3125q-0.953125 0.5 -2.265625 0.5zm12.562012 0q-1.796875 0 -3.28125 -0.84375q-1.46875 -0.84375 -2.328125 -2.359375q-0.84375 -1.53125 -0.84375 -3.453125q0 -1.921875 0.84375 -3.4375q0.859375 -1.53125 2.328125 -2.375q1.484375 -0.84375 3.28125 -0.84375q1.828125 0 3.296875 0.84375q1.484375 0.84375 2.328125 2.375q0.84375 1.515625 0.84375 3.4375q0 1.921875 -0.84375 3.453125q-0.84375 1.515625 -2.328125 2.359375q-1.46875 0.84375 -3.296875 0.84375zm0 -1.125q1.46875 0 2.625 -0.671875q1.15625 -0.671875 1.828125 -1.9375q0.671875 -1.265625 0.671875 -2.921875q0 -1.65625 -0.671875 -2.90625q-0.671875 -1.25 -1.828125 -1.921875q-1.15625 -0.671875 -2.625 -0.671875q-1.453125 0 -2.609375 0.671875q-1.15625 0.671875 -1.828125 1.921875q-0.671875 1.25 -0.671875 2.90625q0 1.65625 0.671875 2.921875q0.671875 1.265625 1.828125 1.9375q1.15625 0.671875 2.609375 0.671875zm18.685486 1.0l-1.3125 0l-7.21875 -10.96875l0 10.96875l-1.296875 0l0 -13.046875l1.296875 0l7.21875 10.953125l0 -10.953125l1.3125 0l0 13.046875z" fill-rule="nonzero"/></g></svg>