<svg version="1.1" viewBox="0.0 0.0 613.6509186351706 265.4540682414698" fill="none" stroke="none" stroke-linecap="square" stroke-miterlimit="10" xmlns:xlink="http://www.w3.org/1999/xlink" xmlns="http://www.w3.org/2000/svg"><clipPath id="p.0"><path d="m0 0l613.65094 0l0 265.45407l-613.65094 0l0 -265.45407z" clip-rule="nonzero"/></clipPath><g clip-path="url(#p.0)"><path fill="#000000" fill-opacity="0.0" d="m0 0l613.65094 0l0 265.45407l-613.65094 0z" fill-rule="evenodd"/><path fill="#f3f3f3" d="m7.288714 13.635955l0 0c0 -5.020282 4.0697417 -9.090023 9.090023 -9.090023l585.442 0c2.4108276 0 4.7229004 0.95769596 6.4276123 2.662406c1.7047119 1.70471 2.6624146 4.0167923 2.6624146 6.427617l0 236.37114c0 5.020279 -4.069763 9.090012 -9.090027 9.090012l-585.442 0c-5.020281 0 -9.090023 -4.0697327 -9.090023 -9.090012z" fill-rule="evenodd"/><path fill="#ffcc66" d="m20.002625 25.45407l571.1181 0l0 30.015749l-571.1181 0z" fill-rule="evenodd"/><path stroke="#ffffff" stroke-width="1.0" stroke-linejoin="round" stroke-linecap="butt" d="m20.002625 25.45407l571.1181 0l0 30.015749l-571.1181 0z" fill-rule="evenodd"/><path fill="#000000" d="m32.971375 45.35569q-0.921875 0 -1.65625 -0.328125q-0.71875 -0.328125 -1.140625 -0.90625q-0.40625 -0.578125 -0.40625 -1.34375l1.28125 0q0.078125 0.65625 0.546875 1.109375q0.46875 0.4375 1.375 0.4375q0.875 0 1.375 -0.421875q0.5 -0.4375 0.5 -1.125q0 -0.53125 -0.296875 -0.859375q-0.296875 -0.328125 -0.734375 -0.5q-0.4375 -0.1875 -1.1875 -0.375q-0.921875 -0.25 -1.484375 -0.484375q-0.546875 -0.234375 -0.9375 -0.75q-0.390625 -0.515625 -0.390625 -1.390625q0 -0.75 0.390625 -1.328125q0.390625 -0.59375 1.078125 -0.90625q0.703125 -0.328125 1.609375 -0.328125q1.3125 0 2.140625 0.65625q0.828125 0.640625 0.9375 1.71875l-1.328125 0q-0.0625 -0.53125 -0.5625 -0.9375q-0.5 -0.40625 -1.3125 -0.40625q-0.75 0 -1.234375 0.40625q-0.484375 0.390625 -0.484375 1.09375q0 0.5 0.28125 0.828125q0.296875 0.3125 0.71875 0.484375q0.421875 0.171875 1.171875 0.375q0.921875 0.25 1.484375 0.5q0.5625 0.25 0.953125 0.765625q0.40625 0.515625 0.40625 1.390625q0 0.671875 -0.359375 1.28125q-0.359375 0.59375 -1.0625 0.96875q-0.703125 0.375 -1.671875 0.375zm11.354828 -7.390625l0 7.296875l-1.203125 0l0 -1.078125q-0.359375 0.5625 -0.984375 0.875q-0.609375 0.3125 -1.359375 0.3125q-0.84375 0 -1.53125 -0.34375q-0.671875 -0.359375 -1.078125 -1.0625q-0.390625 -0.71875 -0.390625 -1.734375l0 -4.265625l1.203125 0l0 4.109375q0 1.078125 0.546875 1.65625q0.546875 0.578125 1.5 0.578125q0.96875 0 1.53125 -0.59375q0.5625 -0.59375 0.5625 -1.75l0 -4.0l1.203125 0zm3.2643433 1.34375q0.359375 -0.625 1.078125 -1.046875q0.71875 -0.421875 1.65625 -0.421875q0.96875 0 1.765625 0.46875q0.796875 0.46875 1.25 1.3125q0.453125 0.84375 0.453125 1.96875q0 1.09375 -0.453125 1.96875q-0.453125 0.859375 -1.25 1.34375q-0.796875 0.484375 -1.765625 0.484375q-0.9375 0 -1.65625 -0.421875q-0.703125 -0.421875 -1.078125 -1.046875l0 4.8125l-1.203125 0l0 -10.765625l1.203125 0l0 1.34375zm4.96875 2.28125q0 -0.828125 -0.34375 -1.4375q-0.328125 -0.625 -0.90625 -0.9375q-0.5625 -0.328125 -1.234375 -0.328125q-0.671875 0 -1.234375 0.328125q-0.5625 0.328125 -0.90625 0.953125q-0.34375 0.609375 -0.34375 1.421875q0 0.828125 0.34375 1.453125q0.34375 0.625 0.90625 0.953125q0.5625 0.3125 1.234375 0.3125q0.671875 0 1.234375 -0.3125q0.578125 -0.328125 0.90625 -0.953125q0.34375 -0.625 0.34375 -1.453125zm9.494156 -0.265625q0 0.359375 -0.03125 0.734375l-5.84375 0q0.0625 1.078125 0.734375 1.6875q0.671875 0.609375 1.640625 0.609375q0.78125 0 1.3125 -0.359375q0.53125 -0.375 0.734375 -0.984375l1.3125 0q-0.296875 1.046875 -1.1875 1.71875q-0.875 0.65625 -2.171875 0.65625q-1.046875 0 -1.875 -0.46875q-0.8125 -0.46875 -1.28125 -1.328125q-0.453125 -0.859375 -0.453125 -2.0q0 -1.125 0.453125 -1.96875q0.453125 -0.859375 1.265625 -1.3125q0.828125 -0.46875 1.890625 -0.46875q1.03125 0 1.828125 0.453125q0.8125 0.453125 1.234375 1.25q0.4375 0.78125 0.4375 1.78125zm-1.25 -0.25q0 -0.6875 -0.3125 -1.1875q-0.296875 -0.5 -0.828125 -0.75q-0.53125 -0.265625 -1.171875 -0.265625q-0.90625 0 -1.5625 0.59375q-0.640625 0.578125 -0.734375 1.609375l4.609375 0zm4.0602875 -1.9375q0.328125 -0.625 0.921875 -0.96875q0.59375 -0.34375 1.4375 -0.34375l0 1.25l-0.3125 0q-2.046875 0 -2.046875 2.21875l0 3.96875l-1.203125 0l0 -7.296875l1.203125 0l0 1.171875zm8.529968 -3.734375l0 9.859375l-1.203125 0l0 -9.859375l1.203125 0zm1.6224518 6.1875q0 -1.125 0.453125 -1.96875q0.453125 -0.84375 1.234375 -1.3125q0.796875 -0.46875 1.765625 -0.46875q0.96875 0 1.671875 0.421875q0.703125 0.40625 1.046875 1.03125l0 -1.328125l1.234375 0l0 7.296875l-1.234375 0l0 -1.359375q-0.359375 0.640625 -1.078125 1.0625q-0.703125 0.421875 -1.640625 0.421875q-0.984375 0 -1.765625 -0.484375q-0.78125 -0.484375 -1.234375 -1.34375q-0.453125 -0.875 -0.453125 -1.96875zm6.171875 0q0 -0.8125 -0.328125 -1.421875q-0.328125 -0.625 -0.90625 -0.953125q-0.5625 -0.328125 -1.234375 -0.328125q-0.6875 0 -1.25 0.328125q-0.546875 0.3125 -0.890625 0.9375q-0.328125 0.609375 -0.328125 1.4375q0 0.828125 0.328125 1.453125q0.34375 0.625 0.890625 0.953125q0.5625 0.3125 1.25 0.3125q0.671875 0 1.234375 -0.3125q0.578125 -0.328125 0.90625 -0.953125q0.328125 -0.625 0.328125 -1.453125zm4.494156 -2.453125q0.328125 -0.625 0.921875 -0.96875q0.59375 -0.34375 1.4375 -0.34375l0 1.25l-0.3125 0q-2.046875 0 -2.046875 2.21875l0 3.96875l-1.203125 0l0 -7.296875l1.203125 0l0 1.171875zm6.7682495 -1.296875q0.953125 0 1.65625 0.421875q0.71875 0.40625 1.0625 1.03125l0 -1.328125l1.234375 0l0 7.453125q0 1.0 -0.4375 1.78125q-0.421875 0.78125 -1.21875 1.21875q-0.78125 0.4375 -1.84375 0.4375q-1.4375 0 -2.390625 -0.6875q-0.953125 -0.671875 -1.140625 -1.84375l1.203125 0q0.203125 0.671875 0.828125 1.078125q0.625 0.40625 1.5 0.40625q1.0 0 1.625 -0.625q0.640625 -0.625 0.640625 -1.765625l0 -1.53125q-0.359375 0.640625 -1.0625 1.078125q-0.703125 0.421875 -1.65625 0.421875q-0.96875 0 -1.765625 -0.484375q-0.78125 -0.484375 -1.234375 -1.34375q-0.453125 -0.875 -0.453125 -1.96875q0 -1.125 0.453125 -1.96875q0.453125 -0.84375 1.234375 -1.3125q0.796875 -0.46875 1.765625 -0.46875zm2.71875 3.75q0 -0.8125 -0.328125 -1.421875q-0.328125 -0.625 -0.90625 -0.953125q-0.5625 -0.328125 -1.234375 -0.328125q-0.6875 0 -1.25 0.328125q-0.546875 0.3125 -0.890625 0.9375q-0.328125 0.609375 -0.328125 1.4375q0 0.828125 0.328125 1.453125q0.34375 0.625 0.890625 0.953125q0.5625 0.3125 1.25 0.3125q0.671875 0 1.234375 -0.3125q0.578125 -0.328125 0.90625 -0.953125q0.328125 -0.625 0.328125 -1.453125zm9.947281 -0.265625q0 0.359375 -0.03125 0.734375l-5.84375 0q0.0625 1.078125 0.734375 1.6875q0.671875 0.609375 1.640625 0.609375q0.78125 0 1.3125 -0.359375q0.53125 -0.375 0.734375 -0.984375l1.3125 0q-0.296875 1.046875 -1.1875 1.71875q-0.875 0.65625 -2.171875 0.65625q-1.046875 0 -1.875 -0.46875q-0.8125 -0.46875 -1.28125 -1.328125q-0.453125 -0.859375 -0.453125 -2.0q0 -1.125 0.453125 -1.96875q0.453125 -0.859375 1.265625 -1.3125q0.828125 -0.46875 1.890625 -0.46875q1.03125 0 1.828125 0.453125q0.8125 0.453125 1.234375 1.25q0.4375 0.78125 0.4375 1.78125zm-1.25 -0.25q0 -0.6875 -0.3125 -1.1875q-0.296875 -0.5 -0.828125 -0.75q-0.53125 -0.265625 -1.171875 -0.265625q-0.90625 0 -1.5625 0.59375q-0.640625 0.578125 -0.734375 1.609375l4.609375 0zm9.306381 -5.109375q1.515625 0 2.625 0.578125q1.109375 0.5625 1.703125 1.625q0.59375 1.046875 0.59375 2.46875q0 1.421875 -0.59375 2.46875q-0.59375 1.046875 -1.703125 1.609375q-1.109375 0.546875 -2.625 0.546875l-2.890625 0l0 -9.296875l2.890625 0zm0 8.296875q1.796875 0 2.734375 -0.953125q0.953125 -0.953125 0.953125 -2.671875q0 -1.734375 -0.953125 -2.703125q-0.953125 -0.96875 -2.734375 -0.96875l-1.6875 0l0 7.296875l1.6875 0zm9.719818 1.125q-1.03125 0 -1.875 -0.46875q-0.828125 -0.46875 -1.296875 -1.328125q-0.46875 -0.859375 -0.46875 -2.0q0 -1.109375 0.484375 -1.96875q0.484375 -0.859375 1.3125 -1.3125q0.84375 -0.46875 1.890625 -0.46875q1.03125 0 1.875 0.46875q0.84375 0.453125 1.328125 1.3125q0.484375 0.84375 0.484375 1.96875q0 1.140625 -0.5 2.0q-0.5 0.859375 -1.359375 1.328125q-0.84375 0.46875 -1.875 0.46875zm0 -1.078125q0.640625 0 1.21875 -0.296875q0.578125 -0.3125 0.921875 -0.921875q0.359375 -0.609375 0.359375 -1.5q0 -0.875 -0.34375 -1.484375q-0.34375 -0.609375 -0.90625 -0.90625q-0.5625 -0.3125 -1.21875 -0.3125q-0.671875 0 -1.21875 0.3125q-0.546875 0.296875 -0.890625 0.90625q-0.328125 0.609375 -0.328125 1.484375q0 0.90625 0.328125 1.515625q0.328125 0.609375 0.875 0.90625q0.546875 0.296875 1.203125 0.296875zm4.8893433 -2.71875q0 -1.125 0.453125 -1.96875q0.453125 -0.84375 1.25 -1.3125q0.8125 -0.46875 1.84375 -0.46875q1.359375 0 2.21875 0.65625q0.875 0.640625 1.15625 1.8125l-1.296875 0q-0.1875 -0.671875 -0.734375 -1.046875q-0.53125 -0.390625 -1.34375 -0.390625q-1.03125 0 -1.671875 0.71875q-0.640625 0.703125 -0.640625 2.0q0 1.328125 0.640625 2.046875q0.640625 0.71875 1.671875 0.71875q0.8125 0 1.34375 -0.375q0.53125 -0.375 0.734375 -1.0625l1.296875 0q-0.296875 1.125 -1.171875 1.796875q-0.875 0.671875 -2.203125 0.671875q-1.03125 0 -1.84375 -0.46875q-0.796875 -0.46875 -1.25 -1.3125q-0.453125 -0.859375 -0.453125 -2.015625zm15.012024 -3.625l0 7.296875l-1.203125 0l0 -1.078125q-0.359375 0.5625 -0.984375 0.875q-0.609375 0.3125 -1.359375 0.3125q-0.84375 0 -1.53125 -0.34375q-0.671875 -0.359375 -1.078125 -1.0625q-0.390625 -0.71875 -0.390625 -1.734375l0 -4.265625l1.203125 0l0 4.109375q0 1.078125 0.546875 1.65625q0.546875 0.578125 1.5 0.578125q0.96875 0 1.53125 -0.59375q0.5625 -0.59375 0.5625 -1.75l0 -4.0l1.203125 0zm10.842468 -0.140625q0.84375 0 1.515625 0.359375q0.671875 0.34375 1.046875 1.0625q0.390625 0.703125 0.390625 1.703125l0 4.3125l-1.203125 0l0 -4.125q0 -1.09375 -0.546875 -1.671875q-0.53125 -0.59375 -1.453125 -0.59375q-0.9375 0 -1.5 0.609375q-0.5625 0.609375 -0.5625 1.75l0 4.03125l-1.203125 0l0 -4.125q0 -1.09375 -0.546875 -1.671875q-0.53125 -0.59375 -1.4375 -0.59375q-0.953125 0 -1.515625 0.609375q-0.5625 0.609375 -0.5625 1.75l0 4.03125l-1.203125 0l0 -7.296875l1.203125 0l0 1.046875q0.359375 -0.578125 0.96875 -0.875q0.609375 -0.3125 1.34375 -0.3125q0.921875 0 1.625 0.421875q0.703125 0.40625 1.046875 1.203125q0.3125 -0.765625 1.015625 -1.1875q0.703125 -0.4375 1.578125 -0.4375zm11.602921 3.5q0 0.359375 -0.03125 0.734375l-5.84375 0q0.0625 1.078125 0.734375 1.6875q0.671875 0.609375 1.640625 0.609375q0.78125 0 1.3125 -0.359375q0.53125 -0.375 0.734375 -0.984375l1.3125 0q-0.296875 1.046875 -1.1875 1.71875q-0.875 0.65625 -2.171875 0.65625q-1.046875 0 -1.875 -0.46875q-0.8125 -0.46875 -1.28125 -1.328125q-0.453125 -0.859375 -0.453125 -2.0q0 -1.125 0.453125 -1.96875q0.453125 -0.859375 1.265625 -1.3125q0.828125 -0.46875 1.890625 -0.46875q1.03125 0 1.828125 0.453125q0.8125 0.453125 1.234375 1.25q0.4375 0.78125 0.4375 1.78125zm-1.25 -0.25q0 -0.6875 -0.3125 -1.1875q-0.296875 -0.5 -0.828125 -0.75q-0.53125 -0.265625 -1.171875 -0.265625q-0.90625 0 -1.5625 0.59375q-0.640625 0.578125 -0.734375 1.609375l4.609375 0zm6.4040375 -3.25q1.34375 0 2.171875 0.8125q0.828125 0.796875 0.828125 2.3125l0 4.3125l-1.203125 0l0 -4.125q0 -1.09375 -0.546875 -1.671875q-0.546875 -0.59375 -1.5 -0.59375q-0.953125 0 -1.53125 0.609375q-0.5625 0.59375 -0.5625 1.75l0 4.03125l-1.203125 0l0 -7.296875l1.203125 0l0 1.03125q0.359375 -0.5625 0.984375 -0.859375q0.625 -0.3125 1.359375 -0.3125zm6.4518433 1.140625l0 4.296875q0 0.53125 0.21875 0.75q0.234375 0.21875 0.796875 0.21875l0.890625 0l0 1.03125l-1.09375 0q-1.0 0 -1.515625 -0.46875q-0.5 -0.46875 -0.5 -1.53125l0 -4.296875l-0.953125 0l0 -1.0l0.953125 0l0 -1.84375l1.203125 0l0 1.84375l1.90625 0l0 1.0l-1.90625 0zm8.86705 4.234375l-4.046875 0l-0.75 2.0625l-1.28125 0l3.359375 -9.234375l1.40625 0l3.34375 9.234375l-1.28125 0l-0.75 -2.0625zm-0.34375 -0.984375l-1.6875 -4.703125l-1.671875 4.703125l3.359375 0zm5.045624 -3.078125q0.328125 -0.625 0.921875 -0.96875q0.59375 -0.34375 1.4375 -0.34375l0 1.25l-0.3125 0q-2.046875 0 -2.046875 2.21875l0 3.96875l-1.203125 0l0 -7.296875l1.203125 0l0 1.171875zm4.9713745 0q0.328125 -0.625 0.921875 -0.96875q0.59375 -0.34375 1.4375 -0.34375l0 1.25l-0.3125 0q-2.046875 0 -2.046875 2.21875l0 3.96875l-1.203125 0l0 -7.296875l1.203125 0l0 1.171875zm3.3151245 2.453125q0 -1.125 0.453125 -1.96875q0.453125 -0.84375 1.234375 -1.3125q0.796875 -0.46875 1.765625 -0.46875q0.96875 0 1.671875 0.421875q0.703125 0.40625 1.046875 1.03125l0 -1.328125l1.234375 0l0 7.296875l-1.234375 0l0 -1.359375q-0.359375 0.640625 -1.078125 1.0625q-0.703125 0.421875 -1.640625 0.421875q-0.984375 0 -1.765625 -0.484375q-0.78125 -0.484375 -1.234375 -1.34375q-0.453125 -0.875 -0.453125 -1.96875zm6.171875 0q0 -0.8125 -0.328125 -1.421875q-0.328125 -0.625 -0.90625 -0.953125q-0.5625 -0.328125 -1.234375 -0.328125q-0.6875 0 -1.25 0.328125q-0.546875 0.3125 -0.890625 0.9375q-0.328125 0.609375 -0.328125 1.4375q0 0.828125 0.328125 1.453125q0.34375 0.625 0.890625 0.953125q0.5625 0.3125 1.25 0.3125q0.671875 0 1.234375 -0.3125q0.578125 -0.328125 0.90625 -0.953125q0.328125 -0.625 0.328125 -1.453125zm9.572281 -3.625l-4.390625 10.734375l-1.25 0l1.4375 -3.515625l-2.953125 -7.21875l1.34375 0l2.296875 5.90625l2.265625 -5.90625l1.25 0zm7.9685516 7.421875q-1.03125 0 -1.875 -0.46875q-0.828125 -0.46875 -1.296875 -1.328125q-0.46875 -0.859375 -0.46875 -2.0q0 -1.109375 0.484375 -1.96875q0.484375 -0.859375 1.3125 -1.3125q0.84375 -0.46875 1.890625 -0.46875q1.03125 0 1.875 0.46875q0.84375 0.453125 1.328125 1.3125q0.484375 0.84375 0.484375 1.96875q0 1.140625 -0.5 2.0q-0.5 0.859375 -1.359375 1.328125q-0.84375 0.46875 -1.875 0.46875zm0 -1.078125q0.640625 0 1.21875 -0.296875q0.578125 -0.3125 0.921875 -0.921875q0.359375 -0.609375 0.359375 -1.5q0 -0.875 -0.34375 -1.484375q-0.34375 -0.609375 -0.90625 -0.90625q-0.5625 -0.3125 -1.21875 -0.3125q-0.671875 0 -1.21875 0.3125q-0.546875 0.296875 -0.890625 0.90625q-0.328125 0.609375 -0.328125 1.484375q0 0.90625 0.328125 1.515625q0.328125 0.609375 0.875 0.90625q0.546875 0.296875 1.203125 0.296875zm8.889343 -6.484375q1.34375 0 2.171875 0.8125q0.828125 0.796875 0.828125 2.3125l0 4.3125l-1.203125 0l0 -4.125q0 -1.09375 -0.546875 -1.671875q-0.546875 -0.59375 -1.5 -0.59375q-0.953125 0 -1.53125 0.609375q-0.5625 0.59375 -0.5625 1.75l0 4.03125l-1.203125 0l0 -7.296875l1.203125 0l0 1.03125q0.359375 -0.5625 0.984375 -0.859375q0.625 -0.3125 1.359375 -0.3125zm8.088562 3.765625q0 -1.125 0.453125 -1.96875q0.453125 -0.84375 1.234375 -1.3125q0.796875 -0.46875 1.78125 -0.46875q0.859375 0 1.59375 0.390625q0.734375 0.390625 1.109375 1.03125l0 -3.859375l1.234375 0l0 9.859375l-1.234375 0l0 -1.375q-0.359375 0.65625 -1.0625 1.078125q-0.703125 0.421875 -1.65625 0.421875q-0.96875 0 -1.765625 -0.484375q-0.78125 -0.484375 -1.234375 -1.34375q-0.453125 -0.875 -0.453125 -1.96875zm6.171875 0q0 -0.8125 -0.328125 -1.421875q-0.328125 -0.625 -0.90625 -0.953125q-0.5625 -0.328125 -1.234375 -0.328125q-0.6875 0 -1.25 0.328125q-0.546875 0.3125 -0.890625 0.9375q-0.328125 0.609375 -0.328125 1.4375q0 0.828125 0.328125 1.453125q0.34375 0.625 0.890625 0.953125q0.5625 0.3125 1.25 0.3125q0.671875 0 1.234375 -0.3125q0.578125 -0.328125 0.90625 -0.953125q0.328125 -0.625 0.328125 -1.453125zm3.916031 -4.8125q-0.34375 0 -0.59375 -0.234375q-0.234375 -0.25 -0.234375 -0.59375q0 -0.34375 0.234375 -0.578125q0.25 -0.25 0.59375 -0.25q0.328125 0 0.5625 0.25q0.234375 0.234375 0.234375 0.578125q0 0.34375 -0.234375 0.59375q-0.234375 0.234375 -0.5625 0.234375zm0.578125 1.1875l0 7.296875l-1.203125 0l0 -7.296875l1.203125 0zm4.653702 7.421875q-0.84375 0 -1.515625 -0.28125q-0.65625 -0.296875 -1.046875 -0.8125q-0.375 -0.515625 -0.421875 -1.171875l1.25 0q0.0625 0.546875 0.515625 0.890625q0.46875 0.34375 1.203125 0.34375q0.703125 0 1.09375 -0.296875q0.40626526 -0.3125 0.40626526 -0.78125q0 -0.484375 -0.43751526 -0.71875q-0.421875 -0.234375 -1.3125 -0.453125q-0.8125 -0.21875 -1.328125 -0.4375q-0.515625 -0.21875 -0.890625 -0.640625q-0.359375 -0.4375 -0.359375 -1.15625q0 -0.546875 0.328125 -1.015625q0.34375 -0.46875 0.953125 -0.734375q0.625 -0.28125 1.40625 -0.28125q1.21875 0 1.9531403 0.609375q0.75 0.609375 0.796875 1.6875l-1.203125 0q-0.046875 -0.578125 -0.46876526 -0.921875q-0.40625 -0.34375 -1.125 -0.34375q-0.640625 0 -1.03125 0.28125q-0.390625 0.265625 -0.390625 0.71875q0 0.359375 0.234375 0.59375q0.234375 0.234375 0.578125 0.375q0.359375 0.140625 0.984375 0.3125q0.796875 0.21875 1.2812653 0.421875q0.5 0.203125 0.84375 0.625q0.359375 0.40625 0.375 1.078125q0 0.59375 -0.34375 1.078125q-0.328125 0.484375 -0.9375 0.765625q-0.60939026 0.265625 -1.3906403 0.265625zm8.45726 -0.125l-2.875 -3.21875l0 3.21875l-1.203125 0l0 -9.859375l1.203125 0l0 5.796875l2.8125 -3.234375l1.703125 0l-3.4375 3.625l3.4375 3.671875l-1.640625 0z" fill-rule="nonzero"/><path fill="#ffcc66" d="m20.002625 83.27559l57.259842 0l0 30.015747l-57.259842 0z" fill-rule="evenodd"/><path stroke="#ffffff" stroke-width="1.0" stroke-linejoin="round" stroke-linecap="butt" d="m20.002625 83.27559l57.259842 0l0 30.015747l-57.259842 0z" fill-rule="evenodd"/><path fill="#000000" d="m31.121368 97.145966q0.375 -0.65625 1.09375 -1.0625q0.71875 -0.421875 1.640625 -0.421875q0.984375 0 1.765625 0.46875q0.796875 0.46875 1.25 1.3125q0.453125 0.84375 0.453125 1.96875q0 1.09375 -0.453125 1.96875q-0.453125 0.859375 -1.25 1.34375q-0.796875 0.484375 -1.765625 0.484375q-0.9375 0 -1.65625 -0.40625q-0.71875 -0.421875 -1.078125 -1.0625l0 1.34375l-1.203125 0l0 -9.859375l1.203125 0l0 3.921875zm4.96875 2.265625q0 -0.828125 -0.34375 -1.4375q-0.328125 -0.625 -0.90625 -0.9375q-0.5625 -0.328125 -1.234375 -0.328125q-0.671875 0 -1.234375 0.328125q-0.5625 0.328125 -0.90625 0.953125q-0.34375 0.609375 -0.34375 1.421875q0 0.828125 0.34375 1.453125q0.34375 0.625 0.90625 0.953125q0.5625 0.3125 1.234375 0.3125q0.671875 0 1.234375 -0.3125q0.578125 -0.328125 0.90625 -0.953125q0.34375 -0.625 0.34375 -1.453125zm2.384781 0q0 -1.125 0.453125 -1.96875q0.453125 -0.84375 1.234375 -1.3125q0.796875 -0.46875 1.765625 -0.46875q0.96875 0 1.671875 0.421875q0.703125 0.40625 1.046875 1.03125l0 -1.328125l1.234375 0l0 7.296875l-1.234375 0l0 -1.359375q-0.359375 0.640625 -1.078125 1.0625q-0.703125 0.421875 -1.640625 0.421875q-0.984375 0 -1.765625 -0.484375q-0.78125 -0.484375 -1.234375 -1.34375q-0.453125 -0.875 -0.453125 -1.96875zm6.171875 0q0 -0.8125 -0.328125 -1.421875q-0.328125 -0.625 -0.90625 -0.953125q-0.5625 -0.328125 -1.234375 -0.328125q-0.6875 0 -1.25 0.328125q-0.546875 0.3125 -0.890625 0.9375q-0.328125 0.609375 -0.328125 1.4375q0 0.828125 0.328125 1.453125q0.34375 0.625 0.890625 0.953125q0.5625 0.3125 1.25 0.3125q0.671875 0 1.234375 -0.3125q0.578125 -0.328125 0.90625 -0.953125q0.328125 -0.625 0.328125 -1.453125zm4.759781 -2.625l0 4.296875q0 0.53125 0.21875 0.75q0.234375 0.21875 0.796875 0.21875l0.890625 0l0 1.03125l-1.09375 0q-1.0 0 -1.515625 -0.46875q-0.5 -0.46875 -0.5 -1.53125l0 -4.296875l-0.953125 0l0 -1.0l0.953125 0l0 -1.84375l1.203125 0l0 1.84375l1.90625 0l0 1.0l-1.90625 0zm2.9295502 2.625q0 -1.125 0.453125 -1.96875q0.453125 -0.84375 1.25 -1.3125q0.8125 -0.46875 1.84375 -0.46875q1.359375 0 2.21875 0.65625q0.875 0.640625 1.15625 1.8125l-1.296875 0q-0.1875 -0.671875 -0.734375 -1.046875q-0.53125 -0.390625 -1.34375 -0.390625q-1.03125 0 -1.671875 0.71875q-0.640625 0.703125 -0.640625 2.0q0 1.328125 0.640625 2.046875q0.640625 0.71875 1.671875 0.71875q0.8125 0 1.34375 -0.375q0.53125 -0.375 0.734375 -1.0625l1.296875 0q-0.296875 1.125 -1.171875 1.796875q-0.875 0.671875 -2.203125 0.671875q-1.03125 0 -1.84375 -0.46875q-0.796875 -0.46875 -1.25 -1.3125q-0.453125 -0.859375 -0.453125 -2.015625zm12.168274 -3.765625q0.828125 0 1.484375 0.359375q0.671875 0.34375 1.046875 1.0625q0.390625 0.703125 0.390625 1.703125l0 4.3125l-1.203125 0l0 -4.125q0 -1.09375 -0.546875 -1.671875q-0.546875 -0.59375 -1.5 -0.59375q-0.953125 0 -1.53125 0.609375q-0.5625 0.59375 -0.5625 1.75l0 4.03125l-1.203125 0l0 -9.859375l1.203125 0l0 3.59375q0.359375 -0.5625 0.984375 -0.859375q0.640625 -0.3125 1.4375 -0.3125z" fill-rule="nonzero"/><path fill="#ffcc66" d="m36.002625 99.27559l57.259842 0l0 30.015747l-57.259842 0z" fill-rule="evenodd"/><path stroke="#ffffff" stroke-width="1.0" stroke-linejoin="round" stroke-linecap="butt" d="m36.002625 99.27559l57.259842 0l0 30.015747l-57.259842 0z" fill-rule="evenodd"/><path fill="#000000" d="m47.12137 113.145966q0.375 -0.65625 1.09375 -1.0625q0.71875 -0.421875 1.640625 -0.421875q0.984375 0 1.765625 0.46875q0.796875 0.46875 1.25 1.3125q0.453125 0.84375 0.453125 1.96875q0 1.09375 -0.453125 1.96875q-0.453125 0.859375 -1.25 1.34375q-0.796875 0.484375 -1.765625 0.484375q-0.9375 0 -1.65625 -0.40625q-0.71875 -0.421875 -1.078125 -1.0625l0 1.34375l-1.203125 0l0 -9.859375l1.203125 0l0 3.921875zm4.96875 2.265625q0 -0.828125 -0.34375 -1.4375q-0.328125 -0.625 -0.90625 -0.9375q-0.5625 -0.328125 -1.234375 -0.328125q-0.671875 0 -1.234375 0.328125q-0.5625 0.328125 -0.90625 0.953125q-0.34375 0.609375 -0.34375 1.421875q0 0.828125 0.34375 1.453125q0.34375 0.625 0.90625 0.953125q0.5625 0.3125 1.234375 0.3125q0.671875 0 1.234375 -0.3125q0.578125 -0.328125 0.90625 -0.953125q0.34375 -0.625 0.34375 -1.453125zm2.384781 0q0 -1.125 0.453125 -1.96875q0.453125 -0.84375 1.234375 -1.3125q0.796875 -0.46875 1.765625 -0.46875q0.96875 0 1.671875 0.421875q0.703125 0.40625 1.046875 1.03125l0 -1.328125l1.234375 0l0 7.296875l-1.234375 0l0 -1.359375q-0.359375 0.640625 -1.078125 1.0625q-0.703125 0.421875 -1.640625 0.421875q-0.984375 0 -1.765625 -0.484375q-0.78125 -0.484375 -1.234375 -1.34375q-0.453125 -0.875 -0.453125 -1.96875zm6.171875 0q0 -0.8125 -0.328125 -1.421875q-0.328125 -0.625 -0.90625 -0.953125q-0.5625 -0.328125 -1.234375 -0.328125q-0.6875 0 -1.25 0.328125q-0.546875 0.3125 -0.890625 0.9375q-0.328125 0.609375 -0.328125 1.4375q0 0.828125 0.328125 1.453125q0.34375 0.625 0.890625 0.953125q0.5625 0.3125 1.25 0.3125q0.671875 0 1.234375 -0.3125q0.578125 -0.328125 0.90625 -0.953125q0.328125 -0.625 0.328125 -1.453125zm4.759781 -2.625l0 4.296875q0 0.53125 0.21875 0.75q0.234375 0.21875 0.796875 0.21875l0.890625 0l0 1.03125l-1.09375 0q-1.0 0 -1.515625 -0.46875q-0.5 -0.46875 -0.5 -1.53125l0 -4.296875l-0.953125 0l0 -1.0l0.953125 0l0 -1.84375l1.203125 0l0 1.84375l1.90625 0l0 1.0l-1.90625 0zm2.9295502 2.625q0 -1.125 0.453125 -1.96875q0.453125 -0.84375 1.25 -1.3125q0.8125 -0.46875 1.84375 -0.46875q1.359375 0 2.21875 0.65625q0.875 0.640625 1.15625 1.8125l-1.296875 0q-0.1875 -0.671875 -0.734375 -1.046875q-0.53125 -0.390625 -1.34375 -0.390625q-1.03125 0 -1.671875 0.71875q-0.640625 0.703125 -0.640625 2.0q0 1.328125 0.640625 2.046875q0.640625 0.71875 1.671875 0.71875q0.8125 0 1.34375 -0.375q0.53125 -0.375 0.734375 -1.0625l1.296875 0q-0.296875 1.125 -1.171875 1.796875q-0.875 0.671875 -2.203125 0.671875q-1.03125 0 -1.84375 -0.46875q-0.796875 -0.46875 -1.25 -1.3125q-0.453125 -0.859375 -0.453125 -2.015625zm12.168274 -3.765625q0.828125 0 1.484375 0.359375q0.671875 0.34375 1.046875 1.0625q0.390625 0.703125 0.390625 1.703125l0 4.3125l-1.203125 0l0 -4.125q0 -1.09375 -0.546875 -1.671875q-0.546875 -0.59375 -1.5 -0.59375q-0.953125 0 -1.53125 0.609375q-0.5625 0.59375 -0.5625 1.75l0 4.03125l-1.203125 0l0 -9.859375l1.203125 0l0 3.59375q0.359375 -0.5625 0.984375 -0.859375q0.640625 -0.3125 1.4375 -0.3125z" fill-rule="nonzero"/><path fill="#ffcc66" d="m52.002625 115.27559l57.259842 0l0 30.015747l-57.259842 0z" fill-rule="evenodd"/><path stroke="#ffffff" stroke-width="1.0" stroke-linejoin="round" stroke-linecap="butt" d="m52.002625 115.27559l57.259842 0l0 30.015747l-57.259842 0z" fill-rule="evenodd"/><path fill="#000000" d="m63.12137 129.14597q0.375 -0.65625 1.09375 -1.0625q0.71875 -0.421875 1.640625 -0.421875q0.984375 0 1.765625 0.46875q0.796875 0.46875 1.25 1.3125q0.453125 0.84375 0.453125 1.96875q0 1.09375 -0.453125 1.96875q-0.453125 0.859375 -1.25 1.34375q-0.796875 0.484375 -1.765625 0.484375q-0.9375 0 -1.65625 -0.40625q-0.71875 -0.421875 -1.078125 -1.0625l0 1.34375l-1.203125 0l0 -9.859375l1.203125 0l0 3.921875zm4.96875 2.265625q0 -0.828125 -0.34375 -1.4375q-0.328125 -0.625 -0.90625 -0.9375q-0.5625 -0.328125 -1.234375 -0.328125q-0.671875 0 -1.234375 0.328125q-0.5625 0.328125 -0.90625 0.953125q-0.34375 0.609375 -0.34375 1.421875q0 0.828125 0.34375 1.453125q0.34375 0.625 0.90625 0.953125q0.5625 0.3125 1.234375 0.3125q0.671875 0 1.234375 -0.3125q0.578125 -0.328125 0.90625 -0.953125q0.34375 -0.625 0.34375 -1.453125zm2.384781 0q0 -1.125 0.453125 -1.96875q0.453125 -0.84375 1.234375 -1.3125q0.796875 -0.46875 1.765625 -0.46875q0.96875 0 1.671875 0.421875q0.703125 0.40625 1.046875 1.03125l0 -1.328125l1.234375 0l0 7.296875l-1.234375 0l0 -1.359375q-0.359375 0.640625 -1.078125 1.0625q-0.703125 0.421875 -1.640625 0.421875q-0.984375 0 -1.765625 -0.484375q-0.78125 -0.484375 -1.234375 -1.34375q-0.453125 -0.875 -0.453125 -1.96875zm6.171875 0q0 -0.8125 -0.328125 -1.421875q-0.328125 -0.625 -0.90625 -0.953125q-0.5625 -0.328125 -1.234375 -0.328125q-0.6875 0 -1.25 0.328125q-0.546875 0.3125 -0.890625 0.9375q-0.328125 0.609375 -0.328125 1.4375q0 0.828125 0.328125 1.453125q0.34375 0.625 0.890625 0.953125q0.5625 0.3125 1.25 0.3125q0.671875 0 1.234375 -0.3125q0.578125 -0.328125 0.90625 -0.953125q0.328125 -0.625 0.328125 -1.453125zm4.759781 -2.625l0 4.296875q0 0.53125 0.21875 0.75q0.234375 0.21875 0.796875 0.21875l0.890625 0l0 1.03125l-1.09375 0q-1.0 0 -1.515625 -0.46875q-0.5 -0.46875 -0.5 -1.53125l0 -4.296875l-0.953125 0l0 -1.0l0.953125 0l0 -1.84375l1.203125 0l0 1.84375l1.90625 0l0 1.0l-1.90625 0zm2.9295502 2.625q0 -1.125 0.453125 -1.96875q0.453125 -0.84375 1.25 -1.3125q0.8125 -0.46875 1.84375 -0.46875q1.359375 0 2.21875 0.65625q0.875 0.640625 1.15625 1.8125l-1.296875 0q-0.1875 -0.671875 -0.734375 -1.046875q-0.53125 -0.390625 -1.34375 -0.390625q-1.03125 0 -1.671875 0.71875q-0.640625 0.703125 -0.640625 2.0q0 1.328125 0.640625 2.046875q0.640625 0.71875 1.671875 0.71875q0.8125 0 1.34375 -0.375q0.53125 -0.375 0.734375 -1.0625l1.296875 0q-0.296875 1.125 -1.171875 1.796875q-0.875 0.671875 -2.203125 0.671875q-1.03125 0 -1.84375 -0.46875q-0.796875 -0.46875 -1.25 -1.3125q-0.453125 -0.859375 -0.453125 -2.015625zm12.168274 -3.765625q0.828125 0 1.484375 0.359375q0.671875 0.34375 1.046875 1.0625q0.390625 0.703125 0.390625 1.703125l0 4.3125l-1.203125 0l0 -4.125q0 -1.09375 -0.546875 -1.671875q-0.546875 -0.59375 -1.5 -0.59375q-0.953125 0 -1.53125 0.609375q-0.5625 0.59375 -0.5625 1.75l0 4.03125l-1.203125 0l0 -9.859375l1.203125 0l0 3.59375q0.359375 -0.5625 0.984375 -0.859375q0.640625 -0.3125 1.4375 -0.3125z" fill-rule="nonzero"/><path fill="#ffcc66" d="m68.002625 131.27559l57.259842 0l0 30.015747l-57.259842 0z" fill-rule="evenodd"/><path stroke="#ffffff" stroke-width="1.0" stroke-linejoin="round" stroke-linecap="butt" d="m68.002625 131.27559l57.259842 0l0 30.015747l-57.259842 0z" fill-rule="evenodd"/><path fill="#000000" d="m79.12137 145.14597q0.375 -0.65625 1.09375 -1.0625q0.71875 -0.421875 1.640625 -0.421875q0.984375 0 1.765625 0.46875q0.796875 0.46875 1.25 1.3125q0.453125 0.84375 0.453125 1.96875q0 1.09375 -0.453125 1.96875q-0.453125 0.859375 -1.25 1.34375q-0.796875 0.484375 -1.765625 0.484375q-0.9375 0 -1.65625 -0.40625q-0.71875 -0.421875 -1.078125 -1.0625l0 1.34375l-1.203125 0l0 -9.859375l1.203125 0l0 3.921875zm4.96875 2.265625q0 -0.828125 -0.34375 -1.4375q-0.328125 -0.625 -0.90625 -0.9375q-0.5625 -0.328125 -1.234375 -0.328125q-0.671875 0 -1.234375 0.328125q-0.5625 0.328125 -0.90625 0.953125q-0.34375 0.609375 -0.34375 1.421875q0 0.828125 0.34375 1.453125q0.34375 0.625 0.90625 0.953125q0.5625 0.3125 1.234375 0.3125q0.671875 0 1.234375 -0.3125q0.578125 -0.328125 0.90625 -0.953125q0.34375 -0.625 0.34375 -1.453125zm2.384781 0q0 -1.125 0.453125 -1.96875q0.453125 -0.84375 1.234375 -1.3125q0.796875 -0.46875 1.765625 -0.46875q0.96875 0 1.671875 0.421875q0.703125 0.40625 1.046875 1.03125l0 -1.328125l1.234375 0l0 7.296875l-1.234375 0l0 -1.359375q-0.359375 0.640625 -1.078125 1.0625q-0.703125 0.421875 -1.640625 0.421875q-0.984375 0 -1.765625 -0.484375q-0.78125 -0.484375 -1.234375 -1.34375q-0.453125 -0.875 -0.453125 -1.96875zm6.171875 0q0 -0.8125 -0.328125 -1.421875q-0.328125 -0.625 -0.90625 -0.953125q-0.5625 -0.328125 -1.234375 -0.328125q-0.6875 0 -1.25 0.328125q-0.546875 0.3125 -0.890625 0.9375q-0.328125 0.609375 -0.328125 1.4375q0 0.828125 0.328125 1.453125q0.34375 0.625 0.890625 0.953125q0.5625 0.3125 1.25 0.3125q0.671875 0 1.234375 -0.3125q0.578125 -0.328125 0.90625 -0.953125q0.328125 -0.625 0.328125 -1.453125zm4.759781 -2.625l0 4.296875q0 0.53125 0.21875 0.75q0.234375 0.21875 0.796875 0.21875l0.890625 0l0 1.03125l-1.09375 0q-1.0 0 -1.515625 -0.46875q-0.5 -0.46875 -0.5 -1.53125l0 -4.296875l-0.953125 0l0 -1.0l0.953125 0l0 -1.84375l1.203125 0l0 1.84375l1.90625 0l0 1.0l-1.90625 0zm2.9295502 2.625q0 -1.125 0.453125 -1.96875q0.453125 -0.84375 1.25 -1.3125q0.8125 -0.46875 1.84375 -0.46875q1.359375 0 2.21875 0.65625q0.875 0.640625 1.15625 1.8125l-1.296875 0q-0.1875 -0.671875 -0.734375 -1.046875q-0.53125 -0.390625 -1.34375 -0.390625q-1.03125 0 -1.671875 0.71875q-0.640625 0.703125 -0.640625 2.0q0 1.328125 0.640625 2.046875q0.640625 0.71875 1.671875 0.71875q0.8125 0 1.34375 -0.375q0.53125 -0.375 0.734375 -1.0625l1.296875 0q-0.296875 1.125 -1.171875 1.796875q-0.875 0.671875 -2.203125 0.671875q-1.03125 0 -1.84375 -0.46875q-0.796875 -0.46875 -1.25 -1.3125q-0.453125 -0.859375 -0.453125 -2.015625zm12.168274 -3.765625q0.828125 0 1.484375 0.359375q0.671875 0.34375 1.046875 1.0625q0.390625 0.703125 0.390625 1.703125l0 4.3125l-1.203125 0l0 -4.125q0 -1.09375 -0.546875 -1.671875q-0.546875 -0.59375 -1.5 -0.59375q-0.953125 0 -1.53125 0.609375q-0.5625 0.59375 -0.5625 1.75l0 4.03125l-1.203125 0l0 -9.859375l1.203125 0l0 3.59375q0.359375 -0.5625 0.984375 -0.859375q0.640625 -0.3125 1.4375 -0.3125z" fill-rule="nonzero"/><path fill="#ff6666" fill-opacity="0.6089" d="m166.92389 149.9111l0 0c0 -9.289017 7.5302277 -16.819244 16.81923 -16.819244l67.27492 0l0 0c4.460739 0 8.73877 1.7720337 11.893005 4.926239c3.1542053 3.1542206 4.926239 7.432266 4.926239 11.893005l0 67.27492c0 9.289001 -7.530243 16.81923 -16.819244 16.81923l-67.27492 0c-9.289001 0 -16.81923 -7.5302277 -16.81923 -16.81923z" fill-rule="evenodd"/><path stroke="#ffffff" stroke-width="1.0" stroke-linejoin="round" stroke-linecap="butt" d="m166.92389 149.9111l0 0c0 -9.289017 7.5302277 -16.819244 16.81923 -16.819244l67.27492 0l0 0c4.460739 0 8.73877 1.7720337 11.893005 4.926239c3.1542053 3.1542206 4.926239 7.432266 4.926239 11.893005l0 67.27492c0 9.289001 -7.530243 16.81923 -16.819244 16.81923l-67.27492 0c-9.289001 0 -16.81923 -7.5302277 -16.81923 -16.81923z" fill-rule="evenodd"/><path fill="#ff6666" fill-opacity="0.6089" d="m182.92389 154.0316l0 0c0 -2.7281494 2.2115936 -4.939743 4.939728 -4.939743l19.758331 0l0 0c1.3101044 0 2.5665436 0.5204468 3.49292 1.4468231c0.92637634 0.92637634 1.4468079 2.1828156 1.4468079 3.49292l0 19.758331c0 2.7281342 -2.2115936 4.939728 -4.939728 4.939728l-19.758331 0c-2.7281342 0 -4.939728 -2.2115936 -4.939728 -4.939728z" fill-rule="evenodd"/><path stroke="#ffffff" stroke-width="1.0" stroke-linejoin="round" stroke-linecap="butt" d="m182.92389 154.0316l0 0c0 -2.7281494 2.2115936 -4.939743 4.939728 -4.939743l19.758331 0l0 0c1.3101044 0 2.5665436 0.5204468 3.49292 1.4468231c0.92637634 0.92637634 1.4468079 2.1828156 1.4468079 3.49292l0 19.758331c0 2.7281342 -2.2115936 4.939728 -4.939728 4.939728l-19.758331 0c-2.7281342 0 -4.939728 -2.2115936 -4.939728 -4.939728z" fill-rule="evenodd"/><path fill="#ff6666" fill-opacity="0.6089" d="m223.62466 154.0316l0 0c0 -2.7281494 2.2115936 -4.939743 4.939743 -4.939743l19.758331 0l0 0c1.3100891 0 2.5665283 0.5204468 3.49292 1.4468231c0.92637634 0.92637634 1.4468079 2.1828156 1.4468079 3.49292l0 19.758331c0 2.7281342 -2.2115936 4.939728 -4.939728 4.939728l-19.758331 0c-2.7281494 0 -4.939743 -2.2115936 -4.939743 -4.939728z" fill-rule="evenodd"/><path stroke="#ffffff" stroke-width="1.0" stroke-linejoin="round" stroke-linecap="butt" d="m223.62466 154.0316l0 0c0 -2.7281494 2.2115936 -4.939743 4.939743 -4.939743l19.758331 0l0 0c1.3100891 0 2.5665283 0.5204468 3.49292 1.4468231c0.92637634 0.92637634 1.4468079 2.1828156 1.4468079 3.49292l0 19.758331c0 2.7281342 -2.2115936 4.939728 -4.939728 4.939728l-19.758331 0c-2.7281494 0 -4.939743 -2.2115936 -4.939743 -4.939728z" fill-rule="evenodd"/><path fill="#ff6666" fill-opacity="0.6089" d="m182.92389 191.48566l0 0c0 -2.7281342 2.2115936 -4.939728 4.939728 -4.939728l19.758331 0l0 0c1.3101044 0 2.5665436 0.5204315 3.49292 1.4468231c0.92637634 0.92637634 1.4468079 2.1828156 1.4468079 3.4929047l0 19.758347c0 2.7281342 -2.2115936 4.939728 -4.939728 4.939728l-19.758331 0c-2.7281342 0 -4.939728 -2.2115936 -4.939728 -4.939728z" fill-rule="evenodd"/><path stroke="#ffffff" stroke-width="1.0" stroke-linejoin="round" stroke-linecap="butt" d="m182.92389 191.48566l0 0c0 -2.7281342 2.2115936 -4.939728 4.939728 -4.939728l19.758331 0l0 0c1.3101044 0 2.5665436 0.5204315 3.49292 1.4468231c0.92637634 0.92637634 1.4468079 2.1828156 1.4468079 3.4929047l0 19.758347c0 2.7281342 -2.2115936 4.939728 -4.939728 4.939728l-19.758331 0c-2.7281342 0 -4.939728 -2.2115936 -4.939728 -4.939728z" fill-rule="evenodd"/><path fill="#ff6666" fill-opacity="0.6089" d="m223.62466 191.48566l0 0c0 -2.7281342 2.2115936 -4.939728 4.939743 -4.939728l19.758331 0l0 0c1.3100891 0 2.5665283 0.5204315 3.49292 1.4468231c0.92637634 0.92637634 1.4468079 2.1828156 1.4468079 3.4929047l0 19.758347c0 2.7281342 -2.2115936 4.939728 -4.939728 4.939728l-19.758331 0c-2.7281494 0 -4.939743 -2.2115936 -4.939743 -4.939728z" fill-rule="evenodd"/><path stroke="#ffffff" stroke-width="1.0" stroke-linejoin="round" stroke-linecap="butt" d="m223.62466 191.48566l0 0c0 -2.7281342 2.2115936 -4.939728 4.939743 -4.939728l19.758331 0l0 0c1.3100891 0 2.5665283 0.5204315 3.49292 1.4468231c0.92637634 0.92637634 1.4468079 2.1828156 1.4468079 3.4929047l0 19.758347c0 2.7281342 -2.2115936 4.939728 -4.939728 4.939728l-19.758331 0c-2.7281494 0 -4.939743 -2.2115936 -4.939743 -4.939728z" fill-rule="evenodd"/><path fill="#000000" fill-opacity="0.0" d="m125.26247 146.28346c14.415298 0 21.621948 13.771652 28.830612 27.543304c7.208664 13.771652 14.419342 27.543304 28.838684 27.543304" fill-rule="evenodd"/><path stroke="#000000" stroke-width="1.0" stroke-linejoin="round" stroke-linecap="butt" stroke-dasharray="1.0,3.0" d="m125.26247 146.28346c14.415298 0 21.621948 13.771652 28.830612 27.543304c3.6043243 6.8858337 7.209152 13.771652 11.715332 18.936035c2.2530823 2.5821838 4.7315063 4.7339935 7.547867 6.24028c1.4081726 0.75312805 2.9008331 1.3448944 4.4920654 1.748352c0.39779663 0.100860596 0.8017578 0.18995667 1.2121124 0.26687622c0.10258484 0.019210815 0.2055664 0.03768921 0.3089447 0.055389404l0.14611816 0.02381897" fill-rule="evenodd"/><path fill="#000000" stroke="#000000" stroke-width="1.0" stroke-linecap="butt" d="m179.51553 201.09753l-1.2104645 1.0315857l3.1694183 -0.8753052l-2.9905396 -1.366745z" fill-rule="evenodd"/><path fill="#000000" fill-opacity="0.0" d="m109.26247 130.28346c28.590546 0 42.885834 17.771652 57.181107 35.543304c14.295273 17.771652 28.590546 35.543304 57.18109 35.543304" fill-rule="evenodd"/><path stroke="#000000" stroke-width="1.0" stroke-linejoin="round" stroke-linecap="butt" stroke-dasharray="1.0,3.0" d="m109.26247 130.28346c28.590546 0 42.885834 17.771652 57.181107 35.543304c7.147629 8.885834 14.295273 17.771652 23.229813 24.436035c4.467285 3.3321838 9.381287 6.1089935 14.965378 8.05278c2.7920532 0.97187805 5.7516174 1.7355194 8.906616 2.2561646c1.5775146 0.26031494 3.203888 0.45991516 4.882599 0.5944061c0.41966248 0.03363037 0.8426361 0.06317139 1.2689056 0.08860779l0.50183105 0.027389526" fill-rule="evenodd"/><path fill="#000000" stroke="#000000" stroke-width="1.0" stroke-linecap="butt" d="m220.19872 201.28214l-1.1530762 1.0953674l3.1176147 -1.0449371l-3.0598907 -1.2034912z" fill-rule="evenodd"/><path fill="#000000" fill-opacity="0.0" d="m93.26247 114.28346c32.590553 0 48.885834 12.409454 65.18111 24.818893c16.295273 12.409454 32.590546 24.818909 65.18109 24.818909" fill-rule="evenodd"/><path stroke="#000000" stroke-width="1.0" stroke-linejoin="round" stroke-linecap="butt" stroke-dasharray="1.0,3.0" d="m93.26247 114.28346c32.590553 0 48.885834 12.409454 65.18111 24.818893c8.147629 6.204727 16.295273 12.409454 26.479813 17.063004c5.092285 2.326767 10.693787 4.265747 17.059128 5.6230316c3.1826782 0.67863464 6.556305 1.211853 10.152725 1.5754089c1.7982025 0.18177795 3.6520996 0.32115173 5.565689 0.41506958c0.47839355 0.023483276 0.96051025 0.04411316 1.4464417 0.06185913c0.24295044 0.008880615 0.48686218 0.017044067 0.7317047 0.024475098l0.31884766 0.008682251" fill-rule="evenodd"/><path fill="#000000" stroke="#000000" stroke-width="1.0" stroke-linecap="butt" d="m220.1979 163.87389l-1.1400146 1.1089172l3.105011 -1.0817566l-3.0739136 -1.1671906z" fill-rule="evenodd"/><path fill="#000000" fill-opacity="0.0" d="m77.26247 98.28346c26.415207 0 39.621758 16.409454 52.830414 32.818893c13.208664 16.409454 26.419449 32.81891 52.838882 32.81891" fill-rule="evenodd"/><path stroke="#000000" stroke-width="1.0" stroke-linejoin="round" stroke-linecap="butt" stroke-dasharray="1.0,3.0" d="m77.26247 98.28346c26.415215 0 39.621758 16.409454 52.83043 32.818893c6.6043243 8.204727 13.209183 16.409454 21.465393 22.563004c4.1280975 3.076767 8.669037 5.640747 13.829163 7.4355316c2.5800629 0.89738464 5.314926 1.602478 8.230377 2.0832214c1.4577332 0.2403717 2.9606018 0.42466736 4.511841 0.54885864c0.38781738 0.031051636 0.778656 0.05833435 1.1725616 0.08181763l0.20378113 0.011108398" fill-rule="evenodd"/><path fill="#000000" stroke="#000000" stroke-width="1.0" stroke-linecap="butt" d="m179.506 163.8259l-1.1554413 1.0928497l3.119873 -1.0381622l-3.0572815 -1.2101288z" fill-rule="evenodd"/><path fill="#000000" fill-opacity="0.0" d="m188.75066 106.0l57.259842 0l0 30.015747l-57.259842 0z" fill-rule="evenodd"/><path fill="#000000" d="m199.27867 121.21225q0 -1.890625 0.859375 -3.40625q0.859375 -1.53125 2.34375 -2.390625q1.484375 -0.859375 3.296875 -0.859375q2.125 0 3.703125 1.03125q1.59375 1.015625 2.328125 2.90625l-2.046875 0q-0.53125 -1.171875 -1.546875 -1.796875q-1.015625 -0.640625 -2.4375 -0.640625q-1.359375 0 -2.453125 0.640625q-1.078125 0.625 -1.703125 1.796875q-0.609375 1.15625 -0.609375 2.71875q0 1.546875 0.609375 2.71875q0.625 1.171875 1.703125 1.8125q1.09375 0.625 2.453125 0.625q1.421875 0 2.4375 -0.625q1.015625 -0.625 1.546875 -1.796875l2.046875 0q-0.734375 1.859375 -2.328125 2.875q-1.578125 1.015625 -3.703125 1.015625q-1.8125 0 -3.296875 -0.84375q-1.484375 -0.84375 -2.34375 -2.359375q-0.859375 -1.515625 -0.859375 -3.421875zm23.730759 -2.6875q0 1.625 -1.109375 2.703125q-1.109375 1.078125 -3.375 1.078125l-2.5 0l0 5.421875l-1.703125 0l0 -13.0l4.203125 0q2.1875 0 3.328125 1.0625q1.15625 1.0625 1.15625 2.734375zm-4.484375 2.375q1.40625 0 2.078125 -0.609375q0.671875 -0.625 0.671875 -1.765625q0 -2.40625 -2.75 -2.40625l-2.5 0l0 4.78125l2.5 0zm8.255096 -6.171875l0 8.21875q0 1.734375 0.84375 2.578125q0.859375 0.84375 2.375 0.84375q1.484375 0 2.328125 -0.84375q0.859375 -0.84375 0.859375 -2.578125l0 -8.21875l1.6875 0l0 8.203125q0 1.625 -0.65625 2.734375q-0.640625 1.109375 -1.75 1.65625q-1.109375 0.53125 -2.5 0.53125q-1.375 0 -2.484375 -0.53125q-1.109375 -0.546875 -1.75 -1.65625q-0.640625 -1.109375 -0.640625 -2.734375l0 -8.203125l1.6875 0z" fill-rule="nonzero"/><path fill="#32c8cd" d="m293.95538 168.54068l57.259827 0l0 30.015747l-57.259827 0z" fill-rule="evenodd"/><path stroke="#ffffff" stroke-width="1.0" stroke-linejoin="round" stroke-linecap="butt" d="m293.95538 168.54068l57.259827 0l0 30.015747l-57.259827 0z" fill-rule="evenodd"/><path fill="#ffffff" d="m305.07413 182.41106q0.375 -0.65625 1.09375 -1.0625q0.71875 -0.421875 1.640625 -0.421875q0.984375 0 1.765625 0.46875q0.796875 0.46875 1.25 1.3125q0.453125 0.84375 0.453125 1.96875q0 1.09375 -0.453125 1.96875q-0.453125 0.859375 -1.25 1.34375q-0.796875 0.484375 -1.765625 0.484375q-0.9375 0 -1.65625 -0.40625q-0.71875 -0.421875 -1.078125 -1.0625l0 1.34375l-1.203125 0l0 -9.859375l1.203125 0l0 3.921875zm4.96875 2.265625q0 -0.828125 -0.34375 -1.4375q-0.328125 -0.625 -0.90625 -0.9375q-0.5625 -0.328125 -1.234375 -0.328125q-0.671875 0 -1.234375 0.328125q-0.5625 0.328125 -0.90625 0.953125q-0.34375 0.609375 -0.34375 1.421875q0 0.828125 0.34375 1.453125q0.34375 0.625 0.90625 0.953125q0.5625 0.3125 1.234375 0.3125q0.671875 0 1.234375 -0.3125q0.578125 -0.328125 0.90625 -0.953125q0.34375 -0.625 0.34375 -1.453125zm2.3847656 0q0 -1.125 0.453125 -1.96875q0.453125 -0.84375 1.234375 -1.3125q0.796875 -0.46875 1.765625 -0.46875q0.96875 0 1.671875 0.421875q0.703125 0.40625 1.046875 1.03125l0 -1.328125l1.234375 0l0 7.296875l-1.234375 0l0 -1.359375q-0.359375 0.640625 -1.078125 1.0625q-0.703125 0.421875 -1.640625 0.421875q-0.984375 0 -1.765625 -0.484375q-0.78125 -0.484375 -1.234375 -1.34375q-0.453125 -0.875 -0.453125 -1.96875zm6.171875 0q0 -0.8125 -0.328125 -1.421875q-0.328125 -0.625 -0.90625 -0.953125q-0.5625 -0.328125 -1.234375 -0.328125q-0.6875 0 -1.25 0.328125q-0.546875 0.3125 -0.890625 0.9375q-0.328125 0.609375 -0.328125 1.4375q0 0.828125 0.328125 1.453125q0.34375 0.625 0.890625 0.953125q0.5625 0.3125 1.25 0.3125q0.671875 0 1.234375 -0.3125q0.578125 -0.328125 0.90625 -0.953125q0.328125 -0.625 0.328125 -1.453125zm4.759796 -2.625l0 4.296875q0 0.53125 0.21875 0.75q0.234375 0.21875 0.796875 0.21875l0.890625 0l0 1.03125l-1.09375 0q-1.0 0 -1.515625 -0.46875q-0.5 -0.46875 -0.5 -1.53125l0 -4.296875l-0.953125 0l0 -1.0l0.953125 0l0 -1.84375l1.203125 0l0 1.84375l1.90625 0l0 1.0l-1.90625 0zm2.929535 2.625q0 -1.125 0.453125 -1.96875q0.453125 -0.84375 1.25 -1.3125q0.8125 -0.46875 1.84375 -0.46875q1.359375 0 2.21875 0.65625q0.875 0.640625 1.15625 1.8125l-1.296875 0q-0.1875 -0.671875 -0.734375 -1.046875q-0.53125 -0.390625 -1.34375 -0.390625q-1.03125 0 -1.671875 0.71875q-0.640625 0.703125 -0.640625 2.0q0 1.328125 0.640625 2.046875q0.640625 0.71875 1.671875 0.71875q0.8125 0 1.34375 -0.375q0.53125 -0.375 0.734375 -1.0625l1.296875 0q-0.296875 1.125 -1.171875 1.796875q-0.875 0.671875 -2.203125 0.671875q-1.03125 0 -1.84375 -0.46875q-0.796875 -0.46875 -1.25 -1.3125q-0.453125 -0.859375 -0.453125 -2.015625zm12.168274 -3.765625q0.828125 0 1.484375 0.359375q0.671875 0.34375 1.046875 1.0625q0.390625 0.703125 0.390625 1.703125l0 4.3125l-1.203125 0l0 -4.125q0 -1.09375 -0.546875 -1.671875q-0.546875 -0.59375 -1.5 -0.59375q-0.953125 0 -1.53125 0.609375q-0.5625 0.59375 -0.5625 1.75l0 4.03125l-1.203125 0l0 -9.859375l1.203125 0l0 3.59375q0.359375 -0.5625 0.984375 -0.859375q0.640625 -0.3125 1.4375 -0.3125z" fill-rule="nonzero"/><path fill="#32c8cd" d="m352.6929 168.54068l57.259857 0l0 30.015747l-57.259857 0z" fill-rule="evenodd"/><path stroke="#ffffff" stroke-width="1.0" stroke-linejoin="round" stroke-linecap="butt" d="m352.6929 168.54068l57.259857 0l0 30.015747l-57.259857 0z" fill-rule="evenodd"/><path fill="#ffffff" d="m363.81165 182.41106q0.375 -0.65625 1.09375 -1.0625q0.71875 -0.421875 1.640625 -0.421875q0.984375 0 1.765625 0.46875q0.796875 0.46875 1.25 1.3125q0.453125 0.84375 0.453125 1.96875q0 1.09375 -0.453125 1.96875q-0.453125 0.859375 -1.25 1.34375q-0.796875 0.484375 -1.765625 0.484375q-0.9375 0 -1.65625 -0.40625q-0.71875 -0.421875 -1.078125 -1.0625l0 1.34375l-1.203125 0l0 -9.859375l1.203125 0l0 3.921875zm4.96875 2.265625q0 -0.828125 -0.34375 -1.4375q-0.328125 -0.625 -0.90625 -0.9375q-0.5625 -0.328125 -1.234375 -0.328125q-0.671875 0 -1.234375 0.328125q-0.5625 0.328125 -0.90625 0.953125q-0.34375 0.609375 -0.34375 1.421875q0 0.828125 0.34375 1.453125q0.34375 0.625 0.90625 0.953125q0.5625 0.3125 1.234375 0.3125q0.671875 0 1.234375 -0.3125q0.578125 -0.328125 0.90625 -0.953125q0.34375 -0.625 0.34375 -1.453125zm2.3847961 0q0 -1.125 0.453125 -1.96875q0.453125 -0.84375 1.234375 -1.3125q0.796875 -0.46875 1.765625 -0.46875q0.96875 0 1.671875 0.421875q0.703125 0.40625 1.046875 1.03125l0 -1.328125l1.234375 0l0 7.296875l-1.234375 0l0 -1.359375q-0.359375 0.640625 -1.078125 1.0625q-0.703125 0.421875 -1.640625 0.421875q-0.984375 0 -1.765625 -0.484375q-0.78125 -0.484375 -1.234375 -1.34375q-0.453125 -0.875 -0.453125 -1.96875zm6.171875 0q0 -0.8125 -0.328125 -1.421875q-0.328125 -0.625 -0.90625 -0.953125q-0.5625 -0.328125 -1.234375 -0.328125q-0.6875 0 -1.25 0.328125q-0.546875 0.3125 -0.890625 0.9375q-0.328125 0.609375 -0.328125 1.4375q0 0.828125 0.328125 1.453125q0.34375 0.625 0.890625 0.953125q0.5625 0.3125 1.25 0.3125q0.671875 0 1.234375 -0.3125q0.578125 -0.328125 0.90625 -0.953125q0.328125 -0.625 0.328125 -1.453125zm4.7597656 -2.625l0 4.296875q0 0.53125 0.21875 0.75q0.234375 0.21875 0.796875 0.21875l0.890625 0l0 1.03125l-1.09375 0q-1.0 0 -1.515625 -0.46875q-0.5 -0.46875 -0.5 -1.53125l0 -4.296875l-0.953125 0l0 -1.0l0.953125 0l0 -1.84375l1.203125 0l0 1.84375l1.90625 0l0 1.0l-1.90625 0zm2.9295654 2.625q0 -1.125 0.453125 -1.96875q0.453125 -0.84375 1.25 -1.3125q0.8125 -0.46875 1.84375 -0.46875q1.359375 0 2.21875 0.65625q0.875 0.640625 1.15625 1.8125l-1.296875 0q-0.1875 -0.671875 -0.734375 -1.046875q-0.53125 -0.390625 -1.34375 -0.390625q-1.03125 0 -1.671875 0.71875q-0.640625 0.703125 -0.640625 2.0q0 1.328125 0.640625 2.046875q0.640625 0.71875 1.671875 0.71875q0.8125 0 1.34375 -0.375q0.53125 -0.375 0.734375 -1.0625l1.296875 0q-0.296875 1.125 -1.171875 1.796875q-0.875 0.671875 -2.203125 0.671875q-1.03125 0 -1.84375 -0.46875q-0.796875 -0.46875 -1.25 -1.3125q-0.453125 -0.859375 -0.453125 -2.015625zm12.168274 -3.765625q0.828125 0 1.484375 0.359375q0.671875 0.34375 1.046875 1.0625q0.390625 0.703125 0.390625 1.703125l0 4.3125l-1.203125 0l0 -4.125q0 -1.09375 -0.546875 -1.671875q-0.546875 -0.59375 -1.5 -0.59375q-0.953125 0 -1.53125 0.609375q-0.5625 0.59375 -0.5625 1.75l0 4.03125l-1.203125 0l0 -9.859375l1.203125 0l0 3.59375q0.359375 -0.5625 0.984375 -0.859375q0.640625 -0.3125 1.4375 -0.3125z" fill-rule="nonzero"/><path fill="#32c8cd" d="m411.43045 168.54068l57.259827 0l0 30.015747l-57.259827 0z" fill-rule="evenodd"/><path stroke="#ffffff" stroke-width="1.0" stroke-linejoin="round" stroke-linecap="butt" d="m411.43045 168.54068l57.259827 0l0 30.015747l-57.259827 0z" fill-rule="evenodd"/><path fill="#ffffff" d="m422.5492 182.41106q0.375 -0.65625 1.09375 -1.0625q0.71875 -0.421875 1.640625 -0.421875q0.984375 0 1.765625 0.46875q0.796875 0.46875 1.25 1.3125q0.453125 0.84375 0.453125 1.96875q0 1.09375 -0.453125 1.96875q-0.453125 0.859375 -1.25 1.34375q-0.796875 0.484375 -1.765625 0.484375q-0.9375 0 -1.65625 -0.40625q-0.71875 -0.421875 -1.078125 -1.0625l0 1.34375l-1.203125 0l0 -9.859375l1.203125 0l0 3.921875zm4.96875 2.265625q0 -0.828125 -0.34375 -1.4375q-0.328125 -0.625 -0.90625 -0.9375q-0.5625 -0.328125 -1.234375 -0.328125q-0.671875 0 -1.234375 0.328125q-0.5625 0.328125 -0.90625 0.953125q-0.34375 0.609375 -0.34375 1.421875q0 0.828125 0.34375 1.453125q0.34375 0.625 0.90625 0.953125q0.5625 0.3125 1.234375 0.3125q0.671875 0 1.234375 -0.3125q0.578125 -0.328125 0.90625 -0.953125q0.34375 -0.625 0.34375 -1.453125zm2.3847656 0q0 -1.125 0.453125 -1.96875q0.453125 -0.84375 1.234375 -1.3125q0.796875 -0.46875 1.765625 -0.46875q0.96875 0 1.671875 0.421875q0.703125 0.40625 1.046875 1.03125l0 -1.328125l1.234375 0l0 7.296875l-1.234375 0l0 -1.359375q-0.359375 0.640625 -1.078125 1.0625q-0.703125 0.421875 -1.640625 0.421875q-0.984375 0 -1.765625 -0.484375q-0.78125 -0.484375 -1.234375 -1.34375q-0.453125 -0.875 -0.453125 -1.96875zm6.171875 0q0 -0.8125 -0.328125 -1.421875q-0.328125 -0.625 -0.90625 -0.953125q-0.5625 -0.328125 -1.234375 -0.328125q-0.6875 0 -1.25 0.328125q-0.546875 0.3125 -0.890625 0.9375q-0.328125 0.609375 -0.328125 1.4375q0 0.828125 0.328125 1.453125q0.34375 0.625 0.890625 0.953125q0.5625 0.3125 1.25 0.3125q0.671875 0 1.234375 -0.3125q0.578125 -0.328125 0.90625 -0.953125q0.328125 -0.625 0.328125 -1.453125zm4.759796 -2.625l0 4.296875q0 0.53125 0.21875 0.75q0.234375 0.21875 0.796875 0.21875l0.890625 0l0 1.03125l-1.09375 0q-1.0 0 -1.515625 -0.46875q-0.5 -0.46875 -0.5 -1.53125l0 -4.296875l-0.953125 0l0 -1.0l0.953125 0l0 -1.84375l1.203125 0l0 1.84375l1.90625 0l0 1.0l-1.90625 0zm2.929535 2.625q0 -1.125 0.453125 -1.96875q0.453125 -0.84375 1.25 -1.3125q0.8125 -0.46875 1.84375 -0.46875q1.359375 0 2.21875 0.65625q0.875 0.640625 1.15625 1.8125l-1.296875 0q-0.1875 -0.671875 -0.734375 -1.046875q-0.53125 -0.390625 -1.34375 -0.390625q-1.03125 0 -1.671875 0.71875q-0.640625 0.703125 -0.640625 2.0q0 1.328125 0.640625 2.046875q0.640625 0.71875 1.671875 0.71875q0.8125 0 1.34375 -0.375q0.53125 -0.375 0.734375 -1.0625l1.296875 0q-0.296875 1.125 -1.171875 1.796875q-0.875 0.671875 -2.203125 0.671875q-1.03125 0 -1.84375 -0.46875q-0.796875 -0.46875 -1.25 -1.3125q-0.453125 -0.859375 -0.453125 -2.015625zm12.168274 -3.765625q0.828125 0 1.484375 0.359375q0.671875 0.34375 1.046875 1.0625q0.390625 0.703125 0.390625 1.703125l0 4.3125l-1.203125 0l0 -4.125q0 -1.09375 -0.546875 -1.671875q-0.546875 -0.59375 -1.5 -0.59375q-0.953125 0 -1.53125 0.609375q-0.5625 0.59375 -0.5625 1.75l0 4.03125l-1.203125 0l0 -9.859375l1.203125 0l0 3.59375q0.359375 -0.5625 0.984375 -0.859375q0.640625 -0.3125 1.4375 -0.3125z" fill-rule="nonzero"/><path fill="#32c8cd" fill-opacity="0.5363" d="m490.1942 149.9111l0 0c0 -9.289017 7.530243 -16.819244 16.819244 -16.819244l67.27493 0l0 0c4.4607544 0 8.73877 1.7720337 11.893005 4.926239c3.1541748 3.1542206 4.9262085 7.432266 4.9262085 11.893005l0 67.27492c0 9.289001 -7.5302124 16.81923 -16.819214 16.81923l-67.27493 0c-9.289001 0 -16.819244 -7.5302277 -16.819244 -16.81923z" fill-rule="evenodd"/><path stroke="#ffffff" stroke-width="1.0" stroke-linejoin="round" stroke-linecap="butt" d="m490.1942 149.9111l0 0c0 -9.289017 7.530243 -16.819244 16.819244 -16.819244l67.27493 0l0 0c4.4607544 0 8.73877 1.7720337 11.893005 4.926239c3.1541748 3.1542206 4.9262085 7.432266 4.9262085 11.893005l0 67.27492c0 9.289001 -7.5302124 16.81923 -16.819214 16.81923l-67.27493 0c-9.289001 0 -16.819244 -7.5302277 -16.819244 -16.81923z" fill-rule="evenodd"/><path fill="#000000" fill-opacity="0.0" d="m509.3832 168.54068l61.543304 0l0 30.015747l-61.543304 0z" fill-rule="evenodd"/><path fill="#000000" d="m532.4813 181.03418q-0.53125 -1.140625 -1.5625 -1.765625q-1.03125 -0.625 -2.390625 -0.625q-1.359375 0 -2.453125 0.625q-1.09375 0.625 -1.71875 1.796875q-0.625 1.15625 -0.625 2.6875q0 1.53125 0.625 2.6875q0.625 1.15625 1.71875 1.78125q1.09375 0.625 2.453125 0.625q1.90625 0 3.140625 -1.125q1.234375 -1.140625 1.4375 -3.09375l-5.1875 0l0 -1.375l7.0 0l0 1.3125q-0.15625 1.59375 -1.015625 2.9375q-0.859375 1.328125 -2.265625 2.109375q-1.390625 0.765625 -3.109375 0.765625q-1.8125 0 -3.3125 -0.84375q-1.484375 -0.84375 -2.359375 -2.359375q-0.859375 -1.515625 -0.859375 -3.421875q0 -1.890625 0.859375 -3.40625q0.875 -1.53125 2.359375 -2.375q1.5 -0.859375 3.3125 -0.859375q2.078125 0 3.671875 1.03125q1.59375 1.03125 2.328125 2.890625l-2.046875 0zm13.358337 0.03125q0 1.625 -1.109375 2.703125q-1.109375 1.078125 -3.375 1.078125l-2.5 0l0 5.421875l-1.703125 0l0 -13.0l4.203125 0q2.1875 0 3.328125 1.0625q1.15625 1.0625 1.15625 2.734375zm-4.484375 2.375q1.40625 0 2.078125 -0.609375q0.671875 -0.625 0.671875 -1.765625q0 -2.40625 -2.75 -2.40625l-2.5 0l0 4.78125l2.5 0zm8.255127 -6.171875l0 8.21875q0 1.734375 0.84375 2.578125q0.859375 0.84375 2.375 0.84375q1.484375 0 2.328125 -0.84375q0.859375 -0.84375 0.859375 -2.578125l0 -8.21875l1.6875 0l0 8.203125q0 1.625 -0.65625 2.734375q-0.640625 1.109375 -1.75 1.65625q-1.109375 0.53125 -2.5 0.53125q-1.375 0 -2.484375 -0.53125q-1.109375 -0.546875 -1.75 -1.65625q-0.640625 -1.109375 -0.640625 -2.734375l0 -8.203125l1.6875 0z" fill-rule="nonzero"/><path fill="#000000" fill-opacity="0.0" d="m267.83728 183.54855l26.11023 0" fill-rule="evenodd"/><path stroke="#000000" stroke-width="1.0" stroke-linejoin="round" stroke-linecap="butt" d="m267.83728 183.54855l22.683136 0" fill-rule="evenodd"/><path fill="#000000" stroke="#000000" stroke-width="1.0" stroke-linecap="butt" d="m290.52042 183.54855l-1.1245728 1.124588l3.0897522 -1.124588l-3.0897522 -1.124588z" fill-rule="evenodd"/><path fill="#000000" fill-opacity="0.0" d="m468.69028 183.54855l21.51181 0" fill-rule="evenodd"/><path stroke="#000000" stroke-width="1.0" stroke-linejoin="round" stroke-linecap="butt" d="m468.69028 183.54855l18.084747 0" fill-rule="evenodd"/><path fill="#000000" stroke="#000000" stroke-width="1.0" stroke-linecap="butt" d="m486.77502 183.54855l-1.1246033 1.124588l3.0897827 -1.124588l-3.0897827 -1.124588z" fill-rule="evenodd"/><path fill="#000000" fill-opacity="0.0" d="m48.632545 53.637794l0 29.637794" fill-rule="evenodd"/><path stroke="#000000" stroke-width="1.0" stroke-linejoin="round" stroke-linecap="butt" d="m48.632545 53.637794l0 26.210709" fill-rule="evenodd"/><path fill="#000000" stroke="#000000" stroke-width="1.0" stroke-linecap="butt" d="m48.632545 79.8485l-1.1245842 -1.1245804l1.1245842 3.0897675l1.1245842 -3.0897675z" fill-rule="evenodd"/><path fill="#000000" fill-opacity="0.0" d="m64.632545 54.545933l0 44.7559" fill-rule="evenodd"/><path stroke="#000000" stroke-width="1.0" stroke-linejoin="round" stroke-linecap="butt" d="m64.632545 54.545933l0 41.328823" fill-rule="evenodd"/><path fill="#000000" stroke="#000000" stroke-width="1.0" stroke-linecap="butt" d="m64.632545 95.87475l-1.1245842 -1.1245804l1.1245842 3.0897675l1.1245804 -3.0897675z" fill-rule="evenodd"/><path fill="#000000" fill-opacity="0.0" d="m80.632545 55.454067l0 59.842518" fill-rule="evenodd"/><path stroke="#000000" stroke-width="1.0" stroke-linejoin="round" stroke-linecap="butt" d="m80.632545 55.454067l0 56.41544" fill-rule="evenodd"/><path fill="#000000" stroke="#000000" stroke-width="1.0" stroke-linecap="butt" d="m80.632545 111.8695l-1.1245804 -1.1245804l1.1245804 3.0897675l1.1245804 -3.0897675z" fill-rule="evenodd"/><path fill="#000000" fill-opacity="0.0" d="m96.632545 55.454067l0 75.842514" fill-rule="evenodd"/><path stroke="#000000" stroke-width="1.0" stroke-linejoin="round" stroke-linecap="butt" d="m96.632545 55.454067l0 72.415436" fill-rule="evenodd"/><path fill="#000000" stroke="#000000" stroke-width="1.0" stroke-linecap="butt" d="m96.632545 127.8695l-1.1245804 -1.1245804l1.1245804 3.0897675l1.1245804 -3.0897675z" fill-rule="evenodd"/><path fill="#000000" fill-opacity="0.0" d="m20.002625 216.18373l130.3622 0l0 29.637787l-130.3622 0z" fill-rule="evenodd"/><path fill="#000000" d="m38.89325 230.51497q0.859375 0 1.546875 0.359375q0.6875 0.359375 1.078125 1.078125q0.40625 0.703125 0.40625 1.703125l0 4.328125l-1.515625 0l0 -4.109375q0 -0.984375 -0.5 -1.5q-0.484375 -0.53125 -1.34375 -0.53125q-0.84375 0 -1.34375 0.53125q-0.5 0.515625 -0.5 1.5l0 4.109375l-1.515625 0l0 -4.109375q0 -0.984375 -0.5 -1.5q-0.484375 -0.53125 -1.328125 -0.53125q-0.859375 0 -1.359375 0.53125q-0.5 0.515625 -0.5 1.5l0 4.109375l-1.515625 0l0 -7.34375l1.515625 0l0 0.84375q0.375 -0.453125 0.9375 -0.703125q0.578125 -0.265625 1.234375 -0.265625q0.890625 0 1.578125 0.375q0.6875 0.375 1.0625 1.078125q0.328125 -0.65625 1.03125 -1.046875q0.71875 -0.40625 1.53125 -0.40625zm11.69162 3.609375q0 0.421875 -0.0625 0.75l-5.609375 0q0.0625 0.890625 0.65625 1.421875q0.59375 0.53125 1.4375 0.53125q1.234375 0 1.734375 -1.03125l1.640625 0q-0.328125 1.015625 -1.203125 1.671875q-0.875 0.640625 -2.171875 0.640625q-1.046875 0 -1.890625 -0.46875q-0.828125 -0.484375 -1.296875 -1.34375q-0.46875 -0.859375 -0.46875 -1.984375q0 -1.140625 0.453125 -2.0q0.453125 -0.859375 1.28125 -1.328125q0.84375 -0.46875 1.921875 -0.46875q1.046875 0 1.859375 0.453125q0.8125 0.453125 1.265625 1.28125q0.453125 0.8125 0.453125 1.875zm-1.59375 -0.46875q-0.015625 -0.84375 -0.609375 -1.34375q-0.578125 -0.515625 -1.4375 -0.515625q-0.78125 0 -1.34375 0.5q-0.5625 0.5 -0.671875 1.359375l4.0625 0zm11.973419 -3.140625q0.859375 0 1.546875 0.359375q0.6875 0.359375 1.078125 1.078125q0.40625 0.703125 0.40625 1.703125l0 4.328125l-1.515625 0l0 -4.109375q0 -0.984375 -0.5 -1.5q-0.484375 -0.53125 -1.34375 -0.53125q-0.84375 0 -1.34375 0.53125q-0.5 0.515625 -0.5 1.5l0 4.109375l-1.515625 0l0 -4.109375q0 -0.984375 -0.5 -1.5q-0.484375 -0.53125 -1.328125 -0.53125q-0.859375 0 -1.359375 0.53125q-0.5 0.515625 -0.5 1.5l0 4.109375l-1.515625 0l0 -7.34375l1.515625 0l0 0.84375q0.375 -0.453125 0.9375 -0.703125q0.578125 -0.265625 1.234375 -0.265625q0.890625 0 1.578125 0.375q0.6875 0.375 1.0625 1.078125q0.328125 -0.65625 1.03125 -1.046875q0.71875 -0.40625 1.53125 -0.40625zm8.144745 7.59375q-1.046875 0 -1.890625 -0.46875q-0.828125 -0.484375 -1.3125 -1.34375q-0.484375 -0.859375 -0.484375 -1.984375q0 -1.125 0.5 -1.984375q0.5 -0.875 1.34375 -1.34375q0.859375 -0.46875 1.90625 -0.46875q1.046875 0 1.90625 0.46875q0.859375 0.46875 1.34375 1.34375q0.5 0.859375 0.5 1.984375q0 1.109375 -0.515625 1.984375q-0.5 0.859375 -1.375 1.34375q-0.875 0.46875 -1.921875 0.46875zm0 -1.328125q0.578125 0 1.09375 -0.28125q0.515625 -0.28125 0.828125 -0.828125q0.328125 -0.5625 0.328125 -1.359375q0 -0.8125 -0.3125 -1.359375q-0.296875 -0.546875 -0.8125 -0.828125q-0.5 -0.28125 -1.09375 -0.28125q-0.578125 0 -1.078125 0.28125q-0.5 0.28125 -0.796875 0.828125q-0.296875 0.546875 -0.296875 1.359375q0 1.171875 0.609375 1.828125q0.609375 0.640625 1.53125 0.640625zm6.831436 -5.078125q0.34375 -0.5625 0.890625 -0.875q0.546875 -0.3125 1.3125 -0.3125l0 1.578125l-0.390625 0q-0.890625 0 -1.359375 0.453125q-0.453125 0.453125 -0.453125 1.578125l0 3.859375l-1.515625 0l0 -7.34375l1.515625 0l0 1.0625zm10.211731 -1.0625l-4.5 10.796875l-1.578125 0l1.5 -3.578125l-2.890625 -7.21875l1.6875 0l2.0625 5.59375l2.140625 -5.59375l1.578125 0z" fill-rule="nonzero"/><path fill="#000000" fill-opacity="0.0" d="m414.2651 79.461945l130.36221 0l0 29.637794l-130.36221 0z" fill-rule="evenodd"/><path fill="#000000" d="m430.96823 94.66819q-0.359375 -0.703125 -1.0 -1.046875q-0.640625 -0.359375 -1.484375 -0.359375q-0.90625 0 -1.640625 0.421875q-0.71875 0.40625 -1.125 1.171875q-0.40625 0.75 -0.40625 1.75q0 1.0 0.40625 1.765625q0.40625 0.765625 1.125 1.1875q0.734375 0.40625 1.640625 0.40625q1.25 0 2.015625 -0.6875q0.78125 -0.6875 0.953125 -1.875l-3.484375 0l0 -1.21875l5.109375 0l0 1.1875q-0.15625 1.078125 -0.78125 1.984375q-0.609375 0.90625 -1.609375 1.453125q-0.984375 0.53125 -2.203125 0.53125q-1.296875 0 -2.375 -0.609375q-1.078125 -0.609375 -1.71875 -1.6875q-0.625 -1.078125 -0.625 -2.4375q0 -1.359375 0.625 -2.4375q0.640625 -1.078125 1.71875 -1.6875q1.09375 -0.609375 2.375 -0.609375q1.484375 0 2.640625 0.734375q1.15625 0.71875 1.671875 2.0625l-1.828125 0zm10.083832 0.09375q0 0.703125 -0.34375 1.328125q-0.328125 0.625 -1.0625 1.015625q-0.734375 0.390625 -1.875 0.390625l-1.6875 0l0 3.765625l-1.515625 0l0 -9.265625l3.203125 0q1.0625 0 1.796875 0.375q0.75 0.359375 1.109375 0.984375q0.375 0.625 0.375 1.40625zm-3.28125 1.5q0.859375 0 1.28125 -0.390625q0.4375 -0.390625 0.4375 -1.109375q0 -1.53125 -1.71875 -1.53125l-1.6875 0l0 3.03125l1.6875 0zm6.2270813 -4.265625l0 5.90625q0 1.046875 0.546875 1.59375q0.5625 0.53125 1.546875 0.53125q1.0 0 1.546875 -0.53125q0.5625 -0.546875 0.5625 -1.59375l0 -5.90625l1.515625 0l0 5.875q0 1.140625 -0.5 1.921875q-0.484375 0.78125 -1.3125 1.171875q-0.828125 0.390625 -1.828125 0.390625q-1.0 0 -1.8125 -0.390625q-0.8125 -0.390625 -1.296875 -1.171875q-0.484375 -0.78125 -0.484375 -1.921875l0 -5.875l1.515625 0zm20.052307 1.796875q0.859375 0 1.546875 0.359375q0.6875 0.359375 1.078125 1.078125q0.40625 0.703125 0.40625 1.703125l0 4.328125l-1.515625 0l0 -4.109375q0 -0.984375 -0.5 -1.5q-0.484375 -0.53125 -1.34375 -0.53125q-0.84375 0 -1.34375 0.53125q-0.5 0.515625 -0.5 1.5l0 4.109375l-1.515625 0l0 -4.109375q0 -0.984375 -0.5 -1.5q-0.484375 -0.53125 -1.328125 -0.53125q-0.859375 0 -1.359375 0.53125q-0.5 0.515625 -0.5 1.5l0 4.109375l-1.515625 0l0 -7.34375l1.515625 0l0 0.84375q0.375 -0.453125 0.9375 -0.703125q0.578125 -0.265625 1.234375 -0.265625q0.890625 0 1.578125 0.375q0.6875 0.375 1.0625 1.078125q0.328125 -0.65625 1.03125 -1.046875q0.71875 -0.40625 1.53125 -0.40625zm11.69162 3.609375q0 0.421875 -0.0625 0.75l-5.609375 0q0.0625 0.890625 0.65625 1.421875q0.59375 0.53125 1.4375 0.53125q1.234375 0 1.734375 -1.03125l1.640625 0q-0.328125 1.015625 -1.203125 1.671875q-0.875 0.640625 -2.171875 0.640625q-1.046875 0 -1.890625 -0.46875q-0.828125 -0.484375 -1.296875 -1.34375q-0.46875 -0.859375 -0.46875 -1.984375q0 -1.140625 0.453125 -2.0q0.453125 -0.859375 1.28125 -1.328125q0.84375 -0.46875 1.921875 -0.46875q1.046875 0 1.859375 0.453125q0.8125 0.453125 1.265625 1.28125q0.453125 0.8125 0.453125 1.875zm-1.59375 -0.46875q-0.015625 -0.84375 -0.609375 -1.34375q-0.578125 -0.515625 -1.4375 -0.515625q-0.78125 0 -1.34375 0.5q-0.5625 0.5 -0.671875 1.359375l4.0625 0zm11.973419 -3.140625q0.859375 0 1.546875 0.359375q0.6875 0.359375 1.078125 1.078125q0.40625 0.703125 0.40625 1.703125l0 4.328125l-1.515625 0l0 -4.109375q0 -0.984375 -0.5 -1.5q-0.484375 -0.53125 -1.34375 -0.53125q-0.84375 0 -1.34375 0.53125q-0.5 0.515625 -0.5 1.5l0 4.109375l-1.515625 0l0 -4.109375q0 -0.984375 -0.5 -1.5q-0.484375 -0.53125 -1.328125 -0.53125q-0.859375 0 -1.359375 0.53125q-0.5 0.515625 -0.5 1.5l0 4.109375l-1.515625 0l0 -7.34375l1.515625 0l0 0.84375q0.375 -0.453125 0.9375 -0.703125q0.578125 -0.265625 1.234375 -0.265625q0.890625 0 1.578125 0.375q0.6875 0.375 1.0625 1.078125q0.328125 -0.65625 1.03125 -1.046875q0.71875 -0.40625 1.53125 -0.40625zm8.144745 7.59375q-1.046875 0 -1.890625 -0.46875q-0.828125 -0.484375 -1.3125 -1.34375q-0.484375 -0.859375 -0.484375 -1.984375q0 -1.125 0.5 -1.984375q0.5 -0.875 1.34375 -1.34375q0.859375 -0.46875 1.90625 -0.46875q1.046875 0 1.90625 0.46875q0.859375 0.46875 1.34375 1.34375q0.5 0.859375 0.5 1.984375q0 1.109375 -0.515625 1.984375q-0.5 0.859375 -1.375 1.34375q-0.875 0.46875 -1.921875 0.46875zm0 -1.328125q0.578125 0 1.09375 -0.28125q0.515625 -0.28125 0.828125 -0.828125q0.328125 -0.5625 0.328125 -1.359375q0 -0.8125 -0.3125 -1.359375q-0.296875 -0.546875 -0.8125 -0.828125q-0.5 -0.28125 -1.09375 -0.28125q-0.578125 0 -1.078125 0.28125q-0.5 0.28125 -0.796875 0.828125q-0.296875 0.546875 -0.296875 1.359375q0 1.171875 0.609375 1.828125q0.609375 0.640625 1.53125 0.640625zm6.831421 -5.078125q0.34375 -0.5625 0.890625 -0.875q0.546875 -0.3125 1.3125 -0.3125l0 1.578125l-0.390625 0q-0.890625 0 -1.359375 0.453125q-0.453125 0.453125 -0.453125 1.578125l0 3.859375l-1.515625 0l0 -7.34375l1.515625 0l0 1.0625zm10.211731 -1.0625l-4.5 10.796875l-1.578125 0l1.5 -3.578125l-2.890625 -7.21875l1.6875 0l2.0625 5.59375l2.140625 -5.59375l1.578125 0z" fill-rule="nonzero"/><path fill="#000000" fill-opacity="0.0" d="m15.469816 82.72707l0 0c0 -4.0167694 3.2562351 -7.2730026 7.2730064 -7.2730026l242.43036 0c1.9289246 0 3.778839 0.76625824 5.1427917 2.1302109c1.3639526 1.3639526 2.1302185 3.2138748 2.1302185 5.1427917l0 160.91855c0 4.0167694 -3.2562256 7.2730103 -7.2730103 7.2730103l-242.43036 0c-4.0167713 0 -7.2730064 -3.2562408 -7.2730064 -7.2730103z" fill-rule="evenodd"/><path stroke="#000000" stroke-width="1.0" stroke-linejoin="round" stroke-linecap="butt" stroke-dasharray="1.0,3.0" d="m15.469816 82.72707l0 0c0 -4.0167694 3.2562351 -7.2730026 7.2730064 -7.2730026l242.43036 0c1.9289246 0 3.778839 0.76625824 5.1427917 2.1302109c1.3639526 1.3639526 2.1302185 3.2138748 2.1302185 5.1427917l0 160.91855c0 4.0167694 -3.2562256 7.2730103 -7.2730103 7.2730103l-242.43036 0c-4.0167713 0 -7.2730064 -3.2562408 -7.2730064 -7.2730103z" fill-rule="evenodd"/><path fill="#000000" fill-opacity="0.0" d="m409.95276 85.36749l0 0c0 -4.0167694 3.2562256 -7.2730026 7.2730103 -7.2730026l177.328 0c1.928894 0 3.7788086 0.76625824 5.142761 2.1302109c1.3639526 1.3639526 2.130249 3.2138748 2.130249 5.1427917l0 160.91855c0 4.0167847 -3.2562256 7.2730103 -7.2730103 7.2730103l-177.328 0c-4.0167847 0 -7.2730103 -3.2562256 -7.2730103 -7.2730103z" fill-rule="evenodd"/><path stroke="#000000" stroke-width="1.0" stroke-linejoin="round" stroke-linecap="butt" stroke-dasharray="1.0,3.0" d="m409.95276 85.36749l0 0c0 -4.0167694 3.2562256 -7.2730026 7.2730103 -7.2730026l177.328 0c1.928894 0 3.7788086 0.76625824 5.142761 2.1302109c1.3639526 1.3639526 2.130249 3.2138748 2.130249 5.1427917l0 160.91855c0 4.0167847 -3.2562256 7.2730103 -7.2730103 7.2730103l-177.328 0c-4.0167847 0 -7.2730103 -3.2562256 -7.2730103 -7.2730103z" fill-rule="evenodd"/></g></svg>