<svg id="eEN8vUi6wjl1" xmlns="http://www.w3.org/2000/svg" xmlns:xlink="http://www.w3.org/1999/xlink" viewBox="0 0 1900 600" shape-rendering="geometricPrecision" text-rendering="geometricPrecision"><g transform="translate(15.238142 18.781268)"><g><g transform="translate(599.498972-519.800456)"><path d="M1050.63564,745.749736c15.0785,0,28.58234,3.260762,40.51153,9.782286s21.18625,15.776333,27.77116,27.764428s9.87737,25.750429,9.87737,41.287c0,5.415798-.33814,10.321875-1.01444,14.718229l-.13076.818343h-115.95174l.05616.636799c1.04767,11.204808,5.03716,20.007589,11.96846,26.408343c7.06209,6.521524,15.74654,9.782286,26.05336,9.782286c14.71248,0,25.23091-6.275317,31.55528-18.825952l.22408-.450905h43.23139l-.22867.752457c-4.64113,15.005061-13.34479,27.365719-26.11098,37.081972-12.97896,9.87819-28.91636,14.817285-47.8122,14.817285-15.26936,0-28.96408-3.404619-41.08413-10.213857s-21.567982-16.447667-28.343762-28.915286-10.163671-26.853333-10.163671-43.157142c0-16.495619,3.340173-30.977239,10.02052-43.444858s16.032833-22.058095,28.057453-28.771428s25.86249-10.07,41.51359-10.07ZM1247.4,746.03745v42.294h-10.59312l-.66015.002745c-12.2693.102488-21.54489,3.07462-27.82676,8.916398-6.29568,5.854617-9.49194,15.986155-9.5888,30.394614l-.00227.678529v79.409143h-40.08208v-159.393715h40.08208v24.743429l.39952-.645607c5.09996-8.132169,11.69484-14.534395,19.78467-19.206679c8.10963-4.683721,17.35734-7.080043,27.74313-7.188967l.74378-.00389Zm-366.674883-.015143c18.882604,0,34.141275,5.992364,45.776011,17.977091c11.518389,11.86488,17.335175,28.381267,17.450359,49.549162l.001745.642875v93.480872h-40.05401l-.000944-88.394635c-.062312-12.471412-3.209099-22.076745-9.440358-28.815996-6.294202-6.807325-14.877204-10.210988-25.749006-10.210988-11.062536,0-19.788588,3.403663-26.178157,10.210988-6.325672,6.739251-9.520137,16.344584-9.583393,28.815996l-.000959,88.394635h-2.951384l.000036.032977h-2.872236l-22.8982-159.632977h25.770436l-.000036.251l2.951384.000068v19.846708l.16066-.20665c5.316397-6.804746,12.081562-12.152959,20.295495-16.04464c8.296902-3.93099,17.404421-5.896486,27.322557-5.896486Zm168.765323,32.814572c-9.92509,0-18.27552,3.021-25.0513,9.063-6.64293,5.923529-10.76334,14.105485-12.36123,24.545867l-.09285.629133h75.29706c-.19087-10.357715-3.91278-18.653476-11.16573-24.887286s-16.12826-9.350714-26.62595-9.350714Z" fill="#ffc800"/><path d="M678.934221,748.072307h40.054009l.000944,88.264055c.062313,12.493644,3.209099,22.116098,9.440358,28.867362c6.294202,6.81946,14.877204,10.229189,25.749007,10.229189c11.062536,0,19.740904-3.409729,26.035106-10.229189c6.23126-6.751264,9.378046-16.373718,9.440358-28.867362l.000944-88.264055h4.871274l22.8982,159.6328-27.769474.000177v-20.170232l-.154966.207019c-5.129459,6.816876-11.801156,12.174622-20.015089,16.07324-8.296902,3.937997-17.309054,5.906996-27.036456,5.906996-12.39767,0-23.364839-2.64134-32.901508-7.924019s-17.022954-13.062627-22.458855-23.33984c-5.381543-10.174441-8.099222-22.278698-8.153852-36.312771v-94.07337Zm-69.27-39.15v39.416857h35.501273v33.087143h-35.501273v77.107429l.00355.484147c.075715,5.120557,1.362885,8.843318,3.861508,11.168281c2.503086,2.329116,6.672245,3.526947,12.50748,3.593493l.519197.002936h18.609538v33.950286h-25.194451l-1.008437-.004949c-32.780066-.323347-49.334-16.49232-49.661801-48.506919l-.004966-.974989v-76.819715h-18.895839v-33.087143h18.895839v-39.416857h40.368382Zm-164.854364,38.45c24.736354,0,43.223059,8.011164,56.080357,24.297668l.781014,1.00051c10.946412,14.186459,16.901771,33.742801,17.64855,58.443072l.024723.89502.010499.48773-118.645483.000404.36034,4.331609.067132.774224c1.369155,15.170109,5.624324,27.016408,12.840099,35.230419c7.562625,8.608845,18.480033,13.000629,32.055962,13.000629c11.23065,0,20.479503-2.558683,27.8876-7.788582l.46061-.330348.400531-.311646c4.912395-3.883073,9.235308-9.552168,13.264738-17.206442l.354784-.680534.169687-.333733h27.086l-.063475.200937c-3.829689,11.80995-10.30328,21.851727-19.317418,29.878235-13.353335,11.339565-29.908953,17.060828-49.937259,17.060828-22.147027,0-39.642175-6.726432-52.628473-20.056242l-.888578-.919032c-13.652308-14.225526-20.461495-33.607935-20.461495-58.652891c0-22.560746,6.350821-40.989757,19.33165-55.947551l.54245-.6218.403575-.482385c12.562062-14.873527,29.887182-22.270099,52.17188-22.270099Zm-162.062444,1.325l1.108025.005872c36.011666.383689,53.647937,19.578936,53.997062,59.321739l.005289,1.210619v93.11077h-26.735789l.000826-90.066514-.004069-.835398c-.268481-27.436419-13.821661-41.826655-39.644973-41.826655-9.600881,0-18.193978,3.468916-25.304609,10.235009-7.876448,7.212781-12.546912,17.615202-13.951088,30.747753l-.088651.87561-.000436,90.870195h-26.735v-149.388h26.735l.000436,25.307257l7.07178-8.478699.534678-.634047c5.550738-6.510195,11.729154-11.526811,18.231773-14.766257l1.256241-.615284c6.903911-3.326653,14.344841-4.972731,22.73421-5.069439l.789295-.004531ZM104.533,691.722307v21.216l-24.744287.000807-.486116.004045c-5.314673.089027-9.553687,1.649022-12.732691,4.812885-3.168069,3.15298-4.474636,7.502067-4.539556,13.60995l-.002557.485865v19.82577l96.937207-.000322v149.345h-26.861l.000832-129.040896h-70.077039L62.027,901.022307h-26.861l.000796-129.040896L0,771.981307v-20.304l35.166796.000322v-20.738795l.003019-.645884c.112735-12.006951,3.381847-21.239651,9.787046-27.820478l.457217-.465071.31539-.334298c6.257155-6.520281,15.730086-9.839209,28.51361-9.948029l.652863-.002767h29.637059Zm342.064512,80.8c-11.547523,0-20.360107,2.968-27.045515,9.4976-6.258805,6.112939-10.471461,15.080821-12.637971,26.903647l-.125081.698753h80.832663c-3.038822-24.9312-16.713521-37.1-41.024096-37.1Z" fill="#009191" fill-rule="evenodd"/></g><g transform="translate(-353 10.218732)"><path d="M699.122735,401.467647c26.095571-15.044733,53.862212-23.135451,77.492308-23.127892c22.211512.007115,38.36842,7.120906,45.530062,19.507491s5.252737,29.915757-5.846852,49.12753c-11.808488,20.438773-32.708613,40.405633-58.804184,55.450366s-53.862212,23.135452-77.492308,23.127893c-22.211512-.007116-38.36842-7.120906-45.530063-19.507491-5.986986-10.354932-5.634913-24.303823,1.126408-39.825229c14.842038,4.510364,31.171555.165313,40.652707-12.398603c8.666938-11.484963,9.145242-26.569971,2.722719-39.00861c6.274761-4.755242,13.017989-9.234136,20.149203-13.345455Zm-47.440967-83.552418c43.1258-24.863076,85.92964-36.467612,122.921998-36.919894c3.686883,11.27168,13.073016,20.210777,25.365588,22.596793c12.659632,2.457263,25.068473-2.682772,32.668959-12.28185c14.56032,6.131187,26.722931,14.894854,35.741795,25.999262l.812231,1.017137.852927,1.100704.707298.934673.725898.977769c.244698.332592.491945.671597.741188,1.016246l.753167,1.050108.761838,1.079352.7672,1.103979.961495,1.407573.958238,1.429821.7599,1.153816v0l.750368,1.157666.737527,1.1569.721376,1.151517.701916,1.141517v0l.679146,1.126899.585649.992111.562702.973234.53648.951567c.435985.782738.842814,1.539101,1.214314,2.260478l.428446.848308c.410699.830411.766967,1.605481,1.058138,2.310328l-.508544,2.237786-.378053,1.757109-.086732.34872-.082937.288945-.153131.469749-2.00324,5.577105-1.671935,4.749074-1.300259,3.743689c-6.82263,19.733454-20.254196,44.74563-34.721947,64.91891l-.005729-.003912c3.49658-15.293242,1.978612-29.788108-5.134687-42.091078-11.225191-19.414791-34.151196-29.508975-62.887495-29.518174-27.317714-.008744-58.499648,9.07713-87.523765,25.810242-8.823623,5.087034-17.134,10.699919-24.81126,16.712665-16.82143-10.330261-38.613128-7.244285-50.191565,8.09884-10.920984,14.471905-8.840164,34.659914,3.665909,48.066644-9.647746,21.403202-10.356826,42.2659-.652952,59.04946c7.113299,12.30297,18.925219,20.863122,33.936818,25.485947-1.692518.310369-3.454891.594916-5.278248.852861l-1.577605.214564c-4.245669.5547-8.7967.969259-13.547131,1.234371l-1.790551.092393c-.899742.042676-1.806029.080057-2.718162.112081l-1.831854.056889c-1.839234.049712-3.69999.077834-5.57668.083877h-1.881795l-1.891175-.017499c-2.527269-.031486-5.076242-.102806-7.633675-.215123l-1.919453-.091944c-2.560835-.132888-5.126817-.307066-7.684703-.523695l-1.916689-.170449c-12.126793-1.130155-23.996186-3.224688-34.188679-6.408278-1.76051-1.390586-3.78555-3.71072-5.849746-6.474624l-.620208-.841999c-.206977-.28478-.41412-.573512-.621205-.86571l-.62085-.886507-.670618-.980471-.33402-.496947v0l-.664389-1.005003c-.220508-.33716-.439965-.676274-.658086-1.016725l-.811127-1.281745-.795235-1.287033-.312893-.514673-.615685-1.026557-.601276-1.01947-.583681-1.009519-.704224-1.241121-.672215-1.211667-.259171-.474798-.500506-.930133-.475292-.901092-.448359-.868346-.419706-.831893-.389334-.791735-.357243-.747872-.323433-.700302c-.152977-.337641-.292631-.656054-.417994-.953154l-.231385-.565165c-.035293-.089253-.068926-.175982-.100864-.260112-24.253851-57.860443,18.881625-135.21191,109.530867-187.47341Zm-51.982186-82.265834l4.077991-2.33757c66.155096-37.436197,130.545883-51.956327,185.669361-43.975319c43.660199,6.321306,79.78634,26.607365,104.624372,58.172487l.006781.001126c1.755869,21.163002.98974,42.350183-2.179965,63.120226l-.004241-.001451c-.869107-1.779293-1.802753-3.533276-2.801415-5.260534-10.667749-18.450653-27.689561-32.010573-49.279729-40.318827-1.904364-14.028098-12.329941-25.861146-26.761359-28.662317-15.385743-2.986408-30.401055,5.248764-36.864588,19.071985-43.274724,1.31521-91.497394,15.849351-136.463308,41.773298-48.349178,27.87448-87.160627,65.589237-109.361013,105.462549-22.971984,41.259151-26.729688,82.324674-8.267524,114.256338.998661,1.727258,2.053008,3.411654,3.161575,5.052893l-.000862.004393c-19.582717-7.63794-38.326726-17.559464-55.791109-29.646597l.002429-.006267c-10.830106-27.126162-13.525121-56.664027-7.89497-86.613514c11.326954.189274,22.586436-3.433452,31.736746-11.100491c20.708316-17.351485,22.86402-48.923208,5.017954-70.954738c23.539964-32.362017,57.085947-62.04704,99.578765-86.990798l1.794109-1.046872Zm-47.164678-89.215924c34.597198-19.946128,68.971294-34.583865,102.153448-43.875236c11.299905,17.179454,34.941944,26.675034,54.304338,22.963776c17.787822-3.409454,31.580216-17.81223,33.181839-35.007532c6.835166.121203,13.563156.519532,20.173252,1.194212c34.934488,3.565699,65.451337,14.778976,89.977797,32.650433l.004821-.004826c2.173677,3.402757,4.282302,6.869504,6.323295,10.399551c11.547532,19.972303,20.25528,40.803652,26.248346,62.027828l1.967764,7.495834c-.702135-1.715758-2.486065-3.937006-4.915316-6.372346l-.648069-.639971-.675625-.648534v0l-.701458-.655949-.72557-.662212-.371288-.333097v0l-.758509-.669453-.778315-.672844-.7964-.675085-.812762-.676175-.827404-.676118-.840323-.674909-.85152-.672551-.860995-.669045-.868748-.664387-1.313893-.985335-.880598-.647716-.882324-.639035-1.322957-.939763-.879107-.612304-.874807-.599601-.868784-.585748-.861041-.570744-.851574-.554591-.840386-.537289-1.032127-.645528-1.20719-.733416-.97591-.574196-.758617-.433533-.371347-.207764v0l-.725692-.396802v0c-18.598779-10.004537-40.253903-16.278487-63.037285-19.57716-61.508746-8.905494-131.700983,6.695106-202.625349,46.352131l-2.149439,1.209091c-1.43124.808067-2.85089,1.62653-4.266299,2.442547l-2.112474,1.235078c-46.031843,27.037875-82.763905,59.588105-108.824822,95.529763-16.090075-5.497391-34.12819-2.974316-47.596697,8.310937-20.953718,17.557107-22.912506,49.673479-4.375076,71.733926c3.270461,3.892009,6.960386,7.211,10.935037,9.941611-2.656897,12.626724-4.03344,25.229892-4.03344,37.642507c0,.363434.013973.77148.039988,1.215319l.047816.691501.064433.738579.079606.779043.09333.812894.105608.840132.11644.860758.125824.874769.203168,1.32396.142956.880867.147277.871733.150151.855986.151578.833626.151559.804653.224138,1.138189.145181.703288.140098.651169.133567.592438.125592.527093.116168.455134.105298.376564.104775.343418.34827,1.074706.749602,2.199256l1.417834,4.026823l1.919015,5.346935.691295,1.910795c-1.434783-1.246526-2.999787-2.717395-4.648724-4.353384l-.999065-1.000934v0l-1.016986-1.037719-1.032688-1.071663c-.173299-.181281-.34716-.363858-.521537-.547672l-1.316762-1.400864-1.331749-1.441685-1.073272-1.179008-1.077864-1.198738-1.620545-1.82888-1.079624-1.235625-1.076439-1.245404-.536331-.625482-1.067497-1.254744-1.058758-1.257417-1.047797-1.257247-1.546286-1.879335-1.010676-1.244386-.99194-1.234267-.970981-1.221305-.947801-1.2055-1.373379-1.772397c-7.542834-9.823825-14.25362-20.302248-19.852999-29.986785-2.040994-3.530047-3.993273-7.086931-5.85753-10.668076l.006596-.001757c-3.236077-30.145882,2.297455-62.143083,16.672289-94.136809c25.740869-57.290841,78.227086-111.337287,152.367378-154.080975ZM516.034801,83.30387c77.970652-44.951983,156.309027-62.016074,224.807933-51.17766c6.494323,1.02758,12.86704,2.302364,19.10924,3.818472l.001365-.002904c21.537862,12.445787,44.808954,31.138065,62.020596,49.744937l-1.276642-.596642-1.342083-.612724c-.457572-.206591-.925004-.415365-1.401252-.625825l-1.454148-.635945-.74495-.320835-1.52173-.645533-1.716644-.71305c-5.787919-2.377799-12.187177-4.74321-17.806294-6.43482-6.510425-1.959935-13.967521-3.239296-21.515162-4.197007l-2.158193-.265189-2.69791-.309705-2.690011-.288894-1.07185-.110545c-8.86895-.905237-17.914306-1.354138-27.113516-1.348893-10.310769-19.094247-34.842265-30.486208-55.81618-27.098951-19.685896,3.179243-34.01924,20.858853-33.594285,40.202178-34.787283,9.811495-70.603489,25.106316-106.479943,45.789967-77.924144,44.925171-133.658039,102.315836-161.408175,164.078655-4.625815,10.295565-8.429195,20.626005-11.408956,30.935539-.856591,2.963678-1.616777,6.685476-2.217645,10.570019l-.205353,1.376804c-.099266.690811-.193341,1.384509-.281878,2.077821l-.169587,1.385143-.154206,1.378299c-.414544,3.889991-.636463,7.627528-.602843,10.617236-7.739679-24.26157-12.099622-54.484961-12.124499-79.33351v.000271c1.809432-6.156225,3.890215-12.304657,6.24619-18.43465c18.81039-48.9426,54.305747-94.766813,104.266931-133.647148c8.779317,5.122885,21.124712,4.923057,31.750066-1.452167c11.859217-7.115543,17.92222-19.731882,15.787303-30.809598c1.649291-.977487,3.311275-1.9486,4.984311-2.913146ZM488.765542,36.294315c71.632588-41.297935,154.299862-46.22235,226.55344-20.512101l.99928.041969c-63.88144-2.498794-138.831784,14.356071-207.956694,54.208269-1.746054,1.006642-3.480244,2.021109-5.202537,3.043273-8.788472-7.110541-22.81217-7.699059-34.687374-.573924-13.199939,7.919979-19.219022,22.654822-14.745421,34.497544-39.108806,30.981814-69.588135,66.453811-90.799693,104.014267l-.955318,1.706039-.148426.293065-.170932.365246-.193437.437427-.292927.695519-.332937.823842-.472437,1.210257-.422962,1.112569-.836459,2.255772-1.105993,3.059236-.934523,2.631274c6.0292-35.594219,19.13883-69.863619,38.723257-100.56715c6.235596-9.705761,13.096432-19.076225,20.526864-28.012095c19.83698-23.702155,44.10807-44.387469,72.455229-60.730298Z" fill="#009191" fill-rule="evenodd"/><path d="M683.596479,57.59802c-13.706116,2.371212-22.804603,16.469213-18.534866,29.473732c4.594067,13.992345,24.355836,24.410178,40.146424,21.410662c14.151036-2.688074,22.871063-15.80414,18.779675-28.265456-4.737687-14.429772-20.727427-26.020854-40.391233-22.618938Z" fill="#ffc92a"/><path d="M624.942591,417.031654c7.023891-9.390831,21.307427-10.849092,31.950205-2.769116s13.188505,22.314977,6.164613,31.705808c-3.722662,4.97714-9.484559,7.726022-15.66287,8.007598l-.701124.021323c-5.270458.08068-10.796961-1.623816-15.586211-5.259805-10.642778-8.079975-13.188505-22.314977-6.164613-31.705808Z" fill="#ff455a"/></g></g></g></svg>