<?xml version="1.0" encoding="UTF-8"?>
<svg width="1248px" height="911px" viewBox="0 0 1248 911" version="1.1" xmlns="http://www.w3.org/2000/svg" xmlns:xlink="http://www.w3.org/1999/xlink">
    <title>finetuner-logo&amp;text-light</title>
    <g id="页面-1" stroke="none" stroke-width="1" fill="none" fill-rule="evenodd">
        <g id="finetuner-logo&amp;text-light">
            <path d="M1050.63564,745.749736 C1065.71414,745.749736 1079.21798,749.010498 1091.14717,755.532022 C1103.07636,762.053545 1112.33342,771.308355 1118.91833,783.29645 C1125.50324,795.284545 1128.7957,809.046879 1128.7957,824.58345 C1128.7957,829.999248 1128.45756,834.905325 1127.78126,839.301679 L1127.6505,840.120022 L1011.69876,840.120022 L1011.75492,840.756821 C1012.80259,851.961629 1016.79208,860.76441 1023.72338,867.165164 C1030.78547,873.686688 1039.46992,876.94745 1049.77674,876.94745 C1064.48922,876.94745 1075.00765,870.672133 1081.33202,858.121498 L1081.5561,857.670593 L1124.78749,857.670593 L1124.55882,858.42305 C1119.91769,873.428111 1111.21403,885.788769 1098.44784,895.505022 C1085.46888,905.383212 1069.53148,910.322307 1050.63564,910.322307 C1035.36628,910.322307 1021.67156,906.917688 1009.55151,900.10845 C997.431448,893.299212 987.983528,883.660783 981.207748,871.193164 C974.431967,858.725545 971.044077,844.339831 971.044077,828.036022 C971.044077,811.540403 974.38425,797.058783 981.064597,784.591164 C987.744944,772.123545 997.09743,762.533069 1009.12205,755.819736 C1021.14668,749.106403 1034.98454,745.749736 1050.63564,745.749736 Z M1247.4,746.03745 L1247.4,788.33145 L1236.80688,788.33145 L1236.14673,788.334195 C1223.87743,788.436683 1214.60184,791.408815 1208.31997,797.250593 C1202.02429,803.10521 1198.82803,813.236748 1198.73117,827.645207 L1198.7289,828.323736 L1198.7289,907.732879 L1158.64682,907.732879 L1158.64682,748.339164 L1198.7289,748.339164 L1198.7289,773.082593 L1199.12842,772.436986 C1204.22838,764.304817 1210.82326,757.902591 1218.91309,753.230307 C1227.02272,748.546586 1236.27043,746.150264 1246.65622,746.04134 L1247.4,746.03745 Z M880.725117,746.022307 C899.607721,746.022307 914.866392,752.014671 926.501128,763.999398 C938.019517,775.864278 943.836303,792.380665 943.951487,813.54856 L943.953232,814.191435 L943.953232,907.672307 L903.899222,907.672307 L903.898278,819.277672 C903.835966,806.80626 900.689179,797.200927 894.45792,790.461676 C888.163718,783.654351 879.580716,780.250688 868.708914,780.250688 C857.646378,780.250688 848.920326,783.654351 842.530757,790.461676 C836.205085,797.200927 833.01062,806.80626 832.947364,819.277672 L832.946405,907.672307 L829.995021,907.672307 L829.995057,907.705284 L827.122821,907.705284 L804.224621,748.072307 L829.995057,748.072307 L829.995021,748.323307 L832.946405,748.323375 L832.946405,768.170083 L833.107065,767.963433 C838.423462,761.158687 845.188627,755.810474 853.40256,751.918793 C861.699462,747.987803 870.806981,746.022307 880.725117,746.022307 Z M1049.49044,778.836879 C1039.56535,778.836879 1031.21492,781.857879 1024.43914,787.899879 C1017.79621,793.823408 1013.6758,802.005364 1012.07791,812.445746 L1011.98506,813.074879 L1087.28212,813.074879 C1087.09125,802.717164 1083.36934,794.421403 1076.11639,788.187593 C1068.86344,781.953783 1059.98813,778.836879 1049.49044,778.836879 Z" id="5" fill="#FFC800" fill-rule="nonzero"></path>
            <path d="M678.934221,748.072307 L718.98823,748.072307 L718.989174,836.336362 C719.051487,848.830006 722.198273,858.45246 728.429532,865.203724 C734.723734,872.023184 743.306736,875.432913 754.178539,875.432913 C765.241075,875.432913 773.919443,872.023184 780.213645,865.203724 C786.444905,858.45246 789.591691,848.830006 789.654003,836.336362 L789.654947,748.072307 L794.526221,748.072307 L817.424421,907.705107 L789.654947,907.705284 L789.654947,887.535052 L789.499981,887.742071 C784.370522,894.558947 777.698825,899.916693 769.484892,903.815311 C761.18799,907.753308 752.175838,909.722307 742.448436,909.722307 C730.050766,909.722307 719.083597,907.080967 709.546928,901.798288 C700.010259,896.515608 692.523974,888.735661 687.088073,878.458448 C681.70653,868.284007 678.988851,856.17975 678.934221,842.145677 L678.934221,748.072307 Z M609.664221,708.922307 L609.664221,748.339164 L645.165494,748.339164 L645.165494,781.426307 L609.664221,781.426307 L609.664221,858.533736 L609.667771,859.017883 C609.743486,864.13844 611.030656,867.861201 613.529279,870.186164 C616.032365,872.51528 620.201524,873.713111 626.036759,873.779657 L626.555956,873.782593 L645.165494,873.782593 L645.165494,907.732879 L619.971043,907.732879 L618.962606,907.72793 C586.18254,907.404583 569.628606,891.23561 569.300805,859.221011 L569.295839,858.246022 L569.295839,781.426307 L550.4,781.426307 L550.4,748.339164 L569.295839,748.339164 L569.295839,708.922307 L609.664221,708.922307 Z M444.809857,747.372307 C469.546211,747.372307 488.032916,755.383471 500.890214,771.669975 L501.671228,772.670485 C512.61764,786.856944 518.572999,806.413286 519.319778,831.113557 L519.344501,832.008577 L519.355,832.496307 L400.709517,832.496711 L401.069857,836.82832 L401.136989,837.602544 C402.506144,852.772653 406.761313,864.618952 413.977088,872.832963 C421.539713,881.441808 432.457121,885.833592 446.03305,885.833592 C457.2637,885.833592 466.512553,883.274909 473.92065,878.04501 L474.38126,877.714662 L474.781791,877.403016 C479.694186,873.519943 484.017099,867.850848 488.046529,860.196574 L488.401313,859.51604 L488.571,859.182307 L515.657,859.182307 L515.593525,859.383244 C511.763836,871.193194 505.290245,881.234971 496.276107,889.261479 C482.922772,900.601044 466.367154,906.322307 446.338848,906.322307 C424.191821,906.322307 406.696673,899.595875 393.710375,886.266065 L392.821797,885.347033 C379.169489,871.121507 372.360302,851.739098 372.360302,826.694142 C372.360302,804.133396 378.711123,785.704385 391.691952,770.746591 L392.234402,770.124791 L392.637977,769.642406 C405.200039,754.768879 422.525159,747.372307 444.809857,747.372307 Z M282.747413,748.697307 L283.855438,748.703179 C319.867104,749.086868 337.503375,768.282115 337.8525,808.024918 L337.857789,809.235537 L337.857789,902.346307 L311.122,902.346307 L311.122826,812.279793 L311.118757,811.444395 C310.850276,784.007976 297.297096,769.61774 271.473784,769.61774 C261.872903,769.61774 253.279806,773.086656 246.169175,779.852749 C238.292727,787.06553 233.622263,797.467951 232.218087,810.600502 L232.129436,811.476112 L232.129,902.346307 L205.394,902.346307 L205.394,752.958307 L232.129,752.958307 L232.129436,778.265564 L239.201216,769.786865 L239.735894,769.152818 C245.286632,762.642623 251.465048,757.626007 257.967667,754.386561 L259.223908,753.771277 C266.127819,750.444624 273.568749,748.798546 281.958118,748.701838 L282.747413,748.697307 Z M104.533,691.722307 L104.533,712.938307 L79.7887128,712.939114 L79.302597,712.943159 C73.9879236,713.032186 69.7489101,714.592181 66.569906,717.756044 C63.4018365,720.909024 62.0952703,725.258111 62.0303498,731.365994 L62.0277928,731.851859 L62.0277928,751.677629 L158.965,751.677307 L158.965,901.022307 L132.104,901.022307 L132.104832,771.981411 L62.0277928,771.981411 L62.027,901.022307 L35.166,901.022307 L35.1667955,771.981411 L0,771.981307 L0,751.677307 L35.1667955,751.677629 L35.1667955,730.938834 L35.1698152,730.29295 C35.2825495,718.285999 38.5516616,709.053299 44.9568613,702.472472 L45.4140781,702.007401 L45.7294676,701.673103 C51.9866234,695.152822 61.4595544,691.833894 74.243078,691.725074 L74.8959412,691.722307 L104.533,691.722307 Z M446.597512,772.522307 C435.049989,772.522307 426.237405,775.490307 419.551997,782.019907 C413.293192,788.132846 409.080536,797.100728 406.914026,808.923554 L406.788945,809.622307 L487.621608,809.622307 C484.582786,784.691107 470.908087,772.522307 446.597512,772.522307 Z" id="4" fill="#009191"></path>
            <path d="M699.122735,401.467647 C725.218306,386.422914 752.984947,378.332196 776.615043,378.339755 C798.826555,378.34687 814.983463,385.460661 822.145105,397.847246 C829.306748,410.23383 827.397842,427.763003 816.298253,446.974776 C804.489765,467.413549 783.58964,487.380409 757.494069,502.425142 C731.398498,517.469876 703.631857,525.560594 680.001761,525.553035 C657.790249,525.545919 641.633341,518.432129 634.471698,506.045544 C628.484712,495.690612 628.836785,481.741721 635.598106,466.220315 C650.440144,470.730679 666.769661,466.385628 676.250813,453.821712 C684.917751,442.336749 685.396055,427.251741 678.973532,414.813102 C685.248293,410.05786 691.991521,405.578966 699.122735,401.467647 Z M651.681768,317.915229 C694.807568,293.052153 737.611408,281.447617 774.603766,280.995335 C778.290649,292.267015 787.676782,301.206112 799.969354,303.592128 C812.628986,306.049391 825.037827,300.909356 832.638313,291.310278 C847.198633,297.441465 859.361244,306.205132 868.380108,317.30954 L869.192339,318.326677 L870.045266,319.427381 L870.752564,320.362054 L871.478462,321.339823 C871.72316,321.672415 871.970407,322.01142 872.21965,322.356069 L872.972817,323.406177 L873.734655,324.485529 L874.501855,325.589508 L875.46335,326.997081 L876.421588,328.426902 L877.181488,329.580718 L877.181488,329.580718 L877.931856,330.738384 L878.669383,331.895284 L879.390759,333.046801 L880.092675,334.188318 L880.092675,334.188318 L880.771821,335.315217 L881.35747,336.307328 L881.920172,337.280562 L882.456652,338.232129 C882.892637,339.014867 883.299466,339.77123 883.670966,340.492607 L884.099412,341.340915 C884.510111,342.171326 884.866379,342.946396 885.15755,343.651243 L884.649006,345.889029 L884.270953,347.646138 L884.184221,347.994858 L884.101284,348.283803 L883.948153,348.753552 L881.944913,354.330657 L880.272978,359.079731 L878.972719,362.82342 C872.150089,382.556874 858.718523,407.56905 844.250772,427.74233 L844.245043,427.738418 C847.741623,412.445176 846.223655,397.95031 839.110356,385.64734 C827.885165,366.232549 804.95916,356.138365 776.222861,356.129166 C748.905147,356.120422 717.723213,365.206296 688.699096,381.939408 C679.875473,387.026442 671.565096,392.639327 663.887836,398.652073 C647.066406,388.321812 625.274708,391.407788 613.696271,406.750913 C602.775287,421.222818 604.856107,441.410827 617.36218,454.817557 C607.714434,476.220759 607.005354,497.083457 616.709228,513.867017 C623.822527,526.169987 635.634447,534.730139 650.646046,539.352964 C648.953528,539.663333 647.191155,539.94788 645.367798,540.205825 L643.790193,540.420389 C639.544524,540.975089 634.993493,541.389648 630.243062,541.65476 L628.452511,541.747153 C627.552769,541.789829 626.646482,541.82721 625.734349,541.859234 L623.902495,541.916123 C622.063261,541.965835 620.202505,541.993957 618.325815,542 L616.44402,542 L614.552845,541.982501 C612.025576,541.951015 609.476603,541.879695 606.91917,541.767378 L604.999717,541.675434 C602.438882,541.542546 599.8729,541.368368 597.315014,541.151739 L595.398325,540.98129 C583.271532,539.851135 571.402139,537.756602 561.209646,534.573012 C559.449136,533.182426 557.424096,530.862292 555.3599,528.098388 L554.739692,527.256389 C554.532715,526.971609 554.325572,526.682877 554.118487,526.390679 L553.497637,525.504172 L552.827019,524.523701 L552.492999,524.026754 L552.492999,524.026754 L551.82861,523.021751 C551.608102,522.684591 551.388645,522.345477 551.170524,522.005026 L550.359397,520.723281 L549.564162,519.436248 L549.251269,518.921575 L548.635584,517.895018 L548.034308,516.875548 L547.450627,515.866029 L546.746403,514.624908 L546.074188,513.413241 L545.815017,512.938443 L545.314511,512.00831 L544.839219,511.107218 L544.39086,510.238872 L543.971154,509.406979 L543.58182,508.615244 L543.224577,507.867372 L542.901144,507.16707 C542.748167,506.829429 542.608513,506.511016 542.48315,506.213916 L542.251765,505.648751 C542.216472,505.559498 542.182839,505.472769 542.150901,505.388639 C517.89705,447.528196 561.032526,370.176729 651.681768,317.915229 Z M599.699582,235.649395 L603.777573,233.311825 C669.932669,195.875628 734.323456,181.355498 789.446934,189.336506 C833.107133,195.657812 869.233274,215.943871 894.071306,247.508993 L894.078087,247.510119 C895.833956,268.673121 895.067827,289.860302 891.898122,310.630345 L891.893881,310.628894 C891.024774,308.849601 890.091128,307.095618 889.092466,305.36836 C878.424717,286.917707 861.402905,273.357787 839.812737,265.049533 C837.908373,251.021435 827.482796,239.188387 813.051378,236.387216 C797.665635,233.400808 782.650323,241.63598 776.18679,255.459201 C732.912066,256.774411 684.689396,271.308552 639.723482,297.232499 C591.374304,325.106979 552.562855,362.821736 530.362469,402.695048 C507.390485,443.954199 503.632781,485.019722 522.094945,516.951386 C523.093606,518.678644 524.147953,520.36304 525.25652,522.004279 L525.255658,522.008672 C505.672941,514.370732 486.928932,504.449208 469.464549,492.362075 L469.466978,492.355808 C458.636872,465.229646 455.941857,435.691781 461.572008,405.742294 C472.898962,405.931568 484.158444,402.308842 493.308754,394.641803 C514.01707,377.290318 516.172774,345.718595 498.326708,323.687065 C521.866672,291.325048 555.412655,261.640025 597.905473,236.696267 L599.699582,235.649395 Z M552.534904,146.433471 C587.132102,126.487343 621.506198,111.849606 654.688352,102.558235 C665.988257,119.737689 689.630296,129.233269 708.99269,125.522011 C726.780512,122.112557 740.572906,107.709781 742.174529,90.5144788 C749.009695,90.6356821 755.737685,91.0340105 762.347781,91.708691 C797.282269,95.2743902 827.799118,106.487667 852.325578,124.359124 L852.330399,124.354298 C854.504076,127.757055 856.612701,131.223802 858.653694,134.753849 C870.201226,154.726152 878.908974,175.557501 884.90204,196.781677 L886.869804,204.277511 C886.167669,202.561753 884.383739,200.340505 881.954488,197.905165 L881.306419,197.265194 L880.630794,196.61666 L880.630794,196.61666 L879.929336,195.960711 L879.203766,195.298499 L878.832478,194.965402 L878.832478,194.965402 L878.073969,194.295949 L877.295654,193.623105 L876.499254,192.94802 L875.686492,192.271845 L874.859088,191.595727 L874.018765,190.920818 L873.167245,190.248267 L872.30625,189.579222 L871.437502,188.914835 L870.123609,187.9295 L869.243011,187.281784 L868.360687,186.642749 L867.03773,185.702986 L866.158623,185.090682 L865.283816,184.491081 L864.415032,183.905333 L863.553991,183.334589 L862.702417,182.779998 L861.862031,182.242709 L860.829904,181.597181 L859.622714,180.863765 L858.646804,180.289569 L857.888187,179.856036 L857.51684,179.648272 L857.51684,179.648272 L856.791148,179.25147 L856.791148,179.25147 C838.192369,169.246933 816.537245,162.972983 793.753863,159.67431 C732.245117,150.768816 662.05288,166.369416 591.128514,206.026441 L588.979075,207.235532 C587.547835,208.043599 586.128185,208.862062 584.712776,209.678079 L582.600302,210.913157 C536.568459,237.951032 499.836397,270.501262 473.77548,306.44292 C457.685405,300.945529 439.64729,303.468604 426.178783,314.753857 C405.225065,332.310964 403.266277,364.427336 421.803707,386.487783 C425.074168,390.379792 428.764093,393.698783 432.738744,396.429394 C430.081847,409.056118 428.705304,421.659286 428.705304,434.071901 C428.705304,434.435335 428.719277,434.843381 428.745292,435.28722 L428.793108,435.978721 L428.857541,436.7173 L428.937147,437.496343 L429.030477,438.309237 L429.136085,439.149369 L429.252525,440.010127 L429.378349,440.884896 L429.581517,442.208856 L429.724473,443.089723 L429.87175,443.961456 L430.021901,444.817442 L430.173479,445.651068 L430.325038,446.455721 L430.549176,447.59391 L430.694357,448.297198 L430.834455,448.948367 L430.968022,449.540805 L431.093614,450.067898 L431.209782,450.523032 L431.31508,450.899596 L431.419855,451.243014 L431.768125,452.31772 L432.517727,454.516976 L433.935561,458.543799 L435.854576,463.890734 L436.545871,465.801529 C435.111088,464.555003 433.546084,463.084134 431.897147,461.448145 L430.898082,460.447211 L430.898082,460.447211 L429.881096,459.409492 L428.848408,458.337829 C428.675109,458.156548 428.501248,457.973971 428.326871,457.790157 L427.010109,456.389293 L425.67836,454.947608 L424.605088,453.7686 L423.527224,452.569862 L421.906679,450.740982 L420.827055,449.505357 L419.750616,448.259953 L419.214285,447.634471 L418.146788,446.379727 L417.08803,445.12231 L416.040233,443.865063 L414.493947,441.985728 L413.483271,440.741342 L412.491331,439.507075 L411.52035,438.28577 L410.572549,437.08027 L409.19917,435.307873 C401.656336,425.484048 394.94555,415.005625 389.346171,405.321088 C387.305177,401.791041 385.352898,398.234157 383.488641,394.653012 L383.495237,394.651255 C380.25916,364.505373 385.792692,332.508172 400.167526,300.514446 C425.908395,243.223605 478.394612,189.177159 552.534904,146.433471 Z M516.034801,83.3038704 C594.005453,38.3518869 672.343828,21.287796 740.842734,32.1262096 C747.337057,33.1537903 753.709774,34.4285735 759.951974,35.944682 L759.953339,35.9417775 C781.491201,48.3875653 804.762293,67.0798432 821.973935,85.6867149 L820.697293,85.090073 L819.35521,84.4773487 C818.897638,84.2707582 818.430206,84.0619841 817.953958,83.8515236 L816.49981,83.2155791 L815.75486,82.8947439 L814.23313,82.2492109 L812.516486,81.5361608 C806.728567,79.1583616 800.329309,76.7929514 794.710192,75.1013408 C788.199767,73.1414057 780.742671,71.8620451 773.19503,70.904334 L771.036837,70.6391445 L768.338927,70.3294397 L765.648916,70.0405458 L764.577066,69.9300014 C755.708116,69.0247639 746.66276,68.5758633 737.46355,68.5811082 C727.152781,49.4868605 702.621285,38.0948997 681.64737,41.4821565 C661.961474,44.6614 647.62813,62.3410095 648.053085,81.6843345 C613.265802,91.4958303 577.449596,106.790651 541.573142,127.474302 C463.648998,172.399473 407.915103,229.790138 380.164967,291.552957 C375.539152,301.848522 371.735772,312.178962 368.756011,322.488496 C367.89942,325.452174 367.139234,329.173972 366.538366,333.058515 L366.333013,334.435319 C366.233747,335.12613 366.139672,335.819828 366.051135,336.51314 L365.881548,337.898283 L365.727342,339.276582 C365.312798,343.166573 365.090879,346.90411 365.124499,349.893818 C357.38482,325.632248 353.024877,295.408857 353,270.560308 L353,270.560579 C354.809432,264.404354 356.890215,258.255922 359.24619,252.125929 C378.05658,203.183329 413.551937,157.359116 463.513121,118.478781 C472.292438,123.601666 484.637833,123.401838 495.263187,117.026614 C507.122404,109.911071 513.185407,97.2947323 511.05049,86.2170162 C512.699781,85.2395286 514.361765,84.2684163 516.034801,83.3038704 Z M488.765542,36.2943146 C560.39813,-5.00362046 643.065404,-9.92803546 715.318982,15.7822143 L716.318262,15.8241831 C652.436822,13.3253888 577.486478,30.1802538 508.361568,70.0324516 C506.615514,71.0390939 504.881324,72.0535613 503.159031,73.0757254 C494.370559,65.9651842 480.346861,65.3766656 468.471657,72.5018014 C455.271718,80.4217797 449.252635,95.1566231 453.726236,106.999345 C414.61743,137.981159 384.138101,173.453156 362.926543,211.013612 L361.971225,212.719651 L361.822799,213.012716 L361.651867,213.377962 L361.45843,213.815389 L361.165503,214.510908 L360.832566,215.33475 L360.360129,216.545007 L359.937167,217.657576 L359.100708,219.913348 L357.994715,222.972584 L357.060192,225.603858 C363.089392,190.009639 376.199022,155.740239 395.783449,125.036708 C402.019045,115.330947 408.879881,105.960483 416.310313,97.0246125 C436.147293,73.3224579 460.418383,52.6371435 488.765542,36.2943146 Z" id="3" fill="#009191"></path>
            <path d="M683.596479,57.5980202 C669.890363,59.9692321 660.791876,74.0672332 665.061613,87.0717515 C669.65568,101.064097 689.417449,111.48193 705.208037,108.482414 C719.359073,105.79434 728.0791,92.6782736 723.987712,80.2169582 C719.250025,65.7871858 703.260285,54.1961044 683.596479,57.5980202 Z" id="2" fill="#FFC92A" fill-rule="nonzero"></path>
            <path d="M624.942591,417.031654 C631.966482,407.640823 646.250018,406.182562 656.892796,414.262538 C667.535574,422.342513 670.081301,436.577515 663.057409,445.968346 C659.334747,450.945486 653.57285,453.694368 647.394539,453.975944 L646.693415,453.997267 C641.422957,454.077947 635.896454,452.373451 631.107204,448.737462 C620.464426,440.657487 617.918699,426.422485 624.942591,417.031654 Z" id="1" fill="#FF455A" fill-rule="nonzero"></path>
        </g>
    </g>
</svg>