<?xml version="1.0" encoding="UTF-8"?>
<svg width="1334px" height="420px" viewBox="0 0 1334 420" version="1.1" xmlns="http://www.w3.org/2000/svg" xmlns:xlink="http://www.w3.org/1999/xlink">
    <title>画板</title>
    <g id="画板" stroke="none" stroke-width="1" fill="none" fill-rule="evenodd">
        <g id="logo-search-light" fill-rule="nonzero">
            <g id="search-colorful-2-(1)">
                <path d="M253.018754,156.382978 L254.99321,156.406784 C294.675124,157.889235 317.00833,173.954373 334.792105,197.429795 C326.650791,278.821156 255.333408,338.27393 174.339961,334.975608 C133.131618,332.508741 97.1353832,314.041159 71.4223158,286.189134 C115.389393,225.782075 186.556301,157.687333 251.05305,156.401405 L253.018754,156.382978 Z" id="路径" fill="#FFCC66"></path>
                <path d="M35.711158,230.466703 L35.7416469,230.425624 C51.1739705,208.351323 75.8947937,186.419351 109.011019,195.246294 C171.987141,213.260463 231.101785,250.16295 267.144535,249.120741 C301.446664,248.128866 315.298572,238.219805 330.32821,224.626865 C312.01293,292.136381 246.656209,339.002607 173.426972,336.095306 C107.102087,332.224517 54.2154201,288.13485 35.711158,230.466703 Z" id="路径" fill="#FF7673"></path>
                <path d="M144.978733,206.620416 L146.296389,205.531915 L149.013256,206.548256 C193.203954,223.177592 228.351731,241.132308 256.07411,245.766902 C290.746303,251.563357 313.571812,235.465632 330.32821,221.89288 C312.22493,290.341837 246.746881,337.920131 173.357955,334.977056 C132.727075,332.581841 97.1418833,314.932967 71.4223158,288.223185 C90.8363116,259.648434 116.601028,230.220138 144.978733,206.620416 Z" id="路径" fill="#FF9F73"></path>
                <path d="M348.059852,311.101063 L409.363813,366.191531 C422.066024,377.606378 423.094015,397.112852 411.661468,409.790332 C400.37098,422.310285 381.112101,423.455275 368.412285,412.451514 L367.985882,412.075258 L303.24059,353.891636 C320.242646,341.940062 335.359869,327.499399 348.059852,311.101063 Z M194.62375,0.277340847 C295.463925,7.61407194 374.302607,93.8206617 366.968776,194.700714 C359.634945,295.580764 273.462432,372.616439 172.622258,367.113892 C71.7820823,361.611342 -5.22314194,273.570572 0.277231218,172.690519 C5.77760438,71.810468 93.7835751,-5.2252074 194.62375,0.277340847 Z M32.4015315,175.008391 C29.0334302,257.614648 91.3432974,330.105855 175.545819,335.163381 C258.064292,338.535064 330.478463,276.15891 335.530614,191.86681 C338.865033,110.086616 277.828476,38.2201819 194.905789,31.8837188 L192.386326,31.7118202 C109.867852,28.3401359 35.7696326,92.402132 32.4015315,175.008391 Z M1217.6216,118.237135 C1234.10221,118.237135 1248.61781,121.980475 1261.16842,129.467153 C1273.47768,136.809857 1283.04317,146.410658 1289.86491,158.269556 L1290.26302,158.969742 L1290.26302,121.663242 L1334,121.663242 L1334,331.417135 L1290.26302,331.417135 L1290.26302,292.207242 L1289.85833,292.937091 C1282.79438,305.539643 1273.16768,315.638128 1260.97826,323.232546 C1248.55443,330.97301 1234.10221,334.843242 1217.6216,334.843242 C1189.73135,334.843242 1166.27819,324.628367 1147.26212,304.198617 C1128.24604,283.768868 1118.738,257.628938 1118.738,225.778832 C1118.738,193.928725 1128.18266,168.042582 1147.07196,148.120403 C1165.96126,128.198224 1189.47781,118.237135 1217.6216,118.237135 Z M712.554581,66.8455281 L712.554581,257.565492 L712.551986,258.34179 C712.396294,281.576928 705.234436,299.971412 691.066413,313.525242 C676.740968,327.229671 657.915051,334.081885 634.588662,334.081885 C611.262274,334.081885 592.436357,327.229671 578.110912,313.525242 C563.942889,299.971412 556.781031,281.576928 556.625339,258.34179 L556.622744,257.565492 L600.359723,257.565492 L600.377374,258.236326 C600.728862,269.595019 603.702164,278.634587 609.297279,285.355028 C615.002102,292.207242 623.432563,295.633349 634.588662,295.633349 C645.744762,295.633349 654.238609,292.143796 660.070207,285.164689 C665.789658,278.319795 668.704378,269.338864 668.814367,258.221895 L668.817602,257.565492 L668.817602,66.8455281 L712.554581,66.8455281 Z M827.284916,121.663242 L827.284916,331.417135 L783.928259,331.417135 L783.928259,121.663242 L827.284916,121.663242 Z M995.640591,118.237135 C1019.22053,118.237135 1038.68031,126.104492 1054.01995,141.839207 C1069.20464,157.414985 1076.87368,179.083535 1077.02706,206.84486 L1077.02941,207.696599 L1077.02941,331.417135 L1034.05307,331.417135 L1034.05307,214.168135 L1034.05036,213.388163 C1033.92187,194.988771 1029.23214,180.846424 1019.98117,170.961117 C1010.5999,160.936581 997.795746,155.924314 981.568694,155.924314 C965.34164,155.924314 952.474095,160.936581 942.966056,170.961117 C933.588264,180.848331 928.835137,194.994229 928.706674,213.398813 L928.703998,214.168135 L928.703998,331.417135 L885.347341,331.417135 L885.347341,121.663242 L928.703998,121.663242 L928.703998,154.782278 L929.124862,154.05503 C943.096202,130.176433 965.268111,118.237135 995.640591,118.237135 Z M1226.74932,155.924314 C1209.50807,155.924314 1194.61215,162.142064 1182.06154,174.577564 C1169.51093,187.013063 1163.23562,204.016707 1163.23562,225.588492 C1163.23562,247.160278 1169.51093,264.481153 1182.06154,277.551117 C1194.61215,290.621082 1209.50807,297.156064 1226.74932,297.156064 C1243.99057,297.156064 1258.82311,290.811421 1271.24694,278.122135 C1283.92433,265.179064 1290.26302,247.921635 1290.26302,226.349849 C1290.26302,204.778064 1283.98772,187.647528 1271.4371,174.958242 C1258.88649,162.268956 1243.99057,155.924314 1226.74932,155.924314 Z M805.796748,38.2946352 C813.529954,38.2946352 820.058807,40.9593852 825.383308,46.2888852 C830.70781,51.6183852 833.370061,58.2168138 833.370061,66.0841709 C833.370061,73.951528 830.70781,80.5499566 825.383308,85.8794566 C820.058807,91.2089566 813.529954,93.8737066 805.796748,93.8737066 C798.063544,93.8737066 791.53469,91.2089566 786.210188,85.8794566 C780.885687,80.5499566 778.223436,73.951528 778.223436,66.0841709 C778.223436,58.2168138 780.885687,51.6183852 786.210188,46.2888852 C791.53469,40.9593852 798.063544,38.2946352 805.796748,38.2946352 Z" id="形状" fill="#009191"></path>
            </g>
        </g>
    </g>
</svg>