<svg version="1.1" viewBox="0.0 0.0 100.0 315.56167979002623" fill="none" stroke="none" stroke-linecap="square" stroke-miterlimit="10" xmlns:xlink="http://www.w3.org/1999/xlink" xmlns="http://www.w3.org/2000/svg"><clipPath id="p.0"><path d="m0 0l100.0 0l0 315.56168l-100.0 0l0 -315.56168z" clip-rule="nonzero"/></clipPath><g clip-path="url(#p.0)"><path fill="#000000" fill-opacity="0.0" d="m0 0l100.0 0l0 315.56168l-100.0 0z" fill-rule="evenodd"/><path fill="#32c8cd" fill-opacity="0.8883" d="m4.121631 5.36775l21.606298 0l0 21.606298l-21.606298 0z" fill-rule="evenodd"/><path stroke="#ffffff" stroke-width="1.0" stroke-linejoin="round" stroke-linecap="butt" d="m4.121631 5.36775l21.606298 0l0 21.606298l-21.606298 0z" fill-rule="evenodd"/><path fill="#000000" d="m13.989478 15.0596485l0 1.96875q1.53125 -1.375 2.281249 -1.765625q0.75 -0.40625 1.390625 -0.40625q0.703125 0 1.296875 0.46875q0.59375 0.46875 0.59375 0.71875q0 0.171875 -0.109375 0.296875q-0.109375 0.109375 -0.296875 0.109375q-0.09375 0 -0.15625 -0.03125q-0.0625 -0.03125 -0.234375 -0.21875q-0.328125 -0.3125 -0.578125 -0.4375q-0.234375 -0.125 -0.46875 -0.125q-0.5 0 -1.21875 0.40625q-0.71874905 0.40625 -2.499999 2.0l0 4.265625l3.453124 0q0.28125 0 0.40625 0.109375q0.125 0.109375 0.125 0.28125q0 0.171875 -0.125 0.28125q-0.125 0.109375 -0.40625 0.109375l-6.109374 0q-0.28125 0 -0.40625 -0.109375q-0.109375 -0.109375 -0.109375 -0.265625q0 -0.15625 0.109375 -0.265625q0.109375 -0.109375 0.40625 -0.109375l1.875 0l0 -6.5l-1.4375 0q-0.28125 0 -0.40625 -0.109375q-0.109375 -0.109375 -0.109375 -0.28125q0 -0.171875 0.109375 -0.28125q0.125 -0.109375 0.40625 -0.109375l2.21875 0z" fill-rule="nonzero"/><path fill="#ffcc66" fill-opacity="0.7598" d="m41.727932 50.467487l21.606297 0l0 21.606297l-21.606297 0z" fill-rule="evenodd"/><path stroke="#ffffff" stroke-width="1.0" stroke-linejoin="round" stroke-linecap="butt" d="m41.727932 50.467487l21.606297 0l0 21.606297l-21.606297 0z" fill-rule="evenodd"/><path fill="#000000" d="m48.9864 60.159386l0 0.78125q0.984375 -1.0625 1.984375 -1.0625q0.609375 0 1.0625 0.328125q0.453125 0.3125 0.765625 0.96875q0.515625 -0.65625 1.046875 -0.96875q0.53125 -0.328125 1.078125 -0.328125q0.84375 0 1.34375 0.546875q0.65625 0.703125 0.65625 1.546875l0 5.4375l0.65625 0q0.2812538 0 0.3906288 0.109375q0.125 0.109375 0.125 0.28125q0 0.171875 -0.125 0.28125q-0.109375 0.109375 -0.3906288 0.109375l-1.4375 0l0 -6.15625q0 -0.59375 -0.359375 -0.984375q-0.359375 -0.390625 -0.828125 -0.390625q-0.4375 0 -0.90625 0.328125q-0.46875 0.3125 -1.078125 1.25l0 5.171875l0.65625 0q0.265625 0 0.390625 0.109375q0.125 0.109375 0.125 0.28125q0 0.171875 -0.125 0.28125q-0.125 0.109375 -0.390625 0.109375l-1.4375 0l0 -6.09375q0 -0.625 -0.375 -1.03125q-0.359375 -0.40625 -0.8125 -0.40625q-0.421875 0 -0.828125 0.28125q-0.5625 0.375 -1.1875 1.296875l0 5.171875l0.65625 0q0.28125 0 0.390625 0.109375q0.125 0.109375 0.125 0.28125q0 0.171875 -0.125 0.28125q-0.109375 0.109375 -0.390625 0.109375l-2.09375 0q-0.28125 0 -0.40625 -0.109375q-0.125 -0.109375 -0.125 -0.28125q0 -0.171875 0.125 -0.28125q0.125 -0.109375 0.40625 -0.109375l0.65625 0l0 -6.46875l-0.65625 0q-0.28125 0 -0.40625 -0.109375q-0.125 -0.109375 -0.125 -0.28125q0 -0.171875 0.125 -0.28125q0.125 -0.109375 0.40625 -0.109375l1.4375 0z" fill-rule="nonzero"/><path fill="#ffcc66" fill-opacity="0.7598" d="m64.5685 50.467487l21.6063 0l0 21.606297l-21.6063 0z" fill-rule="evenodd"/><path stroke="#ffffff" stroke-width="1.0" stroke-linejoin="round" stroke-linecap="butt" d="m64.5685 50.467487l21.6063 0l0 21.606297l-21.6063 0z" fill-rule="evenodd"/><path fill="#000000" d="m71.82697 60.159386l0 0.78125q0.984375 -1.0625 1.984375 -1.0625q0.609375 0 1.0625 0.328125q0.453125 0.3125 0.765625 0.96875q0.515625 -0.65625 1.046875 -0.96875q0.53125 -0.328125 1.078125 -0.328125q0.84375 0 1.34375 0.546875q0.65625 0.703125 0.65625 1.546875l0 5.4375l0.65625 0q0.28125 0 0.390625 0.109375q0.125 0.109375 0.125 0.28125q0 0.171875 -0.125 0.28125q-0.109375 0.109375 -0.390625 0.109375l-1.4375 0l0 -6.15625q0 -0.59375 -0.359375 -0.984375q-0.359375 -0.390625 -0.828125 -0.390625q-0.4375 0 -0.90625 0.328125q-0.46875 0.3125 -1.078125 1.25l0 5.171875l0.65625 0q0.265625 0 0.390625 0.109375q0.125 0.109375 0.125 0.28125q0 0.171875 -0.125 0.28125q-0.125 0.109375 -0.390625 0.109375l-1.4375 0l0 -6.09375q0 -0.625 -0.375 -1.03125q-0.359375 -0.40625 -0.8125 -0.40625q-0.421875 0 -0.828125 0.28125q-0.5625 0.375 -1.1875 1.296875l0 5.171875l0.65625 0q0.28125 0 0.390625 0.109375q0.125 0.109375 0.125 0.28125q0 0.171875 -0.125 0.28125q-0.109375 0.109375 -0.390625 0.109375l-2.09375 0q-0.28125 0 -0.40625 -0.109375q-0.125 -0.109375 -0.125 -0.28125q0 -0.171875 0.125 -0.28125q0.125 -0.109375 0.40625 -0.109375l0.65625 0l0 -6.46875l-0.65625 0q-0.28125 0 -0.40625 -0.109375q-0.125 -0.109375 -0.125 -0.28125q0 -0.171875 0.125 -0.28125q0.125 -0.109375 0.40625 -0.109375l1.4375 0z" fill-rule="nonzero"/><path fill="#ff7673" fill-opacity="0.8101" d="m41.727932 80.54885l21.606297 0l0 21.6063l-21.606297 0z" fill-rule="evenodd"/><path stroke="#ffffff" stroke-width="1.0" stroke-linejoin="round" stroke-linecap="butt" d="m41.727932 80.54885l21.606297 0l0 21.6063l-21.606297 0z" fill-rule="evenodd"/><path fill="#000000" d="m55.783276 91.022l0 -0.25q0 -0.296875 0.109375 -0.40625q0.109375 -0.125 0.28125 -0.125q0.171875 0 0.28125 0.125q0.109375 0.109375 0.109375 0.40625l0 1.75q0 0.296875 -0.109375 0.421875q-0.109375 0.109375 -0.28125 0.109375q-0.15625 0 -0.265625 -0.09375q-0.109375 -0.109375 -0.125 -0.359375q-0.0625 -0.671875 -0.875 -1.265625q-0.796875 -0.59375 -2.171875 -0.59375q-1.734375 0 -2.640625 1.09375q-0.90625 1.078125 -0.90625 2.484375q0 1.515625 0.984375 2.5q1.0 0.984375 2.578125 0.984375q0.921875 0 1.859375 -0.328125q0.9375 -0.34375 1.703125 -1.09375q0.1875 -0.171875 0.34375 -0.171875q0.15625 0 0.265625 0.109375q0.109375 0.09375 0.109375 0.25q0 0.40625 -0.9375 1.015625q-1.515625 1.0 -3.375 1.0q-1.875 0 -3.09375 -1.203125q-1.203125 -1.203125 -1.203125 -3.046875q0 -1.890625 1.234375 -3.125q1.234375 -1.25 3.125 -1.25q1.78125 0 3.0 1.0625z" fill-rule="nonzero"/><path fill="#ff7673" fill-opacity="0.8101" d="m64.5685 80.54885l21.6063 0l0 21.6063l-21.6063 0z" fill-rule="evenodd"/><path stroke="#ffffff" stroke-width="1.0" stroke-linejoin="round" stroke-linecap="butt" d="m64.5685 80.54885l21.6063 0l0 21.6063l-21.6063 0z" fill-rule="evenodd"/><path fill="#000000" d="m78.62385 91.022l0 -0.25q0 -0.296875 0.109375 -0.40625q0.109375 -0.125 0.28125 -0.125q0.171875 0 0.28125 0.125q0.109375 0.109375 0.109375 0.40625l0 1.75q0 0.296875 -0.109375 0.421875q-0.109375 0.109375 -0.28125 0.109375q-0.15625 0 -0.265625 -0.09375q-0.109375 -0.109375 -0.125 -0.359375q-0.0625 -0.671875 -0.875 -1.265625q-0.796875 -0.59375 -2.171875 -0.59375q-1.734375 0 -2.640625 1.09375q-0.90625 1.078125 -0.90625 2.484375q0 1.515625 0.984375 2.5q1.0 0.984375 2.578125 0.984375q0.921875 0 1.859375 -0.328125q0.9375 -0.34375 1.703125 -1.09375q0.1875 -0.171875 0.34375 -0.171875q0.15625 0 0.265625 0.109375q0.109375 0.09375 0.109375 0.25q0 0.40625 -0.9375 1.015625q-1.515625 1.0 -3.375 1.0q-1.875 0 -3.09375 -1.203125q-1.203125 -1.203125 -1.203125 -3.046875q0 -1.890625 1.234375 -3.125q1.234375 -1.25 3.125 -1.25q1.78125 0 3.0 1.0625z" fill-rule="nonzero"/><path fill="#000000" fill-opacity="0.0" d="m14.924781 26.974049l0 34.299213l26.80315 0" fill-rule="evenodd"/><path stroke="#000000" stroke-width="1.0" stroke-linejoin="round" stroke-linecap="butt" d="m14.924781 26.974049l0 34.299213l26.80315 0" fill-rule="evenodd"/><path fill="#000000" fill-opacity="0.0" d="m14.924781 26.974049l0 64.37796l26.80315 0" fill-rule="evenodd"/><path stroke="#000000" stroke-width="1.0" stroke-linejoin="round" stroke-linecap="butt" d="m14.924781 26.974049l0 64.37796l26.80315 0" fill-rule="evenodd"/><path fill="#32c8cd" fill-opacity="0.8883" d="m4.121631 110.63022l21.606298 0l0 21.606293l-21.606298 0z" fill-rule="evenodd"/><path stroke="#ffffff" stroke-width="1.0" stroke-linejoin="round" stroke-linecap="butt" d="m4.121631 110.63022l21.606298 0l0 21.606293l-21.606298 0z" fill-rule="evenodd"/><path fill="#000000" d="m13.989478 120.32211l0 1.96875q1.53125 -1.375 2.281249 -1.765625q0.75 -0.40625 1.390625 -0.40625q0.703125 0 1.296875 0.46875q0.59375 0.46875 0.59375 0.71875q0 0.171875 -0.109375 0.296875q-0.109375 0.109375 -0.296875 0.109375q-0.09375 0 -0.15625 -0.03125q-0.0625 -0.03125 -0.234375 -0.21875q-0.328125 -0.3125 -0.578125 -0.4375q-0.234375 -0.125 -0.46875 -0.125q-0.5 0 -1.21875 0.40625q-0.71874905 0.40625 -2.499999 2.0l0 4.265625l3.453124 0q0.28125 0 0.40625 0.109375q0.125 0.109375 0.125 0.28125q0 0.171875 -0.125 0.28125q-0.125 0.109375 -0.40625 0.109375l-6.109374 0q-0.28125 0 -0.40625 -0.109375q-0.109375 -0.109375 -0.109375 -0.265625q0 -0.15625 0.109375 -0.265625q0.109375 -0.109375 0.40625 -0.109375l1.875 0l0 -6.5l-1.4375 0q-0.28125 0 -0.40625 -0.109375q-0.109375 -0.109375 -0.109375 -0.28125q0 -0.171875 0.109375 -0.28125q0.125 -0.109375 0.40625 -0.109375l2.21875 0z" fill-rule="nonzero"/><path fill="#ffcc66" fill-opacity="0.7598" d="m41.727932 155.72995l21.606297 0l0 21.606308l-21.606297 0z" fill-rule="evenodd"/><path stroke="#ffffff" stroke-width="1.0" stroke-linejoin="round" stroke-linecap="butt" d="m41.727932 155.72995l21.606297 0l0 21.606308l-21.606297 0z" fill-rule="evenodd"/><path fill="#000000" d="m48.9864 165.42186l0 0.78125q0.984375 -1.0625 1.984375 -1.0625q0.609375 0 1.0625 0.328125q0.453125 0.3125 0.765625 0.96875q0.515625 -0.65625 1.046875 -0.96875q0.53125 -0.328125 1.078125 -0.328125q0.84375 0 1.34375 0.546875q0.65625 0.703125 0.65625 1.546875l0 5.4375l0.65625 0q0.2812538 0 0.3906288 0.109375q0.125 0.109375 0.125 0.28125q0 0.171875 -0.125 0.28125q-0.109375 0.109375 -0.3906288 0.109375l-1.4375 0l0 -6.15625q0 -0.59375 -0.359375 -0.984375q-0.359375 -0.390625 -0.828125 -0.390625q-0.4375 0 -0.90625 0.328125q-0.46875 0.3125 -1.078125 1.25l0 5.171875l0.65625 0q0.265625 0 0.390625 0.109375q0.125 0.109375 0.125 0.28125q0 0.171875 -0.125 0.28125q-0.125 0.109375 -0.390625 0.109375l-1.4375 0l0 -6.09375q0 -0.625 -0.375 -1.03125q-0.359375 -0.40625 -0.8125 -0.40625q-0.421875 0 -0.828125 0.28125q-0.5625 0.375 -1.1875 1.296875l0 5.171875l0.65625 0q0.28125 0 0.390625 0.109375q0.125 0.109375 0.125 0.28125q0 0.171875 -0.125 0.28125q-0.109375 0.109375 -0.390625 0.109375l-2.09375 0q-0.28125 0 -0.40625 -0.109375q-0.125 -0.109375 -0.125 -0.28125q0 -0.171875 0.125 -0.28125q0.125 -0.109375 0.40625 -0.109375l0.65625 0l0 -6.46875l-0.65625 0q-0.28125 0 -0.40625 -0.109375q-0.125 -0.109375 -0.125 -0.28125q0 -0.171875 0.125 -0.28125q0.125 -0.109375 0.40625 -0.109375l1.4375 0z" fill-rule="nonzero"/><path fill="#ffcc66" fill-opacity="0.7598" d="m64.5685 155.72995l21.6063 0l0 21.606308l-21.6063 0z" fill-rule="evenodd"/><path stroke="#ffffff" stroke-width="1.0" stroke-linejoin="round" stroke-linecap="butt" d="m64.5685 155.72995l21.6063 0l0 21.606308l-21.6063 0z" fill-rule="evenodd"/><path fill="#000000" d="m71.82697 165.42186l0 0.78125q0.984375 -1.0625 1.984375 -1.0625q0.609375 0 1.0625 0.328125q0.453125 0.3125 0.765625 0.96875q0.515625 -0.65625 1.046875 -0.96875q0.53125 -0.328125 1.078125 -0.328125q0.84375 0 1.34375 0.546875q0.65625 0.703125 0.65625 1.546875l0 5.4375l0.65625 0q0.28125 0 0.390625 0.109375q0.125 0.109375 0.125 0.28125q0 0.171875 -0.125 0.28125q-0.109375 0.109375 -0.390625 0.109375l-1.4375 0l0 -6.15625q0 -0.59375 -0.359375 -0.984375q-0.359375 -0.390625 -0.828125 -0.390625q-0.4375 0 -0.90625 0.328125q-0.46875 0.3125 -1.078125 1.25l0 5.171875l0.65625 0q0.265625 0 0.390625 0.109375q0.125 0.109375 0.125 0.28125q0 0.171875 -0.125 0.28125q-0.125 0.109375 -0.390625 0.109375l-1.4375 0l0 -6.09375q0 -0.625 -0.375 -1.03125q-0.359375 -0.40625 -0.8125 -0.40625q-0.421875 0 -0.828125 0.28125q-0.5625 0.375 -1.1875 1.296875l0 5.171875l0.65625 0q0.28125 0 0.390625 0.109375q0.125 0.109375 0.125 0.28125q0 0.171875 -0.125 0.28125q-0.109375 0.109375 -0.390625 0.109375l-2.09375 0q-0.28125 0 -0.40625 -0.109375q-0.125 -0.109375 -0.125 -0.28125q0 -0.171875 0.125 -0.28125q0.125 -0.109375 0.40625 -0.109375l0.65625 0l0 -6.46875l-0.65625 0q-0.28125 0 -0.40625 -0.109375q-0.125 -0.109375 -0.125 -0.28125q0 -0.171875 0.125 -0.28125q0.125 -0.109375 0.40625 -0.109375l1.4375 0z" fill-rule="nonzero"/><path fill="#ff7673" fill-opacity="0.8101" d="m41.727932 185.81133l21.606297 0l0 21.606293l-21.606297 0z" fill-rule="evenodd"/><path stroke="#ffffff" stroke-width="1.0" stroke-linejoin="round" stroke-linecap="butt" d="m41.727932 185.81133l21.606297 0l0 21.606293l-21.606297 0z" fill-rule="evenodd"/><path fill="#000000" d="m55.783276 196.28447l0 -0.25q0 -0.296875 0.109375 -0.40625q0.109375 -0.125 0.28125 -0.125q0.171875 0 0.28125 0.125q0.109375 0.109375 0.109375 0.40625l0 1.75q0 0.296875 -0.109375 0.421875q-0.109375 0.109375 -0.28125 0.109375q-0.15625 0 -0.265625 -0.09375q-0.109375 -0.109375 -0.125 -0.359375q-0.0625 -0.671875 -0.875 -1.265625q-0.796875 -0.59375 -2.171875 -0.59375q-1.734375 0 -2.640625 1.09375q-0.90625 1.078125 -0.90625 2.484375q0 1.515625 0.984375 2.5q1.0 0.984375 2.578125 0.984375q0.921875 0 1.859375 -0.328125q0.9375 -0.34375 1.703125 -1.09375q0.1875 -0.171875 0.34375 -0.171875q0.15625 0 0.265625 0.109375q0.109375 0.09375 0.109375 0.25q0 0.40625 -0.9375 1.015625q-1.515625 1.0 -3.375 1.0q-1.875 0 -3.09375 -1.203125q-1.203125 -1.203125 -1.203125 -3.046875q0 -1.890625 1.234375 -3.125q1.234375 -1.25 3.125 -1.25q1.78125 0 3.0 1.0625z" fill-rule="nonzero"/><path fill="#ff7673" fill-opacity="0.8101" d="m64.5685 185.81133l21.6063 0l0 21.606293l-21.6063 0z" fill-rule="evenodd"/><path stroke="#ffffff" stroke-width="1.0" stroke-linejoin="round" stroke-linecap="butt" d="m64.5685 185.81133l21.6063 0l0 21.606293l-21.6063 0z" fill-rule="evenodd"/><path fill="#000000" d="m78.62385 196.28447l0 -0.25q0 -0.296875 0.109375 -0.40625q0.109375 -0.125 0.28125 -0.125q0.171875 0 0.28125 0.125q0.109375 0.109375 0.109375 0.40625l0 1.75q0 0.296875 -0.109375 0.421875q-0.109375 0.109375 -0.28125 0.109375q-0.15625 0 -0.265625 -0.09375q-0.109375 -0.109375 -0.125 -0.359375q-0.0625 -0.671875 -0.875 -1.265625q-0.796875 -0.59375 -2.171875 -0.59375q-1.734375 0 -2.640625 1.09375q-0.90625 1.078125 -0.90625 2.484375q0 1.515625 0.984375 2.5q1.0 0.984375 2.578125 0.984375q0.921875 0 1.859375 -0.328125q0.9375 -0.34375 1.703125 -1.09375q0.1875 -0.171875 0.34375 -0.171875q0.15625 0 0.265625 0.109375q0.109375 0.09375 0.109375 0.25q0 0.40625 -0.9375 1.015625q-1.515625 1.0 -3.375 1.0q-1.875 0 -3.09375 -1.203125q-1.203125 -1.203125 -1.203125 -3.046875q0 -1.890625 1.234375 -3.125q1.234375 -1.25 3.125 -1.25q1.78125 0 3.0 1.0625z" fill-rule="nonzero"/><path fill="#000000" fill-opacity="0.0" d="m14.924781 132.23651l0 34.299225l26.80315 0" fill-rule="evenodd"/><path stroke="#000000" stroke-width="1.0" stroke-linejoin="round" stroke-linecap="butt" d="m14.924781 132.23651l0 34.299225l26.80315 0" fill-rule="evenodd"/><path fill="#000000" fill-opacity="0.0" d="m14.924781 132.23651l0 64.37796l26.80315 0" fill-rule="evenodd"/><path stroke="#000000" stroke-width="1.0" stroke-linejoin="round" stroke-linecap="butt" d="m14.924781 132.23651l0 64.37796l26.80315 0" fill-rule="evenodd"/><path fill="#32c8cd" fill-opacity="0.8883" d="m4.121631 215.89268l21.606298 0l0 21.606293l-21.606298 0z" fill-rule="evenodd"/><path stroke="#ffffff" stroke-width="1.0" stroke-linejoin="round" stroke-linecap="butt" d="m4.121631 215.89268l21.606298 0l0 21.606293l-21.606298 0z" fill-rule="evenodd"/><path fill="#000000" d="m13.989478 225.58458l0 1.96875q1.53125 -1.375 2.281249 -1.765625q0.75 -0.40625 1.390625 -0.40625q0.703125 0 1.296875 0.46875q0.59375 0.46875 0.59375 0.71875q0 0.171875 -0.109375 0.296875q-0.109375 0.109375 -0.296875 0.109375q-0.09375 0 -0.15625 -0.03125q-0.0625 -0.03125 -0.234375 -0.21875q-0.328125 -0.3125 -0.578125 -0.4375q-0.234375 -0.125 -0.46875 -0.125q-0.5 0 -1.21875 0.40625q-0.71874905 0.40625 -2.499999 2.0l0 4.265625l3.453124 0q0.28125 0 0.40625 0.109375q0.125 0.109375 0.125 0.28125q0 0.171875 -0.125 0.28125q-0.125 0.109375 -0.40625 0.109375l-6.109374 0q-0.28125 0 -0.40625 -0.109375q-0.109375 -0.109375 -0.109375 -0.265625q0 -0.15625 0.109375 -0.265625q0.109375 -0.109375 0.40625 -0.109375l1.875 0l0 -6.5l-1.4375 0q-0.28125 0 -0.40625 -0.109375q-0.109375 -0.109375 -0.109375 -0.28125q0 -0.171875 0.109375 -0.28125q0.125 -0.109375 0.40625 -0.109375l2.21875 0z" fill-rule="nonzero"/><path fill="#ffcc66" fill-opacity="0.7598" d="m41.727932 260.99243l21.606297 0l0 21.606293l-21.606297 0z" fill-rule="evenodd"/><path stroke="#ffffff" stroke-width="1.0" stroke-linejoin="round" stroke-linecap="butt" d="m41.727932 260.99243l21.606297 0l0 21.606293l-21.606297 0z" fill-rule="evenodd"/><path fill="#000000" d="m48.9864 270.88116l0 0.78125q0.984375 -1.0625 1.984375 -1.0625q0.609375 0 1.0625 0.328125q0.453125 0.3125 0.765625 0.96875q0.515625 -0.65625 1.046875 -0.96875q0.53125 -0.328125 1.078125 -0.328125q0.84375 0 1.34375 0.546875q0.65625 0.703125 0.65625 1.546875l0 5.4375l0.65625 0q0.2812538 0 0.3906288 0.109375q0.125 0.109375 0.125 0.28125q0 0.171875 -0.125 0.28125q-0.109375 0.109375 -0.3906288 0.109375l-1.4375 0l0 -6.15625q0 -0.59375 -0.359375 -0.984375q-0.359375 -0.390625 -0.828125 -0.390625q-0.4375 0 -0.90625 0.328125q-0.46875 0.3125 -1.078125 1.25l0 5.171875l0.65625 0q0.265625 0 0.390625 0.109375q0.125 0.109375 0.125 0.28125q0 0.171875 -0.125 0.28125q-0.125 0.109375 -0.390625 0.109375l-1.4375 0l0 -6.09375q0 -0.625 -0.375 -1.03125q-0.359375 -0.40625 -0.8125 -0.40625q-0.421875 0 -0.828125 0.28125q-0.5625 0.375 -1.1875 1.296875l0 5.171875l0.65625 0q0.28125 0 0.390625 0.109375q0.125 0.109375 0.125 0.28125q0 0.171875 -0.125 0.28125q-0.109375 0.109375 -0.390625 0.109375l-2.09375 0q-0.28125 0 -0.40625 -0.109375q-0.125 -0.109375 -0.125 -0.28125q0 -0.171875 0.125 -0.28125q0.125 -0.109375 0.40625 -0.109375l0.65625 0l0 -6.46875l-0.65625 0q-0.28125 0 -0.40625 -0.109375q-0.125 -0.109375 -0.125 -0.28125q0 -0.171875 0.125 -0.28125q0.125 -0.109375 0.40625 -0.109375l1.4375 0z" fill-rule="nonzero"/><path fill="#ffcc66" fill-opacity="0.7598" d="m64.5685 260.99243l21.6063 0l0 21.606293l-21.6063 0z" fill-rule="evenodd"/><path stroke="#ffffff" stroke-width="1.0" stroke-linejoin="round" stroke-linecap="butt" d="m64.5685 260.99243l21.6063 0l0 21.606293l-21.6063 0z" fill-rule="evenodd"/><path fill="#000000" d="m71.82697 270.88116l0 0.78125q0.984375 -1.0625 1.984375 -1.0625q0.609375 0 1.0625 0.328125q0.453125 0.3125 0.765625 0.96875q0.515625 -0.65625 1.046875 -0.96875q0.53125 -0.328125 1.078125 -0.328125q0.84375 0 1.34375 0.546875q0.65625 0.703125 0.65625 1.546875l0 5.4375l0.65625 0q0.28125 0 0.390625 0.109375q0.125 0.109375 0.125 0.28125q0 0.171875 -0.125 0.28125q-0.109375 0.109375 -0.390625 0.109375l-1.4375 0l0 -6.15625q0 -0.59375 -0.359375 -0.984375q-0.359375 -0.390625 -0.828125 -0.390625q-0.4375 0 -0.90625 0.328125q-0.46875 0.3125 -1.078125 1.25l0 5.171875l0.65625 0q0.265625 0 0.390625 0.109375q0.125 0.109375 0.125 0.28125q0 0.171875 -0.125 0.28125q-0.125 0.109375 -0.390625 0.109375l-1.4375 0l0 -6.09375q0 -0.625 -0.375 -1.03125q-0.359375 -0.40625 -0.8125 -0.40625q-0.421875 0 -0.828125 0.28125q-0.5625 0.375 -1.1875 1.296875l0 5.171875l0.65625 0q0.28125 0 0.390625 0.109375q0.125 0.109375 0.125 0.28125q0 0.171875 -0.125 0.28125q-0.109375 0.109375 -0.390625 0.109375l-2.09375 0q-0.28125 0 -0.40625 -0.109375q-0.125 -0.109375 -0.125 -0.28125q0 -0.171875 0.125 -0.28125q0.125 -0.109375 0.40625 -0.109375l0.65625 0l0 -6.46875l-0.65625 0q-0.28125 0 -0.40625 -0.109375q-0.125 -0.109375 -0.125 -0.28125q0 -0.171875 0.125 -0.28125q0.125 -0.109375 0.40625 -0.109375l1.4375 0z" fill-rule="nonzero"/><path fill="#ff7673" fill-opacity="0.8101" d="m41.727932 291.0738l21.606297 0l0 21.606293l-21.606297 0z" fill-rule="evenodd"/><path stroke="#ffffff" stroke-width="1.0" stroke-linejoin="round" stroke-linecap="butt" d="m41.727932 291.0738l21.606297 0l0 21.606293l-21.606297 0z" fill-rule="evenodd"/><path fill="#000000" d="m55.783276 301.74377l0 -0.25q0 -0.296875 0.109375 -0.40625q0.109375 -0.125 0.28125 -0.125q0.171875 0 0.28125 0.125q0.109375 0.109375 0.109375 0.40625l0 1.75q0 0.296875 -0.109375 0.421875q-0.109375 0.109375 -0.28125 0.109375q-0.15625 0 -0.265625 -0.09375q-0.109375 -0.109375 -0.125 -0.359375q-0.0625 -0.671875 -0.875 -1.265625q-0.796875 -0.59375 -2.171875 -0.59375q-1.734375 0 -2.640625 1.09375q-0.90625 1.078125 -0.90625 2.484375q0 1.515625 0.984375 2.5q1.0 0.984375 2.578125 0.984375q0.921875 0 1.859375 -0.328125q0.9375 -0.34375 1.703125 -1.09375q0.1875 -0.171875 0.34375 -0.171875q0.15625 0 0.265625 0.109375q0.109375 0.09375 0.109375 0.25q0 0.40625 -0.9375 1.015625q-1.515625 1.0 -3.375 1.0q-1.875 0 -3.09375 -1.203125q-1.203125 -1.203125 -1.203125 -3.046875q0 -1.890625 1.234375 -3.125q1.234375 -1.25 3.125 -1.25q1.78125 0 3.0 1.0625z" fill-rule="nonzero"/><path fill="#ff7673" fill-opacity="0.8101" d="m64.5685 291.0738l21.6063 0l0 21.606293l-21.6063 0z" fill-rule="evenodd"/><path stroke="#ffffff" stroke-width="1.0" stroke-linejoin="round" stroke-linecap="butt" d="m64.5685 291.0738l21.6063 0l0 21.606293l-21.6063 0z" fill-rule="evenodd"/><path fill="#000000" d="m78.62385 301.74377l0 -0.25q0 -0.296875 0.109375 -0.40625q0.109375 -0.125 0.28125 -0.125q0.171875 0 0.28125 0.125q0.109375 0.109375 0.109375 0.40625l0 1.75q0 0.296875 -0.109375 0.421875q-0.109375 0.109375 -0.28125 0.109375q-0.15625 0 -0.265625 -0.09375q-0.109375 -0.109375 -0.125 -0.359375q-0.0625 -0.671875 -0.875 -1.265625q-0.796875 -0.59375 -2.171875 -0.59375q-1.734375 0 -2.640625 1.09375q-0.90625 1.078125 -0.90625 2.484375q0 1.515625 0.984375 2.5q1.0 0.984375 2.578125 0.984375q0.921875 0 1.859375 -0.328125q0.9375 -0.34375 1.703125 -1.09375q0.1875 -0.171875 0.34375 -0.171875q0.15625 0 0.265625 0.109375q0.109375 0.09375 0.109375 0.25q0 0.40625 -0.9375 1.015625q-1.515625 1.0 -3.375 1.0q-1.875 0 -3.09375 -1.203125q-1.203125 -1.203125 -1.203125 -3.046875q0 -1.890625 1.234375 -3.125q1.234375 -1.25 3.125 -1.25q1.78125 0 3.0 1.0625z" fill-rule="nonzero"/><path fill="#000000" fill-opacity="0.0" d="m14.924781 237.49898l0 34.29921l26.80315 0" fill-rule="evenodd"/><path stroke="#000000" stroke-width="1.0" stroke-linejoin="round" stroke-linecap="butt" d="m14.924781 237.49898l0 34.29921l26.80315 0" fill-rule="evenodd"/><path fill="#000000" fill-opacity="0.0" d="m14.924781 237.49898l0 64.377945l26.80315 0" fill-rule="evenodd"/><path stroke="#000000" stroke-width="1.0" stroke-linejoin="round" stroke-linecap="butt" d="m14.924781 237.49898l0 64.377945l26.80315 0" fill-rule="evenodd"/></g></svg>