<svg version="1.1" viewBox="0.0 0.0 377.0524934383202 310.4199475065617" fill="none" stroke="none" stroke-linecap="square" stroke-miterlimit="10" xmlns:xlink="http://www.w3.org/1999/xlink" xmlns="http://www.w3.org/2000/svg"><clipPath id="p.0"><path d="m0 0l377.0525 0l0 310.41995l-377.0525 0l0 -310.41995z" clip-rule="nonzero"/></clipPath><g clip-path="url(#p.0)"><path fill="#000000" fill-opacity="0.0" d="m0 0l377.0525 0l0 310.41995l-377.0525 0z" fill-rule="evenodd"/><path fill="#ffcc66" d="m1.3451444 0.0039362204l374.36218 0l0 310.33072l-374.36218 0z" fill-rule="evenodd"/><path stroke="#ffffff" stroke-width="1.0" stroke-linejoin="round" stroke-linecap="butt" d="m1.3451444 0.0039362204l374.36218 0l0 310.33072l-374.36218 0z" fill-rule="evenodd"/><path fill="#000000" d="m323.87183 284.16092q2.078125 0 3.625 0.828125q1.546875 0.8125 2.390625 2.296875q0.84375 1.484375 0.84375 3.421875q0 1.921875 -0.84375 3.421875q-0.84375 1.484375 -2.40625 2.3125q-1.5625 0.8125 -3.609375 0.8125l-4.90625 0l0 -13.09375l4.90625 0zm-0.203125 10.328125q1.8125 0 2.8125 -0.984375q1.015625 -0.984375 1.015625 -2.796875q0 -1.8125 -1.015625 -2.8125q-1.0 -1.015625 -2.8125 -1.015625l-1.515625 0l0 7.609375l1.515625 0zm13.59436 2.921875q-1.53125 0 -2.75 -0.65625q-1.21875 -0.65625 -1.921875 -1.859375q-0.703125 -1.21875 -0.703125 -2.84375q0 -1.609375 0.703125 -2.828125q0.71875 -1.21875 1.953125 -1.875q1.234375 -0.65625 2.765625 -0.65625q1.53125 0 2.75 0.65625q1.234375 0.65625 1.9375 1.875q0.71875 1.21875 0.71875 2.828125q0 1.609375 -0.71875 2.828125q-0.71875 1.21875 -1.96875 1.875q-1.234375 0.65625 -2.765625 0.65625zm0 -2.765625q0.921875 0 1.5625 -0.671875q0.640625 -0.671875 0.640625 -1.921875q0 -1.25 -0.625 -1.921875q-0.625 -0.671875 -1.53125 -0.671875q-0.9375 0 -1.5625 0.671875q-0.609375 0.65625 -0.609375 1.921875q0 1.25 0.609375 1.921875q0.609375 0.671875 1.515625 0.671875zm6.509033 -2.59375q0 -1.625 0.65625 -2.828125q0.671875 -1.21875 1.859375 -1.875q1.1875 -0.65625 2.71875 -0.65625q1.953125 0 3.265625 1.03125q1.3125 1.03125 1.734375 2.890625l-3.40625 0q-0.421875 -1.1875 -1.65625 -1.1875q-0.875 0 -1.40625 0.6875q-0.515625 0.671875 -0.515625 1.9375q0 1.265625 0.515625 1.953125q0.53125 0.671875 1.40625 0.671875q1.234375 0 1.65625 -1.1875l3.40625 0q-0.421875 1.828125 -1.75 2.875q-1.3125 1.046875 -3.25 1.046875q-1.53125 0 -2.71875 -0.65625q-1.1875 -0.65625 -1.859375 -1.859375q-0.65625 -1.21875 -0.65625 -2.84375zm11.615143 -1.796875q0 -3.203125 1.234375 -5.046875q1.25 -1.859375 4.0 -1.859375q2.765625 0 4.0 1.859375q1.25 1.84375 1.25 5.046875q0 3.25 -1.25 5.09375q-1.234375 1.84375 -4.0 1.84375q-2.75 0 -4.0 -1.84375q-1.234375 -1.84375 -1.234375 -5.09375zm7.34375 0q0 -1.875 -0.40625 -2.890625q-0.40625 -1.015625 -1.703125 -1.015625q-1.28125 0 -1.703125 1.015625q-0.40625 1.015625 -0.40625 2.890625q0 1.265625 0.140625 2.109375q0.15625 0.828125 0.609375 1.34375q0.46875 0.5 1.359375 0.5q0.90625 0 1.359375 -0.5q0.453125 -0.515625 0.59375 -1.34375q0.15625 -0.84375 0.15625 -2.109375z" fill-rule="nonzero"/><path fill="#ff6666" d="m84.28082 26.28084l159.71654 0l0 213.73228l-159.71654 0z" fill-rule="evenodd"/><path stroke="#ffffff" stroke-width="1.0" stroke-linejoin="round" stroke-linecap="butt" d="m84.28082 26.28084l159.71654 0l0 213.73228l-159.71654 0z" fill-rule="evenodd"/><path fill="#ffffff" d="m197.31094 40.107086q2.078125 0 3.625 0.828125q1.546875 0.8125 2.390625 2.296875q0.84375 1.484375 0.84375 3.421875q0 1.921875 -0.84375 3.421875q-0.84375 1.484375 -2.40625 2.3125q-1.5625 0.8125 -3.609375 0.8125l-4.90625 0l0 -13.09375l4.90625 0zm-0.203125 10.328125q1.8125 0 2.8125 -0.984375q1.015625 -0.984375 1.015625 -2.796875q0 -1.8125 -1.015625 -2.8125q-1.0 -1.015625 -2.8125 -1.015625l-1.515625 0l0 7.609375l1.515625 0zm13.594345 2.921875q-1.53125 0 -2.75 -0.65625q-1.21875 -0.65625 -1.921875 -1.859375q-0.703125 -1.21875 -0.703125 -2.84375q0 -1.609375 0.703125 -2.828125q0.71875 -1.21875 1.953125 -1.875q1.234375 -0.65625 2.765625 -0.65625q1.53125 0 2.75 0.65625q1.234375 0.65625 1.9375 1.875q0.71875 1.21875 0.71875 2.828125q0 1.609375 -0.71875 2.828125q-0.71875 1.21875 -1.96875 1.875q-1.234375 0.65625 -2.765625 0.65625zm0 -2.765625q0.921875 0 1.5625 -0.671875q0.640625 -0.671875 0.640625 -1.921875q0 -1.25 -0.625 -1.921875q-0.625 -0.671875 -1.53125 -0.671875q-0.9375 0 -1.5625 0.671875q-0.609375 0.65625 -0.609375 1.921875q0 1.25 0.609375 1.921875q0.609375 0.671875 1.515625 0.671875zm6.509033 -2.59375q0 -1.625 0.65625 -2.828125q0.671875 -1.21875 1.859375 -1.875q1.1875 -0.65625 2.71875 -0.65625q1.953125 0 3.265625 1.03125q1.3125 1.03125 1.734375 2.890625l-3.40625 0q-0.421875 -1.1875 -1.65625 -1.1875q-0.875 0 -1.40625 0.6875q-0.515625 0.671875 -0.515625 1.9375q0 1.265625 0.515625 1.953125q0.53125 0.671875 1.40625 0.671875q1.234375 0 1.65625 -1.1875l3.40625 0q-0.421875 1.828125 -1.75 2.875q-1.3125 1.046875 -3.25 1.046875q-1.53125 0 -2.71875 -0.65625q-1.1875 -0.65625 -1.859375 -1.859375q-0.65625 -1.21875 -0.65625 -2.84375zm11.271408 -5.453125l0 -2.96875l5.171875 0l0 13.625l-3.328125 0l0 -10.65625l-1.84375 0z" fill-rule="nonzero"/><path fill="#32c8cd" d="m220.01575 58.280838l69.98425 0l0 213.73228l-69.98425 0z" fill-rule="evenodd"/><path stroke="#ffffff" stroke-width="1.0" stroke-linejoin="round" stroke-linecap="butt" d="m220.01575 58.280838l69.98425 0l0 213.73228l-69.98425 0z" fill-rule="evenodd"/><path fill="#ffffff" d="m239.67561 72.107086q2.078125 0 3.625 0.828125q1.546875 0.8125 2.390625 2.296875q0.84375 1.484375 0.84375 3.421875q0 1.921875 -0.84375 3.421875q-0.84375 1.484375 -2.40625 2.3125q-1.5625 0.8125 -3.609375 0.8125l-4.90625 0l0 -13.09375l4.90625 0zm-0.203125 10.328125q1.8125 0 2.8125 -0.984375q1.015625 -0.984375 1.015625 -2.796875q0 -1.8125 -1.015625 -2.8125q-1.0 -1.015625 -2.8125 -1.015625l-1.515625 0l0 7.609375l1.515625 0zm13.594345 2.921875q-1.53125 0 -2.75 -0.65625q-1.21875 -0.65625 -1.921875 -1.859375q-0.703125 -1.21875 -0.703125 -2.84375q0 -1.609375 0.703125 -2.828125q0.71875 -1.21875 1.953125 -1.875q1.234375 -0.65625 2.765625 -0.65625q1.53125 0 2.75 0.65625q1.234375 0.65625 1.9375 1.875q0.71875 1.21875 0.71875 2.828125q0 1.609375 -0.71875 2.828125q-0.71875 1.21875 -1.96875 1.875q-1.234375 0.65625 -2.765625 0.65625zm0 -2.765625q0.921875 0 1.5625 -0.671875q0.640625 -0.671875 0.640625 -1.921875q0 -1.25 -0.625 -1.921875q-0.625 -0.671875 -1.53125 -0.671875q-0.9375 0 -1.5625 0.671875q-0.609375 0.65625 -0.609375 1.921875q0 1.25 0.609375 1.921875q0.609375 0.671875 1.515625 0.671875zm6.509033 -2.59375q0 -1.625 0.65625 -2.828125q0.671875 -1.21875 1.859375 -1.875q1.1875 -0.65625 2.71875 -0.65625q1.953125 0 3.265625 1.03125q1.3125 1.03125 1.734375 2.890625l-3.40625 0q-0.421875 -1.1875 -1.65625 -1.1875q-0.875 0 -1.40625 0.6875q-0.515625 0.671875 -0.515625 1.9375q0 1.265625 0.515625 1.953125q0.53125 0.671875 1.40625 0.671875q1.234375 0 1.65625 -1.1875l3.40625 0q-0.421875 1.828125 -1.75 2.875q-1.3125 1.046875 -3.25 1.046875q-1.53125 0 -2.71875 -0.65625q-1.1875 -0.65625 -1.859375 -1.859375q-0.65625 -1.21875 -0.65625 -2.84375zm11.505798 2.640625q0.625 -0.5 0.578125 -0.453125q1.828125 -1.515625 2.875 -2.484375q1.0625 -0.96875 1.78125 -2.03125q0.734375 -1.0625 0.734375 -2.078125q0 -0.765625 -0.359375 -1.1875q-0.359375 -0.4375 -1.0625 -0.4375q-0.703125 0 -1.109375 0.53125q-0.40625 0.53125 -0.40625 1.5l-3.078125 0q0.046875 -1.578125 0.6875 -2.640625q0.640625 -1.0625 1.6875 -1.5625q1.0625 -0.515625 2.34375 -0.515625q2.21875 0 3.34375 1.140625q1.140625 1.140625 1.140625 2.96875q0 2.0 -1.375 3.703125q-1.359375 1.703125 -3.453125 3.328125l5.03125 0l0 2.59375l-9.359375 0l0 -2.375z" fill-rule="nonzero"/><path fill="#32c8cd" d="m290.0 17.28084l78.99213 0l0 213.73228l-78.99213 0z" fill-rule="evenodd"/><path stroke="#ffffff" stroke-width="1.0" stroke-linejoin="round" stroke-linecap="butt" d="m290.0 17.28084l78.99213 0l0 213.73228l-78.99213 0z" fill-rule="evenodd"/><path fill="#ffffff" d="m318.03342 31.107088q2.078125 0 3.625 0.828125q1.546875 0.8124981 2.390625 2.296873q0.84375 1.484375 0.84375 3.421875q0 1.921875 -0.84375 3.421875q-0.84375 1.484375 -2.40625 2.3125q-1.5625 0.8125 -3.609375 0.8125l-4.90625 0l0 -13.093748l4.90625 0zm-0.203125 10.328123q1.8125 0 2.8125 -0.984375q1.015625 -0.984375 1.015625 -2.796875q0 -1.8125 -1.015625 -2.8125q-1.0 -1.015625 -2.8125 -1.015625l-1.515625 0l0 7.609375l1.515625 0zm13.59436 2.921875q-1.53125 0 -2.75 -0.65625q-1.21875 -0.65625 -1.921875 -1.859375q-0.703125 -1.21875 -0.703125 -2.84375q0 -1.609375 0.703125 -2.828125q0.71875 -1.21875 1.953125 -1.875q1.234375 -0.65625 2.765625 -0.65625q1.53125 0 2.75 0.65625q1.234375 0.65625 1.9375 1.875q0.71875 1.21875 0.71875 2.828125q0 1.609375 -0.71875 2.828125q-0.71875 1.21875 -1.96875 1.875q-1.234375 0.65625 -2.765625 0.65625zm0 -2.765625q0.921875 0 1.5625 -0.671875q0.640625 -0.671875 0.640625 -1.921875q0 -1.25 -0.625 -1.921875q-0.625 -0.671875 -1.53125 -0.671875q-0.9375 0 -1.5625 0.671875q-0.609375 0.65625 -0.609375 1.921875q0 1.25 0.609375 1.921875q0.609375 0.671875 1.515625 0.671875zm6.509033 -2.59375q0 -1.625 0.65625 -2.828125q0.671875 -1.21875 1.859375 -1.875q1.1875 -0.65625 2.71875 -0.65625q1.953125 0 3.265625 1.03125q1.3125 1.03125 1.734375 2.890625l-3.40625 0q-0.421875 -1.1875 -1.65625 -1.1875q-0.875 0 -1.40625 0.6875q-0.515625 0.671875 -0.515625 1.9375q0 1.265625 0.515625 1.953125q0.53125 0.671875 1.40625 0.671875q1.234375 0 1.65625 -1.1875l3.40625 0q-0.421875 1.828125 -1.75 2.875q-1.3125 1.046875 -3.25 1.046875q-1.53125 0 -2.71875 -0.65625q-1.1875 -0.65625 -1.859375 -1.859375q-0.65625 -1.21875 -0.65625 -2.84375zm11.724518 -4.578125q0.078125 -1.984375 1.296875 -3.062498q1.234375 -1.09375 3.34375 -1.09375q1.40625 0 2.40625 0.484375q1.0 0.484375 1.5 1.3281231q0.515625 0.84375 0.515625 1.875q0 1.234375 -0.625 2.015625q-0.609375 0.765625 -1.421875 1.046875l0 0.078125q1.0625 0.359375 1.671875 1.1875q0.625 0.8125 0.625 2.09375q0 1.15625 -0.53125 2.046875q-0.53125 0.890625 -1.5625 1.390625q-1.015625 0.5 -2.40625 0.5q-2.234375 0 -3.578125 -1.09375q-1.328125 -1.109375 -1.40625 -3.328125l3.09375 0q0.03125 0.828125 0.46875 1.3125q0.453125 0.46875 1.3125 0.46875q0.71875 0 1.125 -0.421875q0.40625 -0.421875 0.40625 -1.109375q0 -0.90625 -0.578125 -1.296875q-0.5625 -0.40625 -1.8125 -0.40625l-0.59375 0l0 -2.59375l0.59375 0q0.953125 0 1.53125 -0.328125q0.59375 -0.328125 0.59375 -1.15625q0 -0.671875 -0.375 -1.046875q-0.375 -0.375 -1.03125 -0.375q-0.703125 0 -1.046875 0.4375q-0.34375 0.421875 -0.40625 1.046875l-3.109375 0z" fill-rule="nonzero"/><path fill="#ff6666" d="m294.50394 112.0l69.98425 0l0 50.992126l-69.98425 0z" fill-rule="evenodd"/><path stroke="#ffffff" stroke-width="1.0" stroke-linejoin="round" stroke-linecap="butt" d="m294.50394 112.0l69.98425 0l0 50.992126l-69.98425 0z" fill-rule="evenodd"/><path fill="#ffffff" d="m312.18625 125.82625q2.078125 0 3.625 0.828125q1.546875 0.8125 2.390625 2.296875q0.84375 1.484375 0.84375 3.421875q0 1.921875 -0.84375 3.421875q-0.84375 1.484375 -2.40625 2.3125q-1.5625 0.8125 -3.609375 0.8125l-4.90625 0l0 -13.09375l4.90625 0zm-0.203125 10.328125q1.8125 0 2.8125 -0.984375q1.015625 -0.984375 1.015625 -2.796875q0 -1.8125 -1.015625 -2.8125q-1.0 -1.015625 -2.8125 -1.015625l-1.515625 0l0 7.609375l1.515625 0zm13.59436 2.921875q-1.53125 0 -2.75 -0.65625q-1.21875 -0.65625 -1.921875 -1.859375q-0.703125 -1.21875 -0.703125 -2.84375q0 -1.609375 0.703125 -2.828125q0.71875 -1.21875 1.953125 -1.875q1.234375 -0.65625 2.765625 -0.65625q1.53125 0 2.75 0.65625q1.234375 0.65625 1.9375 1.875q0.71875 1.21875 0.71875 2.828125q0 1.609375 -0.71875 2.828125q-0.71875 1.21875 -1.96875 1.875q-1.234375 0.65625 -2.765625 0.65625zm0 -2.765625q0.921875 0 1.5625 -0.671875q0.640625 -0.671875 0.640625 -1.921875q0 -1.25 -0.625 -1.921875q-0.625 -0.671875 -1.53125 -0.671875q-0.9375 0 -1.5625 0.671875q-0.609375 0.65625 -0.609375 1.921875q0 1.25 0.609375 1.921875q0.609375 0.671875 1.515625 0.671875zm6.509033 -2.59375q0 -1.625 0.65625 -2.828125q0.671875 -1.21875 1.859375 -1.875q1.1875 -0.65625 2.71875 -0.65625q1.953125 0 3.265625 1.03125q1.3125 1.03125 1.734375 2.890625l-3.40625 0q-0.421875 -1.1875 -1.65625 -1.1875q-0.875 0 -1.40625 0.6875q-0.515625 0.671875 -0.515625 1.9375q0 1.265625 0.515625 1.953125q0.53125 0.671875 1.40625 0.671875q1.234375 0 1.65625 -1.1875l3.40625 0q-0.421875 1.828125 -1.75 2.875q-1.3125 1.046875 -3.25 1.046875q-1.53125 0 -2.71875 -0.65625q-1.1875 -0.65625 -1.859375 -1.859375q-0.65625 -1.21875 -0.65625 -2.84375zm11.693268 2.78125l0 -2.578125l5.890625 -8.4375l3.5625 0l0 8.25l1.53125 0l0 2.765625l-1.53125 0l0 2.421875l-3.1875 0l0 -2.421875l-6.265625 0zm6.484375 -7.5l-3.140625 4.734375l3.140625 0l0 -4.734375z" fill-rule="nonzero"/><path fill="#ff6666" d="m5.7559056 150.0l117.22835 0l0 112.0l-117.22835 0z" fill-rule="evenodd"/><path stroke="#ffffff" stroke-width="1.0" stroke-linejoin="round" stroke-linecap="butt" d="m5.7559056 150.0l117.22835 0l0 112.0l-117.22835 0z" fill-rule="evenodd"/><path fill="#ffffff" d="m71.18602 163.82625q2.078125 0 3.625 0.828125q1.546875 0.8125 2.390625 2.296875q0.84375 1.484375 0.84375 3.421875q0 1.921875 -0.84375 3.421875q-0.84375 1.484375 -2.40625 2.3125q-1.5625 0.8125 -3.609375 0.8125l-4.90625 0l0 -13.09375l4.90625 0zm-0.203125 10.328125q1.8125 0 2.8125 -0.984375q1.015625 -0.984375 1.015625 -2.796875q0 -1.8125 -1.015625 -2.8125q-1.0 -1.015625 -2.8125 -1.015625l-1.515625 0l0 7.609375l1.515625 0zm13.594345 2.921875q-1.53125 0 -2.75 -0.65625q-1.21875 -0.65625 -1.921875 -1.859375q-0.703125 -1.21875 -0.703125 -2.84375q0 -1.609375 0.703125 -2.828125q0.71875 -1.21875 1.953125 -1.875q1.234375 -0.65625 2.765625 -0.65625q1.53125 0 2.75 0.65625q1.234375 0.65625 1.9375 1.875q0.71875 1.21875 0.71875 2.828125q0 1.609375 -0.71875 2.828125q-0.71875 1.21875 -1.96875 1.875q-1.234375 0.65625 -2.765625 0.65625zm0 -2.765625q0.921875 0 1.5625 -0.671875q0.640625 -0.671875 0.640625 -1.921875q0 -1.25 -0.625 -1.921875q-0.625 -0.671875 -1.53125 -0.671875q-0.9375 0 -1.5625 0.671875q-0.609375 0.65625 -0.609375 1.921875q0 1.25 0.609375 1.921875q0.609375 0.671875 1.515625 0.671875zm6.509033 -2.59375q0 -1.625 0.65625 -2.828125q0.671875 -1.21875 1.859375 -1.875q1.1875 -0.65625 2.71875 -0.65625q1.953125 0 3.265625 1.03125q1.3125 1.03125 1.734375 2.890625l-3.40625 0q-0.421875 -1.1875 -1.65625 -1.1875q-0.875 0 -1.40625 0.6875q-0.515625 0.671875 -0.515625 1.9375q0 1.265625 0.515625 1.953125q0.53125 0.671875 1.40625 0.671875q1.234375 0 1.65625 -1.1875l3.40625 0q-0.421875 1.828125 -1.75 2.875q-1.3125 1.046875 -3.25 1.046875q-1.53125 0 -2.71875 -0.65625q-1.1875 -0.65625 -1.859375 -1.859375q-0.65625 -1.21875 -0.65625 -2.84375zm21.193283 -5.640625l-5.8125 0l0 2.578125q0.375 -0.40625 1.046875 -0.671875q0.671875 -0.265625 1.453125 -0.265625q1.390625 0 2.3125 0.640625q0.9375 0.640625 1.359375 1.65625q0.4375 1.0 0.4375 2.171875q0 2.171875 -1.234375 3.453125q-1.234375 1.28125 -3.46875 1.28125q-1.5 0 -2.609375 -0.515625q-1.09375 -0.515625 -1.6875 -1.421875q-0.59375 -0.921875 -0.65625 -2.109375l3.125 0q0.109375 0.578125 0.53125 0.96875q0.4375 0.375 1.1875 0.375q0.875 0 1.296875 -0.5625q0.4375 -0.5625 0.4375 -1.484375q0 -0.921875 -0.453125 -1.40625q-0.453125 -0.484375 -1.3125 -0.484375q-0.625 0 -1.046875 0.3125q-0.40625 0.296875 -0.53125 0.8125l-3.078125 0l0 -8.125l8.703125 0l0 2.796875z" fill-rule="nonzero"/><path fill="#32c8cd" d="m10.0 240.01312l284.50394 0l0 58.992126l-284.50394 0z" fill-rule="evenodd"/><path stroke="#ffffff" stroke-width="1.0" stroke-linejoin="round" stroke-linecap="butt" d="m10.0 240.01312l284.50394 0l0 58.992126l-284.50394 0z" fill-rule="evenodd"/><path fill="#ffffff" d="m242.94824 253.83937q2.078125 0 3.625 0.828125q1.546875 0.8125 2.390625 2.2968903q0.84375 1.484375 0.84375 3.421875q0 1.921875 -0.84375 3.421875q-0.84375 1.484375 -2.40625 2.3125q-1.5625 0.8125 -3.609375 0.8125l-4.90625 0l0 -13.093765l4.90625 0zm-0.203125 10.32814q1.8125 0 2.8125 -0.984375q1.015625 -0.984375 1.015625 -2.796875q0 -1.8125 -1.015625 -2.8125q-1.0 -1.015625 -2.8125 -1.015625l-1.515625 0l0 7.609375l1.515625 0zm13.59436 2.921875q-1.5312653 0 -2.7500153 -0.65625q-1.21875 -0.65625 -1.921875 -1.859375q-0.703125 -1.21875 -0.703125 -2.84375q0 -1.609375 0.703125 -2.828125q0.71875 -1.21875 1.953125 -1.875q1.234375 -0.65625 2.7656403 -0.65625q1.53125 0 2.75 0.65625q1.234375 0.65625 1.9375 1.875q0.71875 1.21875 0.71875 2.828125q0 1.609375 -0.71875 2.828125q-0.71875 1.21875 -1.96875 1.875q-1.234375 0.65625 -2.765625 0.65625zm0 -2.765625q0.921875 0 1.5625 -0.671875q0.640625 -0.671875 0.640625 -1.921875q0 -1.25 -0.625 -1.921875q-0.625 -0.671875 -1.53125 -0.671875q-0.93751526 0 -1.5625153 0.671875q-0.609375 0.65625 -0.609375 1.921875q0 1.25 0.609375 1.921875q0.609375 0.671875 1.5156403 0.671875zm6.509033 -2.59375q0 -1.625 0.65625 -2.828125q0.671875 -1.21875 1.859375 -1.875q1.1875 -0.65625 2.71875 -0.65625q1.953125 0 3.265625 1.03125q1.3125 1.03125 1.734375 2.890625l-3.40625 0q-0.421875 -1.1875 -1.65625 -1.1875q-0.875 0 -1.40625 0.6875q-0.515625 0.671875 -0.515625 1.9375q0 1.265625 0.515625 1.953125q0.53125 0.671875 1.40625 0.671875q1.234375 0 1.65625 -1.1875l3.40625 0q-0.421875 1.828125 -1.75 2.875q-1.3125 1.046875 -3.25 1.046875q-1.53125 0 -2.71875 -0.65625q-1.1875 -0.65625 -1.859375 -1.859375q-0.65625 -1.21875 -0.65625 -2.84375zm18.349518 -4.734375q-0.15625 -0.703125 -0.53125 -1.0468903q-0.375 -0.34375 -1.0625 -0.34375q-1.0625 0 -1.53125 0.92189026q-0.453125 0.921875 -0.484375 2.921875q0.421875 -0.65625 1.1875 -1.015625q0.78125 -0.375 1.703125 -0.375q1.828125 0 2.9375 1.15625q1.109375 1.15625 1.109375 3.21875q0 1.359375 -0.546875 2.390625q-0.546875 1.03125 -1.609375 1.609375q-1.046875 0.578125 -2.484375 0.578125q-2.875 0 -4.0 -1.796875q-1.109375 -1.8125 -1.109375 -5.1875q0 -3.546875 1.1875 -5.2656403q1.1875 -1.734375 3.796875 -1.734375q1.390625 0 2.34375 0.5625q0.96875 0.546875 1.46875 1.453125q0.5 0.890625 0.59375 1.9531403l-2.96875 0zm-1.484375 3.578125q-0.796875 0 -1.328125 0.484375q-0.53125 0.46875 -0.53125 1.34375q0 0.890625 0.484375 1.40625q0.5 0.5 1.421875 0.5q0.8125 0 1.28125 -0.5q0.484375 -0.5 0.484375 -1.359375q0 -0.875 -0.46875 -1.375q-0.453125 -0.5 -1.34375 -0.5z" fill-rule="nonzero"/><path fill="#32c8cd" d="m10.0 22.013123l98.01575 0l0 128.0l-98.01575 0z" fill-rule="evenodd"/><path stroke="#ffffff" stroke-width="1.0" stroke-linejoin="round" stroke-linecap="butt" d="m10.0 22.013123l98.01575 0l0 128.0l-98.01575 0z" fill-rule="evenodd"/><path fill="#ffffff" d="m58.36299 35.83937q2.078125 0 3.625 0.828125q1.546875 0.8125 2.390625 2.296875q0.84375 1.484375 0.84375 3.421875q0 1.921875 -0.84375 3.421875q-0.84375 1.484375 -2.40625 2.3125q-1.5625 0.8125 -3.609375 0.8125l-4.90625 0l0 -13.09375l4.90625 0zm-0.203125 10.328125q1.8125 0 2.8125 -0.984375q1.015625 -0.984375 1.015625 -2.796875q0 -1.8125 -1.015625 -2.8125q-1.0 -1.015625 -2.8125 -1.015625l-1.515625 0l0 7.609375l1.515625 0zm13.594345 2.921875q-1.53125 0 -2.75 -0.65625q-1.21875 -0.65625 -1.921875 -1.859375q-0.703125 -1.21875 -0.703125 -2.84375q0 -1.609375 0.703125 -2.828125q0.71875 -1.21875 1.953125 -1.875q1.234375 -0.65625 2.765625 -0.65625q1.53125 0 2.75 0.65625q1.234375 0.65625 1.9375 1.875q0.71875 1.21875 0.71875 2.828125q0 1.609375 -0.71875 2.828125q-0.71875 1.21875 -1.96875 1.875q-1.234375 0.65625 -2.765625 0.65625zm0 -2.765625q0.921875 0 1.5625 -0.671875q0.640625 -0.671875 0.640625 -1.921875q0 -1.25 -0.625 -1.921875q-0.625 -0.671875 -1.53125 -0.671875q-0.9375 0 -1.5625 0.671875q-0.609375 0.65625 -0.609375 1.921875q0 1.25 0.609375 1.921875q0.609375 0.671875 1.515625 0.671875zm6.509033 -2.59375q0 -1.625 0.65625 -2.828125q0.671875 -1.21875 1.859375 -1.875q1.1875 -0.65625 2.71875 -0.65625q1.953125 0 3.265625 1.03125q1.3125 1.03125 1.734375 2.890625l-3.40625 0q-0.421875 -1.1875 -1.65625 -1.1875q-0.875 0 -1.40625 0.6875q-0.515625 0.671875 -0.515625 1.9375q0 1.265625 0.515625 1.953125q0.53125 0.671875 1.40625 0.671875q1.234375 0 1.65625 -1.1875l3.40625 0q-0.421875 1.828125 -1.75 2.875q-1.3125 1.046875 -3.25 1.046875q-1.53125 0 -2.71875 -0.65625q-1.1875 -0.65625 -1.859375 -1.859375q-0.65625 -1.21875 -0.65625 -2.84375zm20.302658 -6.03125l-4.6875 11.234375l-3.265625 0l4.75 -10.875l-5.8125 0l0 -2.71875l9.015625 0l0 2.359375z" fill-rule="nonzero"/></g></svg>