<svg version="1.1" viewBox="0.0 0.0 338.501312335958 153.0" fill="none" stroke="none" stroke-linecap="square" stroke-miterlimit="10" xmlns:xlink="http://www.w3.org/1999/xlink" xmlns="http://www.w3.org/2000/svg"><clipPath id="p.0"><path d="m0 0l338.5013 0l0 153.0l-338.5013 0l0 -153.0z" clip-rule="nonzero"/></clipPath><g clip-path="url(#p.0)"><path fill="#000000" fill-opacity="0.0" d="m0 0l338.5013 0l0 153.0l-338.5013 0z" fill-rule="evenodd"/><path fill="#000000" fill-opacity="0.0" d="m68.419945 6.1601048l208.09448 0l0 34.29921l-208.09448 0z" fill-rule="evenodd"/><path fill="#f3f3f3" d="m92.6542 12.109713l159.62598 0l0 22.4l-159.62598 0l0 -22.4z" fill-rule="nonzero"/><path fill="#000000" fill-opacity="0.0" d="m92.6542 14.21184l159.62598 0l0 21.52344l-159.62598 0l0 -21.52344z" fill-rule="nonzero"/><path fill="#000000" d="m102.16982 18.389086l0 10.859375l1.046875 0q0.28125 0 0.40625 0.109375q0.125 0.109375 0.125 0.28125q0 0.171875 -0.125 0.28125q-0.125 0.109375 -0.40625 0.109375l-1.828125 0l0 -1.546875q-1.359375 1.859375 -3.453125 1.859375q-1.046875 0 -2.015625 -0.5625q-0.96875 -0.5625 -1.53125 -1.59375q-0.5625 -1.046875 -0.5625 -2.15625q0 -1.109375 0.5625 -2.140625q0.5625 -1.046875 1.53125 -1.609375q0.96875 -0.5625 2.03125 -0.5625q2.046875 0 3.4375 1.859375l0 -4.40625l-1.046875 0q-0.28125 0 -0.40625 -0.109375q-0.125 -0.109375 -0.125 -0.28125q0 -0.171875 0.125 -0.28125q0.125 -0.109375 0.40625 -0.109375l1.828125 0zm-0.78125 7.640625q0 -1.484375 -1.015625 -2.5q-1.0 -1.03125 -2.375 -1.03125q-1.390625 0 -2.390625 1.03125q-1.0 1.015625 -1.0 2.5q0 1.46875 1.0 2.5q1.0 1.03125 2.390625 1.03125q1.375 0 2.375 -1.03125q1.015625 -1.03125 1.015625 -2.5zm10.60498 4.0l0 -1.125q-1.6875 1.4375 -3.625 1.4375q-1.40625 0 -2.1875 -0.703125q-0.78125 -0.71875 -0.78125 -1.75q0 -1.140625 1.03125 -1.984375q1.046875 -0.84375 3.03125 -0.84375q0.546875 0 1.171875 0.078125q0.625 0.0625 1.359375 0.21875l0 -1.265625q0 -0.640625 -0.59375 -1.109375q-0.59375 -0.484375 -1.78125 -0.484375q-0.90625 0 -2.546875 0.53125q-0.296875 0.09375 -0.375 0.09375q-0.15625 0 -0.265625 -0.109375q-0.109375 -0.109375 -0.109375 -0.28125q0 -0.15625 0.09375 -0.25q0.140625 -0.140625 1.0625 -0.375q1.4375 -0.390625 2.1875 -0.390625q1.46875 0 2.296875 0.734375q0.828125 0.71875 0.828125 1.640625l0 5.15625l1.03125 0q0.296875 0 0.40625 0.109375q0.125 0.109375 0.125 0.28125q0 0.171875 -0.125 0.28125q-0.109375 0.109375 -0.40625 0.109375l-1.828125 0zm0 -3.875q-0.546875 -0.15625 -1.15625 -0.234375q-0.609375 -0.078125 -1.28125 -0.078125q-1.703125 0 -2.65625 0.734375q-0.734375 0.546875 -0.734375 1.3125q0 0.703125 0.546875 1.1875q0.5625 0.484375 1.625 0.484375q1.0 0 1.859375 -0.40625q0.875 -0.40625 1.796875 -1.28125l0 -1.71875zm9.558105 -6.984375l0 12.484375l1.890625 0q0.28125 0 0.390625 0.109375q0.125 0.109375 0.125 0.2812519q0 0.171875 -0.125 0.28125q-0.109375 0.109375 -0.390625 0.109375l-2.671875 0l0 -14.046877l2.671875 0q0.28125 0 0.390625 0.109375q0.125 0.109375 0.125 0.28125q0 0.171875 -0.125 0.28125q-0.109375 0.109375 -0.390625 0.109375l-1.890625 0zm9.776863 -0.78125l2.46875 0l-0.65625 4.875q-0.0625 0.375 -0.21875 0.53125q-0.140625 0.15625 -0.359375 0.15625q-0.234375 0 -0.390625 -0.15625q-0.140625 -0.15625 -0.203125 -0.53125l-0.640625 -4.875zm14.901855 8.84375l0 -0.109375q-0.234375 0.046875 -0.4375 0.0625q-0.1875 0.015625 -0.34375 0.015625q-1.140625 0 -1.875 -0.703125q-0.734375 -0.703125 -0.734375 -1.703125q0 -1.15625 0.90625 -1.96875q0.90625 -0.828125 2.484375 -0.828125l0 -0.890625q0 -1.03125 -0.640625 -1.671875q-0.625 -0.65625 -1.5625 -0.65625q-0.65625 0 -1.25 0.34375q-0.390625 0.234375 -0.65625 0.5625q-0.4375 0.578125 -0.765625 1.40625q-0.3125 0.8125 -0.3125 2.03125l0 3.078125q0 1.796875 0.828125 3.03125q0.828125 1.21875 2.234375 1.21875q1.390625 0 2.09375 -0.65625q0.15625 -0.140625 0.296875 -0.140625q0.15625 0 0.265625 0.109375q0.125 0.109375 0.125 0.25q0 0.296875 -0.5625 0.65625q-0.890625 0.5625 -2.328125 0.5625q-0.75 0 -1.375 -0.28125q-0.609375 -0.265625 -1.015625 -0.75q-0.265625 -0.28125 -0.625 -0.96875q-0.359375 -0.703125 -0.515625 -1.25q-0.203125 -0.75 -0.203125 -1.78125l0 -3.125q0 -2.375 1.25 -3.875q1.015625 -1.203125 2.46875 -1.203125q0.765625 0 1.40625 0.328125q0.640625 0.3125 1.125 1.0625q0.5 0.734375 0.5 1.71875l0 5.34375q0.1875 0.015625 0.28125 0.125q0.09375 0.09375 0.09375 0.25q0 0.125 -0.0625 0.21875q-0.0625 0.09375 -0.15625 0.140625q-0.078125 0.046875 -0.3125 0.046875l-0.625 0zm0 -4.453125q-1.21875 0 -1.921875 0.609375q-0.6875 0.59375 -0.6875 1.375q0 0.703125 0.5 1.1875q0.515625 0.46875 1.421875 0.46875q0.15625 0 0.328125 -0.015625q0.171875 -0.03125 0.359375 -0.0625l0 -3.5625zm5.5893555 -0.78125l0 0.78125q0.984375 -1.0625 1.984375 -1.0625q0.609375 0 1.0625 0.328125q0.453125 0.3125 0.765625 0.96875q0.515625 -0.65625 1.046875 -0.96875q0.53125 -0.328125 1.078125 -0.328125q0.84375 0 1.34375 0.546875q0.65625 0.703125 0.65625 1.546875l0 5.4375l0.65625 0q0.28125 0 0.390625 0.109375q0.125 0.109375 0.125 0.28125q0 0.171875 -0.125 0.28125q-0.109375 0.109375 -0.390625 0.109375l-1.4375 0l0 -6.15625q0 -0.59375 -0.359375 -0.984375q-0.359375 -0.390625 -0.828125 -0.390625q-0.4375 0 -0.90625 0.328125q-0.46875 0.3125 -1.078125 1.25l0 5.171875l0.65625 0q0.265625 0 0.390625 0.109375q0.125 0.109375 0.125 0.28125q0 0.171875 -0.125 0.28125q-0.125 0.109375 -0.390625 0.109375l-1.4375 0l0 -6.09375q0 -0.625 -0.375 -1.03125q-0.359375 -0.40625 -0.8125 -0.40625q-0.421875 0 -0.828125 0.28125q-0.5625 0.375 -1.1875 1.296875l0 5.171875l0.65625 0q0.28125 0 0.390625 0.109375q0.125 0.109375 0.125 0.28125q0 0.171875 -0.125 0.28125q-0.109375 0.109375 -0.390625 0.109375l-2.09375 0q-0.28125 0 -0.40625 -0.109375q-0.125 -0.109375 -0.125 -0.28125q0 -0.171875 0.125 -0.28125q0.125 -0.109375 0.40625 -0.109375l0.65625 0l0 -6.46875l-0.65625 0q-0.28125 0 -0.40625 -0.109375q-0.125 -0.109375 -0.125 -0.28125q0 -0.171875 0.125 -0.28125q0.125 -0.109375 0.40625 -0.109375l1.4375 0zm14.776855 0l0.34375 0q0.515625 0 0.890625 0.375q0.375 0.359375 0.375 0.875q0 0.546875 -0.375 0.90625q-0.375 0.359375 -0.890625 0.359375l-0.34375 0q-0.515625 0 -0.890625 -0.359375q-0.359375 -0.375 -0.359375 -0.890625q0 -0.546875 0.375 -0.90625q0.375 -0.359375 0.875 -0.359375zm0 5.796875l0.34375 0q0.515625 0 0.890625 0.375q0.375 0.359375 0.375 0.875q0 0.53125 -0.375 0.90625q-0.375 0.359375 -0.890625 0.359375l-0.34375 0q-0.515625 0 -0.890625 -0.359375q-0.359375 -0.375 -0.359375 -0.890625q0 -0.546875 0.375 -0.90625q0.375 -0.359375 0.875 -0.359375zm9.41748 -8.625l0 3.8125q0.6875 -0.28125 1.3125 -0.421875q0.640625 -0.140625 1.203125 -0.140625q1.46875 0 2.453125 1.03125q1.0 1.015625 1.0 2.703125q0 1.859375 -1.125 3.015625q-1.109375 1.140625 -2.78125 1.140625q-1.09375 0 -2.125 -0.5q-0.71875 -0.34375 -1.3125 -0.84375q-0.359375 -0.3125 -0.359375 -0.515625q0 -0.171875 0.109375 -0.28125q0.125 -0.109375 0.265625 -0.109375q0.15625 0 0.34375 0.15625q1.390625 1.3125 3.046875 1.3125q1.359375 0 2.25 -0.921875q0.890625 -0.9375 0.890625 -2.5q0 -1.3125 -0.765625 -2.109375q-0.765625 -0.8125 -1.953125 -0.8125q-1.21875 0 -2.4375 0.640625q-0.296875 0.15625 -0.421875 0.15625q-0.15625 0 -0.265625 -0.109375q-0.09375 -0.109375 -0.09375 -0.3125l0 -5.171875l5.421875 0q0.28125 0 0.40625 0.109375q0.125 0.109375 0.125 0.28125q0 0.171875 -0.125 0.28125q-0.125 0.109375 -0.40625 0.109375l-4.65625 0zm12.01123 8.0625l2.53125 0l-2.75 5.109377q-0.25 0.46875 -0.609375 0.46875q-0.234375 0 -0.390625 -0.171875q-0.15625 -0.15625 -0.15625 -0.375q0 -0.09375 0.015625 -0.21875l1.359375 -4.812502zm16.19873 -4.453125l0 -0.25q0 -0.296875 0.109375 -0.40625q0.109375 -0.125 0.28125 -0.125q0.171875 0 0.28125 0.125q0.109375 0.109375 0.109375 0.40625l0 1.75q0 0.296875 -0.109375 0.421875q-0.109375 0.109375 -0.28125 0.109375q-0.15625 0 -0.265625 -0.09375q-0.109375 -0.109375 -0.125 -0.359375q-0.0625 -0.671875 -0.875 -1.265625q-0.796875 -0.59375 -2.171875 -0.59375q-1.734375 0 -2.640625 1.09375q-0.90625 1.078125 -0.90625 2.484375q0 1.515625 0.984375 2.5q1.0 0.984375 2.578125 0.984375q0.921875 0 1.859375 -0.328125q0.9375 -0.34375 1.703125 -1.09375q0.1875 -0.171875 0.34375 -0.171875q0.15625 0 0.265625 0.109375q0.109375 0.09375 0.109375 0.25q0 0.40625 -0.9375 1.015625q-1.515625 1.0 -3.375 1.0q-1.875 0 -3.09375 -1.203125q-1.203125 -1.203125 -1.203125 -3.046875q0 -1.890625 1.234375 -3.125q1.234375 -1.25 3.125 -1.25q1.78125 0 3.0 1.0625zm7.9799805 -0.78125l0.34375 0q0.515625 0 0.890625 0.375q0.375 0.359375 0.375 0.875q0 0.546875 -0.375 0.90625q-0.375 0.359375 -0.890625 0.359375l-0.34375 0q-0.515625 0 -0.890625 -0.359375q-0.359375 -0.375 -0.359375 -0.890625q0 -0.546875 0.375 -0.90625q0.375 -0.359375 0.875 -0.359375zm0 5.796875l0.34375 0q0.515625 0 0.890625 0.375q0.375 0.359375 0.375 0.875q0 0.53125 -0.375 0.90625q-0.375 0.359375 -0.890625 0.359375l-0.34375 0q-0.515625 0 -0.890625 -0.359375q-0.359375 -0.375 -0.359375 -0.890625q0 -0.546875 0.375 -0.90625q0.375 -0.359375 0.875 -0.359375zm13.16748 -4.109375q1.078125 0.484375 1.640625 1.328125q0.578125 0.84375 0.578125 1.75q0 1.40625 -1.140625 2.484375q-1.140625 1.0625 -2.84375 1.0625q-1.0 0 -2.078125 -0.421875q-1.078125 -0.4375 -1.5 -0.875q-0.140625 -0.15625 -0.140625 -0.328125q0 -0.140625 0.09375 -0.25q0.109375 -0.109375 0.265625 -0.109375q0.140625 0 0.328125 0.140625q1.4375 1.0625 3.046875 1.0625q1.359375 0 2.265625 -0.84375q0.921875 -0.859375 0.921875 -1.890625q0 -0.703125 -0.453125 -1.359375q-0.453125 -0.671875 -1.296875 -1.0625q-0.84375 -0.390625 -1.703125 -0.390625q-0.28125 0 -0.40625 -0.09375q-0.109375 -0.109375 -0.109375 -0.28125q0 -0.171875 0.109375 -0.28125q0.109375 -0.109375 0.34375 -0.109375l0.671875 0q1.046875 0 1.71875 -0.640625q0.6875 -0.640625 0.6875 -1.484375q0 -0.875 -0.71875 -1.53125q-0.703125 -0.671875 -1.859375 -0.671875q-0.796875 0 -1.484375 0.28125q-0.671875 0.28125 -1.078125 0.75q-0.15625 0.1875 -0.234375 0.234375q-0.078125 0.046875 -0.171875 0.046875q-0.15625 0 -0.28125 -0.109375q-0.109375 -0.109375 -0.109375 -0.265625q0 -0.359375 0.8125 -0.9375q1.125 -0.78125 2.546875 -0.78125q1.484375 0 2.421875 0.890625q0.953125 0.875 0.953125 2.109375q0 0.78125 -0.453125 1.484375q-0.453125 0.6875 -1.34375 1.09375zm8.57373 -5.296875l2.46875 0l-0.65625 4.875q-0.0625 0.375 -0.21875 0.53125q-0.140625 0.15625 -0.359375 0.15625q-0.234375 0 -0.390625 -0.15625q-0.140625 -0.15625 -0.203125 -0.53125l-0.640625 -4.875zm12.26123 13.265625l0 -12.484375l-1.875 0q-0.28125 0 -0.40625 -0.109375q-0.109375 -0.109375 -0.109375 -0.28125q0 -0.171875 0.109375 -0.28125q0.125 -0.109375 0.40625 -0.109375l2.671875 0l0 14.046877l-2.671875 0q-0.28125 0 -0.40625 -0.109375q-0.109375 -0.109375 -0.109375 -0.28125q0 -0.1718769 0.109375 -0.2812519q0.125 -0.109375 0.40625 -0.109375l1.875 0z" fill-rule="nonzero"/><path fill="#010000" fill-opacity="0.0" d="m252.28018 14.21184l0 0l0 21.52344l0 0l0 -21.52344z" fill-rule="nonzero"/><path fill="#32c8cd" fill-opacity="0.8883" d="m18.973337 44.606594l21.606298 0l0 21.606304l-21.606298 0z" fill-rule="evenodd"/><path stroke="#ffffff" stroke-width="1.0" stroke-linejoin="round" stroke-linecap="butt" d="m18.973337 44.606594l21.606298 0l0 21.606304l-21.606298 0z" fill-rule="evenodd"/><path fill="#000000" d="m28.841185 54.298492l0 1.96875q1.53125 -1.375 2.28125 -1.765625q0.75 -0.40625 1.3906231 -0.40625q0.703125 0 1.296875 0.46875q0.59375 0.46875 0.59375 0.71875q0 0.171875 -0.109375 0.296875q-0.109375 0.109375 -0.296875 0.109375q-0.09375 0 -0.15625 -0.03125q-0.0625 -0.03125 -0.234375 -0.21875q-0.328125 -0.3125 -0.578125 -0.4375q-0.234375 -0.125 -0.46875 -0.125q-0.5 0 -1.2187481 0.40625q-0.71875 0.40625 -2.5 2.0l0 4.265625l3.453123 0q0.28125 0 0.40625 0.109375q0.125 0.109375 0.125 0.28125q0 0.171875 -0.125 0.28125q-0.125 0.109375 -0.40625 0.109375l-6.109373 0q-0.28125 0 -0.40625 -0.109375q-0.109375 -0.109375 -0.109375 -0.265625q0 -0.15625 0.109375 -0.265625q0.109375 -0.109375 0.40625 -0.109375l1.875 0l0 -6.5l-1.4375 0q-0.28125 0 -0.40625 -0.109375q-0.109375 -0.109375 -0.109375 -0.28125q0 -0.171875 0.109375 -0.28125q0.125 -0.109375 0.40625 -0.109375l2.21875 0z" fill-rule="nonzero"/><path fill="#ffcc66" fill-opacity="0.7598" d="m56.579636 89.70633l21.6063 0l0 21.6063l-21.6063 0z" fill-rule="evenodd"/><path stroke="#ffffff" stroke-width="1.0" stroke-linejoin="round" stroke-linecap="butt" d="m56.579636 89.70633l21.6063 0l0 21.6063l-21.6063 0z" fill-rule="evenodd"/><path fill="#000000" d="m63.838108 99.39823l0 0.78125q0.9843712 -1.0625 1.9843712 -1.0625q0.609375 0 1.0625 0.328125q0.453125 0.3125 0.765625 0.96875q0.515625 -0.65625 1.046875 -0.96875q0.53125 -0.328125 1.078125 -0.328125q0.84375 0 1.34375 0.546875q0.65625 0.703125 0.65625 1.546875l0 5.4375l0.65625 0q0.28125763 0 0.39063263 0.109375q0.125 0.109375 0.125 0.28125q0 0.171875 -0.125 0.28125q-0.109375 0.109375 -0.39063263 0.109375l-1.4375 0l0 -6.15625q0 -0.59375 -0.359375 -0.984375q-0.359375 -0.390625 -0.828125 -0.390625q-0.4375 0 -0.90625 0.328125q-0.46875 0.3125 -1.078125 1.25l0 5.171875l0.65625 0q0.265625 0 0.390625 0.109375q0.125 0.109375 0.125 0.28125q0 0.171875 -0.125 0.28125q-0.125 0.109375 -0.390625 0.109375l-1.4375 0l0 -6.09375q0 -0.625 -0.375 -1.03125q-0.359375 -0.40625 -0.8125 -0.40625q-0.421875 0 -0.828125 0.28125q-0.5625 0.375 -1.1874962 1.296875l0 5.171875l0.6562462 0q0.28125 0 0.390625 0.109375q0.125 0.109375 0.125 0.28125q0 0.171875 -0.125 0.28125q-0.109375 0.109375 -0.390625 0.109375l-2.0937462 0q-0.28125 0 -0.40625 -0.109375q-0.125 -0.109375 -0.125 -0.28125q0 -0.171875 0.125 -0.28125q0.125 -0.109375 0.40625 -0.109375l0.65625 0l0 -6.46875l-0.65625 0q-0.28125 0 -0.40625 -0.109375q-0.125 -0.109375 -0.125 -0.28125q0 -0.171875 0.125 -0.28125q0.125 -0.109375 0.40625 -0.109375l1.4375 0z" fill-rule="nonzero"/><path fill="#ffcc66" fill-opacity="0.7598" d="m79.420204 89.70633l21.6063 0l0 21.6063l-21.6063 0z" fill-rule="evenodd"/><path stroke="#ffffff" stroke-width="1.0" stroke-linejoin="round" stroke-linecap="butt" d="m79.420204 89.70633l21.6063 0l0 21.6063l-21.6063 0z" fill-rule="evenodd"/><path fill="#000000" d="m86.67868 99.39823l0 0.78125q0.984375 -1.0625 1.984375 -1.0625q0.609375 0 1.0625 0.328125q0.453125 0.3125 0.765625 0.96875q0.515625 -0.65625 1.046875 -0.96875q0.53125 -0.328125 1.078125 -0.328125q0.84375 0 1.34375 0.546875q0.65625 0.703125 0.65625 1.546875l0 5.4375l0.65625 0q0.28125 0 0.390625 0.109375q0.125 0.109375 0.125 0.28125q0 0.171875 -0.125 0.28125q-0.109375 0.109375 -0.390625 0.109375l-1.4375 0l0 -6.15625q0 -0.59375 -0.359375 -0.984375q-0.359375 -0.390625 -0.828125 -0.390625q-0.4375 0 -0.90625 0.328125q-0.46875 0.3125 -1.078125 1.25l0 5.171875l0.65625 0q0.265625 0 0.390625 0.109375q0.125 0.109375 0.125 0.28125q0 0.171875 -0.125 0.28125q-0.125 0.109375 -0.390625 0.109375l-1.4375 0l0 -6.09375q0 -0.625 -0.375 -1.03125q-0.359375 -0.40625 -0.8125 -0.40625q-0.421875 0 -0.828125 0.28125q-0.5625 0.375 -1.1875 1.296875l0 5.171875l0.65625 0q0.28125 0 0.390625 0.109375q0.125 0.109375 0.125 0.28125q0 0.171875 -0.125 0.28125q-0.109375 0.109375 -0.390625 0.109375l-2.09375 0q-0.28125 0 -0.40625 -0.109375q-0.125 -0.109375 -0.125 -0.28125q0 -0.171875 0.125 -0.28125q0.125 -0.109375 0.40625 -0.109375l0.65625 0l0 -6.46875l-0.65625 0q-0.28125 0 -0.40625 -0.109375q-0.125 -0.109375 -0.125 -0.28125q0 -0.171875 0.125 -0.28125q0.125 -0.109375 0.40625 -0.109375l1.4375 0z" fill-rule="nonzero"/><path fill="#ff7673" fill-opacity="0.8101" d="m56.579636 119.7877l21.6063 0l0 21.6063l-21.6063 0z" fill-rule="evenodd"/><path stroke="#ffffff" stroke-width="1.0" stroke-linejoin="round" stroke-linecap="butt" d="m56.579636 119.7877l21.6063 0l0 21.6063l-21.6063 0z" fill-rule="evenodd"/><path fill="#000000" d="m70.63498 130.26085l0 -0.25q0 -0.296875 0.109375 -0.40625q0.109375 -0.125 0.28125 -0.125q0.171875 0 0.28125 0.125q0.109375 0.109375 0.109375 0.40625l0 1.75q0 0.296875 -0.109375 0.421875q-0.109375 0.109375 -0.28125 0.109375q-0.15625 0 -0.265625 -0.09375q-0.109375 -0.109375 -0.125 -0.359375q-0.0625 -0.671875 -0.875 -1.265625q-0.796875 -0.59375 -2.171875 -0.59375q-1.734375 0 -2.640625 1.09375q-0.90625 1.078125 -0.90625 2.484375q0 1.515625 0.984375 2.5q1.0 0.984375 2.578125 0.984375q0.921875 0 1.859375 -0.328125q0.9375 -0.34375 1.703125 -1.09375q0.1875 -0.171875 0.34375 -0.171875q0.15625 0 0.265625 0.109375q0.109375 0.09375 0.109375 0.25q0 0.40625 -0.9375 1.015625q-1.515625 1.0 -3.375 1.0q-1.875 0 -3.09375 -1.203125q-1.2031212 -1.203125 -1.2031212 -3.046875q0 -1.890625 1.2343712 -3.125q1.234375 -1.25 3.125 -1.25q1.78125 0 3.0 1.0625z" fill-rule="nonzero"/><path fill="#ff7673" fill-opacity="0.8101" d="m79.420204 119.7877l21.6063 0l0 21.6063l-21.6063 0z" fill-rule="evenodd"/><path stroke="#ffffff" stroke-width="1.0" stroke-linejoin="round" stroke-linecap="butt" d="m79.420204 119.7877l21.6063 0l0 21.6063l-21.6063 0z" fill-rule="evenodd"/><path fill="#000000" d="m93.475555 130.26085l0 -0.25q0 -0.296875 0.109375 -0.40625q0.109375 -0.125 0.28125 -0.125q0.171875 0 0.28125 0.125q0.109375 0.109375 0.109375 0.40625l0 1.75q0 0.296875 -0.109375 0.421875q-0.109375 0.109375 -0.28125 0.109375q-0.15625 0 -0.265625 -0.09375q-0.109375 -0.109375 -0.125 -0.359375q-0.0625 -0.671875 -0.875 -1.265625q-0.796875 -0.59375 -2.171875 -0.59375q-1.734375 0 -2.640625 1.09375q-0.90625 1.078125 -0.90625 2.484375q0 1.515625 0.984375 2.5q1.0 0.984375 2.578125 0.984375q0.921875 0 1.859375 -0.328125q0.9375 -0.34375 1.703125 -1.09375q0.1875 -0.171875 0.34375 -0.171875q0.15625 0 0.265625 0.109375q0.109375 0.09375 0.109375 0.25q0 0.40625 -0.9375 1.015625q-1.515625 1.0 -3.375 1.0q-1.875 0 -3.09375 -1.203125q-1.203125 -1.203125 -1.203125 -3.046875q0 -1.890625 1.234375 -3.125q1.234375 -1.25 3.125 -1.25q1.78125 0 3.0 1.0625z" fill-rule="nonzero"/><path fill="#000000" fill-opacity="0.0" d="m29.776487 66.2129l0 34.29921l26.803148 0" fill-rule="evenodd"/><path stroke="#000000" stroke-width="1.0" stroke-linejoin="round" stroke-linecap="butt" d="m29.776487 66.2129l0 34.29921l26.803148 0" fill-rule="evenodd"/><path fill="#000000" fill-opacity="0.0" d="m29.776487 66.2129l0 64.37795l26.803148 0" fill-rule="evenodd"/><path stroke="#000000" stroke-width="1.0" stroke-linejoin="round" stroke-linecap="butt" d="m29.776487 66.2129l0 64.37795l26.803148 0" fill-rule="evenodd"/><path fill="#ffcc66" fill-opacity="0.7598" d="m102.2601 89.70633l21.6063 0l0 21.6063l-21.6063 0z" fill-rule="evenodd"/><path stroke="#ffffff" stroke-width="1.0" stroke-linejoin="round" stroke-linecap="butt" d="m102.2601 89.70633l21.6063 0l0 21.6063l-21.6063 0z" fill-rule="evenodd"/><path fill="#000000" d="m109.51857 99.39823l0 0.78125q0.984375 -1.0625 1.984375 -1.0625q0.609375 0 1.0625 0.328125q0.453125 0.3125 0.765625 0.96875q0.515625 -0.65625 1.046875 -0.96875q0.53125 -0.328125 1.078125 -0.328125q0.84375 0 1.34375 0.546875q0.65625 0.703125 0.65625 1.546875l0 5.4375l0.65625 0q0.28125 0 0.390625 0.109375q0.125 0.109375 0.125 0.28125q0 0.171875 -0.125 0.28125q-0.109375 0.109375 -0.390625 0.109375l-1.4375 0l0 -6.15625q0 -0.59375 -0.359375 -0.984375q-0.359375 -0.390625 -0.828125 -0.390625q-0.4375 0 -0.90625 0.328125q-0.46875 0.3125 -1.078125 1.25l0 5.171875l0.65625 0q0.265625 0 0.390625 0.109375q0.125 0.109375 0.125 0.28125q0 0.171875 -0.125 0.28125q-0.125 0.109375 -0.390625 0.109375l-1.4375 0l0 -6.09375q0 -0.625 -0.375 -1.03125q-0.359375 -0.40625 -0.8125 -0.40625q-0.421875 0 -0.828125 0.28125q-0.5625 0.375 -1.1875 1.296875l0 5.171875l0.65625 0q0.28125 0 0.390625 0.109375q0.125 0.109375 0.125 0.28125q0 0.171875 -0.125 0.28125q-0.109375 0.109375 -0.390625 0.109375l-2.09375 0q-0.28125 0 -0.40625 -0.109375q-0.125 -0.109375 -0.125 -0.28125q0 -0.171875 0.125 -0.28125q0.125 -0.109375 0.40625 -0.109375l0.65625 0l0 -6.46875l-0.65625 0q-0.28125 0 -0.40625 -0.109375q-0.125 -0.109375 -0.125 -0.28125q0 -0.171875 0.125 -0.28125q0.125 -0.109375 0.40625 -0.109375l1.4375 0z" fill-rule="nonzero"/><path fill="#ffcc66" fill-opacity="0.7598" d="m125.09932 89.70633l21.606308 0l0 21.6063l-21.606308 0z" fill-rule="evenodd"/><path stroke="#ffffff" stroke-width="1.0" stroke-linejoin="round" stroke-linecap="butt" d="m125.09932 89.70633l21.606308 0l0 21.6063l-21.606308 0z" fill-rule="evenodd"/><path fill="#000000" d="m132.35779 99.39823l0 0.78125q0.984375 -1.0625 1.984375 -1.0625q0.609375 0 1.0625 0.328125q0.453125 0.3125 0.765625 0.96875q0.515625 -0.65625 1.046875 -0.96875q0.53125 -0.328125 1.078125 -0.328125q0.84375 0 1.34375 0.546875q0.65625 0.703125 0.65625 1.546875l0 5.4375l0.65625 0q0.28125 0 0.390625 0.109375q0.125 0.109375 0.125 0.28125q0 0.171875 -0.125 0.28125q-0.109375 0.109375 -0.390625 0.109375l-1.4375 0l0 -6.15625q0 -0.59375 -0.359375 -0.984375q-0.359375 -0.390625 -0.828125 -0.390625q-0.4375 0 -0.90625 0.328125q-0.46875 0.3125 -1.078125 1.25l0 5.171875l0.65625 0q0.265625 0 0.390625 0.109375q0.125 0.109375 0.125 0.28125q0 0.171875 -0.125 0.28125q-0.125 0.109375 -0.390625 0.109375l-1.4375 0l0 -6.09375q0 -0.625 -0.375 -1.03125q-0.359375 -0.40625 -0.8125 -0.40625q-0.421875 0 -0.828125 0.28125q-0.5625 0.375 -1.1875 1.296875l0 5.171875l0.65625 0q0.28125 0 0.390625 0.109375q0.125 0.109375 0.125 0.28125q0 0.171875 -0.125 0.28125q-0.109375 0.109375 -0.390625 0.109375l-2.09375 0q-0.28125 0 -0.40625 -0.109375q-0.125 -0.109375 -0.125 -0.28125q0 -0.171875 0.125 -0.28125q0.125 -0.109375 0.40625 -0.109375l0.65625 0l0 -6.46875l-0.65625 0q-0.28125 0 -0.40625 -0.109375q-0.125 -0.109375 -0.125 -0.28125q0 -0.171875 0.125 -0.28125q0.125 -0.109375 0.40625 -0.109375l1.4375 0z" fill-rule="nonzero"/><path fill="#ffcc66" fill-opacity="0.7598" d="m147.9399 89.70633l21.606293 0l0 21.6063l-21.606293 0z" fill-rule="evenodd"/><path stroke="#ffffff" stroke-width="1.0" stroke-linejoin="round" stroke-linecap="butt" d="m147.9399 89.70633l21.606293 0l0 21.6063l-21.606293 0z" fill-rule="evenodd"/><path fill="#000000" d="m155.19836 99.39823l0 0.78125q0.984375 -1.0625 1.984375 -1.0625q0.609375 0 1.0625 0.328125q0.453125 0.3125 0.765625 0.96875q0.515625 -0.65625 1.046875 -0.96875q0.53125 -0.328125 1.078125 -0.328125q0.84375 0 1.34375 0.546875q0.65625 0.703125 0.65625 1.546875l0 5.4375l0.65625 0q0.28125 0 0.390625 0.109375q0.125 0.109375 0.125 0.28125q0 0.171875 -0.125 0.28125q-0.109375 0.109375 -0.390625 0.109375l-1.4375 0l0 -6.15625q0 -0.59375 -0.359375 -0.984375q-0.359375 -0.390625 -0.828125 -0.390625q-0.4375 0 -0.90625 0.328125q-0.46875 0.3125 -1.078125 1.25l0 5.171875l0.65625 0q0.265625 0 0.390625 0.109375q0.125 0.109375 0.125 0.28125q0 0.171875 -0.125 0.28125q-0.125 0.109375 -0.390625 0.109375l-1.4375 0l0 -6.09375q0 -0.625 -0.375 -1.03125q-0.359375 -0.40625 -0.8125 -0.40625q-0.421875 0 -0.828125 0.28125q-0.5625 0.375 -1.1875 1.296875l0 5.171875l0.65625 0q0.28125 0 0.390625 0.109375q0.125 0.109375 0.125 0.28125q0 0.171875 -0.125 0.28125q-0.109375 0.109375 -0.390625 0.109375l-2.09375 0q-0.28125 0 -0.40625 -0.109375q-0.125 -0.109375 -0.125 -0.28125q0 -0.171875 0.125 -0.28125q0.125 -0.109375 0.40625 -0.109375l0.65625 0l0 -6.46875l-0.65625 0q-0.28125 0 -0.40625 -0.109375q-0.125 -0.109375 -0.125 -0.28125q0 -0.171875 0.125 -0.28125q0.125 -0.109375 0.40625 -0.109375l1.4375 0z" fill-rule="nonzero"/><path fill="#ffcc66" fill-opacity="0.7598" d="m170.77979 89.70633l21.606293 0l0 21.6063l-21.606293 0z" fill-rule="evenodd"/><path stroke="#ffffff" stroke-width="1.0" stroke-linejoin="round" stroke-linecap="butt" d="m170.77979 89.70633l21.606293 0l0 21.6063l-21.606293 0z" fill-rule="evenodd"/><path fill="#000000" d="m178.03825 99.39823l0 0.78125q0.984375 -1.0625 1.984375 -1.0625q0.609375 0 1.0625 0.328125q0.453125 0.3125 0.765625 0.96875q0.515625 -0.65625 1.046875 -0.96875q0.53125 -0.328125 1.078125 -0.328125q0.84375 0 1.34375 0.546875q0.65625 0.703125 0.65625 1.546875l0 5.4375l0.65625 0q0.28125 0 0.390625 0.109375q0.125 0.109375 0.125 0.28125q0 0.171875 -0.125 0.28125q-0.109375 0.109375 -0.390625 0.109375l-1.4375 0l0 -6.15625q0 -0.59375 -0.359375 -0.984375q-0.359375 -0.390625 -0.828125 -0.390625q-0.4375 0 -0.90625 0.328125q-0.46875 0.3125 -1.078125 1.25l0 5.171875l0.65625 0q0.265625 0 0.390625 0.109375q0.125 0.109375 0.125 0.28125q0 0.171875 -0.125 0.28125q-0.125 0.109375 -0.390625 0.109375l-1.4375 0l0 -6.09375q0 -0.625 -0.375 -1.03125q-0.359375 -0.40625 -0.8125 -0.40625q-0.421875 0 -0.828125 0.28125q-0.5625 0.375 -1.1875 1.296875l0 5.171875l0.65625 0q0.28125 0 0.390625 0.109375q0.125 0.109375 0.125 0.28125q0 0.171875 -0.125 0.28125q-0.109375 0.109375 -0.390625 0.109375l-2.09375 0q-0.28125 0 -0.40625 -0.109375q-0.125 -0.109375 -0.125 -0.28125q0 -0.171875 0.125 -0.28125q0.125 -0.109375 0.40625 -0.109375l0.65625 0l0 -6.46875l-0.65625 0q-0.28125 0 -0.40625 -0.109375q-0.125 -0.109375 -0.125 -0.28125q0 -0.171875 0.125 -0.28125q0.125 -0.109375 0.40625 -0.109375l1.4375 0z" fill-rule="nonzero"/><path fill="#ffcc66" fill-opacity="0.7598" d="m193.619 89.70633l21.606308 0l0 21.6063l-21.606308 0z" fill-rule="evenodd"/><path stroke="#ffffff" stroke-width="1.0" stroke-linejoin="round" stroke-linecap="butt" d="m193.619 89.70633l21.606308 0l0 21.6063l-21.606308 0z" fill-rule="evenodd"/><path fill="#000000" d="m200.87747 99.39823l0 0.78125q0.984375 -1.0625 1.984375 -1.0625q0.609375 0 1.0625 0.328125q0.453125 0.3125 0.765625 0.96875q0.515625 -0.65625 1.046875 -0.96875q0.53125 -0.328125 1.078125 -0.328125q0.84375 0 1.34375 0.546875q0.65625 0.703125 0.65625 1.546875l0 5.4375l0.65625 0q0.28125 0 0.390625 0.109375q0.125 0.109375 0.125 0.28125q0 0.171875 -0.125 0.28125q-0.109375 0.109375 -0.390625 0.109375l-1.4375 0l0 -6.15625q0 -0.59375 -0.359375 -0.984375q-0.359375 -0.390625 -0.828125 -0.390625q-0.4375 0 -0.90625 0.328125q-0.46875 0.3125 -1.078125 1.25l0 5.171875l0.65625 0q0.265625 0 0.390625 0.109375q0.125 0.109375 0.125 0.28125q0 0.171875 -0.125 0.28125q-0.125 0.109375 -0.390625 0.109375l-1.4375 0l0 -6.09375q0 -0.625 -0.375 -1.03125q-0.359375 -0.40625 -0.8125 -0.40625q-0.421875 0 -0.828125 0.28125q-0.5625 0.375 -1.1875 1.296875l0 5.171875l0.65625 0q0.28125 0 0.390625 0.109375q0.125 0.109375 0.125 0.28125q0 0.171875 -0.125 0.28125q-0.109375 0.109375 -0.390625 0.109375l-2.09375 0q-0.28125 0 -0.40625 -0.109375q-0.125 -0.109375 -0.125 -0.28125q0 -0.171875 0.125 -0.28125q0.125 -0.109375 0.40625 -0.109375l0.65625 0l0 -6.46875l-0.65625 0q-0.28125 0 -0.40625 -0.109375q-0.125 -0.109375 -0.125 -0.28125q0 -0.171875 0.125 -0.28125q0.125 -0.109375 0.40625 -0.109375l1.4375 0z" fill-rule="nonzero"/><path fill="#ffcc66" fill-opacity="0.7598" d="m216.45958 89.70633l21.606293 0l0 21.6063l-21.606293 0z" fill-rule="evenodd"/><path stroke="#ffffff" stroke-width="1.0" stroke-linejoin="round" stroke-linecap="butt" d="m216.45958 89.70633l21.606293 0l0 21.6063l-21.606293 0z" fill-rule="evenodd"/><path fill="#000000" d="m223.71805 99.39823l0 0.78125q0.984375 -1.0625 1.984375 -1.0625q0.609375 0 1.0625 0.328125q0.453125 0.3125 0.765625 0.96875q0.515625 -0.65625 1.046875 -0.96875q0.53125 -0.328125 1.078125 -0.328125q0.84375 0 1.34375 0.546875q0.65625 0.703125 0.65625 1.546875l0 5.4375l0.65625 0q0.28125 0 0.390625 0.109375q0.125 0.109375 0.125 0.28125q0 0.171875 -0.125 0.28125q-0.109375 0.109375 -0.390625 0.109375l-1.4375 0l0 -6.15625q0 -0.59375 -0.359375 -0.984375q-0.359375 -0.390625 -0.828125 -0.390625q-0.4375 0 -0.90625 0.328125q-0.46875 0.3125 -1.078125 1.25l0 5.171875l0.65625 0q0.265625 0 0.390625 0.109375q0.125 0.109375 0.125 0.28125q0 0.171875 -0.125 0.28125q-0.125 0.109375 -0.390625 0.109375l-1.4375 0l0 -6.09375q0 -0.625 -0.375 -1.03125q-0.359375 -0.40625 -0.8125 -0.40625q-0.421875 0 -0.828125 0.28125q-0.5625 0.375 -1.1875 1.296875l0 5.171875l0.65625 0q0.28125 0 0.390625 0.109375q0.125 0.109375 0.125 0.28125q0 0.171875 -0.125 0.28125q-0.109375 0.109375 -0.390625 0.109375l-2.09375 0q-0.28125 0 -0.40625 -0.109375q-0.125 -0.109375 -0.125 -0.28125q0 -0.171875 0.125 -0.28125q0.125 -0.109375 0.40625 -0.109375l0.65625 0l0 -6.46875l-0.65625 0q-0.28125 0 -0.40625 -0.109375q-0.125 -0.109375 -0.125 -0.28125q0 -0.171875 0.125 -0.28125q0.125 -0.109375 0.40625 -0.109375l1.4375 0z" fill-rule="nonzero"/><path fill="#ffcc66" fill-opacity="0.7598" d="m239.29947 89.70633l21.606293 0l0 21.6063l-21.606293 0z" fill-rule="evenodd"/><path stroke="#ffffff" stroke-width="1.0" stroke-linejoin="round" stroke-linecap="butt" d="m239.29947 89.70633l21.606293 0l0 21.6063l-21.606293 0z" fill-rule="evenodd"/><path fill="#000000" d="m246.55794 99.39823l0 0.78125q0.984375 -1.0625 1.984375 -1.0625q0.609375 0 1.0625 0.328125q0.453125 0.3125 0.765625 0.96875q0.515625 -0.65625 1.046875 -0.96875q0.53125 -0.328125 1.078125 -0.328125q0.84375 0 1.34375 0.546875q0.65625 0.703125 0.65625 1.546875l0 5.4375l0.65625 0q0.28125 0 0.390625 0.109375q0.125 0.109375 0.125 0.28125q0 0.171875 -0.125 0.28125q-0.109375 0.109375 -0.390625 0.109375l-1.4375 0l0 -6.15625q0 -0.59375 -0.359375 -0.984375q-0.359375 -0.390625 -0.828125 -0.390625q-0.4375 0 -0.90625 0.328125q-0.46875 0.3125 -1.078125 1.25l0 5.171875l0.65625 0q0.265625 0 0.390625 0.109375q0.125 0.109375 0.125 0.28125q0 0.171875 -0.125 0.28125q-0.125 0.109375 -0.390625 0.109375l-1.4375 0l0 -6.09375q0 -0.625 -0.375 -1.03125q-0.359375 -0.40625 -0.8125 -0.40625q-0.421875 0 -0.828125 0.28125q-0.5625 0.375 -1.1875 1.296875l0 5.171875l0.65625 0q0.28125 0 0.390625 0.109375q0.125 0.109375 0.125 0.28125q0 0.171875 -0.125 0.28125q-0.109375 0.109375 -0.390625 0.109375l-2.09375 0q-0.28125 0 -0.40625 -0.109375q-0.125 -0.109375 -0.125 -0.28125q0 -0.171875 0.125 -0.28125q0.125 -0.109375 0.40625 -0.109375l0.65625 0l0 -6.46875l-0.65625 0q-0.28125 0 -0.40625 -0.109375q-0.125 -0.109375 -0.125 -0.28125q0 -0.171875 0.125 -0.28125q0.125 -0.109375 0.40625 -0.109375l1.4375 0z" fill-rule="nonzero"/><path fill="#ffcc66" fill-opacity="0.7598" d="m262.1387 89.70633l21.606293 0l0 21.6063l-21.606293 0z" fill-rule="evenodd"/><path stroke="#ffffff" stroke-width="1.0" stroke-linejoin="round" stroke-linecap="butt" d="m262.1387 89.70633l21.606293 0l0 21.6063l-21.606293 0z" fill-rule="evenodd"/><path fill="#000000" d="m269.39716 99.39823l0 0.78125q0.984375 -1.0625 1.984375 -1.0625q0.609375 0 1.0625 0.328125q0.453125 0.3125 0.765625 0.96875q0.515625 -0.65625 1.046875 -0.96875q0.53125 -0.328125 1.078125 -0.328125q0.84375 0 1.34375 0.546875q0.65625 0.703125 0.65625 1.546875l0 5.4375l0.65625 0q0.28125 0 0.390625 0.109375q0.125 0.109375 0.125 0.28125q0 0.171875 -0.125 0.28125q-0.109375 0.109375 -0.390625 0.109375l-1.4375 0l0 -6.15625q0 -0.59375 -0.359375 -0.984375q-0.359375 -0.390625 -0.828125 -0.390625q-0.4375 0 -0.90625 0.328125q-0.46875 0.3125 -1.078125 1.25l0 5.171875l0.65625 0q0.265625 0 0.390625 0.109375q0.125 0.109375 0.125 0.28125q0 0.171875 -0.125 0.28125q-0.125 0.109375 -0.390625 0.109375l-1.4375 0l0 -6.09375q0 -0.625 -0.375 -1.03125q-0.359375 -0.40625 -0.8125 -0.40625q-0.421875 0 -0.828125 0.28125q-0.5625 0.375 -1.1875 1.296875l0 5.171875l0.65625 0q0.28125 0 0.390625 0.109375q0.125 0.109375 0.125 0.28125q0 0.171875 -0.125 0.28125q-0.109375 0.109375 -0.390625 0.109375l-2.09375 0q-0.28125 0 -0.40625 -0.109375q-0.125 -0.109375 -0.125 -0.28125q0 -0.171875 0.125 -0.28125q0.125 -0.109375 0.40625 -0.109375l0.65625 0l0 -6.46875l-0.65625 0q-0.28125 0 -0.40625 -0.109375q-0.125 -0.109375 -0.125 -0.28125q0 -0.171875 0.125 -0.28125q0.125 -0.109375 0.40625 -0.109375l1.4375 0z" fill-rule="nonzero"/><path fill="#ffcc66" fill-opacity="0.7598" d="m284.97925 89.70633l21.606323 0l0 21.6063l-21.606323 0z" fill-rule="evenodd"/><path stroke="#ffffff" stroke-width="1.0" stroke-linejoin="round" stroke-linecap="butt" d="m284.97925 89.70633l21.606323 0l0 21.6063l-21.606323 0z" fill-rule="evenodd"/><path fill="#000000" d="m292.23773 99.39823l0 0.78125q0.984375 -1.0625 1.984375 -1.0625q0.609375 0 1.0625 0.328125q0.453125 0.3125 0.765625 0.96875q0.515625 -0.65625 1.046875 -0.96875q0.53125 -0.328125 1.078125 -0.328125q0.84375 0 1.34375 0.546875q0.65625 0.703125 0.65625 1.546875l0 5.4375l0.65625 0q0.28125 0 0.390625 0.109375q0.125 0.109375 0.125 0.28125q0 0.171875 -0.125 0.28125q-0.109375 0.109375 -0.390625 0.109375l-1.4375 0l0 -6.15625q0 -0.59375 -0.359375 -0.984375q-0.359375 -0.390625 -0.828125 -0.390625q-0.4375 0 -0.90625 0.328125q-0.46875 0.3125 -1.078125 1.25l0 5.171875l0.65625 0q0.265625 0 0.390625 0.109375q0.125 0.109375 0.125 0.28125q0 0.171875 -0.125 0.28125q-0.125 0.109375 -0.390625 0.109375l-1.4375 0l0 -6.09375q0 -0.625 -0.375 -1.03125q-0.359375 -0.40625 -0.8125 -0.40625q-0.421875 0 -0.828125 0.28125q-0.5625 0.375 -1.1875 1.296875l0 5.171875l0.65625 0q0.28125 0 0.390625 0.109375q0.125 0.109375 0.125 0.28125q0 0.171875 -0.125 0.28125q-0.109375 0.109375 -0.390625 0.109375l-2.09375 0q-0.28125 0 -0.40625 -0.109375q-0.125 -0.109375 -0.125 -0.28125q0 -0.171875 0.125 -0.28125q0.125 -0.109375 0.40625 -0.109375l0.65625 0l0 -6.46875l-0.65625 0q-0.28125 0 -0.40625 -0.109375q-0.125 -0.109375 -0.125 -0.28125q0 -0.171875 0.125 -0.28125q0.125 -0.109375 0.40625 -0.109375l1.4375 0z" fill-rule="nonzero"/><path fill="#ffcc66" fill-opacity="0.7598" d="m307.81915 89.70633l21.606293 0l0 21.6063l-21.606293 0z" fill-rule="evenodd"/><path stroke="#ffffff" stroke-width="1.0" stroke-linejoin="round" stroke-linecap="butt" d="m307.81915 89.70633l21.606293 0l0 21.6063l-21.606293 0z" fill-rule="evenodd"/><path fill="#000000" d="m315.07764 99.39823l0 0.78125q0.984375 -1.0625 1.984375 -1.0625q0.609375 0 1.0625 0.328125q0.453125 0.3125 0.765625 0.96875q0.515625 -0.65625 1.046875 -0.96875q0.53125 -0.328125 1.078125 -0.328125q0.84375 0 1.34375 0.546875q0.65625 0.703125 0.65625 1.546875l0 5.4375l0.65625 0q0.28125 0 0.390625 0.109375q0.125 0.109375 0.125 0.28125q0 0.171875 -0.125 0.28125q-0.109375 0.109375 -0.390625 0.109375l-1.4375 0l0 -6.15625q0 -0.59375 -0.359375 -0.984375q-0.359375 -0.390625 -0.828125 -0.390625q-0.4375 0 -0.90625 0.328125q-0.46875 0.3125 -1.078125 1.25l0 5.171875l0.65625 0q0.265625 0 0.390625 0.109375q0.125 0.109375 0.125 0.28125q0 0.171875 -0.125 0.28125q-0.125 0.109375 -0.390625 0.109375l-1.4375 0l0 -6.09375q0 -0.625 -0.375 -1.03125q-0.359375 -0.40625 -0.8125 -0.40625q-0.421875 0 -0.828125 0.28125q-0.5625 0.375 -1.1875 1.296875l0 5.171875l0.65625 0q0.28125 0 0.390625 0.109375q0.125 0.109375 0.125 0.28125q0 0.171875 -0.125 0.28125q-0.109375 0.109375 -0.390625 0.109375l-2.09375 0q-0.28125 0 -0.40625 -0.109375q-0.125 -0.109375 -0.125 -0.28125q0 -0.171875 0.125 -0.28125q0.125 -0.109375 0.40625 -0.109375l0.65625 0l0 -6.46875l-0.65625 0q-0.28125 0 -0.40625 -0.109375q-0.125 -0.109375 -0.125 -0.28125q0 -0.171875 0.125 -0.28125q0.125 -0.109375 0.40625 -0.109375l1.4375 0z" fill-rule="nonzero"/><path fill="#ff7673" fill-opacity="0.8101" d="m102.25943 119.7877l21.606293 0l0 21.6063l-21.606293 0z" fill-rule="evenodd"/><path stroke="#ffffff" stroke-width="1.0" stroke-linejoin="round" stroke-linecap="butt" d="m102.25943 119.7877l21.606293 0l0 21.6063l-21.606293 0z" fill-rule="evenodd"/><path fill="#000000" d="m116.31477 130.26085l0 -0.25q0 -0.296875 0.109375 -0.40625q0.109375 -0.125 0.28125 -0.125q0.171875 0 0.28125 0.125q0.109375 0.109375 0.109375 0.40625l0 1.75q0 0.296875 -0.109375 0.421875q-0.109375 0.109375 -0.28125 0.109375q-0.15625 0 -0.265625 -0.09375q-0.109375 -0.109375 -0.125 -0.359375q-0.0625 -0.671875 -0.875 -1.265625q-0.796875 -0.59375 -2.171875 -0.59375q-1.734375 0 -2.640625 1.09375q-0.90625 1.078125 -0.90625 2.484375q0 1.515625 0.984375 2.5q1.0 0.984375 2.578125 0.984375q0.921875 0 1.859375 -0.328125q0.9375 -0.34375 1.703125 -1.09375q0.1875 -0.171875 0.34375 -0.171875q0.15625 0 0.265625 0.109375q0.109375 0.09375 0.109375 0.25q0 0.40625 -0.9375 1.015625q-1.515625 1.0 -3.375 1.0q-1.875 0 -3.09375 -1.203125q-1.203125 -1.203125 -1.203125 -3.046875q0 -1.890625 1.234375 -3.125q1.234375 -1.25 3.125 -1.25q1.78125 0 3.0 1.0625z" fill-rule="nonzero"/><path fill="#ff7673" fill-opacity="0.8101" d="m125.1 119.7877l21.6063 0l0 21.6063l-21.6063 0z" fill-rule="evenodd"/><path stroke="#ffffff" stroke-width="1.0" stroke-linejoin="round" stroke-linecap="butt" d="m125.1 119.7877l21.6063 0l0 21.6063l-21.6063 0z" fill-rule="evenodd"/><path fill="#000000" d="m139.15535 130.26085l0 -0.25q0 -0.296875 0.109375 -0.40625q0.109375 -0.125 0.28125 -0.125q0.171875 0 0.28125 0.125q0.109375 0.109375 0.109375 0.40625l0 1.75q0 0.296875 -0.109375 0.421875q-0.109375 0.109375 -0.28125 0.109375q-0.15625 0 -0.265625 -0.09375q-0.109375 -0.109375 -0.125 -0.359375q-0.0625 -0.671875 -0.875 -1.265625q-0.796875 -0.59375 -2.171875 -0.59375q-1.734375 0 -2.640625 1.09375q-0.90625 1.078125 -0.90625 2.484375q0 1.515625 0.984375 2.5q1.0 0.984375 2.578125 0.984375q0.921875 0 1.859375 -0.328125q0.9375 -0.34375 1.703125 -1.09375q0.1875 -0.171875 0.34375 -0.171875q0.15625 0 0.265625 0.109375q0.109375 0.09375 0.109375 0.25q0 0.40625 -0.9375 1.015625q-1.515625 1.0 -3.375 1.0q-1.875 0 -3.09375 -1.203125q-1.203125 -1.203125 -1.203125 -3.046875q0 -1.890625 1.234375 -3.125q1.234375 -1.25 3.125 -1.25q1.78125 0 3.0 1.0625z" fill-rule="nonzero"/><path fill="#ff7673" fill-opacity="0.8101" d="m147.93921 119.7877l21.606308 0l0 21.6063l-21.606308 0z" fill-rule="evenodd"/><path stroke="#ffffff" stroke-width="1.0" stroke-linejoin="round" stroke-linecap="butt" d="m147.93921 119.7877l21.606308 0l0 21.6063l-21.606308 0z" fill-rule="evenodd"/><path fill="#000000" d="m161.99457 130.26085l0 -0.25q0 -0.296875 0.109375 -0.40625q0.109375 -0.125 0.28125 -0.125q0.171875 0 0.28125 0.125q0.109375 0.109375 0.109375 0.40625l0 1.75q0 0.296875 -0.109375 0.421875q-0.109375 0.109375 -0.28125 0.109375q-0.15625 0 -0.265625 -0.09375q-0.109375 -0.109375 -0.125 -0.359375q-0.0625 -0.671875 -0.875 -1.265625q-0.796875 -0.59375 -2.171875 -0.59375q-1.734375 0 -2.640625 1.09375q-0.90625 1.078125 -0.90625 2.484375q0 1.515625 0.984375 2.5q1.0 0.984375 2.578125 0.984375q0.921875 0 1.859375 -0.328125q0.9375 -0.34375 1.703125 -1.09375q0.1875 -0.171875 0.34375 -0.171875q0.15625 0 0.265625 0.109375q0.109375 0.09375 0.109375 0.25q0 0.40625 -0.9375 1.015625q-1.515625 1.0 -3.375 1.0q-1.875 0 -3.09375 -1.203125q-1.203125 -1.203125 -1.203125 -3.046875q0 -1.890625 1.234375 -3.125q1.234375 -1.25 3.125 -1.25q1.78125 0 3.0 1.0625z" fill-rule="nonzero"/><path fill="#ff7673" fill-opacity="0.8101" d="m170.77979 119.7877l21.606293 0l0 21.6063l-21.606293 0z" fill-rule="evenodd"/><path stroke="#ffffff" stroke-width="1.0" stroke-linejoin="round" stroke-linecap="butt" d="m170.77979 119.7877l21.606293 0l0 21.6063l-21.606293 0z" fill-rule="evenodd"/><path fill="#000000" d="m184.83513 130.26085l0 -0.25q0 -0.296875 0.109375 -0.40625q0.109375 -0.125 0.28125 -0.125q0.171875 0 0.28125 0.125q0.109375 0.109375 0.109375 0.40625l0 1.75q0 0.296875 -0.109375 0.421875q-0.109375 0.109375 -0.28125 0.109375q-0.15625 0 -0.265625 -0.09375q-0.109375 -0.109375 -0.125 -0.359375q-0.0625 -0.671875 -0.875 -1.265625q-0.796875 -0.59375 -2.171875 -0.59375q-1.734375 0 -2.640625 1.09375q-0.90625 1.078125 -0.90625 2.484375q0 1.515625 0.984375 2.5q1.0 0.984375 2.578125 0.984375q0.921875 0 1.859375 -0.328125q0.9375 -0.34375 1.703125 -1.09375q0.1875 -0.171875 0.34375 -0.171875q0.15625 0 0.265625 0.109375q0.109375 0.09375 0.109375 0.25q0 0.40625 -0.9375 1.015625q-1.515625 1.0 -3.375 1.0q-1.875 0 -3.09375 -1.203125q-1.203125 -1.203125 -1.203125 -3.046875q0 -1.890625 1.234375 -3.125q1.234375 -1.25 3.125 -1.25q1.78125 0 3.0 1.0625z" fill-rule="nonzero"/><path fill="#ff7673" fill-opacity="0.8101" d="m193.61967 119.7877l21.606308 0l0 21.6063l-21.606308 0z" fill-rule="evenodd"/><path stroke="#ffffff" stroke-width="1.0" stroke-linejoin="round" stroke-linecap="butt" d="m193.61967 119.7877l21.606308 0l0 21.6063l-21.606308 0z" fill-rule="evenodd"/><path fill="#000000" d="m207.67503 130.26085l0 -0.25q0 -0.296875 0.109375 -0.40625q0.109375 -0.125 0.28125 -0.125q0.171875 0 0.28125 0.125q0.109375 0.109375 0.109375 0.40625l0 1.75q0 0.296875 -0.109375 0.421875q-0.109375 0.109375 -0.28125 0.109375q-0.15625 0 -0.265625 -0.09375q-0.109375 -0.109375 -0.125 -0.359375q-0.0625 -0.671875 -0.875 -1.265625q-0.796875 -0.59375 -2.171875 -0.59375q-1.734375 0 -2.640625 1.09375q-0.90625 1.078125 -0.90625 2.484375q0 1.515625 0.984375 2.5q1.0 0.984375 2.578125 0.984375q0.921875 0 1.859375 -0.328125q0.9375 -0.34375 1.703125 -1.09375q0.1875 -0.171875 0.34375 -0.171875q0.15625 0 0.265625 0.109375q0.109375 0.09375 0.109375 0.25q0 0.40625 -0.9375 1.015625q-1.515625 1.0 -3.375 1.0q-1.875 0 -3.09375 -1.203125q-1.203125 -1.203125 -1.203125 -3.046875q0 -1.890625 1.234375 -3.125q1.234375 -1.25 3.125 -1.25q1.78125 0 3.0 1.0625z" fill-rule="nonzero"/><path fill="#ff7673" fill-opacity="0.8101" d="m216.45891 119.7877l21.606293 0l0 21.6063l-21.606293 0z" fill-rule="evenodd"/><path stroke="#ffffff" stroke-width="1.0" stroke-linejoin="round" stroke-linecap="butt" d="m216.45891 119.7877l21.606293 0l0 21.6063l-21.606293 0z" fill-rule="evenodd"/><path fill="#000000" d="m230.51425 130.26085l0 -0.25q0 -0.296875 0.109375 -0.40625q0.109375 -0.125 0.28125 -0.125q0.171875 0 0.28125 0.125q0.109375 0.109375 0.109375 0.40625l0 1.75q0 0.296875 -0.109375 0.421875q-0.109375 0.109375 -0.28125 0.109375q-0.15625 0 -0.265625 -0.09375q-0.109375 -0.109375 -0.125 -0.359375q-0.0625 -0.671875 -0.875 -1.265625q-0.796875 -0.59375 -2.171875 -0.59375q-1.734375 0 -2.640625 1.09375q-0.90625 1.078125 -0.90625 2.484375q0 1.515625 0.984375 2.5q1.0 0.984375 2.578125 0.984375q0.921875 0 1.859375 -0.328125q0.9375 -0.34375 1.703125 -1.09375q0.1875 -0.171875 0.34375 -0.171875q0.15625 0 0.265625 0.109375q0.109375 0.09375 0.109375 0.25q0 0.40625 -0.9375 1.015625q-1.515625 1.0 -3.375 1.0q-1.875 0 -3.09375 -1.203125q-1.203125 -1.203125 -1.203125 -3.046875q0 -1.890625 1.234375 -3.125q1.234375 -1.25 3.125 -1.25q1.78125 0 3.0 1.0625z" fill-rule="nonzero"/><path fill="#ff7673" fill-opacity="0.8101" d="m239.29947 119.7877l21.606293 0l0 21.6063l-21.606293 0z" fill-rule="evenodd"/><path stroke="#ffffff" stroke-width="1.0" stroke-linejoin="round" stroke-linecap="butt" d="m239.29947 119.7877l21.606293 0l0 21.6063l-21.606293 0z" fill-rule="evenodd"/><path fill="#000000" d="m253.35481 130.26085l0 -0.25q0 -0.296875 0.109375 -0.40625q0.109375 -0.125 0.28125 -0.125q0.171875 0 0.28125 0.125q0.109375 0.109375 0.109375 0.40625l0 1.75q0 0.296875 -0.109375 0.421875q-0.109375 0.109375 -0.28125 0.109375q-0.15625 0 -0.265625 -0.09375q-0.109375 -0.109375 -0.125 -0.359375q-0.0625 -0.671875 -0.875 -1.265625q-0.796875 -0.59375 -2.171875 -0.59375q-1.734375 0 -2.640625 1.09375q-0.90625 1.078125 -0.90625 2.484375q0 1.515625 0.984375 2.5q1.0 0.984375 2.578125 0.984375q0.921875 0 1.859375 -0.328125q0.9375 -0.34375 1.703125 -1.09375q0.1875 -0.171875 0.34375 -0.171875q0.15625 0 0.265625 0.109375q0.109375 0.09375 0.109375 0.25q0 0.40625 -0.9375 1.015625q-1.515625 1.0 -3.375 1.0q-1.875 0 -3.09375 -1.203125q-1.203125 -1.203125 -1.203125 -3.046875q0 -1.890625 1.234375 -3.125q1.234375 -1.25 3.125 -1.25q1.78125 0 3.0 1.0625z" fill-rule="nonzero"/><path fill="#ff7673" fill-opacity="0.8101" d="m262.1387 119.7877l21.606293 0l0 21.6063l-21.606293 0z" fill-rule="evenodd"/><path stroke="#ffffff" stroke-width="1.0" stroke-linejoin="round" stroke-linecap="butt" d="m262.1387 119.7877l21.606293 0l0 21.6063l-21.606293 0z" fill-rule="evenodd"/><path fill="#000000" d="m276.19403 130.26085l0 -0.25q0 -0.296875 0.109375 -0.40625q0.109375 -0.125 0.28125 -0.125q0.171875 0 0.28125 0.125q0.109375 0.109375 0.109375 0.40625l0 1.75q0 0.296875 -0.109375 0.421875q-0.109375 0.109375 -0.28125 0.109375q-0.15625 0 -0.265625 -0.09375q-0.109375 -0.109375 -0.125 -0.359375q-0.0625 -0.671875 -0.875 -1.265625q-0.796875 -0.59375 -2.171875 -0.59375q-1.734375 0 -2.640625 1.09375q-0.90625 1.078125 -0.90625 2.484375q0 1.515625 0.984375 2.5q1.0 0.984375 2.578125 0.984375q0.921875 0 1.859375 -0.328125q0.9375 -0.34375 1.703125 -1.09375q0.1875 -0.171875 0.34375 -0.171875q0.15625 0 0.265625 0.109375q0.109375 0.09375 0.109375 0.25q0 0.40625 -0.9375 1.015625q-1.515625 1.0 -3.375 1.0q-1.875 0 -3.09375 -1.203125q-1.203125 -1.203125 -1.203125 -3.046875q0 -1.890625 1.234375 -3.125q1.234375 -1.25 3.125 -1.25q1.78125 0 3.0 1.0625z" fill-rule="nonzero"/><path fill="#ff7673" fill-opacity="0.8101" d="m284.97925 119.7877l21.606323 0l0 21.6063l-21.606323 0z" fill-rule="evenodd"/><path stroke="#ffffff" stroke-width="1.0" stroke-linejoin="round" stroke-linecap="butt" d="m284.97925 119.7877l21.606323 0l0 21.6063l-21.606323 0z" fill-rule="evenodd"/><path fill="#000000" d="m299.0346 130.26085l0 -0.25q0 -0.296875 0.109375 -0.40625q0.109375 -0.125 0.28125 -0.125q0.171875 0 0.28125 0.125q0.109375 0.109375 0.109375 0.40625l0 1.75q0 0.296875 -0.109375 0.421875q-0.109375 0.109375 -0.28125 0.109375q-0.15625 0 -0.265625 -0.09375q-0.109375 -0.109375 -0.125 -0.359375q-0.0625 -0.671875 -0.875 -1.265625q-0.796875 -0.59375 -2.171875 -0.59375q-1.734375 0 -2.640625 1.09375q-0.90625 1.078125 -0.90625 2.484375q0 1.515625 0.984375 2.5q1.0 0.984375 2.578125 0.984375q0.921875 0 1.859375 -0.328125q0.9375 -0.34375 1.703125 -1.09375q0.1875 -0.171875 0.34375 -0.171875q0.15625 0 0.265625 0.109375q0.109375 0.09375 0.109375 0.25q0 0.40625 -0.9375 1.015625q-1.515625 1.0 -3.375 1.0q-1.875 0 -3.09375 -1.203125q-1.203125 -1.203125 -1.203125 -3.046875q0 -1.890625 1.234375 -3.125q1.234375 -1.25 3.125 -1.25q1.78125 0 3.0 1.0625z" fill-rule="nonzero"/><path fill="#ff0000" d="m64.74541 88.51706l0 0c0 -4.4269714 3.5887756 -8.015747 8.015747 -8.015747l0 0c2.125908 0 4.164749 0.84451294 5.6679916 2.3477554c1.5032425 1.5032501 2.3477554 3.5420837 2.3477554 5.6679916l0 0c0 4.426979 -3.588768 8.015747 -8.015747 8.015747l0 0c-4.4269714 0 -8.015747 -3.588768 -8.015747 -8.015747z" fill-rule="evenodd"/><path stroke="#ffffff" stroke-width="1.0" stroke-linejoin="round" stroke-linecap="butt" d="m64.74541 88.51706l0 0c0 -4.4269714 3.5887756 -8.015747 8.015747 -8.015747l0 0c2.125908 0 4.164749 0.84451294 5.6679916 2.3477554c1.5032425 1.5032501 2.3477554 3.5420837 2.3477554 5.6679916l0 0c0 4.426979 -3.588768 8.015747 -8.015747 8.015747l0 0c-4.4269714 0 -8.015747 -3.588768 -8.015747 -8.015747z" fill-rule="evenodd"/><path fill="#ffffff" d="m74.30492 93.31706l-1.828125 0l0 -6.890625q-1.0 0.9375 -2.375 1.390625l0 -1.671875q0.71875 -0.234375 1.5625 -0.875q0.84375 -0.65625 1.15625 -1.53125l1.484375 0l0 9.578125z" fill-rule="nonzero"/><path fill="#ff0000" d="m86.22835 88.51706l0 0c0 -4.4269714 3.588768 -8.015747 8.015747 -8.015747l0 0c2.125908 0 4.1647415 0.84451294 5.6679916 2.3477554c1.5032425 1.5032501 2.3477554 3.5420837 2.3477554 5.6679916l0 0c0 4.426979 -3.5887756 8.015747 -8.015747 8.015747l0 0c-4.426979 0 -8.015747 -3.588768 -8.015747 -8.015747z" fill-rule="evenodd"/><path stroke="#ffffff" stroke-width="1.0" stroke-linejoin="round" stroke-linecap="butt" d="m86.22835 88.51706l0 0c0 -4.4269714 3.588768 -8.015747 8.015747 -8.015747l0 0c2.125908 0 4.1647415 0.84451294 5.6679916 2.3477554c1.5032425 1.5032501 2.3477554 3.5420837 2.3477554 5.6679916l0 0c0 4.426979 -3.5887756 8.015747 -8.015747 8.015747l0 0c-4.426979 0 -8.015747 -3.588768 -8.015747 -8.015747z" fill-rule="evenodd"/><path fill="#ffffff" d="m97.27223 91.61394l0 1.703125l-6.40625 0q0.109375 -0.96875 0.625 -1.828125q0.53125 -0.859375 2.0625 -2.28125q1.234375 -1.15625 1.515625 -1.5625q0.375 -0.5625 0.375 -1.125q0 -0.609375 -0.328125 -0.9375q-0.328125 -0.328125 -0.90625 -0.328125q-0.578125 0 -0.921875 0.34375q-0.328125 0.34375 -0.375 1.140625l-1.828125 -0.171875q0.15625 -1.515625 1.015625 -2.171875q0.859375 -0.65625 2.15625 -0.65625q1.40625 0 2.203125 0.765625q0.8125 0.75 0.8125 1.890625q0 0.640625 -0.234375 1.234375q-0.21875 0.578125 -0.71875 1.203125q-0.328125 0.4375 -1.203125 1.234375q-0.859375 0.78125 -1.09375 1.046875q-0.234375 0.25 -0.375 0.5l3.625 0z" fill-rule="nonzero"/><path fill="#ff0000" d="m106.34252 88.51706l0 0c0 -4.4269714 3.588768 -8.015747 8.015747 -8.015747l0 0c2.125908 0 4.1647415 0.84451294 5.6679916 2.3477554c1.5032425 1.5032501 2.3477554 3.5420837 2.3477554 5.6679916l0 0c0 4.426979 -3.5887756 8.015747 -8.015747 8.015747l0 0c-4.426979 0 -8.015747 -3.588768 -8.015747 -8.015747z" fill-rule="evenodd"/><path stroke="#ffffff" stroke-width="1.0" stroke-linejoin="round" stroke-linecap="butt" d="m106.34252 88.51706l0 0c0 -4.4269714 3.588768 -8.015747 8.015747 -8.015747l0 0c2.125908 0 4.1647415 0.84451294 5.6679916 2.3477554c1.5032425 1.5032501 2.3477554 3.5420837 2.3477554 5.6679916l0 0c0 4.426979 -3.5887756 8.015747 -8.015747 8.015747l0 0c-4.426979 0 -8.015747 -3.588768 -8.015747 -8.015747z" fill-rule="evenodd"/><path fill="#ffffff" d="m111.15203 90.78581l1.765625 -0.21875q0.09375 0.6875 0.453125 1.046875q0.375 0.34375 0.90625 0.34375q0.5625 0 0.953125 -0.421875q0.390625 -0.4375 0.390625 -1.15625q0 -0.6875 -0.375 -1.09375q-0.375 -0.40625 -0.90625 -0.40625q-0.34375 0 -0.84375 0.140625l0.203125 -1.5q0.75 0.03125 1.140625 -0.3125q0.390625 -0.34375 0.390625 -0.90625q0 -0.484375 -0.296875 -0.765625q-0.28125 -0.296875 -0.75 -0.296875q-0.46875 0 -0.8125 0.328125q-0.328125 0.328125 -0.390625 0.953125l-1.6875 -0.296875q0.171875 -0.859375 0.515625 -1.375q0.359375 -0.515625 1.0 -0.8125q0.640625 -0.296875 1.421875 -0.296875q1.34375 0 2.15625 0.859375q0.671875 0.703125 0.671875 1.59375q0 1.25 -1.375 2.0q0.828125 0.171875 1.3125 0.78125q0.5 0.609375 0.5 1.484375q0 1.25 -0.921875 2.140625q-0.921875 0.875 -2.28125 0.875q-1.296875 0 -2.15625 -0.734375q-0.84375 -0.75 -0.984375 -1.953125z" fill-rule="nonzero"/><path fill="#ff0000" d="m128.50394 88.51706l0 0c0 -4.4269714 3.5887756 -8.015747 8.015747 -8.015747l0 0c2.1259155 0 4.164749 0.84451294 5.667984 2.3477554c1.5032501 1.5032501 2.347763 3.5420837 2.347763 5.6679916l0 0c0 4.426979 -3.5887756 8.015747 -8.015747 8.015747l0 0c-4.4269714 0 -8.015747 -3.588768 -8.015747 -8.015747z" fill-rule="evenodd"/><path stroke="#ffffff" stroke-width="1.0" stroke-linejoin="round" stroke-linecap="butt" d="m128.50394 88.51706l0 0c0 -4.4269714 3.5887756 -8.015747 8.015747 -8.015747l0 0c2.1259155 0 4.164749 0.84451294 5.667984 2.3477554c1.5032501 1.5032501 2.347763 3.5420837 2.347763 5.6679916l0 0c0 4.426979 -3.5887756 8.015747 -8.015747 8.015747l0 0c-4.4269714 0 -8.015747 -3.588768 -8.015747 -8.015747z" fill-rule="evenodd"/><path fill="#ffffff" d="m136.9697 93.31706l0 -1.921875l-3.90625 0l0 -1.59375l4.140625 -6.0625l1.53125 0l0 6.046875l1.1875 0l0 1.609375l-1.1875 0l0 1.921875l-1.765625 0zm0 -3.53125l0 -3.25l-2.203125 3.25l2.203125 0z" fill-rule="nonzero"/><path fill="#ff0000" d="m152.02231 88.51706l0 0c0 -4.4269714 3.5887756 -8.015747 8.015747 -8.015747l0 0c2.1259155 0 4.164749 0.84451294 5.6679993 2.3477554c1.5032349 1.5032501 2.3477478 3.5420837 2.3477478 5.6679916l0 0c0 4.426979 -3.5887756 8.015747 -8.015747 8.015747l0 0c-4.4269714 0 -8.015747 -3.588768 -8.015747 -8.015747z" fill-rule="evenodd"/><path stroke="#ffffff" stroke-width="1.0" stroke-linejoin="round" stroke-linecap="butt" d="m152.02231 88.51706l0 0c0 -4.4269714 3.5887756 -8.015747 8.015747 -8.015747l0 0c2.1259155 0 4.164749 0.84451294 5.6679993 2.3477554c1.5032349 1.5032501 2.3477478 3.5420837 2.3477478 5.6679916l0 0c0 4.426979 -3.5887756 8.015747 -8.015747 8.015747l0 0c-4.4269714 0 -8.015747 -3.588768 -8.015747 -8.015747z" fill-rule="evenodd"/><path fill="#ffffff" d="m156.92557 90.86394l1.828125 -0.1875q0.078125 0.609375 0.453125 0.984375q0.390625 0.359375 0.890625 0.359375q0.5625 0 0.953125 -0.46875q0.40625 -0.46875 0.40625 -1.40625q0 -0.875 -0.390625 -1.3125q-0.390625 -0.4375 -1.03125 -0.4375q-0.78125 0 -1.40625 0.6875l-1.484375 -0.203125l0.9375 -4.96875l4.84375 0l0 1.703125l-3.453125 0l-0.296875 1.625q0.625 -0.3125 1.25 -0.3125q1.21875 0 2.0625 0.890625q0.859375 0.890625 0.859375 2.296875q0 1.171875 -0.6875 2.109375q-0.9375 1.25 -2.59375 1.25q-1.3125 0 -2.15625 -0.703125q-0.828125 -0.703125 -0.984375 -1.90625z" fill-rule="nonzero"/><path fill="#ff0000" d="m62.77034 119.32809l0 0c0 -4.426979 3.5887756 -8.015755 8.015747 -8.015755l0 0c2.125908 0 4.164749 0.84452057 5.6679916 2.347763c1.5032425 1.5032425 2.3477554 3.5420837 2.3477554 5.6679916l0 0c0 4.4269714 -3.588768 8.015747 -8.015747 8.015747l0 0c-4.4269714 0 -8.015747 -3.5887756 -8.015747 -8.015747z" fill-rule="evenodd"/><path stroke="#ffffff" stroke-width="1.0" stroke-linejoin="round" stroke-linecap="butt" d="m62.77034 119.32809l0 0c0 -4.426979 3.5887756 -8.015755 8.015747 -8.015755l0 0c2.125908 0 4.164749 0.84452057 5.6679916 2.347763c1.5032425 1.5032425 2.3477554 3.5420837 2.3477554 5.6679916l0 0c0 4.4269714 -3.588768 8.015747 -8.015747 8.015747l0 0c-4.4269714 0 -8.015747 -3.5887756 -8.015747 -8.015747z" fill-rule="evenodd"/><path fill="#ffffff" d="m73.845474 116.92496l-1.78125 0.1875q-0.0625 -0.546875 -0.34375 -0.796875q-0.265625 -0.265625 -0.703125 -0.265625q-0.578125 0 -0.984375 0.53125q-0.390625 0.515625 -0.5 2.15625q0.6875 -0.8125 1.703125 -0.8125q1.140625 0 1.953125 0.875q0.828125 0.875 0.828125 2.25q0 1.46875 -0.859375 2.359375q-0.859375 0.875 -2.203125 0.875q-1.453125 0 -2.390625 -1.109375q-0.921875 -1.125 -0.921875 -3.6875q0 -2.625 0.96875 -3.78125q0.96875 -1.15625 2.515625 -1.15625q1.09375 0 1.796875 0.609375q0.71875 0.609375 0.921875 1.765625zm-4.15625 3.984375q0 0.890625 0.40625 1.375q0.421875 0.484375 0.953125 0.484375q0.5 0 0.828125 -0.390625q0.34375 -0.390625 0.34375 -1.296875q0 -0.9375 -0.359375 -1.359375q-0.359375 -0.4375 -0.90625 -0.4375q-0.53125 0 -0.90625 0.421875q-0.359375 0.40625 -0.359375 1.203125z" fill-rule="nonzero"/><path fill="#ff0000" d="m84.99344 119.32809l0 0c0 -4.426979 3.5887756 -8.015755 8.015747 -8.015755l0 0c2.125908 0 4.164749 0.84452057 5.6679916 2.347763c1.5032425 1.5032425 2.3477554 3.5420837 2.3477554 5.6679916l0 0c0 4.4269714 -3.588768 8.015747 -8.015747 8.015747l0 0c-4.4269714 0 -8.015747 -3.5887756 -8.015747 -8.015747z" fill-rule="evenodd"/><path stroke="#ffffff" stroke-width="1.0" stroke-linejoin="round" stroke-linecap="butt" d="m84.99344 119.32809l0 0c0 -4.426979 3.5887756 -8.015755 8.015747 -8.015755l0 0c2.125908 0 4.164749 0.84452057 5.6679916 2.347763c1.5032425 1.5032425 2.3477554 3.5420837 2.3477554 5.6679916l0 0c0 4.4269714 -3.588768 8.015747 -8.015747 8.015747l0 0c-4.4269714 0 -8.015747 -3.5887756 -8.015747 -8.015747z" fill-rule="evenodd"/><path fill="#ffffff" d="m89.86545 116.40933l0 -1.6875l6.25 0l0 1.328125q-0.765625 0.75 -1.578125 2.1875q-0.796875 1.421875 -1.21875 3.03125q-0.40625 1.59375 -0.40625 2.859375l-1.765625 0q0.046875 -1.984375 0.8125 -4.03125q0.78125 -2.0625 2.0625 -3.6875l-4.15625 0z" fill-rule="nonzero"/><path fill="#ff0000" d="m107.833336 119.32809l0 0c0 -4.426979 3.588768 -8.015755 8.015747 -8.015755l0 0c2.125908 0 4.1647415 0.84452057 5.6679916 2.347763c1.5032425 1.5032425 2.3477554 3.5420837 2.3477554 5.6679916l0 0c0 4.4269714 -3.5887756 8.015747 -8.015747 8.015747l0 0c-4.426979 0 -8.015747 -3.5887756 -8.015747 -8.015747z" fill-rule="evenodd"/><path stroke="#ffffff" stroke-width="1.0" stroke-linejoin="round" stroke-linecap="butt" d="m107.833336 119.32809l0 0c0 -4.426979 3.588768 -8.015755 8.015747 -8.015755l0 0c2.125908 0 4.1647415 0.84452057 5.6679916 2.347763c1.5032425 1.5032425 2.3477554 3.5420837 2.3477554 5.6679916l0 0c0 4.4269714 -3.5887756 8.015747 -8.015747 8.015747l0 0c-4.426979 0 -8.015747 -3.5887756 -8.015747 -8.015747z" fill-rule="evenodd"/><path fill="#ffffff" d="m114.28347 118.98746q-0.71875 -0.3125 -1.046875 -0.828125q-0.3125 -0.53125 -0.3125 -1.15625q0 -1.0625 0.734375 -1.75q0.75 -0.703125 2.125 -0.703125q1.359375 0 2.109375 0.703125q0.765625 0.6875 0.765625 1.75q0 0.671875 -0.359375 1.1875q-0.34375 0.515625 -0.96875 0.796875q0.796875 0.3125 1.203125 0.921875q0.421875 0.609375 0.421875 1.40625q0 1.328125 -0.84375 2.15625q-0.84375 0.828125 -2.234375 0.828125q-1.3125 0 -2.171875 -0.6875q-1.015625 -0.8125 -1.015625 -2.21875q0 -0.765625 0.375 -1.40625q0.390625 -0.65625 1.21875 -1.0zm0.375 -1.84375q0 0.546875 0.296875 0.859375q0.3125 0.296875 0.828125 0.296875q0.53125 0 0.84375 -0.3125q0.3125 -0.3125 0.3125 -0.859375q0 -0.515625 -0.3125 -0.8125q-0.3125 -0.3125 -0.828125 -0.3125q-0.515625 0 -0.828125 0.3125q-0.3125 0.3125 -0.3125 0.828125zm-0.171875 4.078125q0 0.765625 0.390625 1.1875q0.390625 0.421875 0.96875 0.421875q0.5625 0 0.921875 -0.40625q0.375 -0.40625 0.375 -1.1875q0 -0.65625 -0.375 -1.0625q-0.375 -0.40625 -0.953125 -0.40625q-0.671875 0 -1.0 0.46875q-0.328125 0.453125 -0.328125 0.984375z" fill-rule="nonzero"/></g></svg>