<svg version="1.1" viewBox="0.0 0.0 703.6299212598425 176.89763779527559" fill="none" stroke="none" stroke-linecap="square" stroke-miterlimit="10" xmlns:xlink="http://www.w3.org/1999/xlink" xmlns="http://www.w3.org/2000/svg"><clipPath id="p.0"><path d="m0 0l703.62994 0l0 176.89764l-703.62994 0l0 -176.89764z" clip-rule="nonzero"/></clipPath><g clip-path="url(#p.0)"><path fill="#000000" fill-opacity="0.0" d="m0 0l703.62994 0l0 176.89764l-703.62994 0z" fill-rule="evenodd"/><path fill="#32c8cd" d="m149.90186 103.48088l35.588226 0l0 2.8638306l-35.588226 0z" fill-rule="evenodd"/><path fill="#279fa3" d="m185.49008 103.48088l17.388138 -17.388138l0 2.8638306l-17.388138 17.388138z" fill-rule="evenodd"/><path fill="#5bd3d7" d="m149.90186 103.48088l17.388138 -17.388138l35.588226 0l-17.388138 17.388138z" fill-rule="evenodd"/><path fill="#000000" fill-opacity="0.0" d="m149.90186 103.48088l17.388138 -17.388138l35.588226 0l0 2.8638306l-17.388138 17.388138l-35.588226 0zm0 0l35.588226 0l17.388138 -17.388138m-17.388138 17.388138l0 2.8638306" fill-rule="evenodd"/><path fill="#ffcc66" d="m69.0838 103.48878l35.607483 0l0 2.8633118l-35.607483 0z" fill-rule="evenodd"/><path fill="#cba351" d="m104.691284 103.48878l17.38498 -17.38498l0 2.8633118l-17.38498 17.38498z" fill-rule="evenodd"/><path fill="#ffd684" d="m69.0838 103.48878l17.38498 -17.38498l35.607483 0l-17.38498 17.38498z" fill-rule="evenodd"/><path fill="#000000" fill-opacity="0.0" d="m69.0838 103.48878l17.38498 -17.38498l35.607483 0l0 2.8633118l-17.38498 17.38498l-35.607483 0zm0 0l35.607483 0l17.38498 -17.38498m-17.38498 17.38498l0 2.8633118" fill-rule="evenodd"/><path fill="#ffcc66" d="m109.07917 103.48878l35.607475 0l0 2.8633118l-35.607475 0z" fill-rule="evenodd"/><path fill="#cba351" d="m144.68665 103.48878l17.38498 -17.38498l0 2.8633118l-17.38498 17.38498z" fill-rule="evenodd"/><path fill="#ffd684" d="m109.07917 103.48878l17.38498 -17.38498l35.607475 0l-17.38498 17.38498z" fill-rule="evenodd"/><path fill="#000000" fill-opacity="0.0" d="m109.07917 103.48878l17.38498 -17.38498l35.607475 0l0 2.8633118l-17.38498 17.38498l-35.607475 0zm0 0l35.607475 0l17.38498 -17.38498m-17.38498 17.38498l0 2.8633118" fill-rule="evenodd"/><path fill="#ffcc66" d="m89.19689 125.26146l35.607483 0l0 2.8633118l-35.607483 0z" fill-rule="evenodd"/><path fill="#cba351" d="m124.804375 125.26146l17.384987 -17.38498l0 2.8633118l-17.384987 17.38498z" fill-rule="evenodd"/><path fill="#ffd684" d="m89.19689 125.26146l17.38498 -17.38498l35.60749 0l-17.384987 17.38498z" fill-rule="evenodd"/><path fill="#000000" fill-opacity="0.0" d="m89.19689 125.26146l17.38498 -17.38498l35.60749 0l0 2.8633118l-17.384987 17.38498l-35.607483 0zm0 0l35.607483 0l17.384987 -17.38498m-17.384987 17.38498l0 2.8633118" fill-rule="evenodd"/><path fill="#ffcc66" d="m47.757206 125.26146l35.60748 0l0 2.8633118l-35.60748 0z" fill-rule="evenodd"/><path fill="#cba351" d="m83.364685 125.26146l17.38498 -17.38498l0 2.8633118l-17.38498 17.38498z" fill-rule="evenodd"/><path fill="#ffd684" d="m47.757206 125.26146l17.384975 -17.38498l35.607483 0l-17.38498 17.38498z" fill-rule="evenodd"/><path fill="#000000" fill-opacity="0.0" d="m47.757206 125.26146l17.384975 -17.38498l35.607483 0l0 2.8633118l-17.38498 17.38498l-35.60748 0zm0 0l35.60748 0l17.38498 -17.38498m-17.38498 17.38498l0 2.8633118" fill-rule="evenodd"/><path fill="#32c8cd" d="m291.37448 103.48088l35.588257 0l0 2.8638306l-35.588257 0z" fill-rule="evenodd"/><path fill="#279fa3" d="m326.96274 103.48088l17.388123 -17.388138l0 2.8638306l-17.388123 17.388138z" fill-rule="evenodd"/><path fill="#5bd3d7" d="m291.37448 103.48088l17.388153 -17.388138l35.588226 0l-17.388123 17.388138z" fill-rule="evenodd"/><path fill="#000000" fill-opacity="0.0" d="m291.37448 103.48088l17.388153 -17.388138l35.588226 0l0 2.8638306l-17.388123 17.388138l-35.588257 0zm0 0l35.588257 0l17.388123 -17.388138m-17.388123 17.388138l0 2.8638306" fill-rule="evenodd"/><path fill="#ffcc66" d="m210.55753 103.48878l35.607483 0l0 2.8633118l-35.607483 0z" fill-rule="evenodd"/><path fill="#cba351" d="m246.16501 103.48878l17.38498 -17.38498l0 2.8633118l-17.38498 17.38498z" fill-rule="evenodd"/><path fill="#ffd684" d="m210.55753 103.48878l17.38498 -17.38498l35.607483 0l-17.38498 17.38498z" fill-rule="evenodd"/><path fill="#000000" fill-opacity="0.0" d="m210.55753 103.48878l17.38498 -17.38498l35.607483 0l0 2.8633118l-17.38498 17.38498l-35.607483 0zm0 0l35.607483 0l17.38498 -17.38498m-17.38498 17.38498l0 2.8633118" fill-rule="evenodd"/><path fill="#ffcc66" d="m250.5529 103.48878l35.607468 0l0 2.8633118l-35.607468 0z" fill-rule="evenodd"/><path fill="#cba351" d="m286.16037 103.48878l17.38498 -17.38498l0 2.8633118l-17.38498 17.38498z" fill-rule="evenodd"/><path fill="#ffd684" d="m250.5529 103.48878l17.384964 -17.38498l35.607483 0l-17.38498 17.38498z" fill-rule="evenodd"/><path fill="#000000" fill-opacity="0.0" d="m250.5529 103.48878l17.384964 -17.38498l35.607483 0l0 2.8633118l-17.38498 17.38498l-35.607468 0zm0 0l35.607468 0l17.38498 -17.38498m-17.38498 17.38498l0 2.8633118" fill-rule="evenodd"/><path fill="#ffcc66" d="m189.23094 125.26146l35.607483 0l0 2.8633118l-35.607483 0z" fill-rule="evenodd"/><path fill="#cba351" d="m224.83842 125.26146l17.38498 -17.38498l0 2.8633118l-17.38498 17.38498z" fill-rule="evenodd"/><path fill="#ffd684" d="m189.23094 125.26146l17.38498 -17.38498l35.607483 0l-17.38498 17.38498z" fill-rule="evenodd"/><path fill="#000000" fill-opacity="0.0" d="m189.23094 125.26146l17.38498 -17.38498l35.607483 0l0 2.8633118l-17.38498 17.38498l-35.607483 0zm0 0l35.607483 0l17.38498 -17.38498m-17.38498 17.38498l0 2.8633118" fill-rule="evenodd"/><path fill="#32c8cd" d="m270.02625 125.249405l35.588226 0l0 2.8638306l-35.588226 0z" fill-rule="evenodd"/><path fill="#279fa3" d="m305.61447 125.249405l17.388153 -17.388138l0 2.8638306l-17.388153 17.388138z" fill-rule="evenodd"/><path fill="#5bd3d7" d="m270.02625 125.249405l17.388123 -17.388138l35.588257 0l-17.388153 17.388138z" fill-rule="evenodd"/><path fill="#000000" fill-opacity="0.0" d="m270.02625 125.249405l17.388123 -17.388138l35.588257 0l0 2.8638306l-17.388153 17.388138l-35.588226 0zm0 0l35.588226 0l17.388153 -17.388138m-17.388153 17.388138l0 2.8638306" fill-rule="evenodd"/><path fill="#ff6666" d="m240.95166 60.078957l66.64932 0l0 5.357994l-66.64932 0z" fill-rule="evenodd"/><path fill="#cb5151" d="m307.60098 60.078957l32.53177 -32.53177l0 5.357992l-32.53177 32.531773z" fill-rule="evenodd"/><path fill="#ff8484" d="m240.95166 60.078957l32.53177 -32.53177l66.64932 0l-32.53177 32.53177z" fill-rule="evenodd"/><path fill="#000000" fill-opacity="0.0" d="m240.95166 60.078957l32.53177 -32.53177l66.64932 0l0 5.357992l-32.53177 32.531773l-66.64932 0zm0 0l66.64932 0l32.53177 -32.53177m-32.53177 32.53177l0 5.357994" fill-rule="evenodd"/><path fill="#000000" fill-opacity="0.0" d="m122.314964 27.672615l-34.740158 59.11811" fill-rule="evenodd"/><path stroke="#000000" stroke-width="1.0" stroke-linejoin="round" stroke-linecap="butt" stroke-dasharray="1.0,3.0" d="m122.314964 27.672615l-34.740158 59.11811" fill-rule="evenodd"/><path fill="#000000" fill-opacity="0.0" d="m188.33348 30.226181l-26.267715 57.322838" fill-rule="evenodd"/><path stroke="#000000" stroke-width="1.0" stroke-linejoin="round" stroke-linecap="butt" stroke-dasharray="1.0,3.0" d="m188.33348 30.226181l-26.267715 57.322838" fill-rule="evenodd"/><path fill="#000000" fill-opacity="0.0" d="m89.152374 62.757954l-41.38583 61.322834" fill-rule="evenodd"/><path stroke="#000000" stroke-width="1.0" stroke-linejoin="round" stroke-linecap="butt" stroke-dasharray="1.0,3.0" d="m89.152374 62.757954l-41.38583 61.322834" fill-rule="evenodd"/><path fill="#000000" fill-opacity="0.0" d="m155.8017 62.757954l-30.992119 63.937008" fill-rule="evenodd"/><path stroke="#000000" stroke-width="1.0" stroke-linejoin="round" stroke-linecap="butt" stroke-dasharray="1.0,3.0" d="m155.8017 62.757954l-30.992119 63.937008" fill-rule="evenodd"/><path fill="#ff6666" d="m89.152374 60.078957l66.64932 0l0 5.357994l-66.64932 0z" fill-rule="evenodd"/><path fill="#cb5151" d="m155.8017 60.078957l32.531784 -32.53177l0 5.357992l-32.531784 32.531773z" fill-rule="evenodd"/><path fill="#ff8484" d="m89.152374 60.078957l32.53177 -32.53177l66.64934 0l-32.531784 32.53177z" fill-rule="evenodd"/><path fill="#000000" fill-opacity="0.0" d="m89.152374 60.078957l32.53177 -32.53177l66.64934 0l0 5.357992l-32.531784 32.531773l-66.64932 0zm0 0l66.64932 0l32.531784 -32.53177m-32.531784 32.53177l0 5.357994" fill-rule="evenodd"/><path fill="#32c8cd" d="m418.55368 103.49138l35.588226 0l0 2.8638306l-35.588226 0z" fill-rule="evenodd"/><path fill="#279fa3" d="m454.1419 103.49138l17.388153 -17.388138l0 2.8638306l-17.388153 17.388138z" fill-rule="evenodd"/><path fill="#5bd3d7" d="m418.55368 103.49138l17.388123 -17.388138l35.588257 0l-17.388153 17.388138z" fill-rule="evenodd"/><path fill="#000000" fill-opacity="0.0" d="m418.55368 103.49138l17.388123 -17.388138l35.588257 0l0 2.8638306l-17.388153 17.388138l-35.588226 0zm0 0l35.588226 0l17.388153 -17.388138m-17.388153 17.388138l0 2.8638306" fill-rule="evenodd"/><path fill="#ffcc66" d="m373.55145 103.61476l35.607483 0l0 2.8633118l-35.607483 0z" fill-rule="evenodd"/><path fill="#cba351" d="m409.15894 103.61476l17.38498 -17.38498l0 2.8633118l-17.38498 17.38498z" fill-rule="evenodd"/><path fill="#ffd684" d="m373.55145 103.61476l17.38498 -17.38498l35.607483 0l-17.38498 17.38498z" fill-rule="evenodd"/><path fill="#000000" fill-opacity="0.0" d="m373.55145 103.61476l17.38498 -17.38498l35.607483 0l0 2.8633118l-17.38498 17.38498l-35.607483 0zm0 0l35.607483 0l17.38498 -17.38498m-17.38498 17.38498l0 2.8633118" fill-rule="evenodd"/><path fill="#ffcc66" d="m331.24408 147.95506l35.607483 0l0 2.8633118l-35.607483 0z" fill-rule="evenodd"/><path fill="#cba351" d="m366.85156 147.95506l17.38498 -17.38498l0 2.8633118l-17.38498 17.38498z" fill-rule="evenodd"/><path fill="#ffd684" d="m331.24408 147.95506l17.38498 -17.38498l35.607483 0l-17.38498 17.38498z" fill-rule="evenodd"/><path fill="#000000" fill-opacity="0.0" d="m331.24408 147.95506l17.38498 -17.38498l35.607483 0l0 2.8633118l-17.38498 17.38498l-35.607483 0zm0 0l35.607483 0l17.38498 -17.38498m-17.38498 17.38498l0 2.8633118" fill-rule="evenodd"/><path fill="#ffcc66" d="m352.22485 125.38744l35.607513 0l0 2.8633041l-35.607513 0z" fill-rule="evenodd"/><path fill="#cba351" d="m387.83237 125.38744l17.38498 -17.38498l0 2.8633118l-17.38498 17.384972z" fill-rule="evenodd"/><path fill="#ffd684" d="m352.22485 125.38744l17.38498 -17.38498l35.607513 0l-17.38498 17.38498z" fill-rule="evenodd"/><path fill="#000000" fill-opacity="0.0" d="m352.22485 125.38744l17.38498 -17.38498l35.607513 0l0 2.8633118l-17.38498 17.384972l-35.607513 0zm0 0l35.607513 0l17.38498 -17.38498m-17.38498 17.38498l0 2.8633041" fill-rule="evenodd"/><path fill="#32c8cd" d="m397.2054 125.2599l35.588257 0l0 2.8638306l-35.588257 0z" fill-rule="evenodd"/><path fill="#279fa3" d="m432.79367 125.2599l17.388123 -17.38813l0 2.8638306l-17.388123 17.38813z" fill-rule="evenodd"/><path fill="#5bd3d7" d="m397.2054 125.2599l17.388153 -17.38813l35.588226 0l-17.388123 17.38813z" fill-rule="evenodd"/><path fill="#000000" fill-opacity="0.0" d="m397.2054 125.2599l17.388153 -17.38813l35.588226 0l0 2.8638306l-17.388123 17.38813l-35.588257 0zm0 0l35.588257 0l17.388123 -17.38813m-17.388123 17.38813l0 2.8638306" fill-rule="evenodd"/><path fill="#ff6666" d="m390.27164 60.078957l66.64932 0l0 5.357994l-66.64932 0z" fill-rule="evenodd"/><path fill="#cb5151" d="m456.92096 60.078957l32.53177 -32.53177l0 5.357992l-32.53177 32.531773z" fill-rule="evenodd"/><path fill="#ff8484" d="m390.27164 60.078957l32.53177 -32.53177l66.64932 0l-32.53177 32.53177z" fill-rule="evenodd"/><path fill="#000000" fill-opacity="0.0" d="m390.27164 60.078957l32.53177 -32.53177l66.64932 0l0 5.357992l-32.53177 32.531773l-66.64932 0zm0 0l66.64932 0l32.53177 -32.53177m-32.53177 32.53177l0 5.357994" fill-rule="evenodd"/><path fill="#32c8cd" d="m536.8319 103.49007l35.588196 0l0 2.8638306l-35.588196 0z" fill-rule="evenodd"/><path fill="#279fa3" d="m572.4201 103.49007l17.388184 -17.388138l0 2.8638306l-17.388184 17.388138z" fill-rule="evenodd"/><path fill="#5bd3d7" d="m536.8319 103.49007l17.388123 -17.388138l35.588257 0l-17.388184 17.388138z" fill-rule="evenodd"/><path fill="#000000" fill-opacity="0.0" d="m536.8319 103.49007l17.388123 -17.388138l35.588257 0l0 2.8638306l-17.388184 17.388138l-35.588196 0zm0 0l35.588196 0l17.388184 -17.388138m-17.388184 17.388138l0 2.8638306" fill-rule="evenodd"/><path fill="#32c8cd" d="m515.48364 125.25859l35.588257 0l0 2.8638306l-35.588257 0z" fill-rule="evenodd"/><path fill="#279fa3" d="m551.0719 125.25859l17.388123 -17.388138l0 2.8638382l-17.388123 17.38813z" fill-rule="evenodd"/><path fill="#5bd3d7" d="m515.48364 125.25859l17.388123 -17.388138l35.588257 0l-17.388123 17.388138z" fill-rule="evenodd"/><path fill="#000000" fill-opacity="0.0" d="m515.48364 125.25859l17.388123 -17.388138l35.588257 0l0 2.8638382l-17.388123 17.38813l-35.588257 0zm0 0l35.588257 0l17.388123 -17.388138m-17.388123 17.388138l0 2.8638306" fill-rule="evenodd"/><path fill="#ff6666" d="m536.83124 60.078957l66.64935 0l0 5.357994l-66.64935 0z" fill-rule="evenodd"/><path fill="#cb5151" d="m603.4806 60.078957l32.53174 -32.53177l0 5.357992l-32.53174 32.531773z" fill-rule="evenodd"/><path fill="#ff8484" d="m536.83124 60.078957l32.5318 -32.53177l66.64929 0l-32.53174 32.53177z" fill-rule="evenodd"/><path fill="#000000" fill-opacity="0.0" d="m536.83124 60.078957l32.5318 -32.53177l66.64929 0l0 5.357992l-32.53174 32.531773l-66.64935 0zm0 0l66.64935 0l32.53174 -32.53177m-32.53174 32.53177l0 5.357994" fill-rule="evenodd"/><path fill="#ffcc66" d="m491.82968 103.61661l35.61972 0l0 2.8638306l-35.61972 0z" fill-rule="evenodd"/><path fill="#cba351" d="m527.4494 103.61661l17.388123 -17.388138l0 2.8638306l-17.388123 17.388138z" fill-rule="evenodd"/><path fill="#ffd684" d="m491.82968 103.61661l17.388123 -17.388138l35.61972 0l-17.388123 17.388138z" fill-rule="evenodd"/><path fill="#000000" fill-opacity="0.0" d="m491.82968 103.61661l17.388123 -17.388138l35.61972 0l0 2.8638306l-17.388123 17.388138l-35.61972 0zm0 0l35.61972 0l17.388123 -17.388138m-17.388123 17.388138l0 2.8638306" fill-rule="evenodd"/><path fill="#32c8cd" d="m493.71542 146.90427l35.588226 0l0 2.8638306l-35.588226 0z" fill-rule="evenodd"/><path fill="#279fa3" d="m529.30365 146.90427l17.388123 -17.388138l0 2.8638306l-17.388123 17.388138z" fill-rule="evenodd"/><path fill="#5bd3d7" d="m493.71542 146.90427l17.388123 -17.388138l35.588226 0l-17.388123 17.388138z" fill-rule="evenodd"/><path fill="#000000" fill-opacity="0.0" d="m493.71542 146.90427l17.388123 -17.388138l35.588226 0l0 2.8638306l-17.388123 17.388138l-35.588226 0zm0 0l35.588226 0l17.388123 -17.388138m-17.388123 17.388138l0 2.8638306" fill-rule="evenodd"/><path fill="#32c8cd" d="m577.30334 103.61555l35.588257 0l0 2.8638306l-35.588257 0z" fill-rule="evenodd"/><path fill="#279fa3" d="m612.8916 103.61555l17.388123 -17.388138l0 2.8638306l-17.388123 17.388138z" fill-rule="evenodd"/><path fill="#5bd3d7" d="m577.30334 103.61555l17.388123 -17.388138l35.588257 0l-17.388123 17.388138z" fill-rule="evenodd"/><path fill="#000000" fill-opacity="0.0" d="m577.30334 103.61555l17.388123 -17.388138l35.588257 0l0 2.8638306l-17.388123 17.388138l-35.588257 0zm0 0l35.588257 0l17.388123 -17.388138m-17.388123 17.388138l0 2.8638306" fill-rule="evenodd"/><path fill="#32c8cd" d="m555.7154 125.78747l35.588257 0l0 2.863823l-35.588257 0z" fill-rule="evenodd"/><path fill="#279fa3" d="m591.30365 125.78747l17.388123 -17.388138l0 2.8638306l-17.388123 17.38813z" fill-rule="evenodd"/><path fill="#5bd3d7" d="m555.7154 125.78747l17.388184 -17.388138l35.588196 0l-17.388123 17.388138z" fill-rule="evenodd"/><path fill="#000000" fill-opacity="0.0" d="m555.7154 125.78747l17.388184 -17.388138l35.588196 0l0 2.8638306l-17.388123 17.38813l-35.588257 0zm0 0l35.588257 0l17.388123 -17.388138m-17.388123 17.388138l0 2.863823" fill-rule="evenodd"/><path fill="#000000" fill-opacity="0.0" d="m158.69543 77.191284l63.527557 0l0 37.889763l-63.527557 0z" fill-rule="evenodd"/><path fill="#000000" d="m178.07043 91.58503q1.09375 0 1.75 0.609375q0.671875 0.59375 0.671875 1.75q0 0.359375 -0.078125 0.78125l-0.765625 4.265625l-0.921875 0l0.75 -4.15625q0.0625 -0.40625 0.0625 -0.671875q0 -0.859375 -0.46875 -1.3125q-0.453125 -0.453125 -1.3125 -0.453125q-0.953125 0 -1.671875 0.609375q-0.703125 0.59375 -0.984375 1.71875l-0.765625 4.265625l-0.921875 0l0.75 -4.15625q0.0625 -0.40625 0.0625 -0.671875q0 -0.859375 -0.46875 -1.3125q-0.46875 -0.453125 -1.296875 -0.453125q-1.015625 0 -1.75 0.65625q-0.734375 0.65625 -0.96875 1.90625l-0.71875 4.03125l-0.921875 0l1.265625 -7.28125l0.9375 0l-0.21875 1.265625q0.453125 -0.671875 1.15625 -1.03125q0.71875 -0.359375 1.515625 -0.359375q0.953125 0 1.578125 0.453125q0.625 0.453125 0.78125 1.328125q0.4375 -0.859375 1.234375 -1.3125q0.8125 -0.46875 1.71875 -0.46875z" fill-rule="nonzero"/><path fill="#000000" fill-opacity="0.0" d="m81.181 77.41004l63.527557 0l0 37.889763l-63.527557 0z" fill-rule="evenodd"/><path fill="#000000" d="m90.790375 95.56941q0.203125 -1.125 0.8125 -1.96875q0.609375 -0.859375 1.484375 -1.3125q0.875 -0.46875 1.90625 -0.46875q1.34375 0 2.09375 0.671875q0.75 0.671875 0.8125 1.8125l-1.0 0q-0.046875 -0.78125 -0.59375 -1.21875q-0.53125 -0.453125 -1.453125 -0.453125q-1.125 0 -1.984375 0.765625q-0.859375 0.765625 -1.109375 2.171875q-0.078125 0.328125 -0.078125 0.765625q0 1.0625 0.578125 1.625q0.59375 0.5625 1.546875 0.5625q0.9375 0 1.625 -0.4375q0.6875 -0.453125 1.03125 -1.25l1.0 0q-0.453125 1.125 -1.453125 1.8125q-1.0 0.671875 -2.34375 0.671875q-1.34375 0 -2.15625 -0.765625q-0.796875 -0.78125 -0.796875 -2.125q0 -0.421875 0.078125 -0.859375z" fill-rule="nonzero"/><path fill="#000000" fill-opacity="0.0" d="m61.20189 98.48273l63.527557 0l0 37.88977l-63.527557 0z" fill-rule="evenodd"/><path fill="#000000" d="m70.811264 116.642105q0.203125 -1.125 0.8125 -1.96875q0.609375 -0.859375 1.484375 -1.3125q0.875 -0.46875 1.90625 -0.46875q1.34375 0 2.09375 0.671875q0.75 0.671875 0.8125 1.8125l-1.0 0q-0.046875 -0.78125 -0.59375 -1.21875q-0.53125 -0.453125 -1.453125 -0.453125q-1.125 0 -1.984375 0.765625q-0.859375 0.765625 -1.109375 2.171875q-0.078125 0.328125 -0.078125 0.765625q0 1.0625 0.578125 1.625q0.59375 0.5625 1.546875 0.5625q0.9375 0 1.625 -0.4375q0.6875 -0.453125 1.03125 -1.25l1.0 0q-0.453125 1.125 -1.453125 1.8125q-1.0 0.671875 -2.34375 0.671875q-1.34375 0 -2.15625 -0.765625q-0.796875 -0.78125 -0.796875 -2.125q0 -0.421875 0.078125 -0.859375z" fill-rule="nonzero"/><path fill="#000000" fill-opacity="0.0" d="m101.09862 98.481926l63.527557 0l0 37.889763l-63.527557 0z" fill-rule="evenodd"/><path fill="#000000" d="m110.70799 116.6413q0.203125 -1.125 0.8125 -1.96875q0.609375 -0.859375 1.484375 -1.3125q0.875 -0.46875 1.90625 -0.46875q1.34375 0 2.09375 0.671875q0.75 0.671875 0.8125 1.8125l-1.0 0q-0.046875 -0.78125 -0.59375 -1.21875q-0.53125 -0.453125 -1.453125 -0.453125q-1.125 0 -1.984375 0.765625q-0.859375 0.765625 -1.109375 2.171875q-0.078125 0.328125 -0.078125 0.765625q0 1.0625 0.578125 1.625q0.59375 0.5625 1.546875 0.5625q0.9375 0 1.625 -0.4375q0.6875 -0.453125 1.03125 -1.25l1.0 0q-0.453125 1.125 -1.453125 1.8125q-1.0 0.671875 -2.34375 0.671875q-1.34375 0 -2.15625 -0.765625q-0.796875 -0.78125 -0.796875 -2.125q0 -0.421875 0.078125 -0.859375z" fill-rule="nonzero"/><path fill="#000000" fill-opacity="0.0" d="m119.52381 78.213295l63.527565 0l0 37.889763l-63.527565 0z" fill-rule="evenodd"/><path fill="#000000" d="m129.1332 96.37267q0.203125 -1.125 0.8125 -1.96875q0.609375 -0.859375 1.484375 -1.3125q0.875 -0.46875 1.90625 -0.46875q1.34375 0 2.09375 0.671875q0.75 0.671875 0.8125 1.8125l-1.0 0q-0.046875 -0.78125 -0.59375 -1.21875q-0.53125 -0.453125 -1.453125 -0.453125q-1.125 0 -1.984375 0.765625q-0.859375 0.765625 -1.109375 2.171875q-0.078125 0.328125 -0.078125 0.765625q0 1.0625 0.578125 1.625q0.59375 0.5625 1.546875 0.5625q0.9375 0 1.625 -0.4375q0.6875 -0.453125 1.03125 -1.25l1.0 0q-0.453125 1.125 -1.453125 1.8125q-1.0 0.671875 -2.34375 0.671875q-1.34375 0 -2.15625 -0.765625q-0.796875 -0.78125 -0.796875 -2.125q0 -0.421875 0.078125 -0.859375z" fill-rule="nonzero"/><path fill="#000000" fill-opacity="0.0" d="m2.648294 4.2021l0 168.0315" fill-rule="evenodd"/><path stroke="#000000" stroke-width="1.0" stroke-linejoin="round" stroke-linecap="butt" d="m2.648294 4.2021l0 168.0315" fill-rule="evenodd"/><path fill="#000000" fill-opacity="0.0" d="m2.648294 171.77536l24.409449 0" fill-rule="evenodd"/><path stroke="#000000" stroke-width="1.0" stroke-linejoin="round" stroke-linecap="butt" d="m2.648294 171.77536l24.409449 0" fill-rule="evenodd"/><path fill="#000000" fill-opacity="0.0" d="m2.648294 4.662156l24.409449 0" fill-rule="evenodd"/><path stroke="#000000" stroke-width="1.0" stroke-linejoin="round" stroke-linecap="butt" d="m2.648294 4.662156l24.409449 0" fill-rule="evenodd"/><path fill="#000000" fill-opacity="0.0" d="m697.2572 172.2336l0 -168.0315" fill-rule="evenodd"/><path stroke="#000000" stroke-width="1.0" stroke-linejoin="round" stroke-linecap="butt" d="m697.2572 172.2336l0 -168.0315" fill-rule="evenodd"/><path fill="#000000" fill-opacity="0.0" d="m697.2572 4.6603355l-24.409424 0" fill-rule="evenodd"/><path stroke="#000000" stroke-width="1.0" stroke-linejoin="round" stroke-linecap="butt" d="m697.2572 4.6603355l-24.409424 0" fill-rule="evenodd"/><path fill="#000000" fill-opacity="0.0" d="m697.2572 171.77354l-24.409424 0" fill-rule="evenodd"/><path stroke="#000000" stroke-width="1.0" stroke-linejoin="round" stroke-linecap="butt" d="m697.2572 171.77354l-24.409424 0" fill-rule="evenodd"/></g></svg>