<?xml version="1.0" encoding="UTF-8"?>
<svg width="320px" height="320px" viewBox="0 0 320 320" version="1.1" xmlns="http://www.w3.org/2000/svg" xmlns:xlink="http://www.w3.org/1999/xlink">
    <title>docarray-colorful 2</title>
    <g id="docarray-colorful-2" stroke="none" stroke-width="1" fill="none" fill-rule="evenodd">
        <g id="编组-58" transform="translate(31.000000, 31.000000)">
            <g id="编组备份" fill="#009191" fill-rule="nonzero">
                <g id="编组-57" transform="translate(129.000000, 129.000000) scale(-1, 1) translate(-129.000000, -129.000000) ">
                    <path d="M165,10 C165,15.5228475 160.522847,20 155,20 L129,20 L129,20 C69.9989231,20 21.9467921,66.8780096 20.0576823,125.419953 L20.0146029,127.197486 L20,129 C20,188.597047 67.8298231,237.022841 127.197486,237.985397 L155.000001,237.996137 C160.523473,237.998271 165,242.476528 165,248 C165,253.522847 160.522847,258 155,258 L129,258 L129,258 C58.4677146,258 1.15645429,201.394063 0.0172823144,131.133251 L0,129 C0,58.4677146 56.6059375,1.15645429 126.866749,0.0172823144 L155.000001,0.00453208478 C160.520346,0.0020302176 164.997497,4.47512547 164.999999,9.99546997 C165,9.99697998 165,9.99848999 165,10 Z M240,0 C249.830669,0 257.820682,7.88078333 257.997024,17.6693348 L258,18 L258,248 C258,253.42924 253.673329,257.847932 248.279905,257.996158 L248,258 L204,258 C198.477153,258 194,253.522847 194,248 C194,242.477153 198.477153,238 204,238 L238,238 L238,238 L238,20 L204,20 C198.477153,20 194,15.5228475 194,10 C194,4.4771525 198.477153,1.01453063e-15 204,0 L240,0 L240,0 Z" id="形状"></path>
                </g>
            </g>
            <path d="M116.688312,65 L116.864584,65.0050927 C118.439392,65.0963391 119.688312,66.4023191 119.688312,68 L119.689,117.855 L119.671078,117.851234 C119.27284,117.766119 118.881185,117.68394 118.496113,117.604696 L117.360647,117.375768 C117.174694,117.339081 116.990387,117.303128 116.807726,117.267908 L115.731507,117.065395 C115.555429,117.03311 115.380996,117.001559 115.208209,116.970742 L114.191238,116.794644 L114.191238,116.794644 L113.213766,116.636155 C113.054145,116.611208 112.896171,116.586994 112.739842,116.563515 L111.821617,116.431441 L111.821617,116.431441 L110.94289,116.316977 C109.224936,116.105659 107.743973,116 106.5,116 L105.900502,116.003729 C93.5267239,116.157701 81.9475147,121.07369 73.3035829,129.525108 L72.825,129.999 L57.688262,130 C56.0314574,130 54.6883117,128.656854 54.6883117,127 L54.6883117,68 C54.6883117,66.3431458 56.0314574,65 57.6883117,65 L116.688312,65 Z" id="路径备份" fill="#FF455A" fill-rule="nonzero"></path>
            <path d="M106.5,126 C112.504513,126 118.179413,127.411237 123.211113,129.920123 L120.95949,133.742705 C116.753408,140.879792 119.129458,150.075249 126.266546,154.281331 C128.574151,155.641266 131.203812,156.35849 133.882331,156.35849 L143.320821,156.358558 C143.766575,158.670456 144,161.057968 144,163.5 C144,184.210678 127.210678,201 106.5,201 C85.7893219,201 69,184.210678 69,163.5 C69,142.789322 85.7893219,126 106.5,126 Z" id="路径备份-2" fill="#009191"></path>
            <path d="M168.245089,88.0242111 L196.633659,138.92297 C197.048941,139.667543 197.266939,140.505936 197.266939,141.35849 C197.266939,144.119914 195.028363,146.35849 192.266939,146.35849 L133.882331,146.35849 C132.989491,146.35849 132.112938,146.119415 131.343736,145.666104 C128.964707,144.264076 128.17269,141.198924 129.574718,138.819895 L159.570756,87.9211357 C160.021445,87.1563834 160.667604,86.525401 161.44285,86.0930109 C163.854522,84.7479105 166.899989,85.6125382 168.245089,88.0242111 Z" id="路径-73备份" fill="#FFC92A" fill-rule="nonzero"></path>
        </g>
    </g>
</svg>