<?xml version="1.0" encoding="UTF-8"?>
<svg width="1400px" height="1400px" viewBox="0 0 1400 1400" version="1.1" xmlns="http://www.w3.org/2000/svg" xmlns:xlink="http://www.w3.org/1999/xlink">
    <title>docarray-logo_text-dark</title>
    <g id="docarray-logo_text-dark" stroke="none" stroke-width="1" fill="none" fill-rule="evenodd">
        <g id="docarray" transform="translate(48.000000, 245.000000)" fill="#FFFFFF" fill-rule="nonzero">
            <path d="M1177.74,746.94 L1219.21,859.17 L1261.26,746.94 L1304.47,746.94 L1205,983.58 L1161.79,983.58 L1196.59,903.54 L1132.21,746.94 L1177.74,746.94 Z M161.24,693 L161.24,907.6 L134.56,907.6 L134.56,877.73 L134.216002,878.345428 C129.00258,887.540867 121.383913,895.117391 111.36,901.075 C101.113333,907.165 89.1266667,910.21 75.4,910.21 C61.2866667,910.21 48.4783333,906.73 36.975,899.77 C25.4716667,892.81 16.4333333,883.046667 9.86,870.48 C3.28666667,857.913333 0,843.606667 0,827.56 C0,811.32 3.28666667,797.061667 9.86,784.785 C16.4333333,772.508333 25.4716667,762.986667 36.975,756.22 C48.4783333,749.453333 61.3833333,746.07 75.69,746.07 C88.0633333,746.07 99.5666667,748.921667 110.2,754.625 C120.602174,760.204348 128.599102,767.495121 134.190784,776.497318 L134.56,777.1 L134.56,693 L161.24,693 Z M270.37,746.07 C285.45,746.07 299.08,749.405 311.26,756.075 C323.44,762.745 333.058333,772.266667 340.115,784.64 C347.171667,797.013333 350.7,811.416667 350.7,827.85 C350.7,844.283333 347.075,858.735 339.825,871.205 C332.575,883.675 322.763333,893.293333 310.39,900.06 C298.016667,906.826667 284.29,910.21 269.21,910.21 C254.323333,910.21 240.838333,906.826667 228.755,900.06 C216.671667,893.293333 207.198333,883.675 200.335,871.205 C193.471667,858.735 190.04,844.283333 190.04,827.85 C190.04,811.61 193.568333,797.255 200.625,784.785 C207.681667,772.315 217.3,762.745 229.48,756.075 C241.66,749.405 255.29,746.07 270.37,746.07 Z M447.07,746.07 C466.596667,746.07 482.691667,750.806667 495.355,760.28 C507.823513,769.60759 516.1217,782.496357 520.249561,798.946301 L520.44,799.72 L492.02,799.72 L491.847498,799.118477 C489.092708,789.73602 483.881875,782.299861 476.215,776.81 C468.385,771.203333 458.67,768.4 447.07,768.4 C431.99,768.4 419.81,773.571667 410.53,783.915 C401.25,794.258333 396.61,808.903333 396.61,827.85 C396.61,846.99 401.25,861.78 410.53,872.22 C419.81,882.66 431.99,887.88 447.07,887.88 C458.67,887.88 468.336667,885.173333 476.07,879.76 C483.64551,874.457143 488.901987,866.928013 491.839429,857.172611 L492.02,856.56 L520.44,856.56 L520.23751,857.318878 C515.919795,873.205511 507.480625,885.954219 494.92,895.565 C482.16,905.328333 466.21,910.21 447.07,910.21 C431.99,910.21 418.601667,906.826667 406.905,900.06 C395.208333,893.293333 386.073333,883.723333 379.5,871.35 C372.926667,858.976667 369.64,844.476667 369.64,827.85 C369.64,811.416667 372.926667,797.061667 379.5,784.785 C386.073333,772.508333 395.208333,762.986667 406.905,756.22 C418.601667,749.453333 431.99,746.07 447.07,746.07 Z M610.14,744.33 C622.126667,744.33 632.615,746.746667 641.605,751.58 C650.345278,756.279074 657.395194,762.16597 662.754749,769.240687 L663.21,769.85 L663.21,746.94 L704.1,746.94 L704.1,907.6 L663.21,907.6 L663.21,884.11 L662.793778,884.702552 C657.609593,891.977254 650.546667,898.014737 641.605,902.815 C632.421667,907.745 621.836667,910.21 609.85,910.21 C596.316667,910.21 583.991667,906.73 572.875,899.77 C561.758333,892.81 552.961667,882.998333 546.485,870.335 C540.008333,857.671667 536.77,843.123333 536.77,826.69 C536.77,810.45 540.008333,796.046667 546.485,783.48 C552.961667,770.913333 561.758333,761.246667 572.875,754.48 C583.991667,747.713333 596.413333,744.33 610.14,744.33 Z M1023.08,744.33 C1035.06667,744.33 1045.555,746.746667 1054.545,751.58 C1063.28528,756.279074 1070.33519,762.16597 1075.69475,769.240687 L1076.15,769.85 L1076.15,746.94 L1117.04,746.94 L1117.04,907.6 L1076.15,907.6 L1076.15,884.11 L1075.73378,884.702552 C1070.54959,891.977254 1063.48667,898.014737 1054.545,902.815 C1045.36167,907.745 1034.77667,910.21 1022.79,910.21 C1009.25667,910.21 996.931667,906.73 985.815,899.77 C974.698333,892.81 965.901667,882.998333 959.425,870.335 C952.948333,857.671667 949.71,843.123333 949.71,826.69 C949.71,810.45 952.948333,796.046667 959.425,783.48 C965.901667,770.913333 974.698333,761.246667 985.815,754.48 C996.931667,747.713333 1009.35333,744.33 1023.08,744.33 Z M827.73,744.62 L827.73,787.25 L817,787.25 L816.331322,787.252767 C803.903482,787.356069 794.508041,790.351813 788.145,796.24 C781.767974,802.141128 778.530407,812.353155 778.432299,826.87608 L778.43,827.56 L778.43,907.6 L737.83,907.6 L737.83,746.94 L778.43,746.94 L778.43,771.88 L778.834684,771.229264 C784.000536,763.03249 790.680641,756.579402 798.875,751.87 C807.089419,747.14907 816.456622,744.73371 826.976612,744.623921 L827.73,744.62 Z M938.89,744.62 L938.89,787.25 L928.16,787.25 L927.491322,787.252767 C915.063482,787.356069 905.668041,790.351813 899.305,796.24 C892.927974,802.141128 889.690407,812.353155 889.592299,826.87608 L889.59,827.56 L889.59,907.6 L848.99,907.6 L848.99,746.94 L889.59,746.94 L889.59,771.88 L889.994684,771.229264 C895.160536,763.03249 901.840641,756.579402 910.035,751.87 C918.249419,747.14907 927.616622,744.73371 938.136612,744.623921 L938.89,744.62 Z M80.62,768.98 C70.76,768.98 61.77,771.3 53.65,775.94 C45.53,780.58 39.0533333,787.346667 34.22,796.24 C29.3866667,805.133333 26.97,815.573333 26.97,827.56 C26.97,839.74 29.3866667,850.325 34.22,859.315 C39.0533333,868.305 45.53,875.168333 53.65,879.905 C61.77,884.641667 70.76,887.01 80.62,887.01 C90.48,887.01 99.5183333,884.641667 107.735,879.905 C115.951667,875.168333 122.476667,868.305 127.31,859.315 C132.143333,850.325 134.56,839.836667 134.56,827.85 C134.56,815.863333 132.143333,805.423333 127.31,796.53 C122.476667,787.636667 115.951667,780.821667 107.735,776.085 C99.5183333,771.348333 90.48,768.98 80.62,768.98 Z M270.08,768.98 C260.413333,768.98 251.568333,771.155 243.545,775.505 C235.521667,779.855 229.093333,786.476667 224.26,795.37 C219.426667,804.263333 217.01,815.09 217.01,827.85 C217.01,840.803333 219.378333,851.726667 224.115,860.62 C228.851667,869.513333 235.183333,876.135 243.11,880.485 C251.036667,884.835 259.736667,887.01 269.21,887.01 C278.683333,887.01 287.576667,884.786667 295.89,880.34 C304.203333,875.893333 310.921667,869.223333 316.045,860.33 C321.168333,851.436667 323.73,840.61 323.73,827.85 C323.73,815.09 321.216667,804.263333 316.19,795.37 C311.163333,786.476667 304.59,779.855 296.47,775.505 C288.35,771.155 279.553333,768.98 270.08,768.98 Z M620.58,780 C613.04,780 606.08,781.836667 599.7,785.51 C593.32,789.183333 588.148333,794.548333 584.185,801.605 C580.221667,808.661667 578.24,817.023333 578.24,826.69 C578.24,836.356667 580.221667,844.815 584.185,852.065 C588.148333,859.315 593.368333,864.873333 599.845,868.74 C606.321667,872.606667 613.233333,874.54 620.58,874.54 C628.12,874.54 635.176667,872.655 641.75,868.885 C648.323333,865.115 653.543333,859.701667 657.41,852.645 C661.276667,845.588333 663.21,837.13 663.21,827.27 C663.21,817.41 661.276667,808.951667 657.41,801.895 C653.543333,794.838333 648.323333,789.425 641.75,785.655 C635.176667,781.885 628.12,780 620.58,780 Z M1033.52,780 C1025.98,780 1019.02,781.836667 1012.64,785.51 C1006.26,789.183333 1001.08833,794.548333 997.125,801.605 C993.161667,808.661667 991.18,817.023333 991.18,826.69 C991.18,836.356667 993.161667,844.815 997.125,852.065 C1001.08833,859.315 1006.30833,864.873333 1012.785,868.74 C1019.26167,872.606667 1026.17333,874.54 1033.52,874.54 C1041.06,874.54 1048.11667,872.655 1054.69,868.885 C1061.26333,865.115 1066.48333,859.701667 1070.35,852.645 C1074.21667,845.588333 1076.15,837.13 1076.15,827.27 C1076.15,817.41 1074.21667,808.951667 1070.35,801.895 C1066.48333,794.838333 1061.26333,789.425 1054.69,785.655 C1048.11667,781.885 1041.06,780 1033.52,780 Z M597.379843,0.00952089129 L656.481481,0.0363062573 C802.607629,2.40551905 920.618804,120.431363 922.964415,266.563248 L923,271 L922.963694,275.481481 C920.594481,421.607629 802.568637,539.618804 656.436752,541.964415 L652,542 L597.379845,542 C585.777584,542 576.372093,532.594509 576.372093,520.992248 C576.372093,509.505882 585.587247,500.171144 597.028901,499.979388 L597.379843,499.976381 L655.786677,499.953819 C779.257609,497.951926 878.972478,398.224662 880.954428,274.748883 L880.984496,271 L880.953819,267.213323 L880.863319,263.479127 C876.93441,141.725498 777.957235,43.9875574 655.711466,42.0449739 L652,42.0155039 L597.379845,42.0155039 C585.894778,42.0155039 576.562327,32.7990632 576.372093,21.3586558 L576.372093,21.0077519 C576.377298,9.51847015 585.593789,0.194328201 597.029097,0.00952089129 L597.379843,0.00952089129 Z M494.44186,0 C506.044121,0 515.449612,9.40549091 515.449612,21.0077519 C515.449612,32.4928184 506.233172,41.8252698 494.792764,42.0126324 L494.44186,42.0155039 L423.015504,42.0155039 L423.015504,499.984496 L494.44186,499.984496 C506.044121,499.984496 515.449612,509.389987 515.449612,520.992248 C515.449612,532.477315 506.233172,541.809766 494.792764,542 L494.44186,542 L402.007752,542 L401.419735,541.991929 C390.206171,541.683749 381.187648,532.588303 381.002891,521.344315 L381,520.992248 L381,37.8139535 L381.006253,37.1193001 C381.373003,16.7613896 397.827866,0.331515862 418.195565,0 L418.813953,0 L494.44186,0 Z M604.732558,264.697674 C617.066375,264.697674 628.738185,267.532067 639.132157,272.585022 L639.83885,272.932972 L635.108697,280.963356 L634.84776,281.414441 C626.373495,296.342077 631.414144,315.36272 646.257627,324.110392 C650.938223,326.868796 656.249529,328.368519 661.67497,328.468669 L662.25668,328.474037 L682.084825,328.47418 L682.26615,329.447641 C683.084458,334.000218 683.511628,338.688595 683.511628,343.476744 C683.511628,386.985223 648.241037,422.255814 604.732558,422.255814 C561.224079,422.255814 525.953488,386.985223 525.953488,343.476744 C525.953488,299.968265 561.224079,264.697674 604.732558,264.697674 Z M720.155134,180.862062 C725.135645,178.084202 731.402863,179.792458 734.298373,184.664274 L734.44511,184.919079 L794.083113,291.84593 L794.2637,292.184067 C795.018615,293.661872 795.413492,295.299316 795.413492,296.962409 C795.413492,302.668439 790.863671,307.311802 785.194016,307.46251 L784.909616,307.466285 L662.25668,307.466285 L661.882062,307.459604 C660.136501,307.397319 658.431854,306.900556 656.923662,306.011737 C652.012026,303.117174 650.320373,296.8482 653.059111,291.889159 L653.207352,291.629392 L716.222286,184.702541 L716.417079,184.385014 C717.351279,182.921082 718.635091,181.709859 720.155134,180.862062 Z M626.135911,136.550388 L626.50622,136.561086 L626.735898,136.578576 C629.858977,136.87352 632.318647,139.447485 632.434004,142.619567 L632.438236,142.852713 L632.439682,247.58686 L630.747255,247.229558 L630.747255,247.229558 L629.933696,247.061028 L627.548336,246.580102 L626.386773,246.353512 L624.125879,245.928078 L623.026549,245.729233 L620.890121,245.35929 L618.836671,245.026342 L617.841062,244.87374 L615.912078,244.596283 L614.066072,244.35582 L613.350903,244.269993 L612.051443,244.12562 C609.498783,243.857498 607.223688,243.713125 605.226158,243.692501 L604.732558,243.689922 L603.473147,243.697756 L602.693816,243.710458 C577.249743,244.223327 553.452305,254.321175 535.535478,271.578011 L534.994349,272.103134 L533.988953,273.098674 L502.19007,273.100775 L501.959031,273.096619 C498.662154,272.977806 496.010817,270.326467 495.892005,267.029495 L495.887849,266.79845 L495.887849,142.852713 L495.892005,142.621668 C496.010817,139.324696 498.662156,136.673357 501.959129,136.554544 L502.190174,136.550388 L626.135911,136.550388 Z" id="形状"></path>
        </g>
        <g id="编组-58" transform="translate(429.000000, 245.000000)">
            <g id="编组-57" transform="translate(271.000000, 271.000000) scale(-1, 1) translate(-271.000000, -271.000000) "></g>
        </g>
    </g>
</svg>