<?xml version="1.0" encoding="UTF-8"?>
<svg width="1400px" height="1400px" viewBox="0 0 1400 1400" version="1.1" xmlns="http://www.w3.org/2000/svg" xmlns:xlink="http://www.w3.org/1999/xlink">
    <title>docarray-logo_text-light</title>
    <g id="docarray-logo_text-light" stroke="none" stroke-width="1" fill="none" fill-rule="evenodd">
        <g id="docarray" transform="translate(48.000000, 938.000000)" fill-rule="nonzero">
            <path d="M75.4,217.21 C89.1266667,217.21 101.113333,214.165 111.36,208.075 C121.606667,201.985 129.34,194.203333 134.56,184.73 L134.56,184.73 L134.56,214.6 L161.24,214.6 L161.24,0 L134.56,0 L134.56,84.1 C128.953333,74.82 120.833333,67.3283333 110.2,61.625 C99.5666667,55.9216667 88.0633333,53.07 75.69,53.07 C61.3833333,53.07 48.4783333,56.4533333 36.975,63.22 C25.4716667,69.9866667 16.4333333,79.5083333 9.86,91.785 C3.28666667,104.061667 0,118.32 0,134.56 C0,150.606667 3.28666667,164.913333 9.86,177.48 C16.4333333,190.046667 25.4716667,199.81 36.975,206.77 C48.4783333,213.73 61.2866667,217.21 75.4,217.21 Z M80.62,194.01 C70.76,194.01 61.77,191.641667 53.65,186.905 C45.53,182.168333 39.0533333,175.305 34.22,166.315 C29.3866667,157.325 26.97,146.74 26.97,134.56 C26.97,122.573333 29.3866667,112.133333 34.22,103.24 C39.0533333,94.3466667 45.53,87.58 53.65,82.94 C61.77,78.3 70.76,75.98 80.62,75.98 C90.48,75.98 99.5183333,78.3483333 107.735,83.085 C115.951667,87.8216667 122.476667,94.6366667 127.31,103.53 C132.143333,112.423333 134.56,122.863333 134.56,134.85 C134.56,146.836667 132.143333,157.325 127.31,166.315 C122.476667,175.305 115.951667,182.168333 107.735,186.905 C99.5183333,191.641667 90.48,194.01 80.62,194.01 Z M269.21,217.21 C284.29,217.21 298.016667,213.826667 310.39,207.06 C322.763333,200.293333 332.575,190.675 339.825,178.205 C347.075,165.735 350.7,151.283333 350.7,134.85 C350.7,118.416667 347.171667,104.013333 340.115,91.64 C333.058333,79.2666667 323.44,69.745 311.26,63.075 C299.08,56.405 285.45,53.07 270.37,53.07 C255.29,53.07 241.66,56.405 229.48,63.075 C217.3,69.745 207.681667,79.315 200.625,91.785 C193.568333,104.255 190.04,118.61 190.04,134.85 C190.04,151.283333 193.471667,165.735 200.335,178.205 C207.198333,190.675 216.671667,200.293333 228.755,207.06 C240.838333,213.826667 254.323333,217.21 269.21,217.21 Z M269.21,194.01 C259.736667,194.01 251.036667,191.835 243.11,187.485 C235.183333,183.135 228.851667,176.513333 224.115,167.62 C219.378333,158.726667 217.01,147.803333 217.01,134.85 C217.01,122.09 219.426667,111.263333 224.26,102.37 C229.093333,93.4766667 235.521667,86.855 243.545,82.505 C251.568333,78.155 260.413333,75.98 270.08,75.98 C279.553333,75.98 288.35,78.155 296.47,82.505 C304.59,86.855 311.163333,93.4766667 316.19,102.37 C321.216667,111.263333 323.73,122.09 323.73,134.85 C323.73,147.61 321.168333,158.436667 316.045,167.33 C310.921667,176.223333 304.203333,182.893333 295.89,187.34 C287.576667,191.786667 278.683333,194.01 269.21,194.01 Z M447.07,217.21 C466.21,217.21 482.16,212.328333 494.92,202.565 C507.68,192.801667 516.186667,179.8 520.44,163.56 L520.44,163.56 L492.02,163.56 C489.12,173.613333 483.803333,181.346667 476.07,186.76 C468.336667,192.173333 458.67,194.88 447.07,194.88 C431.99,194.88 419.81,189.66 410.53,179.22 C401.25,168.78 396.61,153.99 396.61,134.85 C396.61,115.903333 401.25,101.258333 410.53,90.915 C419.81,80.5716667 431.99,75.4 447.07,75.4 C458.67,75.4 468.385,78.2033333 476.215,83.81 C484.045,89.4166667 489.313333,97.0533333 492.02,106.72 L492.02,106.72 L520.44,106.72 C516.38,89.9 508.018333,76.7533333 495.355,67.28 C482.691667,57.8066667 466.596667,53.07 447.07,53.07 C431.99,53.07 418.601667,56.4533333 406.905,63.22 C395.208333,69.9866667 386.073333,79.5083333 379.5,91.785 C372.926667,104.061667 369.64,118.416667 369.64,134.85 C369.64,151.476667 372.926667,165.976667 379.5,178.35 C386.073333,190.723333 395.208333,200.293333 406.905,207.06 C418.601667,213.826667 431.99,217.21 447.07,217.21 Z" id="doc" fill="#009191"></path>
            <path d="M609.85,217.21 C621.836667,217.21 632.421667,214.745 641.605,209.815 C650.788333,204.885 657.99,198.65 663.21,191.11 L663.21,191.11 L663.21,214.6 L704.1,214.6 L704.1,53.94 L663.21,53.94 L663.21,76.85 C657.796667,69.5033333 650.595,63.4133333 641.605,58.58 C632.615,53.7466667 622.126667,51.33 610.14,51.33 C596.413333,51.33 583.991667,54.7133333 572.875,61.48 C561.758333,68.2466667 552.961667,77.9133333 546.485,90.48 C540.008333,103.046667 536.77,117.45 536.77,133.69 C536.77,150.123333 540.008333,164.671667 546.485,177.335 C552.961667,189.998333 561.758333,199.81 572.875,206.77 C583.991667,213.73 596.316667,217.21 609.85,217.21 Z M620.58,181.54 C613.233333,181.54 606.321667,179.606667 599.845,175.74 C593.368333,171.873333 588.148333,166.315 584.185,159.065 C580.221667,151.815 578.24,143.356667 578.24,133.69 C578.24,124.023333 580.221667,115.661667 584.185,108.605 C588.148333,101.548333 593.32,96.1833333 599.7,92.51 C606.08,88.8366667 613.04,87 620.58,87 C628.12,87 635.176667,88.885 641.75,92.655 C648.323333,96.425 653.543333,101.838333 657.41,108.895 C661.276667,115.951667 663.21,124.41 663.21,134.27 C663.21,144.13 661.276667,152.588333 657.41,159.645 C653.543333,166.701667 648.323333,172.115 641.75,175.885 C635.176667,179.655 628.12,181.54 620.58,181.54 Z M778.43,214.6 L778.43,134.56 C778.43,119.673333 781.668333,109.233333 788.145,103.24 C794.621667,97.2466667 804.24,94.25 817,94.25 L817,94.25 L827.73,94.25 L827.73,51.62 C816.903333,51.62 807.285,54.0366667 798.875,58.87 C790.465,63.7033333 783.65,70.3733333 778.43,78.88 L778.43,78.88 L778.43,53.94 L737.83,53.94 L737.83,214.6 L778.43,214.6 Z M889.59,214.6 L889.59,134.56 C889.59,119.673333 892.828333,109.233333 899.305,103.24 C905.781667,97.2466667 915.4,94.25 928.16,94.25 L928.16,94.25 L938.89,94.25 L938.89,51.62 C928.063333,51.62 918.445,54.0366667 910.035,58.87 C901.625,63.7033333 894.81,70.3733333 889.59,78.88 L889.59,78.88 L889.59,53.94 L848.99,53.94 L848.99,214.6 L889.59,214.6 Z M1022.79,217.21 C1034.77667,217.21 1045.36167,214.745 1054.545,209.815 C1063.72833,204.885 1070.93,198.65 1076.15,191.11 L1076.15,191.11 L1076.15,214.6 L1117.04,214.6 L1117.04,53.94 L1076.15,53.94 L1076.15,76.85 C1070.73667,69.5033333 1063.535,63.4133333 1054.545,58.58 C1045.555,53.7466667 1035.06667,51.33 1023.08,51.33 C1009.35333,51.33 996.931667,54.7133333 985.815,61.48 C974.698333,68.2466667 965.901667,77.9133333 959.425,90.48 C952.948333,103.046667 949.71,117.45 949.71,133.69 C949.71,150.123333 952.948333,164.671667 959.425,177.335 C965.901667,189.998333 974.698333,199.81 985.815,206.77 C996.931667,213.73 1009.25667,217.21 1022.79,217.21 Z M1033.52,181.54 C1026.17333,181.54 1019.26167,179.606667 1012.785,175.74 C1006.30833,171.873333 1001.08833,166.315 997.125,159.065 C993.161667,151.815 991.18,143.356667 991.18,133.69 C991.18,124.023333 993.161667,115.661667 997.125,108.605 C1001.08833,101.548333 1006.26,96.1833333 1012.64,92.51 C1019.02,88.8366667 1025.98,87 1033.52,87 C1041.06,87 1048.11667,88.885 1054.69,92.655 C1061.26333,96.425 1066.48333,101.838333 1070.35,108.895 C1074.21667,115.951667 1076.15,124.41 1076.15,134.27 C1076.15,144.13 1074.21667,152.588333 1070.35,159.645 C1066.48333,166.701667 1061.26333,172.115 1054.69,175.885 C1048.11667,179.655 1041.06,181.54 1033.52,181.54 Z M1205,290.58 L1304.47,53.94 L1261.26,53.94 L1219.21,166.17 L1177.74,53.94 L1132.21,53.94 L1196.59,210.54 L1161.79,290.58 L1205,290.58 Z" id="array" fill="#FFC92A"></path>
        </g>
        <g id="编组-58" transform="translate(429.000000, 245.000000)">
            <g id="编组备份" fill="#009191" fill-rule="nonzero">
                <g id="编组-57" transform="translate(271.000000, 271.000000) scale(-1, 1) translate(-271.000000, -271.000000) ">
                    <path d="M346.627907,21.0077519 C346.627907,32.610013 337.222416,42.0155039 325.620155,42.0155039 L271,42.0155039 L271,42.0155039 C147.052001,42.0155039 46.1052763,140.495664 42.1366813,263.479127 L42.0461813,267.213323 L42.0155039,271 C42.0155039,396.199999 142.49521,497.931705 267.213323,499.953819 L325.620157,499.976381 C337.223729,499.980863 346.627907,509.388675 346.627907,520.992248 C346.627907,532.594509 337.222416,542 325.620155,542 L271,542 L271,542 C122.827524,542 2.42945049,423.083651 0.0363062573,275.481481 L0,271 C0,122.827524 118.916349,2.42945049 266.518519,0.0363062573 L325.620157,0.00952089129 C337.21716,0.00426503077 346.622649,9.40123258 346.627905,20.9982354 C346.627906,21.0014076 346.627907,21.0045797 346.627907,21.0077519 Z M504.186047,0 C524.838071,0 541.623292,16.5557541 541.993747,37.1193001 L542,37.8139535 L542,520.992248 C542,532.397861 532.910637,541.680539 521.580265,541.991929 L520.992248,542 L428.55814,542 C416.955879,542 407.550388,532.594509 407.550388,520.992248 C407.550388,509.389987 416.955879,499.984496 428.55814,499.984496 L499.984496,499.984496 L499.984496,499.984496 L499.984496,42.0155039 L428.55814,42.0155039 C416.955879,42.0155039 407.550388,32.610013 407.550388,21.0077519 C407.550388,9.40549091 416.955879,2.13130077e-15 428.55814,0 L504.186047,0 L504.186047,0 Z" id="形状"></path>
                </g>
            </g>
            <path d="M245.135911,136.550388 L245.50622,136.561086 C248.814536,136.752774 251.438236,139.496345 251.438236,142.852713 L251.439682,247.58686 L251.402033,247.578948 C250.565424,247.400142 249.742645,247.227502 248.933696,247.061028 L246.548336,246.580102 C246.157691,246.503031 245.770503,246.427501 245.386773,246.353512 L243.125879,245.928078 C242.755978,245.860255 242.389535,245.793973 242.026549,245.729233 L239.890121,245.35929 L239.890121,245.35929 L237.836671,245.026342 C237.501344,244.973933 237.169475,244.923066 236.841062,244.87374 L234.912078,244.596283 L234.912078,244.596283 L233.066072,244.35582 C229.457036,243.911888 226.345865,243.689922 223.732558,243.689922 L222.473147,243.697756 C196.478622,244.021218 172.153306,254.348605 153.994349,272.103134 L152.988953,273.098674 L121.19007,273.100775 C117.709496,273.100775 114.887849,270.279128 114.887849,266.79845 L114.887849,142.852713 C114.887849,139.372035 117.709496,136.550388 121.190174,136.550388 L245.135911,136.550388 Z" id="路径备份" fill="#FF455A" fill-rule="nonzero"></path>
            <path d="M223.732558,264.697674 C236.346689,264.697674 248.26838,267.662367 258.83885,272.932972 L254.108697,280.963356 C245.272664,295.956773 250.26421,315.274359 265.257627,324.110392 C270.105387,326.967311 275.629713,328.474037 281.25668,328.474037 L301.084825,328.47418 C302.021255,333.330958 302.511628,338.346585 302.511628,343.476744 C302.511628,386.985223 267.241037,422.255814 223.732558,422.255814 C180.224079,422.255814 144.953488,386.985223 144.953488,343.476744 C144.953488,299.968265 180.224079,264.697674 223.732558,264.697674 Z" id="路径备份-2" fill="#009191"></path>
            <path d="M353.44511,184.919079 L413.083113,291.84593 C413.955528,293.410109 414.413492,295.171386 414.413492,296.962409 C414.413492,302.76354 409.710747,307.466285 403.909616,307.466285 L281.25668,307.466285 C279.381024,307.466285 277.539582,306.964043 275.923662,306.011737 C270.925857,303.066393 269.262008,296.627197 272.207352,291.629392 L335.222286,184.702541 C336.169083,183.095968 337.526517,181.770416 339.155134,180.862062 C344.221516,178.036308 350.619357,179.852697 353.44511,184.919079 Z" id="路径-73备份" fill="#FFC92A" fill-rule="nonzero"></path>
        </g>
    </g>
</svg>