<?xml version="1.0" encoding="utf-8" standalone="no"?>
<!DOCTYPE svg PUBLIC "-//W3C//DTD SVG 1.1//EN"
  "http://www.w3.org/Graphics/SVG/1.1/DTD/svg11.dtd">
<svg xmlns:xlink="http://www.w3.org/1999/xlink" width="1080pt" height="360pt" viewBox="0 0 1080 360" xmlns="http://www.w3.org/2000/svg" version="1.1">
 <metadata>
  <rdf:RDF xmlns:dc="http://purl.org/dc/elements/1.1/" xmlns:cc="http://creativecommons.org/ns#" xmlns:rdf="http://www.w3.org/1999/02/22-rdf-syntax-ns#">
   <cc:Work>
    <dc:type rdf:resource="http://purl.org/dc/dcmitype/StillImage"/>
    <dc:date>2022-04-21T14:58:36.576268</dc:date>
    <dc:format>image/svg+xml</dc:format>
    <dc:creator>
     <cc:Agent>
      <dc:title>Matplotlib v3.5.1, https://matplotlib.org/</dc:title>
     </cc:Agent>
    </dc:creator>
   </cc:Work>
  </rdf:RDF>
 </metadata>
 <defs>
  <style type="text/css">*{stroke-linejoin: round; stroke-linecap: butt}</style>
 </defs>
 <g id="figure_1">
  <g id="patch_1">
   <path d="M 0 360 
L 1080 360 
L 1080 0 
L 0 0 
z
" style="fill: #ffffff"/>
  </g>
  <g id="axes_1">
   <g id="patch_2">
    <path d="M 135 320.4 
L 515.454545 320.4 
L 515.454545 43.2 
L 135 43.2 
z
" style="fill: #ffffff"/>
   </g>
   <g id="patch_3">
    <path d="M 154.022727 320.4 
L 166.704545 320.4 
L 166.704545 316.256843 
L 154.022727 316.256843 
z
" clip-path="url(#pc8ab5e2891)" style="fill: #ee854a"/>
   </g>
   <g id="patch_4">
    <path d="M 230.113636 320.4 
L 242.795455 320.4 
L 242.795455 318.677454 
L 230.113636 318.677454 
z
" clip-path="url(#pc8ab5e2891)" style="fill: #ee854a"/>
   </g>
   <g id="patch_5">
    <path d="M 306.204545 320.4 
L 318.886364 320.4 
L 318.886364 319.57399 
L 306.204545 319.57399 
z
" clip-path="url(#pc8ab5e2891)" style="fill: #ee854a"/>
   </g>
   <g id="patch_6">
    <path d="M 382.295455 320.4 
L 394.977273 320.4 
L 394.977273 319.580637 
L 382.295455 319.580637 
z
" clip-path="url(#pc8ab5e2891)" style="fill: #ee854a"/>
   </g>
   <g id="patch_7">
    <path d="M 458.386364 320.4 
L 471.068182 320.4 
L 471.068182 317.837967 
L 458.386364 317.837967 
z
" clip-path="url(#pc8ab5e2891)" style="fill: #ee854a"/>
   </g>
   <g id="patch_8">
    <path d="M 166.704545 320.4 
L 179.386364 320.4 
L 179.386364 289.470609 
L 166.704545 289.470609 
z
" clip-path="url(#pc8ab5e2891)" style="fill: #6acc64"/>
   </g>
   <g id="patch_9">
    <path d="M 242.795455 320.4 
L 255.477273 320.4 
L 255.477273 318.358423 
L 242.795455 318.358423 
z
" clip-path="url(#pc8ab5e2891)" style="fill: #6acc64"/>
   </g>
   <g id="patch_10">
    <path d="M 318.886364 320.4 
L 331.568182 320.4 
L 331.568182 312.838153 
L 318.886364 312.838153 
z
" clip-path="url(#pc8ab5e2891)" style="fill: #6acc64"/>
   </g>
   <g id="patch_11">
    <path d="M 394.977273 320.4 
L 407.659091 320.4 
L 407.659091 319.512326 
L 394.977273 319.512326 
z
" clip-path="url(#pc8ab5e2891)" style="fill: #6acc64"/>
   </g>
   <g id="patch_12">
    <path d="M 471.068182 320.4 
L 483.75 320.4 
L 483.75 308.613946 
L 471.068182 308.613946 
z
" clip-path="url(#pc8ab5e2891)" style="fill: #6acc64"/>
   </g>
   <g id="patch_13">
    <path d="M 179.386364 320.4 
L 192.068182 320.4 
L 192.068182 56.4 
L 179.386364 56.4 
z
" clip-path="url(#pc8ab5e2891)" style="fill: #d65f5f"/>
   </g>
   <g id="patch_14">
    <path d="M 255.477273 320.4 
L 268.159091 320.4 
L 268.159091 318.764412 
L 255.477273 318.764412 
z
" clip-path="url(#pc8ab5e2891)" style="fill: #d65f5f"/>
   </g>
   <g id="patch_15">
    <path d="M 331.568182 320.4 
L 344.25 320.4 
L 344.25 241.659899 
L 331.568182 241.659899 
z
" clip-path="url(#pc8ab5e2891)" style="fill: #d65f5f"/>
   </g>
   <g id="patch_16">
    <path d="M 407.659091 320.4 
L 420.340909 320.4 
L 420.340909 319.440507 
L 407.659091 319.440507 
z
" clip-path="url(#pc8ab5e2891)" style="fill: #d65f5f"/>
   </g>
   <g id="patch_17">
    <path d="M 483.75 320.4 
L 496.431818 320.4 
L 496.431818 279.608157 
L 483.75 279.608157 
z
" clip-path="url(#pc8ab5e2891)" style="fill: #d65f5f"/>
   </g>
   <g id="matplotlib.axis_1">
    <g id="xtick_1">
     <g id="line2d_1">
      <defs>
       <path id="m46008ab62e" d="M 0 0 
L 0 3.5 
" style="stroke: #000000; stroke-width: 0.8"/>
      </defs>
      <g>
       <use xlink:href="#m46008ab62e" x="173.045455" y="320.4" style="stroke: #000000; stroke-width: 0.8"/>
      </g>
     </g>
     <g id="text_1">
      <!-- memory -->
      <g transform="translate(152.154048 334.998438)scale(0.1 -0.1)">
       <defs>
        <path id="DejaVuSans-6d" d="M 3328 2828 
Q 3544 3216 3844 3400 
Q 4144 3584 4550 3584 
Q 5097 3584 5394 3201 
Q 5691 2819 5691 2113 
L 5691 0 
L 5113 0 
L 5113 2094 
Q 5113 2597 4934 2840 
Q 4756 3084 4391 3084 
Q 3944 3084 3684 2787 
Q 3425 2491 3425 1978 
L 3425 0 
L 2847 0 
L 2847 2094 
Q 2847 2600 2669 2842 
Q 2491 3084 2119 3084 
Q 1678 3084 1418 2786 
Q 1159 2488 1159 1978 
L 1159 0 
L 581 0 
L 581 3500 
L 1159 3500 
L 1159 2956 
Q 1356 3278 1631 3431 
Q 1906 3584 2284 3584 
Q 2666 3584 2933 3390 
Q 3200 3197 3328 2828 
z
" transform="scale(0.015625)"/>
        <path id="DejaVuSans-65" d="M 3597 1894 
L 3597 1613 
L 953 1613 
Q 991 1019 1311 708 
Q 1631 397 2203 397 
Q 2534 397 2845 478 
Q 3156 559 3463 722 
L 3463 178 
Q 3153 47 2828 -22 
Q 2503 -91 2169 -91 
Q 1331 -91 842 396 
Q 353 884 353 1716 
Q 353 2575 817 3079 
Q 1281 3584 2069 3584 
Q 2775 3584 3186 3129 
Q 3597 2675 3597 1894 
z
M 3022 2063 
Q 3016 2534 2758 2815 
Q 2500 3097 2075 3097 
Q 1594 3097 1305 2825 
Q 1016 2553 972 2059 
L 3022 2063 
z
" transform="scale(0.015625)"/>
        <path id="DejaVuSans-6f" d="M 1959 3097 
Q 1497 3097 1228 2736 
Q 959 2375 959 1747 
Q 959 1119 1226 758 
Q 1494 397 1959 397 
Q 2419 397 2687 759 
Q 2956 1122 2956 1747 
Q 2956 2369 2687 2733 
Q 2419 3097 1959 3097 
z
M 1959 3584 
Q 2709 3584 3137 3096 
Q 3566 2609 3566 1747 
Q 3566 888 3137 398 
Q 2709 -91 1959 -91 
Q 1206 -91 779 398 
Q 353 888 353 1747 
Q 353 2609 779 3096 
Q 1206 3584 1959 3584 
z
" transform="scale(0.015625)"/>
        <path id="DejaVuSans-72" d="M 2631 2963 
Q 2534 3019 2420 3045 
Q 2306 3072 2169 3072 
Q 1681 3072 1420 2755 
Q 1159 2438 1159 1844 
L 1159 0 
L 581 0 
L 581 3500 
L 1159 3500 
L 1159 2956 
Q 1341 3275 1631 3429 
Q 1922 3584 2338 3584 
Q 2397 3584 2469 3576 
Q 2541 3569 2628 3553 
L 2631 2963 
z
" transform="scale(0.015625)"/>
        <path id="DejaVuSans-79" d="M 2059 -325 
Q 1816 -950 1584 -1140 
Q 1353 -1331 966 -1331 
L 506 -1331 
L 506 -850 
L 844 -850 
Q 1081 -850 1212 -737 
Q 1344 -625 1503 -206 
L 1606 56 
L 191 3500 
L 800 3500 
L 1894 763 
L 2988 3500 
L 3597 3500 
L 2059 -325 
z
" transform="scale(0.015625)"/>
       </defs>
       <use xlink:href="#DejaVuSans-6d"/>
       <use xlink:href="#DejaVuSans-65" x="97.412109"/>
       <use xlink:href="#DejaVuSans-6d" x="158.935547"/>
       <use xlink:href="#DejaVuSans-6f" x="256.347656"/>
       <use xlink:href="#DejaVuSans-72" x="317.529297"/>
       <use xlink:href="#DejaVuSans-79" x="358.642578"/>
      </g>
     </g>
    </g>
    <g id="xtick_2">
     <g id="line2d_2">
      <g>
       <use xlink:href="#m46008ab62e" x="249.136364" y="320.4" style="stroke: #000000; stroke-width: 0.8"/>
      </g>
     </g>
     <g id="text_2">
      <!-- qdrant -->
      <g transform="translate(232.539489 334.998438)scale(0.1 -0.1)">
       <defs>
        <path id="DejaVuSans-71" d="M 947 1747 
Q 947 1113 1208 752 
Q 1469 391 1925 391 
Q 2381 391 2643 752 
Q 2906 1113 2906 1747 
Q 2906 2381 2643 2742 
Q 2381 3103 1925 3103 
Q 1469 3103 1208 2742 
Q 947 2381 947 1747 
z
M 2906 525 
Q 2725 213 2448 61 
Q 2172 -91 1784 -91 
Q 1150 -91 751 415 
Q 353 922 353 1747 
Q 353 2572 751 3078 
Q 1150 3584 1784 3584 
Q 2172 3584 2448 3432 
Q 2725 3281 2906 2969 
L 2906 3500 
L 3481 3500 
L 3481 -1331 
L 2906 -1331 
L 2906 525 
z
" transform="scale(0.015625)"/>
        <path id="DejaVuSans-64" d="M 2906 2969 
L 2906 4863 
L 3481 4863 
L 3481 0 
L 2906 0 
L 2906 525 
Q 2725 213 2448 61 
Q 2172 -91 1784 -91 
Q 1150 -91 751 415 
Q 353 922 353 1747 
Q 353 2572 751 3078 
Q 1150 3584 1784 3584 
Q 2172 3584 2448 3432 
Q 2725 3281 2906 2969 
z
M 947 1747 
Q 947 1113 1208 752 
Q 1469 391 1925 391 
Q 2381 391 2643 752 
Q 2906 1113 2906 1747 
Q 2906 2381 2643 2742 
Q 2381 3103 1925 3103 
Q 1469 3103 1208 2742 
Q 947 2381 947 1747 
z
" transform="scale(0.015625)"/>
        <path id="DejaVuSans-61" d="M 2194 1759 
Q 1497 1759 1228 1600 
Q 959 1441 959 1056 
Q 959 750 1161 570 
Q 1363 391 1709 391 
Q 2188 391 2477 730 
Q 2766 1069 2766 1631 
L 2766 1759 
L 2194 1759 
z
M 3341 1997 
L 3341 0 
L 2766 0 
L 2766 531 
Q 2569 213 2275 61 
Q 1981 -91 1556 -91 
Q 1019 -91 701 211 
Q 384 513 384 1019 
Q 384 1609 779 1909 
Q 1175 2209 1959 2209 
L 2766 2209 
L 2766 2266 
Q 2766 2663 2505 2880 
Q 2244 3097 1772 3097 
Q 1472 3097 1187 3025 
Q 903 2953 641 2809 
L 641 3341 
Q 956 3463 1253 3523 
Q 1550 3584 1831 3584 
Q 2591 3584 2966 3190 
Q 3341 2797 3341 1997 
z
" transform="scale(0.015625)"/>
        <path id="DejaVuSans-6e" d="M 3513 2113 
L 3513 0 
L 2938 0 
L 2938 2094 
Q 2938 2591 2744 2837 
Q 2550 3084 2163 3084 
Q 1697 3084 1428 2787 
Q 1159 2491 1159 1978 
L 1159 0 
L 581 0 
L 581 3500 
L 1159 3500 
L 1159 2956 
Q 1366 3272 1645 3428 
Q 1925 3584 2291 3584 
Q 2894 3584 3203 3211 
Q 3513 2838 3513 2113 
z
" transform="scale(0.015625)"/>
        <path id="DejaVuSans-74" d="M 1172 4494 
L 1172 3500 
L 2356 3500 
L 2356 3053 
L 1172 3053 
L 1172 1153 
Q 1172 725 1289 603 
Q 1406 481 1766 481 
L 2356 481 
L 2356 0 
L 1766 0 
Q 1100 0 847 248 
Q 594 497 594 1153 
L 594 3053 
L 172 3053 
L 172 3500 
L 594 3500 
L 594 4494 
L 1172 4494 
z
" transform="scale(0.015625)"/>
       </defs>
       <use xlink:href="#DejaVuSans-71"/>
       <use xlink:href="#DejaVuSans-64" x="63.476562"/>
       <use xlink:href="#DejaVuSans-72" x="126.953125"/>
       <use xlink:href="#DejaVuSans-61" x="168.066406"/>
       <use xlink:href="#DejaVuSans-6e" x="229.345703"/>
       <use xlink:href="#DejaVuSans-74" x="292.724609"/>
      </g>
     </g>
    </g>
    <g id="xtick_3">
     <g id="line2d_3">
      <g>
       <use xlink:href="#m46008ab62e" x="325.227273" y="320.4" style="stroke: #000000; stroke-width: 0.8"/>
      </g>
     </g>
     <g id="text_3">
      <!-- annlite -->
      <g transform="translate(308.010866 334.998438)scale(0.1 -0.1)">
       <defs>
        <path id="DejaVuSans-6c" d="M 603 4863 
L 1178 4863 
L 1178 0 
L 603 0 
L 603 4863 
z
" transform="scale(0.015625)"/>
        <path id="DejaVuSans-69" d="M 603 3500 
L 1178 3500 
L 1178 0 
L 603 0 
L 603 3500 
z
M 603 4863 
L 1178 4863 
L 1178 4134 
L 603 4134 
L 603 4863 
z
" transform="scale(0.015625)"/>
       </defs>
       <use xlink:href="#DejaVuSans-61"/>
       <use xlink:href="#DejaVuSans-6e" x="61.279297"/>
       <use xlink:href="#DejaVuSans-6e" x="124.658203"/>
       <use xlink:href="#DejaVuSans-6c" x="188.037109"/>
       <use xlink:href="#DejaVuSans-69" x="215.820312"/>
       <use xlink:href="#DejaVuSans-74" x="243.603516"/>
       <use xlink:href="#DejaVuSans-65" x="282.8125"/>
      </g>
     </g>
    </g>
    <g id="xtick_4">
     <g id="line2d_4">
      <g>
       <use xlink:href="#m46008ab62e" x="401.318182" y="320.4" style="stroke: #000000; stroke-width: 0.8"/>
      </g>
     </g>
     <g id="text_4">
      <!-- weaviate -->
      <g transform="translate(378.639276 334.998438)scale(0.1 -0.1)">
       <defs>
        <path id="DejaVuSans-77" d="M 269 3500 
L 844 3500 
L 1563 769 
L 2278 3500 
L 2956 3500 
L 3675 769 
L 4391 3500 
L 4966 3500 
L 4050 0 
L 3372 0 
L 2619 2869 
L 1863 0 
L 1184 0 
L 269 3500 
z
" transform="scale(0.015625)"/>
        <path id="DejaVuSans-76" d="M 191 3500 
L 800 3500 
L 1894 563 
L 2988 3500 
L 3597 3500 
L 2284 0 
L 1503 0 
L 191 3500 
z
" transform="scale(0.015625)"/>
       </defs>
       <use xlink:href="#DejaVuSans-77"/>
       <use xlink:href="#DejaVuSans-65" x="81.787109"/>
       <use xlink:href="#DejaVuSans-61" x="143.310547"/>
       <use xlink:href="#DejaVuSans-76" x="204.589844"/>
       <use xlink:href="#DejaVuSans-69" x="263.769531"/>
       <use xlink:href="#DejaVuSans-61" x="291.552734"/>
       <use xlink:href="#DejaVuSans-74" x="352.832031"/>
       <use xlink:href="#DejaVuSans-65" x="392.041016"/>
      </g>
     </g>
    </g>
    <g id="xtick_5">
     <g id="line2d_5">
      <g>
       <use xlink:href="#m46008ab62e" x="477.409091" y="320.4" style="stroke: #000000; stroke-width: 0.8"/>
      </g>
     </g>
     <g id="text_5">
      <!-- elasticsearch -->
      <g transform="translate(444.570028 334.998438)scale(0.1 -0.1)">
       <defs>
        <path id="DejaVuSans-73" d="M 2834 3397 
L 2834 2853 
Q 2591 2978 2328 3040 
Q 2066 3103 1784 3103 
Q 1356 3103 1142 2972 
Q 928 2841 928 2578 
Q 928 2378 1081 2264 
Q 1234 2150 1697 2047 
L 1894 2003 
Q 2506 1872 2764 1633 
Q 3022 1394 3022 966 
Q 3022 478 2636 193 
Q 2250 -91 1575 -91 
Q 1294 -91 989 -36 
Q 684 19 347 128 
L 347 722 
Q 666 556 975 473 
Q 1284 391 1588 391 
Q 1994 391 2212 530 
Q 2431 669 2431 922 
Q 2431 1156 2273 1281 
Q 2116 1406 1581 1522 
L 1381 1569 
Q 847 1681 609 1914 
Q 372 2147 372 2553 
Q 372 3047 722 3315 
Q 1072 3584 1716 3584 
Q 2034 3584 2315 3537 
Q 2597 3491 2834 3397 
z
" transform="scale(0.015625)"/>
        <path id="DejaVuSans-63" d="M 3122 3366 
L 3122 2828 
Q 2878 2963 2633 3030 
Q 2388 3097 2138 3097 
Q 1578 3097 1268 2742 
Q 959 2388 959 1747 
Q 959 1106 1268 751 
Q 1578 397 2138 397 
Q 2388 397 2633 464 
Q 2878 531 3122 666 
L 3122 134 
Q 2881 22 2623 -34 
Q 2366 -91 2075 -91 
Q 1284 -91 818 406 
Q 353 903 353 1747 
Q 353 2603 823 3093 
Q 1294 3584 2113 3584 
Q 2378 3584 2631 3529 
Q 2884 3475 3122 3366 
z
" transform="scale(0.015625)"/>
        <path id="DejaVuSans-68" d="M 3513 2113 
L 3513 0 
L 2938 0 
L 2938 2094 
Q 2938 2591 2744 2837 
Q 2550 3084 2163 3084 
Q 1697 3084 1428 2787 
Q 1159 2491 1159 1978 
L 1159 0 
L 581 0 
L 581 4863 
L 1159 4863 
L 1159 2956 
Q 1366 3272 1645 3428 
Q 1925 3584 2291 3584 
Q 2894 3584 3203 3211 
Q 3513 2838 3513 2113 
z
" transform="scale(0.015625)"/>
       </defs>
       <use xlink:href="#DejaVuSans-65"/>
       <use xlink:href="#DejaVuSans-6c" x="61.523438"/>
       <use xlink:href="#DejaVuSans-61" x="89.306641"/>
       <use xlink:href="#DejaVuSans-73" x="150.585938"/>
       <use xlink:href="#DejaVuSans-74" x="202.685547"/>
       <use xlink:href="#DejaVuSans-69" x="241.894531"/>
       <use xlink:href="#DejaVuSans-63" x="269.677734"/>
       <use xlink:href="#DejaVuSans-73" x="324.658203"/>
       <use xlink:href="#DejaVuSans-65" x="376.757812"/>
       <use xlink:href="#DejaVuSans-61" x="438.28125"/>
       <use xlink:href="#DejaVuSans-72" x="499.560547"/>
       <use xlink:href="#DejaVuSans-63" x="538.423828"/>
       <use xlink:href="#DejaVuSans-68" x="593.404297"/>
      </g>
     </g>
    </g>
   </g>
   <g id="matplotlib.axis_2">
    <g id="ytick_1">
     <g id="line2d_6">
      <defs>
       <path id="m788bbb46e1" d="M 0 0 
L -3.5 0 
" style="stroke: #000000; stroke-width: 0.8"/>
      </defs>
      <g>
       <use xlink:href="#m788bbb46e1" x="135" y="320.4" style="stroke: #000000; stroke-width: 0.8"/>
      </g>
     </g>
     <g id="text_6">
      <!-- 0.0 -->
      <g transform="translate(112.096875 324.199219)scale(0.1 -0.1)">
       <defs>
        <path id="DejaVuSans-30" d="M 2034 4250 
Q 1547 4250 1301 3770 
Q 1056 3291 1056 2328 
Q 1056 1369 1301 889 
Q 1547 409 2034 409 
Q 2525 409 2770 889 
Q 3016 1369 3016 2328 
Q 3016 3291 2770 3770 
Q 2525 4250 2034 4250 
z
M 2034 4750 
Q 2819 4750 3233 4129 
Q 3647 3509 3647 2328 
Q 3647 1150 3233 529 
Q 2819 -91 2034 -91 
Q 1250 -91 836 529 
Q 422 1150 422 2328 
Q 422 3509 836 4129 
Q 1250 4750 2034 4750 
z
" transform="scale(0.015625)"/>
        <path id="DejaVuSans-2e" d="M 684 794 
L 1344 794 
L 1344 0 
L 684 0 
L 684 794 
z
" transform="scale(0.015625)"/>
       </defs>
       <use xlink:href="#DejaVuSans-30"/>
       <use xlink:href="#DejaVuSans-2e" x="63.623047"/>
       <use xlink:href="#DejaVuSans-30" x="95.410156"/>
      </g>
     </g>
    </g>
    <g id="ytick_2">
     <g id="line2d_7">
      <g>
       <use xlink:href="#m788bbb46e1" x="135" y="283.475116" style="stroke: #000000; stroke-width: 0.8"/>
      </g>
     </g>
     <g id="text_7">
      <!-- 0.2 -->
      <g transform="translate(112.096875 287.274334)scale(0.1 -0.1)">
       <defs>
        <path id="DejaVuSans-32" d="M 1228 531 
L 3431 531 
L 3431 0 
L 469 0 
L 469 531 
Q 828 903 1448 1529 
Q 2069 2156 2228 2338 
Q 2531 2678 2651 2914 
Q 2772 3150 2772 3378 
Q 2772 3750 2511 3984 
Q 2250 4219 1831 4219 
Q 1534 4219 1204 4116 
Q 875 4013 500 3803 
L 500 4441 
Q 881 4594 1212 4672 
Q 1544 4750 1819 4750 
Q 2544 4750 2975 4387 
Q 3406 4025 3406 3419 
Q 3406 3131 3298 2873 
Q 3191 2616 2906 2266 
Q 2828 2175 2409 1742 
Q 1991 1309 1228 531 
z
" transform="scale(0.015625)"/>
       </defs>
       <use xlink:href="#DejaVuSans-30"/>
       <use xlink:href="#DejaVuSans-2e" x="63.623047"/>
       <use xlink:href="#DejaVuSans-32" x="95.410156"/>
      </g>
     </g>
    </g>
    <g id="ytick_3">
     <g id="line2d_8">
      <g>
       <use xlink:href="#m788bbb46e1" x="135" y="246.550231" style="stroke: #000000; stroke-width: 0.8"/>
      </g>
     </g>
     <g id="text_8">
      <!-- 0.4 -->
      <g transform="translate(112.096875 250.34945)scale(0.1 -0.1)">
       <defs>
        <path id="DejaVuSans-34" d="M 2419 4116 
L 825 1625 
L 2419 1625 
L 2419 4116 
z
M 2253 4666 
L 3047 4666 
L 3047 1625 
L 3713 1625 
L 3713 1100 
L 3047 1100 
L 3047 0 
L 2419 0 
L 2419 1100 
L 313 1100 
L 313 1709 
L 2253 4666 
z
" transform="scale(0.015625)"/>
       </defs>
       <use xlink:href="#DejaVuSans-30"/>
       <use xlink:href="#DejaVuSans-2e" x="63.623047"/>
       <use xlink:href="#DejaVuSans-34" x="95.410156"/>
      </g>
     </g>
    </g>
    <g id="ytick_4">
     <g id="line2d_9">
      <g>
       <use xlink:href="#m788bbb46e1" x="135" y="209.625347" style="stroke: #000000; stroke-width: 0.8"/>
      </g>
     </g>
     <g id="text_9">
      <!-- 0.6 -->
      <g transform="translate(112.096875 213.424565)scale(0.1 -0.1)">
       <defs>
        <path id="DejaVuSans-36" d="M 2113 2584 
Q 1688 2584 1439 2293 
Q 1191 2003 1191 1497 
Q 1191 994 1439 701 
Q 1688 409 2113 409 
Q 2538 409 2786 701 
Q 3034 994 3034 1497 
Q 3034 2003 2786 2293 
Q 2538 2584 2113 2584 
z
M 3366 4563 
L 3366 3988 
Q 3128 4100 2886 4159 
Q 2644 4219 2406 4219 
Q 1781 4219 1451 3797 
Q 1122 3375 1075 2522 
Q 1259 2794 1537 2939 
Q 1816 3084 2150 3084 
Q 2853 3084 3261 2657 
Q 3669 2231 3669 1497 
Q 3669 778 3244 343 
Q 2819 -91 2113 -91 
Q 1303 -91 875 529 
Q 447 1150 447 2328 
Q 447 3434 972 4092 
Q 1497 4750 2381 4750 
Q 2619 4750 2861 4703 
Q 3103 4656 3366 4563 
z
" transform="scale(0.015625)"/>
       </defs>
       <use xlink:href="#DejaVuSans-30"/>
       <use xlink:href="#DejaVuSans-2e" x="63.623047"/>
       <use xlink:href="#DejaVuSans-36" x="95.410156"/>
      </g>
     </g>
    </g>
    <g id="ytick_5">
     <g id="line2d_10">
      <g>
       <use xlink:href="#m788bbb46e1" x="135" y="172.700462" style="stroke: #000000; stroke-width: 0.8"/>
      </g>
     </g>
     <g id="text_10">
      <!-- 0.8 -->
      <g transform="translate(112.096875 176.499681)scale(0.1 -0.1)">
       <defs>
        <path id="DejaVuSans-38" d="M 2034 2216 
Q 1584 2216 1326 1975 
Q 1069 1734 1069 1313 
Q 1069 891 1326 650 
Q 1584 409 2034 409 
Q 2484 409 2743 651 
Q 3003 894 3003 1313 
Q 3003 1734 2745 1975 
Q 2488 2216 2034 2216 
z
M 1403 2484 
Q 997 2584 770 2862 
Q 544 3141 544 3541 
Q 544 4100 942 4425 
Q 1341 4750 2034 4750 
Q 2731 4750 3128 4425 
Q 3525 4100 3525 3541 
Q 3525 3141 3298 2862 
Q 3072 2584 2669 2484 
Q 3125 2378 3379 2068 
Q 3634 1759 3634 1313 
Q 3634 634 3220 271 
Q 2806 -91 2034 -91 
Q 1263 -91 848 271 
Q 434 634 434 1313 
Q 434 1759 690 2068 
Q 947 2378 1403 2484 
z
M 1172 3481 
Q 1172 3119 1398 2916 
Q 1625 2713 2034 2713 
Q 2441 2713 2670 2916 
Q 2900 3119 2900 3481 
Q 2900 3844 2670 4047 
Q 2441 4250 2034 4250 
Q 1625 4250 1398 4047 
Q 1172 3844 1172 3481 
z
" transform="scale(0.015625)"/>
       </defs>
       <use xlink:href="#DejaVuSans-30"/>
       <use xlink:href="#DejaVuSans-2e" x="63.623047"/>
       <use xlink:href="#DejaVuSans-38" x="95.410156"/>
      </g>
     </g>
    </g>
    <g id="ytick_6">
     <g id="line2d_11">
      <g>
       <use xlink:href="#m788bbb46e1" x="135" y="135.775578" style="stroke: #000000; stroke-width: 0.8"/>
      </g>
     </g>
     <g id="text_11">
      <!-- 1.0 -->
      <g transform="translate(112.096875 139.574797)scale(0.1 -0.1)">
       <defs>
        <path id="DejaVuSans-31" d="M 794 531 
L 1825 531 
L 1825 4091 
L 703 3866 
L 703 4441 
L 1819 4666 
L 2450 4666 
L 2450 531 
L 3481 531 
L 3481 0 
L 794 0 
L 794 531 
z
" transform="scale(0.015625)"/>
       </defs>
       <use xlink:href="#DejaVuSans-31"/>
       <use xlink:href="#DejaVuSans-2e" x="63.623047"/>
       <use xlink:href="#DejaVuSans-30" x="95.410156"/>
      </g>
     </g>
    </g>
    <g id="ytick_7">
     <g id="line2d_12">
      <g>
       <use xlink:href="#m788bbb46e1" x="135" y="98.850693" style="stroke: #000000; stroke-width: 0.8"/>
      </g>
     </g>
     <g id="text_12">
      <!-- 1.2 -->
      <g transform="translate(112.096875 102.649912)scale(0.1 -0.1)">
       <use xlink:href="#DejaVuSans-31"/>
       <use xlink:href="#DejaVuSans-2e" x="63.623047"/>
       <use xlink:href="#DejaVuSans-32" x="95.410156"/>
      </g>
     </g>
    </g>
    <g id="ytick_8">
     <g id="line2d_13">
      <g>
       <use xlink:href="#m788bbb46e1" x="135" y="61.925809" style="stroke: #000000; stroke-width: 0.8"/>
      </g>
     </g>
     <g id="text_13">
      <!-- 1.4 -->
      <g transform="translate(112.096875 65.725028)scale(0.1 -0.1)">
       <use xlink:href="#DejaVuSans-31"/>
       <use xlink:href="#DejaVuSans-2e" x="63.623047"/>
       <use xlink:href="#DejaVuSans-34" x="95.410156"/>
      </g>
     </g>
    </g>
    <g id="text_14">
     <!-- seconds -->
     <g transform="translate(106.017187 202.2375)rotate(-90)scale(0.1 -0.1)">
      <use xlink:href="#DejaVuSans-73"/>
      <use xlink:href="#DejaVuSans-65" x="52.099609"/>
      <use xlink:href="#DejaVuSans-63" x="113.623047"/>
      <use xlink:href="#DejaVuSans-6f" x="168.603516"/>
      <use xlink:href="#DejaVuSans-6e" x="229.785156"/>
      <use xlink:href="#DejaVuSans-64" x="293.164062"/>
      <use xlink:href="#DejaVuSans-73" x="356.640625"/>
     </g>
    </g>
   </g>
   <g id="LineCollection_1">
    <path d="M -1 265.012673 
L 1081 265.012673 
" clip-path="url(#pc8ab5e2891)" style="fill: none; stroke-dasharray: 7.4,3.2; stroke-dashoffset: 0; stroke: #ff0000; stroke-width: 2"/>
   </g>
   <g id="patch_18">
    <path d="M 135 320.4 
L 135 43.2 
" style="fill: none; stroke: #000000; stroke-width: 0.8; stroke-linejoin: miter; stroke-linecap: square"/>
   </g>
   <g id="patch_19">
    <path d="M 515.454545 320.4 
L 515.454545 43.2 
" style="fill: none; stroke: #000000; stroke-width: 0.8; stroke-linejoin: miter; stroke-linecap: square"/>
   </g>
   <g id="patch_20">
    <path d="M 135 320.4 
L 515.454545 320.4 
" style="fill: none; stroke: #000000; stroke-width: 0.8; stroke-linejoin: miter; stroke-linecap: square"/>
   </g>
   <g id="patch_21">
    <path d="M 135 43.2 
L 515.454545 43.2 
" style="fill: none; stroke: #000000; stroke-width: 0.8; stroke-linejoin: miter; stroke-linecap: square"/>
   </g>
   <g id="text_15">
    <!-- Find by vector per backend and dataset size -->
    <g transform="translate(192.272898 37.2)scale(0.12 -0.12)">
     <defs>
      <path id="DejaVuSans-46" d="M 628 4666 
L 3309 4666 
L 3309 4134 
L 1259 4134 
L 1259 2759 
L 3109 2759 
L 3109 2228 
L 1259 2228 
L 1259 0 
L 628 0 
L 628 4666 
z
" transform="scale(0.015625)"/>
      <path id="DejaVuSans-20" transform="scale(0.015625)"/>
      <path id="DejaVuSans-62" d="M 3116 1747 
Q 3116 2381 2855 2742 
Q 2594 3103 2138 3103 
Q 1681 3103 1420 2742 
Q 1159 2381 1159 1747 
Q 1159 1113 1420 752 
Q 1681 391 2138 391 
Q 2594 391 2855 752 
Q 3116 1113 3116 1747 
z
M 1159 2969 
Q 1341 3281 1617 3432 
Q 1894 3584 2278 3584 
Q 2916 3584 3314 3078 
Q 3713 2572 3713 1747 
Q 3713 922 3314 415 
Q 2916 -91 2278 -91 
Q 1894 -91 1617 61 
Q 1341 213 1159 525 
L 1159 0 
L 581 0 
L 581 4863 
L 1159 4863 
L 1159 2969 
z
" transform="scale(0.015625)"/>
      <path id="DejaVuSans-70" d="M 1159 525 
L 1159 -1331 
L 581 -1331 
L 581 3500 
L 1159 3500 
L 1159 2969 
Q 1341 3281 1617 3432 
Q 1894 3584 2278 3584 
Q 2916 3584 3314 3078 
Q 3713 2572 3713 1747 
Q 3713 922 3314 415 
Q 2916 -91 2278 -91 
Q 1894 -91 1617 61 
Q 1341 213 1159 525 
z
M 3116 1747 
Q 3116 2381 2855 2742 
Q 2594 3103 2138 3103 
Q 1681 3103 1420 2742 
Q 1159 2381 1159 1747 
Q 1159 1113 1420 752 
Q 1681 391 2138 391 
Q 2594 391 2855 752 
Q 3116 1113 3116 1747 
z
" transform="scale(0.015625)"/>
      <path id="DejaVuSans-6b" d="M 581 4863 
L 1159 4863 
L 1159 1991 
L 2875 3500 
L 3609 3500 
L 1753 1863 
L 3688 0 
L 2938 0 
L 1159 1709 
L 1159 0 
L 581 0 
L 581 4863 
z
" transform="scale(0.015625)"/>
      <path id="DejaVuSans-7a" d="M 353 3500 
L 3084 3500 
L 3084 2975 
L 922 459 
L 3084 459 
L 3084 0 
L 275 0 
L 275 525 
L 2438 3041 
L 353 3041 
L 353 3500 
z
" transform="scale(0.015625)"/>
     </defs>
     <use xlink:href="#DejaVuSans-46"/>
     <use xlink:href="#DejaVuSans-69" x="50.269531"/>
     <use xlink:href="#DejaVuSans-6e" x="78.052734"/>
     <use xlink:href="#DejaVuSans-64" x="141.431641"/>
     <use xlink:href="#DejaVuSans-20" x="204.908203"/>
     <use xlink:href="#DejaVuSans-62" x="236.695312"/>
     <use xlink:href="#DejaVuSans-79" x="300.171875"/>
     <use xlink:href="#DejaVuSans-20" x="359.351562"/>
     <use xlink:href="#DejaVuSans-76" x="391.138672"/>
     <use xlink:href="#DejaVuSans-65" x="450.318359"/>
     <use xlink:href="#DejaVuSans-63" x="511.841797"/>
     <use xlink:href="#DejaVuSans-74" x="566.822266"/>
     <use xlink:href="#DejaVuSans-6f" x="606.03125"/>
     <use xlink:href="#DejaVuSans-72" x="667.212891"/>
     <use xlink:href="#DejaVuSans-20" x="708.326172"/>
     <use xlink:href="#DejaVuSans-70" x="740.113281"/>
     <use xlink:href="#DejaVuSans-65" x="803.589844"/>
     <use xlink:href="#DejaVuSans-72" x="865.113281"/>
     <use xlink:href="#DejaVuSans-20" x="906.226562"/>
     <use xlink:href="#DejaVuSans-62" x="938.013672"/>
     <use xlink:href="#DejaVuSans-61" x="1001.490234"/>
     <use xlink:href="#DejaVuSans-63" x="1062.769531"/>
     <use xlink:href="#DejaVuSans-6b" x="1117.75"/>
     <use xlink:href="#DejaVuSans-65" x="1172.035156"/>
     <use xlink:href="#DejaVuSans-6e" x="1233.558594"/>
     <use xlink:href="#DejaVuSans-64" x="1296.9375"/>
     <use xlink:href="#DejaVuSans-20" x="1360.414062"/>
     <use xlink:href="#DejaVuSans-61" x="1392.201172"/>
     <use xlink:href="#DejaVuSans-6e" x="1453.480469"/>
     <use xlink:href="#DejaVuSans-64" x="1516.859375"/>
     <use xlink:href="#DejaVuSans-20" x="1580.335938"/>
     <use xlink:href="#DejaVuSans-64" x="1612.123047"/>
     <use xlink:href="#DejaVuSans-61" x="1675.599609"/>
     <use xlink:href="#DejaVuSans-74" x="1736.878906"/>
     <use xlink:href="#DejaVuSans-61" x="1776.087891"/>
     <use xlink:href="#DejaVuSans-73" x="1837.367188"/>
     <use xlink:href="#DejaVuSans-65" x="1889.466797"/>
     <use xlink:href="#DejaVuSans-74" x="1950.990234"/>
     <use xlink:href="#DejaVuSans-20" x="1990.199219"/>
     <use xlink:href="#DejaVuSans-73" x="2021.986328"/>
     <use xlink:href="#DejaVuSans-69" x="2074.085938"/>
     <use xlink:href="#DejaVuSans-7a" x="2101.869141"/>
     <use xlink:href="#DejaVuSans-65" x="2154.359375"/>
    </g>
   </g>
   <g id="legend_1">
    <g id="patch_22">
     <path d="M 451.57642 95.234375 
L 508.454545 95.234375 
Q 510.454545 95.234375 510.454545 93.234375 
L 510.454545 50.2 
Q 510.454545 48.2 508.454545 48.2 
L 451.57642 48.2 
Q 449.57642 48.2 449.57642 50.2 
L 449.57642 93.234375 
Q 449.57642 95.234375 451.57642 95.234375 
z
" style="fill: #ffffff; opacity: 0.8; stroke: #cccccc; stroke-linejoin: miter"/>
    </g>
    <g id="patch_23">
     <path d="M 453.57642 59.798437 
L 473.57642 59.798437 
L 473.57642 52.798437 
L 453.57642 52.798437 
z
" style="fill: #ee854a"/>
    </g>
    <g id="text_16">
     <!-- 10k -->
     <g transform="translate(481.57642 59.798437)scale(0.1 -0.1)">
      <use xlink:href="#DejaVuSans-31"/>
      <use xlink:href="#DejaVuSans-30" x="63.623047"/>
      <use xlink:href="#DejaVuSans-6b" x="127.246094"/>
     </g>
    </g>
    <g id="patch_24">
     <path d="M 453.57642 74.476562 
L 473.57642 74.476562 
L 473.57642 67.476562 
L 453.57642 67.476562 
z
" style="fill: #6acc64"/>
    </g>
    <g id="text_17">
     <!-- 100k -->
     <g transform="translate(481.57642 74.476562)scale(0.1 -0.1)">
      <use xlink:href="#DejaVuSans-31"/>
      <use xlink:href="#DejaVuSans-30" x="63.623047"/>
      <use xlink:href="#DejaVuSans-30" x="127.246094"/>
      <use xlink:href="#DejaVuSans-6b" x="190.869141"/>
     </g>
    </g>
    <g id="patch_25">
     <path d="M 453.57642 89.154687 
L 473.57642 89.154687 
L 473.57642 82.154687 
L 453.57642 82.154687 
z
" style="fill: #d65f5f"/>
    </g>
    <g id="text_18">
     <!-- 1M -->
     <g transform="translate(481.57642 89.154687)scale(0.1 -0.1)">
      <defs>
       <path id="DejaVuSans-4d" d="M 628 4666 
L 1569 4666 
L 2759 1491 
L 3956 4666 
L 4897 4666 
L 4897 0 
L 4281 0 
L 4281 4097 
L 3078 897 
L 2444 897 
L 1241 4097 
L 1241 0 
L 628 0 
L 628 4666 
z
" transform="scale(0.015625)"/>
      </defs>
      <use xlink:href="#DejaVuSans-31"/>
      <use xlink:href="#DejaVuSans-4d" x="63.623047"/>
     </g>
    </g>
   </g>
  </g>
  <g id="axes_2">
   <g id="patch_26">
    <path d="M 591.545455 320.4 
L 972 320.4 
L 972 43.2 
L 591.545455 43.2 
z
" style="fill: #ffffff"/>
   </g>
   <g id="patch_27">
    <path d="M 610.568182 320.4 
L 623.25 320.4 
L 623.25 320.283132 
L 610.568182 320.283132 
z
" clip-path="url(#pbfd75a88e3)" style="fill: #ee854a"/>
   </g>
   <g id="patch_28">
    <path d="M 686.659091 320.4 
L 699.340909 320.4 
L 699.340909 320.071814 
L 686.659091 320.071814 
z
" clip-path="url(#pbfd75a88e3)" style="fill: #ee854a"/>
   </g>
   <g id="patch_29">
    <path d="M 762.75 320.4 
L 775.431818 320.4 
L 775.431818 320.380716 
L 762.75 320.380716 
z
" clip-path="url(#pbfd75a88e3)" style="fill: #ee854a"/>
   </g>
   <g id="patch_30">
    <path d="M 838.840909 320.4 
L 851.522727 320.4 
L 851.522727 320.032193 
L 838.840909 320.032193 
z
" clip-path="url(#pbfd75a88e3)" style="fill: #ee854a"/>
   </g>
   <g id="patch_31">
    <path d="M 914.931818 320.4 
L 927.613636 320.4 
L 927.613636 319.936101 
L 914.931818 319.936101 
z
" clip-path="url(#pbfd75a88e3)" style="fill: #ee854a"/>
   </g>
   <g id="patch_32">
    <path d="M 623.25 320.4 
L 635.931818 320.4 
L 635.931818 317.199696 
L 623.25 317.199696 
z
" clip-path="url(#pbfd75a88e3)" style="fill: #6acc64"/>
   </g>
   <g id="patch_33">
    <path d="M 699.340909 320.4 
L 712.022727 320.4 
L 712.022727 308.632017 
L 699.340909 308.632017 
z
" clip-path="url(#pbfd75a88e3)" style="fill: #6acc64"/>
   </g>
   <g id="patch_34">
    <path d="M 775.431818 320.4 
L 788.113636 320.4 
L 788.113636 320.160198 
L 775.431818 320.160198 
z
" clip-path="url(#pbfd75a88e3)" style="fill: #6acc64"/>
   </g>
   <g id="patch_35">
    <path d="M 851.522727 320.4 
L 864.204545 320.4 
L 864.204545 315.397959 
L 851.522727 315.397959 
z
" clip-path="url(#pbfd75a88e3)" style="fill: #6acc64"/>
   </g>
   <g id="patch_36">
    <path d="M 927.613636 320.4 
L 940.295455 320.4 
L 940.295455 316.280824 
L 927.613636 316.280824 
z
" clip-path="url(#pbfd75a88e3)" style="fill: #6acc64"/>
   </g>
   <g id="patch_37">
    <path d="M 635.931818 320.4 
L 648.613636 320.4 
L 648.613636 56.4 
L 635.931818 56.4 
z
" clip-path="url(#pbfd75a88e3)" style="fill: #d65f5f"/>
   </g>
   <g id="patch_38">
    <path d="M 712.022727 320.4 
L 724.704545 320.4 
L 724.704545 188.15533 
L 712.022727 188.15533 
z
" clip-path="url(#pbfd75a88e3)" style="fill: #d65f5f"/>
   </g>
   <g id="patch_39">
    <path d="M 788.113636 320.4 
L 800.795455 320.4 
L 800.795455 313.629627 
L 788.113636 313.629627 
z
" clip-path="url(#pbfd75a88e3)" style="fill: #d65f5f"/>
   </g>
   <g id="patch_40">
    <path d="M 864.204545 320.4 
L 876.886364 320.4 
L 876.886364 224.693576 
L 864.204545 224.693576 
z
" clip-path="url(#pbfd75a88e3)" style="fill: #d65f5f"/>
   </g>
   <g id="patch_41">
    <path d="M 940.295455 320.4 
L 952.977273 320.4 
L 952.977273 277.936238 
L 940.295455 277.936238 
z
" clip-path="url(#pbfd75a88e3)" style="fill: #d65f5f"/>
   </g>
   <g id="matplotlib.axis_3">
    <g id="xtick_6">
     <g id="line2d_14">
      <g>
       <use xlink:href="#m46008ab62e" x="629.590909" y="320.4" style="stroke: #000000; stroke-width: 0.8"/>
      </g>
     </g>
     <g id="text_19">
      <!-- sqlite -->
      <g transform="translate(615.997159 334.998438)scale(0.1 -0.1)">
       <use xlink:href="#DejaVuSans-73"/>
       <use xlink:href="#DejaVuSans-71" x="52.099609"/>
       <use xlink:href="#DejaVuSans-6c" x="115.576172"/>
       <use xlink:href="#DejaVuSans-69" x="143.359375"/>
       <use xlink:href="#DejaVuSans-74" x="171.142578"/>
       <use xlink:href="#DejaVuSans-65" x="210.351562"/>
      </g>
     </g>
    </g>
    <g id="xtick_7">
     <g id="line2d_15">
      <g>
       <use xlink:href="#m46008ab62e" x="705.681818" y="320.4" style="stroke: #000000; stroke-width: 0.8"/>
      </g>
     </g>
     <g id="text_20">
      <!-- qdrant -->
      <g transform="translate(689.084943 334.998438)scale(0.1 -0.1)">
       <use xlink:href="#DejaVuSans-71"/>
       <use xlink:href="#DejaVuSans-64" x="63.476562"/>
       <use xlink:href="#DejaVuSans-72" x="126.953125"/>
       <use xlink:href="#DejaVuSans-61" x="168.066406"/>
       <use xlink:href="#DejaVuSans-6e" x="229.345703"/>
       <use xlink:href="#DejaVuSans-74" x="292.724609"/>
      </g>
     </g>
    </g>
    <g id="xtick_8">
     <g id="line2d_16">
      <g>
       <use xlink:href="#m46008ab62e" x="781.772727" y="320.4" style="stroke: #000000; stroke-width: 0.8"/>
      </g>
     </g>
     <g id="text_21">
      <!-- annlite -->
      <g transform="translate(764.556321 334.998438)scale(0.1 -0.1)">
       <use xlink:href="#DejaVuSans-61"/>
       <use xlink:href="#DejaVuSans-6e" x="61.279297"/>
       <use xlink:href="#DejaVuSans-6e" x="124.658203"/>
       <use xlink:href="#DejaVuSans-6c" x="188.037109"/>
       <use xlink:href="#DejaVuSans-69" x="215.820312"/>
       <use xlink:href="#DejaVuSans-74" x="243.603516"/>
       <use xlink:href="#DejaVuSans-65" x="282.8125"/>
      </g>
     </g>
    </g>
    <g id="xtick_9">
     <g id="line2d_17">
      <g>
       <use xlink:href="#m46008ab62e" x="857.863636" y="320.4" style="stroke: #000000; stroke-width: 0.8"/>
      </g>
     </g>
     <g id="text_22">
      <!-- weaviate -->
      <g transform="translate(835.18473 334.998438)scale(0.1 -0.1)">
       <use xlink:href="#DejaVuSans-77"/>
       <use xlink:href="#DejaVuSans-65" x="81.787109"/>
       <use xlink:href="#DejaVuSans-61" x="143.310547"/>
       <use xlink:href="#DejaVuSans-76" x="204.589844"/>
       <use xlink:href="#DejaVuSans-69" x="263.769531"/>
       <use xlink:href="#DejaVuSans-61" x="291.552734"/>
       <use xlink:href="#DejaVuSans-74" x="352.832031"/>
       <use xlink:href="#DejaVuSans-65" x="392.041016"/>
      </g>
     </g>
    </g>
    <g id="xtick_10">
     <g id="line2d_18">
      <g>
       <use xlink:href="#m46008ab62e" x="933.954545" y="320.4" style="stroke: #000000; stroke-width: 0.8"/>
      </g>
     </g>
     <g id="text_23">
      <!-- elasticsearch -->
      <g transform="translate(901.115483 334.998438)scale(0.1 -0.1)">
       <use xlink:href="#DejaVuSans-65"/>
       <use xlink:href="#DejaVuSans-6c" x="61.523438"/>
       <use xlink:href="#DejaVuSans-61" x="89.306641"/>
       <use xlink:href="#DejaVuSans-73" x="150.585938"/>
       <use xlink:href="#DejaVuSans-74" x="202.685547"/>
       <use xlink:href="#DejaVuSans-69" x="241.894531"/>
       <use xlink:href="#DejaVuSans-63" x="269.677734"/>
       <use xlink:href="#DejaVuSans-73" x="324.658203"/>
       <use xlink:href="#DejaVuSans-65" x="376.757812"/>
       <use xlink:href="#DejaVuSans-61" x="438.28125"/>
       <use xlink:href="#DejaVuSans-72" x="499.560547"/>
       <use xlink:href="#DejaVuSans-63" x="538.423828"/>
       <use xlink:href="#DejaVuSans-68" x="593.404297"/>
      </g>
     </g>
    </g>
   </g>
   <g id="matplotlib.axis_4">
    <g id="ytick_9">
     <g id="line2d_19">
      <g>
       <use xlink:href="#m788bbb46e1" x="591.545455" y="320.4" style="stroke: #000000; stroke-width: 0.8"/>
      </g>
     </g>
     <g id="text_24">
      <!-- 0 -->
      <g transform="translate(578.182955 324.199219)scale(0.1 -0.1)">
       <use xlink:href="#DejaVuSans-30"/>
      </g>
     </g>
    </g>
    <g id="ytick_10">
     <g id="line2d_20">
      <g>
       <use xlink:href="#m788bbb46e1" x="591.545455" y="261.028475" style="stroke: #000000; stroke-width: 0.8"/>
      </g>
     </g>
     <g id="text_25">
      <!-- 1000 -->
      <g transform="translate(559.095455 264.827693)scale(0.1 -0.1)">
       <use xlink:href="#DejaVuSans-31"/>
       <use xlink:href="#DejaVuSans-30" x="63.623047"/>
       <use xlink:href="#DejaVuSans-30" x="127.246094"/>
       <use xlink:href="#DejaVuSans-30" x="190.869141"/>
      </g>
     </g>
    </g>
    <g id="ytick_11">
     <g id="line2d_21">
      <g>
       <use xlink:href="#m788bbb46e1" x="591.545455" y="201.656949" style="stroke: #000000; stroke-width: 0.8"/>
      </g>
     </g>
     <g id="text_26">
      <!-- 2000 -->
      <g transform="translate(559.095455 205.456168)scale(0.1 -0.1)">
       <use xlink:href="#DejaVuSans-32"/>
       <use xlink:href="#DejaVuSans-30" x="63.623047"/>
       <use xlink:href="#DejaVuSans-30" x="127.246094"/>
       <use xlink:href="#DejaVuSans-30" x="190.869141"/>
      </g>
     </g>
    </g>
    <g id="ytick_12">
     <g id="line2d_22">
      <g>
       <use xlink:href="#m788bbb46e1" x="591.545455" y="142.285424" style="stroke: #000000; stroke-width: 0.8"/>
      </g>
     </g>
     <g id="text_27">
      <!-- 3000 -->
      <g transform="translate(559.095455 146.084643)scale(0.1 -0.1)">
       <defs>
        <path id="DejaVuSans-33" d="M 2597 2516 
Q 3050 2419 3304 2112 
Q 3559 1806 3559 1356 
Q 3559 666 3084 287 
Q 2609 -91 1734 -91 
Q 1441 -91 1130 -33 
Q 819 25 488 141 
L 488 750 
Q 750 597 1062 519 
Q 1375 441 1716 441 
Q 2309 441 2620 675 
Q 2931 909 2931 1356 
Q 2931 1769 2642 2001 
Q 2353 2234 1838 2234 
L 1294 2234 
L 1294 2753 
L 1863 2753 
Q 2328 2753 2575 2939 
Q 2822 3125 2822 3475 
Q 2822 3834 2567 4026 
Q 2313 4219 1838 4219 
Q 1578 4219 1281 4162 
Q 984 4106 628 3988 
L 628 4550 
Q 988 4650 1302 4700 
Q 1616 4750 1894 4750 
Q 2613 4750 3031 4423 
Q 3450 4097 3450 3541 
Q 3450 3153 3228 2886 
Q 3006 2619 2597 2516 
z
" transform="scale(0.015625)"/>
       </defs>
       <use xlink:href="#DejaVuSans-33"/>
       <use xlink:href="#DejaVuSans-30" x="63.623047"/>
       <use xlink:href="#DejaVuSans-30" x="127.246094"/>
       <use xlink:href="#DejaVuSans-30" x="190.869141"/>
      </g>
     </g>
    </g>
    <g id="ytick_13">
     <g id="line2d_23">
      <g>
       <use xlink:href="#m788bbb46e1" x="591.545455" y="82.913898" style="stroke: #000000; stroke-width: 0.8"/>
      </g>
     </g>
     <g id="text_28">
      <!-- 4000 -->
      <g transform="translate(559.095455 86.713117)scale(0.1 -0.1)">
       <use xlink:href="#DejaVuSans-34"/>
       <use xlink:href="#DejaVuSans-30" x="63.623047"/>
       <use xlink:href="#DejaVuSans-30" x="127.246094"/>
       <use xlink:href="#DejaVuSans-30" x="190.869141"/>
      </g>
     </g>
    </g>
    <g id="text_29">
     <!-- seconds -->
     <g transform="translate(553.015767 202.2375)rotate(-90)scale(0.1 -0.1)">
      <use xlink:href="#DejaVuSans-73"/>
      <use xlink:href="#DejaVuSans-65" x="52.099609"/>
      <use xlink:href="#DejaVuSans-63" x="113.623047"/>
      <use xlink:href="#DejaVuSans-6f" x="168.603516"/>
      <use xlink:href="#DejaVuSans-6e" x="229.785156"/>
      <use xlink:href="#DejaVuSans-64" x="293.164062"/>
      <use xlink:href="#DejaVuSans-73" x="356.640625"/>
     </g>
    </g>
   </g>
   <g id="patch_42">
    <path d="M 591.545455 320.4 
L 591.545455 43.2 
" style="fill: none; stroke: #000000; stroke-width: 0.8; stroke-linejoin: miter; stroke-linecap: square"/>
   </g>
   <g id="patch_43">
    <path d="M 972 320.4 
L 972 43.2 
" style="fill: none; stroke: #000000; stroke-width: 0.8; stroke-linejoin: miter; stroke-linecap: square"/>
   </g>
   <g id="patch_44">
    <path d="M 591.545455 320.4 
L 972 320.4 
" style="fill: none; stroke: #000000; stroke-width: 0.8; stroke-linejoin: miter; stroke-linecap: square"/>
   </g>
   <g id="patch_45">
    <path d="M 591.545455 43.2 
L 972 43.2 
" style="fill: none; stroke: #000000; stroke-width: 0.8; stroke-linejoin: miter; stroke-linecap: square"/>
   </g>
   <g id="text_30">
    <!-- Indexing per backend and dataset size -->
    <g transform="translate(665.520852 37.2)scale(0.12 -0.12)">
     <defs>
      <path id="DejaVuSans-49" d="M 628 4666 
L 1259 4666 
L 1259 0 
L 628 0 
L 628 4666 
z
" transform="scale(0.015625)"/>
      <path id="DejaVuSans-78" d="M 3513 3500 
L 2247 1797 
L 3578 0 
L 2900 0 
L 1881 1375 
L 863 0 
L 184 0 
L 1544 1831 
L 300 3500 
L 978 3500 
L 1906 2253 
L 2834 3500 
L 3513 3500 
z
" transform="scale(0.015625)"/>
      <path id="DejaVuSans-67" d="M 2906 1791 
Q 2906 2416 2648 2759 
Q 2391 3103 1925 3103 
Q 1463 3103 1205 2759 
Q 947 2416 947 1791 
Q 947 1169 1205 825 
Q 1463 481 1925 481 
Q 2391 481 2648 825 
Q 2906 1169 2906 1791 
z
M 3481 434 
Q 3481 -459 3084 -895 
Q 2688 -1331 1869 -1331 
Q 1566 -1331 1297 -1286 
Q 1028 -1241 775 -1147 
L 775 -588 
Q 1028 -725 1275 -790 
Q 1522 -856 1778 -856 
Q 2344 -856 2625 -561 
Q 2906 -266 2906 331 
L 2906 616 
Q 2728 306 2450 153 
Q 2172 0 1784 0 
Q 1141 0 747 490 
Q 353 981 353 1791 
Q 353 2603 747 3093 
Q 1141 3584 1784 3584 
Q 2172 3584 2450 3431 
Q 2728 3278 2906 2969 
L 2906 3500 
L 3481 3500 
L 3481 434 
z
" transform="scale(0.015625)"/>
     </defs>
     <use xlink:href="#DejaVuSans-49"/>
     <use xlink:href="#DejaVuSans-6e" x="29.492188"/>
     <use xlink:href="#DejaVuSans-64" x="92.871094"/>
     <use xlink:href="#DejaVuSans-65" x="156.347656"/>
     <use xlink:href="#DejaVuSans-78" x="216.121094"/>
     <use xlink:href="#DejaVuSans-69" x="275.300781"/>
     <use xlink:href="#DejaVuSans-6e" x="303.083984"/>
     <use xlink:href="#DejaVuSans-67" x="366.462891"/>
     <use xlink:href="#DejaVuSans-20" x="429.939453"/>
     <use xlink:href="#DejaVuSans-70" x="461.726562"/>
     <use xlink:href="#DejaVuSans-65" x="525.203125"/>
     <use xlink:href="#DejaVuSans-72" x="586.726562"/>
     <use xlink:href="#DejaVuSans-20" x="627.839844"/>
     <use xlink:href="#DejaVuSans-62" x="659.626953"/>
     <use xlink:href="#DejaVuSans-61" x="723.103516"/>
     <use xlink:href="#DejaVuSans-63" x="784.382812"/>
     <use xlink:href="#DejaVuSans-6b" x="839.363281"/>
     <use xlink:href="#DejaVuSans-65" x="893.648438"/>
     <use xlink:href="#DejaVuSans-6e" x="955.171875"/>
     <use xlink:href="#DejaVuSans-64" x="1018.550781"/>
     <use xlink:href="#DejaVuSans-20" x="1082.027344"/>
     <use xlink:href="#DejaVuSans-61" x="1113.814453"/>
     <use xlink:href="#DejaVuSans-6e" x="1175.09375"/>
     <use xlink:href="#DejaVuSans-64" x="1238.472656"/>
     <use xlink:href="#DejaVuSans-20" x="1301.949219"/>
     <use xlink:href="#DejaVuSans-64" x="1333.736328"/>
     <use xlink:href="#DejaVuSans-61" x="1397.212891"/>
     <use xlink:href="#DejaVuSans-74" x="1458.492188"/>
     <use xlink:href="#DejaVuSans-61" x="1497.701172"/>
     <use xlink:href="#DejaVuSans-73" x="1558.980469"/>
     <use xlink:href="#DejaVuSans-65" x="1611.080078"/>
     <use xlink:href="#DejaVuSans-74" x="1672.603516"/>
     <use xlink:href="#DejaVuSans-20" x="1711.8125"/>
     <use xlink:href="#DejaVuSans-73" x="1743.599609"/>
     <use xlink:href="#DejaVuSans-69" x="1795.699219"/>
     <use xlink:href="#DejaVuSans-7a" x="1823.482422"/>
     <use xlink:href="#DejaVuSans-65" x="1875.972656"/>
    </g>
   </g>
   <g id="legend_2">
    <g id="patch_46">
     <path d="M 908.121875 95.234375 
L 965 95.234375 
Q 967 95.234375 967 93.234375 
L 967 50.2 
Q 967 48.2 965 48.2 
L 908.121875 48.2 
Q 906.121875 48.2 906.121875 50.2 
L 906.121875 93.234375 
Q 906.121875 95.234375 908.121875 95.234375 
z
" style="fill: #ffffff; opacity: 0.8; stroke: #cccccc; stroke-linejoin: miter"/>
    </g>
    <g id="patch_47">
     <path d="M 910.121875 59.798437 
L 930.121875 59.798437 
L 930.121875 52.798437 
L 910.121875 52.798437 
z
" style="fill: #ee854a"/>
    </g>
    <g id="text_31">
     <!-- 10k -->
     <g transform="translate(938.121875 59.798437)scale(0.1 -0.1)">
      <use xlink:href="#DejaVuSans-31"/>
      <use xlink:href="#DejaVuSans-30" x="63.623047"/>
      <use xlink:href="#DejaVuSans-6b" x="127.246094"/>
     </g>
    </g>
    <g id="patch_48">
     <path d="M 910.121875 74.476562 
L 930.121875 74.476562 
L 930.121875 67.476562 
L 910.121875 67.476562 
z
" style="fill: #6acc64"/>
    </g>
    <g id="text_32">
     <!-- 100k -->
     <g transform="translate(938.121875 74.476562)scale(0.1 -0.1)">
      <use xlink:href="#DejaVuSans-31"/>
      <use xlink:href="#DejaVuSans-30" x="63.623047"/>
      <use xlink:href="#DejaVuSans-30" x="127.246094"/>
      <use xlink:href="#DejaVuSans-6b" x="190.869141"/>
     </g>
    </g>
    <g id="patch_49">
     <path d="M 910.121875 89.154687 
L 930.121875 89.154687 
L 930.121875 82.154687 
L 910.121875 82.154687 
z
" style="fill: #d65f5f"/>
    </g>
    <g id="text_33">
     <!-- 1M -->
     <g transform="translate(938.121875 89.154687)scale(0.1 -0.1)">
      <use xlink:href="#DejaVuSans-31"/>
      <use xlink:href="#DejaVuSans-4d" x="63.623047"/>
     </g>
    </g>
   </g>
  </g>
 </g>
 <defs>
  <clipPath id="pc8ab5e2891">
   <rect x="135" y="43.2" width="380.454545" height="277.2"/>
  </clipPath>
  <clipPath id="pbfd75a88e3">
   <rect x="591.545455" y="43.2" width="380.454545" height="277.2"/>
  </clipPath>
 </defs>
</svg>
